<svg id="Grupo_82254" data-name="Grupo 82254" xmlns="http://www.w3.org/2000/svg" width="68.758" height="65.744" viewBox="0 0 68.758 65.744">
  <path id="Trazado_115634" data-name="Trazado 115634" d="M280.78-67.657a6.259,6.259,0,0,1-6.253-6.253,6.26,6.26,0,0,1,6.253-6.253,6.261,6.261,0,0,1,6.253,6.253A6.26,6.26,0,0,1,280.78-67.657Zm0-10a3.752,3.752,0,0,0-3.748,3.748,3.752,3.752,0,0,0,3.748,3.748,3.752,3.752,0,0,0,3.748-3.748A3.753,3.753,0,0,0,280.78-77.658Z" transform="translate(-225.988 129.009)" fill="#5c22c3"/>
  <path id="Trazado_115635" data-name="Trazado 115635" d="M292.054-64.928a1.253,1.253,0,0,1-1.253-1.253,5.042,5.042,0,0,0-4.5-5.007,6.219,6.219,0,0,1-4.455,1.868,6.217,6.217,0,0,1-4.455-1.868,5.044,5.044,0,0,0-4.5,5.007,1.252,1.252,0,0,1-1.252,1.253,1.253,1.253,0,0,1-1.253-1.253,7.55,7.55,0,0,1,7.543-7.541,1.253,1.253,0,0,1,.981.474,3.727,3.727,0,0,0,2.935,1.423,3.732,3.732,0,0,0,2.935-1.423,1.253,1.253,0,0,1,.981-.474,7.55,7.55,0,0,1,7.541,7.541A1.252,1.252,0,0,1,292.054-64.928Z" transform="translate(-227.056 130.671)" fill="#5c22c3"/>
  <path id="Trazado_115636" data-name="Trazado 115636" d="M264.556-67.657A6.26,6.26,0,0,1,258.3-73.91a6.261,6.261,0,0,1,6.254-6.253,6.26,6.26,0,0,1,6.252,6.253A6.259,6.259,0,0,1,264.556-67.657Zm0-10a3.752,3.752,0,0,0-3.748,3.748,3.752,3.752,0,0,0,3.748,3.748A3.751,3.751,0,0,0,268.3-73.91,3.752,3.752,0,0,0,264.556-77.658Z" transform="translate(-230.176 129.009)" fill="#5c22c3"/>
  <path id="Trazado_115637" data-name="Trazado 115637" d="M275.83-64.928a1.253,1.253,0,0,1-1.253-1.253,5.042,5.042,0,0,0-4.5-5.007,6.214,6.214,0,0,1-4.454,1.868,6.215,6.215,0,0,1-4.455-1.868,5.044,5.044,0,0,0-4.5,5.007,1.253,1.253,0,0,1-1.253,1.253,1.252,1.252,0,0,1-1.252-1.253,7.55,7.55,0,0,1,7.541-7.541,1.253,1.253,0,0,1,.981.474,3.729,3.729,0,0,0,2.937,1.423,3.732,3.732,0,0,0,2.935-1.423,1.253,1.253,0,0,1,.981-.474,7.55,7.55,0,0,1,7.541,7.541A1.252,1.252,0,0,1,275.83-64.928Z" transform="translate(-231.244 130.671)" fill="#5c22c3"/>
  <path id="Trazado_115638" data-name="Trazado 115638" d="M264.671-105.361a6.82,6.82,0,0,1-6.813-6.813,6.82,6.82,0,0,1,6.813-6.813,6.82,6.82,0,0,1,6.812,6.813A6.82,6.82,0,0,1,264.671-105.361Zm0-11.121a4.313,4.313,0,0,0-4.308,4.308,4.312,4.312,0,0,0,4.308,4.307,4.311,4.311,0,0,0,4.307-4.307A4.312,4.312,0,0,0,264.671-116.482Z" transform="translate(-230.291 118.987)" fill="#5c22c3"/>
  <path id="Trazado_115639" data-name="Trazado 115639" d="M277.206-97.857h-22.7a1.253,1.253,0,0,1-1.253-1.253v-3.452a8.209,8.209,0,0,1,4.548-7.371,1.254,1.254,0,0,1,1.681.557,1.253,1.253,0,0,1-.556,1.682,5.713,5.713,0,0,0-3.167,5.132v2.2h20.191v-2.2a5.73,5.73,0,0,0-3.09-5.093,1.253,1.253,0,0,1-.531-1.69,1.252,1.252,0,0,1,1.69-.531,8.225,8.225,0,0,1,4.436,7.314v3.452A1.253,1.253,0,0,1,277.206-97.857Z" transform="translate(-231.479 121.29)" fill="#5c22c3"/>
  <path id="Trazado_115640" data-name="Trazado 115640" d="M272.668-79.1a6.26,6.26,0,0,1-6.253-6.254,6.259,6.259,0,0,1,6.253-6.252,6.26,6.26,0,0,1,6.253,6.252A6.261,6.261,0,0,1,272.668-79.1Zm0-10a3.751,3.751,0,0,0-3.748,3.747,3.753,3.753,0,0,0,3.748,3.749,3.754,3.754,0,0,0,3.748-3.749A3.752,3.752,0,0,0,272.668-89.1Z" transform="translate(-228.082 126.056)" fill="#5c22c3"/>
  <path id="Trazado_115641" data-name="Trazado 115641" d="M283.942-76.368a1.252,1.252,0,0,1-1.253-1.252,5.044,5.044,0,0,0-4.5-5.009,6.21,6.21,0,0,1-4.454,1.87,6.213,6.213,0,0,1-4.455-1.87,5.045,5.045,0,0,0-4.5,5.009,1.251,1.251,0,0,1-1.252,1.252,1.252,1.252,0,0,1-1.253-1.252,7.55,7.55,0,0,1,7.541-7.543,1.253,1.253,0,0,1,.981.474,3.732,3.732,0,0,0,2.937,1.424,3.73,3.73,0,0,0,2.935-1.424,1.253,1.253,0,0,1,.981-.474,7.55,7.55,0,0,1,7.541,7.543A1.251,1.251,0,0,1,283.942-76.368Z" transform="translate(-229.15 127.718)" fill="#5c22c3"/>
  <path id="Trazado_115642" data-name="Trazado 115642" d="M256.443-79.1a6.26,6.26,0,0,1-6.252-6.254,6.259,6.259,0,0,1,6.252-6.252A6.26,6.26,0,0,1,262.7-85.35,6.261,6.261,0,0,1,256.443-79.1Zm0-10A3.751,3.751,0,0,0,252.7-85.35a3.752,3.752,0,0,0,3.747,3.749,3.753,3.753,0,0,0,3.748-3.749A3.751,3.751,0,0,0,256.443-89.1Z" transform="translate(-232.27 126.056)" fill="#5c22c3"/>
  <path id="Trazado_115643" data-name="Trazado 115643" d="M267.718-76.368a1.252,1.252,0,0,1-1.253-1.252,5.045,5.045,0,0,0-4.5-5.009,6.211,6.211,0,0,1-4.455,1.87,6.21,6.21,0,0,1-4.454-1.87,5.044,5.044,0,0,0-4.5,5.009,1.252,1.252,0,0,1-1.253,1.252,1.251,1.251,0,0,1-1.252-1.252,7.55,7.55,0,0,1,7.541-7.543,1.253,1.253,0,0,1,.981.474,3.73,3.73,0,0,0,2.935,1.424,3.73,3.73,0,0,0,2.936-1.424,1.253,1.253,0,0,1,.981-.474,7.55,7.55,0,0,1,7.541,7.543A1.251,1.251,0,0,1,267.718-76.368Z" transform="translate(-233.338 127.718)" fill="#5c22c3"/>
  <path id="Trazado_115644" data-name="Trazado 115644" d="M248.331-67.657a6.26,6.26,0,0,1-6.253-6.253,6.261,6.261,0,0,1,6.253-6.253,6.261,6.261,0,0,1,6.254,6.253A6.26,6.26,0,0,1,248.331-67.657Zm0-10a3.753,3.753,0,0,0-3.748,3.748,3.752,3.752,0,0,0,3.748,3.748,3.753,3.753,0,0,0,3.749-3.748A3.754,3.754,0,0,0,248.331-77.658Z" transform="translate(-234.364 129.009)" fill="#5c22c3"/>
  <path id="Trazado_115645" data-name="Trazado 115645" d="M259.6-64.928a1.252,1.252,0,0,1-1.252-1.253,5.043,5.043,0,0,0-4.5-5.007A6.217,6.217,0,0,1,249.4-69.32a6.214,6.214,0,0,1-4.454-1.868,5.043,5.043,0,0,0-4.5,5.007,1.253,1.253,0,0,1-1.253,1.253,1.252,1.252,0,0,1-1.252-1.253,7.55,7.55,0,0,1,7.541-7.541,1.253,1.253,0,0,1,.981.474,3.729,3.729,0,0,0,2.935,1.423,3.735,3.735,0,0,0,2.936-1.423,1.253,1.253,0,0,1,.981-.474,7.55,7.55,0,0,1,7.541,7.541A1.253,1.253,0,0,1,259.6-64.928Z" transform="translate(-235.432 130.671)" fill="#5c22c3"/>
  <path id="Trazado_115646" data-name="Trazado 115646" d="M289.185-83.635a1.252,1.252,0,0,1-1.253-1.252v-10.28h-40.07v10.28a1.251,1.251,0,0,1-1.252,1.252,1.252,1.252,0,0,1-1.253-1.252V-96.42a1.252,1.252,0,0,1,1.253-1.252h42.575a1.251,1.251,0,0,1,1.252,1.252v11.533A1.251,1.251,0,0,1,289.185-83.635Z" transform="translate(-233.518 124.489)" fill="#5c22c3"/>
  <path id="Trazado_115647" data-name="Trazado 115647" d="M290.592-93.959h-44.66a1.991,1.991,0,0,1-1.988-1.989v-4.417a1.99,1.99,0,0,1,1.988-1.988h44.66a1.99,1.99,0,0,1,1.988,1.988v4.417A1.991,1.991,0,0,1,290.592-93.959Zm-44.143-2.5h43.626v-3.384H246.449Z" transform="translate(-233.883 123.281)" fill="#5c22c3"/>
  <path id="Trazado_115648" data-name="Trazado 115648" d="M258.921-99.175a1.252,1.252,0,0,1-1.252-1.253v-3.281a1.252,1.252,0,0,1,1.252-1.253,1.253,1.253,0,0,1,1.253,1.253v3.281A1.253,1.253,0,0,1,258.921-99.175Z" transform="translate(-230.34 122.607)" fill="#5c22c3"/>
  <path id="Trazado_115649" data-name="Trazado 115649" d="M268.138-99.175a1.253,1.253,0,0,1-1.253-1.253v-3.281a1.253,1.253,0,0,1,1.253-1.253,1.252,1.252,0,0,1,1.252,1.253v3.281A1.252,1.252,0,0,1,268.138-99.175Z" transform="translate(-227.961 122.607)" fill="#5c22c3"/>
  <path id="Trazado_115650" data-name="Trazado 115650" d="M303.452-66.218H237.2a1.253,1.253,0,0,1-1.253-1.253,1.252,1.252,0,0,1,1.253-1.252h66.252a1.252,1.252,0,0,1,1.253,1.252A1.253,1.253,0,0,1,303.452-66.218Z" transform="translate(-235.947 131.962)" fill="#5c22c3"/>
</svg>
