<svg id="Grupo_82252" data-name="Grupo 82252" xmlns="http://www.w3.org/2000/svg" width="59.792" height="67.714" viewBox="0 0 59.792 67.714">
  <path id="Trazado_115651" data-name="Trazado 115651" d="M423.973-87.945a6.566,6.566,0,0,1-6.559-6.559,6.566,6.566,0,0,1,6.559-6.557,6.566,6.566,0,0,1,6.559,6.557A6.566,6.566,0,0,1,423.973-87.945Zm0-10.611a4.058,4.058,0,0,0-4.054,4.052,4.058,4.058,0,0,0,4.054,4.054,4.058,4.058,0,0,0,4.054-4.054A4.058,4.058,0,0,0,423.973-98.556Z" transform="translate(-391.4 111.32)" fill="#5c22c3"/>
  <path id="Trazado_115652" data-name="Trazado 115652" d="M427.168-81.274H414.276a1.252,1.252,0,0,1-1.252-1.252V-86.3a7.935,7.935,0,0,1,7.926-7.926,1.253,1.253,0,0,1,.981.474,4.03,4.03,0,0,0,3.174,1.54,4.031,4.031,0,0,0,3.174-1.54,1.253,1.253,0,0,1,.981-.474A7.887,7.887,0,0,1,435.5-91.2a1.253,1.253,0,0,1-.211,1.759,1.254,1.254,0,0,1-1.759-.211A5.4,5.4,0,0,0,429.8-91.7a6.514,6.514,0,0,1-4.7,1.988,6.518,6.518,0,0,1-4.7-1.987,5.428,5.428,0,0,0-4.879,5.394v2.523h11.639a1.252,1.252,0,0,1,1.252,1.253A1.251,1.251,0,0,1,427.168-81.274Z" transform="translate(-392.533 113.084)" fill="#5c22c3"/>
  <path id="Trazado_115653" data-name="Trazado 115653" d="M411.031-83.346H403.2a1.252,1.252,0,0,1-1.253-1.252,1.253,1.253,0,0,1,1.253-1.253h7.832a1.252,1.252,0,0,1,1.252,1.253A1.251,1.251,0,0,1,411.031-83.346Z" transform="translate(-395.392 115.246)" fill="#5c22c3"/>
  <path id="Trazado_115654" data-name="Trazado 115654" d="M411.031-89.091H403.2a1.252,1.252,0,0,1-1.253-1.252A1.253,1.253,0,0,1,403.2-91.6h7.832a1.252,1.252,0,0,1,1.252,1.253A1.251,1.251,0,0,1,411.031-89.091Z" transform="translate(-395.392 113.763)" fill="#5c22c3"/>
  <path id="Trazado_115655" data-name="Trazado 115655" d="M427-78.193H403.2a1.253,1.253,0,0,1-1.253-1.253A1.252,1.252,0,0,1,403.2-80.7H427a1.251,1.251,0,0,1,1.252,1.252A1.252,1.252,0,0,1,427-78.193Z" transform="translate(-395.392 116.576)" fill="#5c22c3"/>
  <path id="Trazado_115656" data-name="Trazado 115656" d="M431.082-73.592H403.36a1.251,1.251,0,0,1-1.252-1.252A1.252,1.252,0,0,1,403.36-76.1h27.722a1.252,1.252,0,0,1,1.252,1.253A1.251,1.251,0,0,1,431.082-73.592Z" transform="translate(-395.351 117.764)" fill="#5c22c3"/>
  <path id="Trazado_115657" data-name="Trazado 115657" d="M435.714-68.99H403.522a1.252,1.252,0,0,1-1.252-1.253,1.251,1.251,0,0,1,1.252-1.252h32.192a1.252,1.252,0,0,1,1.252,1.252A1.253,1.253,0,0,1,435.714-68.99Z" transform="translate(-395.309 118.952)" fill="#5c22c3"/>
  <path id="Trazado_115658" data-name="Trazado 115658" d="M432.827-62.4H419.819a1.252,1.252,0,0,1-1.253-1.252,1.253,1.253,0,0,1,1.253-1.253h13.008a1.253,1.253,0,0,1,1.253,1.253A1.252,1.252,0,0,1,432.827-62.4Z" transform="translate(-391.102 120.653)" fill="#5c22c3"/>
  <path id="Trazado_115659" data-name="Trazado 115659" d="M411.031-94.835H403.2a1.253,1.253,0,0,1-1.253-1.253A1.252,1.252,0,0,1,403.2-97.34h7.832a1.251,1.251,0,0,1,1.252,1.252A1.252,1.252,0,0,1,411.031-94.835Z" transform="translate(-395.392 112.28)" fill="#5c22c3"/>
  <path id="Trazado_115660" data-name="Trazado 115660" d="M446.319-42.465h-35.97a1.25,1.25,0,0,1-.886-.367L397.1-55.189a1.252,1.252,0,0,1-.367-.886V-104.23a1.253,1.253,0,0,1,1.253-1.252h48.329a1.252,1.252,0,0,1,1.252,1.252v12.384a1.252,1.252,0,0,1-1.252,1.253,1.253,1.253,0,0,1-1.253-1.253v-11.131H399.243v46.384L410.867-44.97h34.2V-60.743a1.252,1.252,0,0,1,1.253-1.252,1.251,1.251,0,0,1,1.252,1.252v17.026A1.251,1.251,0,0,1,446.319-42.465Z" transform="translate(-396.737 110.179)" fill="#5c22c3"/>
  <path id="Trazado_115661" data-name="Trazado 115661" d="M449.951-83.733a1.252,1.252,0,0,1-1.252-1.253V-106.71H402.876v3.444a1.252,1.252,0,0,1-1.252,1.253,1.253,1.253,0,0,1-1.253-1.253v-4.7a1.252,1.252,0,0,1,1.253-1.252h48.327a1.252,1.252,0,0,1,1.253,1.252v22.977A1.253,1.253,0,0,1,449.951-83.733Z" transform="translate(-395.799 109.215)" fill="#5c22c3"/>
  <path id="Trazado_115662" data-name="Trazado 115662" d="M440.974-55.152H436.4a1.253,1.253,0,0,1-1.253-1.253,1.252,1.252,0,0,1,1.253-1.252h3.319V-73.274a1.251,1.251,0,0,1,1.252-1.252,1.252,1.252,0,0,1,1.253,1.252v16.869A1.253,1.253,0,0,1,440.974-55.152Z" transform="translate(-386.821 118.169)" fill="#5c22c3"/>
  <path id="Trazado_115663" data-name="Trazado 115663" d="M410.349-52.345a1.249,1.249,0,0,1-.886-.367L397.1-65.069a1.252,1.252,0,0,1-.272-1.365,1.252,1.252,0,0,1,1.158-.772h12.359a1.251,1.251,0,0,1,1.252,1.252V-53.6a1.251,1.251,0,0,1-.773,1.156A1.23,1.23,0,0,1,410.349-52.345ZM401.015-64.7l8.081,8.081V-64.7Z" transform="translate(-396.737 120.059)" fill="#5c22c3"/>
  <path id="Trazado_115664" data-name="Trazado 115664" d="M435.907-69.692a9.888,9.888,0,0,1-9.876-9.876,9.887,9.887,0,0,1,9.876-9.876,9.888,9.888,0,0,1,9.876,9.876A9.888,9.888,0,0,1,435.907-69.692Zm0-17.248a7.379,7.379,0,0,0-7.371,7.371,7.38,7.38,0,0,0,7.371,7.371,7.38,7.38,0,0,0,7.371-7.371A7.379,7.379,0,0,0,435.907-86.94Z" transform="translate(-389.175 114.318)" fill="#5c22c3"/>
  <path id="Trazado_115665" data-name="Trazado 115665" d="M434.138-84.252a1.252,1.252,0,0,1-1.253-1.252v-5.219a1.253,1.253,0,0,1,1.253-1.253,1.252,1.252,0,0,1,1.252,1.253V-85.5A1.251,1.251,0,0,1,434.138-84.252Z" transform="translate(-387.406 113.665)" fill="#5c22c3"/>
  <path id="Trazado_115666" data-name="Trazado 115666" d="M444.594-80.086h-5.219a1.252,1.252,0,0,1-1.253-1.252,1.253,1.253,0,0,1,1.253-1.253h5.219a1.252,1.252,0,0,1,1.252,1.253A1.251,1.251,0,0,1,444.594-80.086Z" transform="translate(-386.054 116.088)" fill="#5c22c3"/>
  <path id="Trazado_115667" data-name="Trazado 115667" d="M434.345-69.63a1.252,1.252,0,0,1-1.252-1.252V-76.1a1.252,1.252,0,0,1,1.252-1.253A1.253,1.253,0,0,1,435.6-76.1v5.219A1.253,1.253,0,0,1,434.345-69.63Z" transform="translate(-387.352 117.439)" fill="#5c22c3"/>
  <path id="Trazado_115668" data-name="Trazado 115668" d="M430.18-80.086h-5.22a1.252,1.252,0,0,1-1.252-1.252,1.253,1.253,0,0,1,1.252-1.253h5.22a1.253,1.253,0,0,1,1.252,1.253A1.252,1.252,0,0,1,430.18-80.086Z" transform="translate(-389.775 116.088)" fill="#5c22c3"/>
</svg>
