<svg xmlns="http://www.w3.org/2000/svg" width="932.78" height="434.334" viewBox="0 0 932.78 434.334">
  <g id="Grupo_82343" data-name="Grupo 82343" transform="translate(-334 -2134.105)">
    <g id="Grupo_80940" data-name="Grupo 80940" transform="translate(334 2115.578)">
      <g id="Grupo_80926" data-name="Grupo 80926" transform="translate(0 18.527)">
        <g id="Grupo_80898" data-name="Grupo 80898" transform="translate(55.136 45.969)">
          <path id="Trazado_114258" data-name="Trazado 114258" d="M89.589,200.681a1.856,1.856,0,0,1-1.846-2.053l1.571-14.793a7.326,7.326,0,0,0-.733-3.984,19.837,19.837,0,0,1-2.065-8.733c0-14.425,16.1-26.16,35.882-26.16s35.881,11.735,35.881,26.16-16.1,26.16-35.881,26.16a46.78,46.78,0,0,1-17.707-3.387,7.212,7.212,0,0,0-7.245,1.032l-6.7,5.352A1.858,1.858,0,0,1,89.589,200.681ZM122.4,148.673c-17.736,0-32.166,10.069-32.166,22.445a16.135,16.135,0,0,0,1.691,7.107,11.047,11.047,0,0,1,1.085,6l-1.1,10.365,3.219-2.572a10.919,10.919,0,0,1,10.984-1.564,43.044,43.044,0,0,0,16.288,3.105c17.735,0,32.166-10.069,32.166-22.445S140.133,148.673,122.4,148.673Z" transform="translate(-86.516 -144.958)" fill="#64b5f6"/>
          <ellipse id="Elipse_4861" data-name="Elipse 4861" cx="4.374" cy="4.374" rx="4.374" ry="4.374" transform="translate(15.549 22.11)" fill="#64b5f6"/>
          <ellipse id="Elipse_4862" data-name="Elipse 4862" cx="4.374" cy="4.374" rx="4.374" ry="4.374" transform="translate(31.295 22.11)" fill="#64b5f6"/>
          <ellipse id="Elipse_4863" data-name="Elipse 4863" cx="4.374" cy="4.374" rx="4.374" ry="4.374" transform="translate(47.042 22.11)" fill="#64b5f6"/>
          <ellipse id="Elipse_4864" data-name="Elipse 4864" cx="4.374" cy="4.374" rx="4.374" ry="4.374" transform="translate(83.458 54.77)" fill="#64b5f6"/>
          <ellipse id="Elipse_4865" data-name="Elipse 4865" cx="4.374" cy="4.374" rx="4.374" ry="4.374" transform="translate(67.711 54.77)" fill="#64b5f6"/>
          <ellipse id="Elipse_4866" data-name="Elipse 4866" cx="4.374" cy="4.374" rx="4.374" ry="4.374" transform="translate(51.965 54.77)" fill="#64b5f6"/>
          <path id="Trazado_114259" data-name="Trazado 114259" d="M208.2,248.765a1.854,1.854,0,0,1-1.159-.406l-6.7-5.351a7.208,7.208,0,0,0-7.249-1.032,46.793,46.793,0,0,1-17.706,3.387c-19.784,0-35.88-11.735-35.88-26.16a20.077,20.077,0,0,1,2.425-9.425,1.861,1.861,0,0,1,1.482-.984c11.941-1.047,21.962-6.626,26.149-14.558a1.858,1.858,0,0,1,1.482-.983c1.629-.143,3.008-.209,4.341-.209,19.785,0,35.881,11.735,35.881,26.159a19.841,19.841,0,0,1-2.063,8.732,7.329,7.329,0,0,0-.733,3.984l1.571,14.793a1.858,1.858,0,0,1-1.847,2.053Zm-12.357-11.049a10.923,10.923,0,0,1,6.821,2.389l3.22,2.573-1.1-10.367a11.048,11.048,0,0,1,1.085-6,16.142,16.142,0,0,0,1.689-7.106c0-12.376-14.43-22.445-32.166-22.445-.953,0-1.936.037-3.042.116-4.884,8.318-15.274,14.174-27.562,15.517a16.108,16.108,0,0,0-1.56,6.811c0,12.376,14.429,22.445,32.164,22.445a43.045,43.045,0,0,0,16.288-3.105A10.918,10.918,0,0,1,195.841,237.717Z" transform="translate(-103.515 -160.383)" fill="#64b5f6"/>
          <path id="Trazado_114260" data-name="Trazado 114260" d="M240.14,198.678a1.845,1.845,0,0,1-1.157-.407c-.9-.721-1.869-1.423-2.87-2.087a1.858,1.858,0,0,1,2.053-3.1c1.092.724,2.148,1.492,3.135,2.281a1.858,1.858,0,0,1-1.161,3.309Z" transform="translate(-134.238 -160.298)" fill="#64b5f6"/>
          <path id="Trazado_114261" data-name="Trazado 114261" d="M223.023,189.52a1.853,1.853,0,0,1-.745-.158,52.894,52.894,0,0,0-7.4-2.6,1.858,1.858,0,0,1,.976-3.585,56.59,56.59,0,0,1,7.914,2.788,1.858,1.858,0,0,1-.749,3.559Z" transform="translate(-127.254 -157.196)" fill="#64b5f6"/>
          <path id="Trazado_114262" data-name="Trazado 114262" d="M201.9,184.306a1.819,1.819,0,0,1-.241-.016q-1.774-.231-3.592-.362a1.858,1.858,0,0,1,.265-3.706q1.927.138,3.806.384a1.858,1.858,0,0,1-.238,3.7Z" transform="translate(-121.745 -156.269)" fill="#64b5f6"/>
        </g>
        <path id="Trazado_114327" data-name="Trazado 114327" d="M149.31,274.251h-73.2a34.278,34.278,0,0,1-29.6-17.092L9.9,193.766a34.278,34.278,0,0,1,0-34.184l36.6-63.393A34.278,34.278,0,0,1,76.109,79.1h73.2a34.279,34.279,0,0,1,29.6,17.092l36.6,63.393a34.275,34.275,0,0,1,0,34.184l-36.6,63.394A34.279,34.279,0,0,1,149.31,274.251ZM76.109,83.213A30.154,30.154,0,0,0,50.07,98.246l-36.6,63.394a30.148,30.148,0,0,0,0,30.067L50.07,255.1a30.152,30.152,0,0,0,26.039,15.033h73.2A30.15,30.15,0,0,0,175.349,255.1l36.6-63.394a30.151,30.151,0,0,0,0-30.067l-36.6-63.394A30.152,30.152,0,0,0,149.31,83.213Z" transform="translate(-5.339 -77.861)" fill="#fef536"/>
        <g id="Grupo_80911" data-name="Grupo 80911" transform="translate(1.647)">
          <path id="Trazado_114338" data-name="Trazado 114338" d="M151.735,272.433h-73.2a34.279,34.279,0,0,1-29.6-17.092l-36.6-63.394a34.277,34.277,0,0,1,0-34.184l36.6-63.394a34.28,34.28,0,0,1,29.6-17.092h73.2a34.28,34.28,0,0,1,29.6,17.092l36.6,63.394a34.277,34.277,0,0,1,0,34.184l-36.6,63.394A34.28,34.28,0,0,1,151.735,272.433ZM78.534,81.395A30.151,30.151,0,0,0,52.5,96.428L15.9,159.822a30.151,30.151,0,0,0,0,30.067l36.6,63.393a30.151,30.151,0,0,0,26.038,15.034h73.2a30.152,30.152,0,0,0,26.039-15.034l36.6-63.393a30.148,30.148,0,0,0,0-30.067l-36.6-63.394a30.152,30.152,0,0,0-26.039-15.034Z" transform="translate(-7.765 -77.278)" fill="#5c22c3"/>
        </g>
      </g>
    </g>
    <g id="Grupo_80941" data-name="Grupo 80941" transform="translate(573.621 2115.578)">
      <g id="Grupo_80927" data-name="Grupo 80927" transform="translate(0 18.527)">
        <g id="Grupo_80903" data-name="Grupo 80903" transform="translate(68.779 43.4)">
          <path id="Trazado_114298" data-name="Trazado 114298" d="M509.861,179.007a6.549,6.549,0,1,1,.014,0Zm0-10.173a3.614,3.614,0,1,0,3.614,3.607A3.593,3.593,0,0,0,509.859,168.834Z" transform="translate(-473.478 -149.104)" fill="#64b5f6"/>
          <path id="Trazado_114299" data-name="Trazado 114299" d="M495.227,207.406a1.471,1.471,0,0,1-1.472-1.466l-.031-8.689a8.506,8.506,0,0,1,7.52-8.473,47.232,47.232,0,0,1,5.575-.2,47.747,47.747,0,0,1,5.544.173,8.5,8.5,0,0,1,7.558,8.437l.031,8.686a1.472,1.472,0,0,1-2.944.012l-.03-8.688a5.56,5.56,0,0,0-4.943-5.519,44.486,44.486,0,0,0-5.21-.155,45.548,45.548,0,0,0-5.241.178,5.561,5.561,0,0,0-4.916,5.54l.03,8.685a1.472,1.472,0,0,1-1.466,1.478Z" transform="translate(-470.406 -156.38)" fill="#64b5f6"/>
          <path id="Trazado_114300" data-name="Trazado 114300" d="M499.262,208.925a27.89,27.89,0,1,1,19.727-8.158A27.8,27.8,0,0,1,499.262,208.925Zm0-52.838a24.958,24.958,0,1,0,17.646,7.308A24.8,24.8,0,0,0,499.262,156.086Z" transform="translate(-463.238 -145.015)" fill="#64b5f6"/>
          <path id="Trazado_114301" data-name="Trazado 114301" d="M515.41,144.314a1.541,1.541,0,0,1-.157-.008,33.774,33.774,0,0,0-3.516-.186,1.472,1.472,0,0,1,0-2.944,36.18,36.18,0,0,1,3.827.2,1.472,1.472,0,0,1-.153,2.935Z" transform="translate(-475.712 -141.176)" fill="#64b5f6"/>
          <path id="Trazado_114302" data-name="Trazado 114302" d="M549.091,167.949a1.473,1.473,0,0,1-1.39-.988,32.683,32.683,0,0,0-2.59-5.64,1.472,1.472,0,1,1,2.547-1.477,35.751,35.751,0,0,1,2.823,6.148,1.472,1.472,0,0,1-.906,1.874A1.449,1.449,0,0,1,549.091,167.949Zm-6.474-11.172a1.465,1.465,0,0,1-1.113-.509q-.78-.9-1.639-1.761a33.785,33.785,0,0,0-2.846-2.538,1.472,1.472,0,1,1,1.831-2.306,36.892,36.892,0,0,1,3.1,2.761q.933.936,1.782,1.918a1.472,1.472,0,0,1-1.113,2.435ZM532.5,148.75a1.46,1.46,0,0,1-.682-.168,33.243,33.243,0,0,0-5.747-2.347,1.472,1.472,0,0,1,.854-2.817,36.082,36.082,0,0,1,6.259,2.557,1.472,1.472,0,0,1-.684,2.776Z" transform="translate(-480.447 -141.874)" fill="#64b5f6"/>
          <path id="Trazado_114303" data-name="Trazado 114303" d="M562.4,191.139a1.472,1.472,0,0,1-1.469-1.411,33.137,33.137,0,0,0-.331-3.506,1.472,1.472,0,0,1,2.912-.431,36.691,36.691,0,0,1,.361,3.817,1.473,1.473,0,0,1-1.411,1.531Z" transform="translate(-491.853 -155.085)" fill="#64b5f6"/>
          <path id="Trazado_114304" data-name="Trazado 114304" d="M495.418,213.225a36.025,36.025,0,0,1,0-72.049,1.472,1.472,0,1,1,0,2.944,33.081,33.081,0,1,0,33.053,31.7,1.469,1.469,0,0,1,1.411-1.531,1.485,1.485,0,0,1,1.531,1.41,36.024,36.024,0,0,1-35.994,37.527Z" transform="translate(-459.393 -141.176)" fill="#64b5f6"/>
          <path id="Trazado_114305" data-name="Trazado 114305" d="M539.222,237.482a6.054,6.054,0,0,1-4.293-1.775L532,232.78a1.473,1.473,0,0,1,.424-2.378,33.2,33.2,0,0,0,16.194-16.195,1.472,1.472,0,0,1,2.378-.425l2.928,2.929a6.078,6.078,0,0,1,0,8.583l-10.412,10.412A6.054,6.054,0,0,1,539.222,237.482Zm-3.69-5.336,1.479,1.479a3.13,3.13,0,0,0,4.422,0l10.412-10.412a3.128,3.128,0,0,0,0-4.42l-1.481-1.481a36.2,36.2,0,0,1-14.832,14.834Z" transform="translate(-482.547 -164.329)" fill="#64b5f6"/>
          <path id="Trazado_114306" data-name="Trazado 114306" d="M567.847,257.644a7.992,7.992,0,0,1-5.669-2.345l-15.443-15.443a1.472,1.472,0,0,1,0-2.081l9.258-9.256a1.473,1.473,0,0,1,2.082,0l15.441,15.443a8.013,8.013,0,0,1-5.669,13.682Zm-17.99-18.829,14.4,14.4a5.073,5.073,0,0,0,7.175-7.175l-14.4-14.4Z" transform="translate(-487.273 -169.056)" fill="#64b5f6"/>
          <path id="Trazado_114307" data-name="Trazado 114307" d="M556.517,249.028a1.472,1.472,0,0,1-1.041-2.513l9.256-9.256a1.472,1.472,0,0,1,2.082,2.081l-9.256,9.256A1.468,1.468,0,0,1,556.517,249.028Z" transform="translate(-490.077 -171.86)" fill="#64b5f6"/>
          <path id="Trazado_114308" data-name="Trazado 114308" d="M504.707,212.821a1.472,1.472,0,0,1-1.473-1.473v-4.423a1.472,1.472,0,0,1,2.944,0v4.423A1.472,1.472,0,0,1,504.707,212.821Z" transform="translate(-473.457 -161.795)" fill="#64b5f6"/>
          <path id="Trazado_114309" data-name="Trazado 114309" d="M519.968,212.821a1.471,1.471,0,0,1-1.472-1.473v-4.423a1.472,1.472,0,1,1,2.944,0v4.423A1.471,1.471,0,0,1,519.968,212.821Z" transform="translate(-478.352 -161.795)" fill="#64b5f6"/>
        </g>
        <path id="Trazado_114331" data-name="Trazado 114331" d="M505.738,274.251h-73.2a34.279,34.279,0,0,1-29.6-17.092l-36.6-63.394a34.275,34.275,0,0,1,0-34.184l36.6-63.393a34.279,34.279,0,0,1,29.6-17.092h73.2a34.278,34.278,0,0,1,29.6,17.092l36.6,63.393a34.278,34.278,0,0,1,0,34.184l-36.6,63.394A34.279,34.279,0,0,1,505.738,274.251Zm-73.2-191.038A30.154,30.154,0,0,0,406.5,98.246L369.9,161.64a30.151,30.151,0,0,0,0,30.067L406.5,255.1a30.152,30.152,0,0,0,26.039,15.033h73.2A30.152,30.152,0,0,0,531.777,255.1l36.6-63.394a30.148,30.148,0,0,0,0-30.067l-36.6-63.394a30.154,30.154,0,0,0-26.039-15.033Z" transform="translate(-359.298 -77.861)" fill="#fef536"/>
        <g id="Grupo_80910" data-name="Grupo 80910">
          <path id="Trazado_114337" data-name="Trazado 114337" d="M502.1,272.433H428.9a34.278,34.278,0,0,1-29.6-17.092l-36.6-63.394a34.273,34.273,0,0,1,0-34.184L399.3,94.37a34.279,34.279,0,0,1,29.6-17.092h73.2a34.279,34.279,0,0,1,29.6,17.092l36.6,63.394a34.273,34.273,0,0,1,0,34.184l-36.6,63.394A34.278,34.278,0,0,1,502.1,272.433ZM428.9,81.395a30.153,30.153,0,0,0-26.039,15.034l-36.6,63.394a30.151,30.151,0,0,0,0,30.067l36.6,63.393A30.153,30.153,0,0,0,428.9,268.316h73.2a30.153,30.153,0,0,0,26.039-15.034l36.6-63.393a30.148,30.148,0,0,0,0-30.067l-36.6-63.394A30.153,30.153,0,0,0,502.1,81.395Z" transform="translate(-358.131 -77.278)" fill="#5c22c3"/>
        </g>
      </g>
    </g>
    <g id="Grupo_80942" data-name="Grupo 80942" transform="translate(809.948 2115.578)">
      <g id="Grupo_80928" data-name="Grupo 80928" transform="translate(0 18.527)">
        <g id="Grupo_80899" data-name="Grupo 80899" transform="translate(47.084 44.877)">
          <path id="Trazado_114263" data-name="Trazado 114263" d="M889.767,271.762H777.472a2.08,2.08,0,0,1,0-4.16H889.767a2.08,2.08,0,1,1,0,4.16Z" transform="translate(-775.393 -183.208)" fill="#64b5f6"/>
          <path id="Trazado_114264" data-name="Trazado 114264" d="M813.3,227.955a2.079,2.079,0,0,1-2.08-2.08V172h-15.6v53.872a2.08,2.08,0,1,1-4.159,0V169.923a2.079,2.079,0,0,1,2.08-2.079H813.3a2.079,2.079,0,0,1,2.08,2.079v55.952A2.079,2.079,0,0,1,813.3,227.955Z" transform="translate(-780.549 -151.207)" fill="#64b5f6"/>
          <path id="Trazado_114265" data-name="Trazado 114265" d="M865.35,224.026a2.079,2.079,0,0,1-2.079-2.08v-62.19h-15.6v62.19a2.079,2.079,0,1,1-4.159,0v-64.27a2.079,2.079,0,0,1,2.08-2.079H865.35a2.079,2.079,0,0,1,2.08,2.079v64.27A2.079,2.079,0,0,1,865.35,224.026Z" transform="translate(-797.246 -147.279)" fill="#64b5f6"/>
          <path id="Trazado_114266" data-name="Trazado 114266" d="M897.643,220.1a2.079,2.079,0,0,1-2.08-2.08V145.43a2.079,2.079,0,0,1,2.08-2.08H917.4a2.079,2.079,0,0,1,2.08,2.08v14.73a2.08,2.08,0,0,1-4.16,0V147.509h-15.6v70.509A2.079,2.079,0,0,1,897.643,220.1Z" transform="translate(-813.942 -143.35)" fill="#64b5f6"/>
          <path id="Trazado_114267" data-name="Trazado 114267" d="M926.729,230.928a2.079,2.079,0,0,1-2.08-2.08V222.61a2.08,2.08,0,1,1,4.159,0v6.239A2.079,2.079,0,0,1,926.729,230.928Z" transform="translate(-823.272 -168.108)" fill="#64b5f6"/>
          <path id="Trazado_114268" data-name="Trazado 114268" d="M926.729,204.3a2.079,2.079,0,0,1-2.08-2.08V191.738a2.08,2.08,0,1,1,4.159,0v10.484A2.079,2.079,0,0,1,926.729,204.3Z" transform="translate(-823.272 -158.205)" fill="#64b5f6"/>
          <path id="Trazado_114269" data-name="Trazado 114269" d="M926.729,175.435a2.079,2.079,0,0,1-2.08-2.08v-6.239a2.08,2.08,0,0,1,4.159,0v6.239A2.079,2.079,0,0,1,926.729,175.435Z" transform="translate(-823.272 -150.307)" fill="#64b5f6"/>
          <path id="Trazado_114270" data-name="Trazado 114270" d="M926.729,247.8a2.079,2.079,0,0,1-2.08-2.08V231.795a2.08,2.08,0,1,1,4.159,0v13.927A2.079,2.079,0,0,1,926.729,247.8Z" transform="translate(-823.272 -171.055)" fill="#64b5f6"/>
        </g>
        <path id="Trazado_114326" data-name="Trazado 114326" d="M850.043,274.251h-73.2a34.279,34.279,0,0,1-29.6-17.092l-36.6-63.394a34.278,34.278,0,0,1,0-34.184l36.6-63.393a34.279,34.279,0,0,1,29.6-17.092h73.2a34.278,34.278,0,0,1,29.6,17.092l36.6,63.393a34.275,34.275,0,0,1,0,34.184l-36.6,63.394A34.279,34.279,0,0,1,850.043,274.251Zm-73.2-191.038A30.154,30.154,0,0,0,750.8,98.246L714.2,161.64a30.148,30.148,0,0,0,0,30.067L750.8,255.1a30.152,30.152,0,0,0,26.039,15.033h73.2A30.152,30.152,0,0,0,876.082,255.1l36.6-63.394a30.151,30.151,0,0,0,0-30.067l-36.6-63.394a30.154,30.154,0,0,0-26.039-15.033Z" transform="translate(-706.072 -77.861)" fill="#fef536"/>
        <g id="Grupo_80905" data-name="Grupo 80905" transform="translate(1.647)">
          <path id="Trazado_114332" data-name="Trazado 114332" d="M852.468,272.433h-73.2a34.279,34.279,0,0,1-29.6-17.092l-36.6-63.394a34.277,34.277,0,0,1,0-34.184l36.6-63.394a34.28,34.28,0,0,1,29.6-17.092h73.2a34.279,34.279,0,0,1,29.6,17.092l36.6,63.394a34.277,34.277,0,0,1,0,34.184l-36.6,63.394A34.278,34.278,0,0,1,852.468,272.433Zm-73.2-191.039a30.153,30.153,0,0,0-26.039,15.034l-36.6,63.394a30.148,30.148,0,0,0,0,30.067l36.6,63.393a30.153,30.153,0,0,0,26.039,15.034h73.2a30.151,30.151,0,0,0,26.038-15.034l36.6-63.393a30.151,30.151,0,0,0,0-30.067l-36.6-63.394a30.151,30.151,0,0,0-26.038-15.034Z" transform="translate(-708.497 -77.278)" fill="#5c22c3"/>
        </g>
      </g>
    </g>
    <g id="Grupo_80943" data-name="Grupo 80943" transform="translate(1049.569 2115.578)">
      <g id="Grupo_80929" data-name="Grupo 80929" transform="translate(0 18.527)">
        <g id="Grupo_80904" data-name="Grupo 80904" transform="translate(42.044 43.231)">
          <path id="Trazado_114310" data-name="Trazado 114310" d="M1146.078,263.62a2.094,2.094,0,0,1-2.095-2.1V244.454a2.1,2.1,0,0,1,4.19,0v17.071A2.094,2.094,0,0,1,1146.078,263.62Z" transform="translate(-1128.213 -173.464)" fill="#64b5f6"/>
          <path id="Trazado_114311" data-name="Trazado 114311" d="M1187.055,263.62a2.094,2.094,0,0,1-2.095-2.1V244.454a2.095,2.095,0,0,1,4.189,0v17.071A2.094,2.094,0,0,1,1187.055,263.62Z" transform="translate(-1141.358 -173.464)" fill="#64b5f6"/>
          <path id="Trazado_114312" data-name="Trazado 114312" d="M1177.984,256.834h-43.262a2.1,2.1,0,0,1-2.1-2.1l.014-22.658a1.95,1.95,0,0,1,.012-.219,10.5,10.5,0,0,1,8.672-9.221l8.358-1.405a2.1,2.1,0,1,1,.7,4.132l-8.357,1.405a6.3,6.3,0,0,0-5.191,5.428l-.012,20.445h39.068l-.025-20.442a6.3,6.3,0,0,0-5.191-5.43l-8.357-1.405a2.1,2.1,0,1,1,.7-4.132l8.358,1.405a10.506,10.506,0,0,1,8.672,9.221,1.87,1.87,0,0,1,.012.219l.026,22.658a2.093,2.093,0,0,1-2.095,2.1Z" transform="translate(-1124.57 -166.679)" fill="#64b5f6"/>
          <path id="Trazado_114313" data-name="Trazado 114313" d="M1240.664,263.62a2.094,2.094,0,0,1-2.1-2.1V244.454a2.1,2.1,0,0,1,4.19,0v17.071A2.094,2.094,0,0,1,1240.664,263.62Z" transform="translate(-1158.555 -173.464)" fill="#64b5f6"/>
          <path id="Trazado_114314" data-name="Trazado 114314" d="M1281.641,263.62a2.094,2.094,0,0,1-2.1-2.1V244.454a2.1,2.1,0,0,1,4.19,0v17.071A2.094,2.094,0,0,1,1281.641,263.62Z" transform="translate(-1171.7 -173.464)" fill="#64b5f6"/>
          <path id="Trazado_114315" data-name="Trazado 114315" d="M1272.568,256.834h-43.262a2.1,2.1,0,0,1-2.095-2.1l.014-22.658a2.011,2.011,0,0,1,.012-.219,10.507,10.507,0,0,1,8.672-9.221l8.358-1.405a2.1,2.1,0,0,1,.7,4.132l-8.357,1.405a6.3,6.3,0,0,0-5.191,5.428l-.012,20.445h39.068l-.025-20.445a6.3,6.3,0,0,0-5.19-5.428l-8.358-1.405a2.1,2.1,0,0,1,.7-4.132l8.357,1.405a10.5,10.5,0,0,1,8.673,9.221,2.178,2.178,0,0,1,.012.219l.026,22.658a2.093,2.093,0,0,1-2.1,2.1Z" transform="translate(-1154.911 -166.679)" fill="#64b5f6"/>
          <path id="Trazado_114316" data-name="Trazado 114316" d="M1163.377,232.366a2.112,2.112,0,0,1-1.576-.713l-6.115-6.973a2.095,2.095,0,0,1,3.151-2.762l4.589,5.231,4.937-5.281a2.094,2.094,0,1,1,3.06,2.86l-6.516,6.973A2.091,2.091,0,0,1,1163.377,232.366Z" transform="translate(-1131.8 -166.677)" fill="#64b5f6"/>
          <path id="Trazado_114317" data-name="Trazado 114317" d="M1258.167,231.553a2.093,2.093,0,0,1-1.462-.594l-6.322-6.158a2.1,2.1,0,0,1,2.925-3l4.857,4.734,4.849-4.732a2.095,2.095,0,1,1,2.925,3l-6.309,6.158A2.086,2.086,0,0,1,1258.167,231.553Z" transform="translate(-1162.141 -166.678)" fill="#64b5f6"/>
          <path id="Trazado_114318" data-name="Trazado 114318" d="M1249.77,271.682H1122.86a2.1,2.1,0,1,1,0-4.19H1249.77a2.1,2.1,0,1,1,0,4.19Z" transform="translate(-1120.765 -181.527)" fill="#64b5f6"/>
          <path id="Trazado_114319" data-name="Trazado 114319" d="M1161.854,205.02a12.06,12.06,0,1,1,12.06-12.06A12.073,12.073,0,0,1,1161.854,205.02Zm0-19.931a7.87,7.87,0,1,0,7.871,7.871A7.88,7.88,0,0,0,1161.854,185.089Z" transform="translate(-1130.077 -153.749)" fill="#64b5f6"/>
          <path id="Trazado_114320" data-name="Trazado 114320" d="M1256.437,205.02a12.06,12.06,0,1,1,12.061-12.06A12.073,12.073,0,0,1,1256.437,205.02Zm0-19.931a7.87,7.87,0,1,0,7.871,7.871A7.88,7.88,0,0,0,1256.437,185.089Z" transform="translate(-1160.418 -153.749)" fill="#64b5f6"/>
          <path id="Trazado_114321" data-name="Trazado 114321" d="M1187.913,178.35a2.1,2.1,0,0,1-2.095-2.1V170.9a5.464,5.464,0,0,1-3.534-5.106v-5.845a5.5,5.5,0,0,1,5.493-5.491h22.558a5.5,5.5,0,0,1,5.492,5.491v5.845a5.5,5.5,0,0,1-5.492,5.491h-12.62l-8.516,6.624A2.091,2.091,0,0,1,1187.913,178.35Zm-.135-19.7a1.3,1.3,0,0,0-1.3,1.3v5.845a1.3,1.3,0,0,0,1.3,1.3,2.213,2.213,0,0,1,2.231,2.095v2.783l5.7-4.435a2.092,2.092,0,0,1,1.286-.442h13.339a1.3,1.3,0,0,0,1.3-1.3v-5.845a1.3,1.3,0,0,0-1.3-1.3Z" transform="translate(-1140.5 -145.266)" fill="#64b5f6"/>
          <ellipse id="Elipse_4867" data-name="Elipse 4867" cx="1.699" cy="1.699" rx="1.699" ry="1.699" transform="translate(51.593 16.245)" fill="#64b5f6"/>
          <ellipse id="Elipse_4868" data-name="Elipse 4868" cx="1.699" cy="1.699" rx="1.699" ry="1.699" transform="translate(56.859 16.245)" fill="#64b5f6"/>
          <path id="Trazado_114322" data-name="Trazado 114322" d="M1215.627,166.542a1.7,1.7,0,1,1-1.7-1.7A1.7,1.7,0,0,1,1215.627,166.542Z" transform="translate(-1150.106 -148.598)" fill="#64b5f6"/>
          <path id="Trazado_114323" data-name="Trazado 114323" d="M1265.357,164.821a2.089,2.089,0,0,1-1.286-.442l-8.515-6.624h-12.621a5.5,5.5,0,0,1-5.491-5.493v-5.843a5.5,5.5,0,0,1,5.491-5.493h22.558a5.5,5.5,0,0,1,5.493,5.493v5.843a5.5,5.5,0,0,1-3.533,5.131v5.334a2.093,2.093,0,0,1-2.1,2.095Zm-22.423-19.706a1.3,1.3,0,0,0-1.3,1.3v5.843a1.3,1.3,0,0,0,1.3,1.3h13.339a2.093,2.093,0,0,1,1.287.441l5.7,4.435V155.66a2.094,2.094,0,0,1,2.095-2.095,1.341,1.341,0,0,0,1.438-1.3v-5.843a1.306,1.306,0,0,0-1.3-1.3Z" transform="translate(-1158.193 -140.926)" fill="#64b5f6"/>
          <ellipse id="Elipse_4869" data-name="Elipse 4869" cx="1.699" cy="1.699" rx="1.699" ry="1.699" transform="translate(99.587 7.056)" fill="#64b5f6"/>
          <path id="Trazado_114324" data-name="Trazado 114324" d="M1259.633,153.013a1.7,1.7,0,1,0,1.7-1.7A1.7,1.7,0,0,0,1259.633,153.013Z" transform="translate(-1165.312 -144.258)" fill="#64b5f6"/>
          <ellipse id="Elipse_4870" data-name="Elipse 4870" cx="1.699" cy="1.699" rx="1.699" ry="1.699" transform="translate(89.055 7.056)" fill="#64b5f6"/>
        </g>
        <path id="Trazado_114325" data-name="Trazado 114325" d="M1206.471,274.251h-73.2a34.279,34.279,0,0,1-29.6-17.092l-36.6-63.394a34.274,34.274,0,0,1,0-34.184l36.6-63.393a34.278,34.278,0,0,1,29.6-17.092h73.2a34.278,34.278,0,0,1,29.6,17.092l36.6,63.393a34.278,34.278,0,0,1,0,34.184l-36.6,63.394A34.278,34.278,0,0,1,1206.471,274.251Zm-73.2-191.038a30.152,30.152,0,0,0-26.038,15.033l-36.6,63.394a30.151,30.151,0,0,0,0,30.067l36.6,63.394a30.15,30.15,0,0,0,26.038,15.033h73.2A30.152,30.152,0,0,0,1232.51,255.1l36.6-63.394a30.147,30.147,0,0,0,0-30.067l-36.6-63.394a30.154,30.154,0,0,0-26.039-15.033Z" transform="translate(-1060.031 -77.861)" fill="#fef536"/>
        <g id="Grupo_80906" data-name="Grupo 80906">
          <path id="Trazado_114333" data-name="Trazado 114333" d="M1202.834,272.433h-73.2a34.279,34.279,0,0,1-29.6-17.092l-36.6-63.394a34.274,34.274,0,0,1,0-34.184l36.6-63.394a34.28,34.28,0,0,1,29.6-17.092h73.2a34.279,34.279,0,0,1,29.6,17.092l36.6,63.394a34.278,34.278,0,0,1,0,34.184l-36.6,63.394A34.278,34.278,0,0,1,1202.834,272.433Zm-73.2-191.039a30.151,30.151,0,0,0-26.039,15.034l-36.6,63.394a30.151,30.151,0,0,0,0,30.067l36.6,63.393a30.151,30.151,0,0,0,26.039,15.034h73.2a30.153,30.153,0,0,0,26.039-15.034l36.6-63.393a30.147,30.147,0,0,0,0-30.067l-36.6-63.394a30.153,30.153,0,0,0-26.039-15.034Z" transform="translate(-1058.864 -77.278)" fill="#5c22c3"/>
        </g>
      </g>
    </g>
    <g id="Grupo_80944" data-name="Grupo 80944" transform="translate(456.692 2355.166)">
      <g id="Grupo_80930" data-name="Grupo 80930" transform="translate(0 16.06)">
        <g id="Grupo_80902" data-name="Grupo 80902" transform="translate(45.083 49.428)">
          <path id="Trazado_114288" data-name="Trazado 114288" d="M361.824,625.37h-98.03a11.453,11.453,0,0,1-11.44-11.44v-3a2.006,2.006,0,0,1,2.008-2.008h116.9a2.007,2.007,0,0,1,2.008,2.008v3A11.455,11.455,0,0,1,361.824,625.37ZM256.37,612.941v.988a7.431,7.431,0,0,0,7.424,7.424h98.03a7.433,7.433,0,0,0,7.426-7.424v-.988Z" transform="translate(-252.354 -535.225)" fill="#64b5f6"/>
          <path id="Trazado_114289" data-name="Trazado 114289" d="M369.628,578.133H258.9a2.008,2.008,0,0,1-2.008-2.009V504.433a4.022,4.022,0,0,1,4.016-4.016H367.621a4.021,4.021,0,0,1,4.016,4.016v71.692A2.007,2.007,0,0,1,369.628,578.133Zm-108.717-4.016H367.621V504.433H260.911Z" transform="translate(-253.811 -500.417)" fill="#64b5f6"/>
          <path id="Trazado_114290" data-name="Trazado 114290" d="M363.247,573.666H273.112a4.021,4.021,0,0,1-4.016-4.016V516.894a4.022,4.022,0,0,1,4.016-4.016h90.135a4.022,4.022,0,0,1,4.016,4.016v52.756A4.021,4.021,0,0,1,363.247,573.666Zm-90.135-56.772v52.756h90.135V516.894Z" transform="translate(-257.725 -504.414)" fill="#64b5f6"/>
          <path id="Trazado_114291" data-name="Trazado 114291" d="M303.81,543.8a8.008,8.008,0,1,1,8.009-8.009A8.017,8.017,0,0,1,303.81,543.8Zm0-12a3.992,3.992,0,1,0,3.992,3.991A4,4,0,0,0,303.81,531.8Z" transform="translate(-266.292 -509.195)" fill="#64b5f6"/>
          <path id="Trazado_114292" data-name="Trazado 114292" d="M313.529,575.743H287.434a2.007,2.007,0,0,1-2.008-2.008V557.02a5.124,5.124,0,0,1,3.253-4.748,2.071,2.071,0,0,1,.266-.083l5.254-1.229a2.01,2.01,0,0,1,2.126.84l4.155,6.215,4.155-6.215a2.01,2.01,0,0,1,2.126-.84l5.254,1.229a2.084,2.084,0,0,1,.267.083,5.122,5.122,0,0,1,3.255,4.748v16.716A2.006,2.006,0,0,1,313.529,575.743Zm-24.087-4.016h22.079V557.02a1.078,1.078,0,0,0-.592-.959l-3.728-.873-5.052,7.556a2.084,2.084,0,0,1-3.337,0l-5.051-7.556-3.728.873a1.077,1.077,0,0,0-.59.959Z" transform="translate(-262.963 -516.614)" fill="#64b5f6"/>
          <path id="Trazado_114293" data-name="Trazado 114293" d="M306.642,579.858a2.007,2.007,0,0,1-2.008-2.008V565.743a2.008,2.008,0,0,1,4.016,0v12.108A2.006,2.006,0,0,1,306.642,579.858Z" transform="translate(-269.125 -520.728)" fill="#64b5f6"/>
          <path id="Trazado_114294" data-name="Trazado 114294" d="M342.426,558.732a2.01,2.01,0,0,1-2.008-2.008V533.962a7.339,7.339,0,0,1,7.332-7.33H374a7.339,7.339,0,0,1,7.332,7.33v6.976a7.339,7.339,0,0,1-7.332,7.33h-19.03a6.082,6.082,0,0,0-4.673,2.183l-6.328,7.561A2,2,0,0,1,342.426,558.732Zm5.324-28.084a3.32,3.32,0,0,0-3.317,3.314V551.2l2.781-3.322a10.081,10.081,0,0,1,7.752-3.622H374a3.319,3.319,0,0,0,3.316-3.314v-6.976A3.319,3.319,0,0,0,374,530.648Z" transform="translate(-280.604 -508.826)" fill="#64b5f6"/>
          <path id="Trazado_114295" data-name="Trazado 114295" d="M359.872,541.874a2.3,2.3,0,1,1-2.3-2.3A2.3,2.3,0,0,1,359.872,541.874Z" transform="translate(-285.367 -512.977)" fill="#64b5f6"/>
          <path id="Trazado_114296" data-name="Trazado 114296" d="M371.748,541.874a2.3,2.3,0,1,1-2.3-2.3A2.3,2.3,0,0,1,371.748,541.874Z" transform="translate(-289.177 -512.977)" fill="#64b5f6"/>
          <path id="Trazado_114297" data-name="Trazado 114297" d="M383.624,541.874a2.3,2.3,0,1,1-2.3-2.3A2.3,2.3,0,0,1,383.624,541.874Z" transform="translate(-292.986 -512.977)" fill="#64b5f6"/>
        </g>
        <path id="Trazado_114328" data-name="Trazado 114328" d="M332.373,625.83h-73.2a34.279,34.279,0,0,1-29.6-17.092l-36.6-63.394a34.275,34.275,0,0,1,0-34.184l36.6-63.393a34.278,34.278,0,0,1,29.6-17.092h73.2a34.278,34.278,0,0,1,29.6,17.092l36.6,63.393a34.278,34.278,0,0,1,0,34.184l-36.6,63.394A34.279,34.279,0,0,1,332.373,625.83Zm-73.2-191.038a30.151,30.151,0,0,0-26.038,15.033l-36.6,63.394a30.151,30.151,0,0,0,0,30.067l36.6,63.394a30.151,30.151,0,0,0,26.038,15.033h73.2a30.153,30.153,0,0,0,26.039-15.033l36.6-63.394a30.148,30.148,0,0,0,0-30.067l-36.6-63.394a30.153,30.153,0,0,0-26.039-15.033Z" transform="translate(-186.756 -428.617)" fill="#fef536"/>
        <g id="Grupo_80907" data-name="Grupo 80907">
          <path id="Trazado_114334" data-name="Trazado 114334" d="M329.949,622.8h-73.2a34.28,34.28,0,0,1-29.6-17.092l-36.6-63.394a34.278,34.278,0,0,1,0-34.184l36.6-63.393a34.28,34.28,0,0,1,29.6-17.092h73.2a34.279,34.279,0,0,1,29.6,17.092l36.6,63.393a34.278,34.278,0,0,1,0,34.184l-36.6,63.394A34.28,34.28,0,0,1,329.949,622.8Zm-73.2-191.038A30.152,30.152,0,0,0,230.709,446.8l-36.6,63.393a30.148,30.148,0,0,0,0,30.067l36.6,63.394a30.151,30.151,0,0,0,26.039,15.033h73.2a30.151,30.151,0,0,0,26.038-15.033l36.6-63.394a30.151,30.151,0,0,0,0-30.067l-36.6-63.393a30.152,30.152,0,0,0-26.038-15.034Z" transform="translate(-185.979 -427.644)" fill="#5c22c3"/>
        </g>
      </g>
    </g>
    <g id="Grupo_80945" data-name="Grupo 80945" transform="translate(693.02 2355.166)">
      <g id="Grupo_80931" data-name="Grupo 80931" transform="translate(0 16.06)">
        <g id="Grupo_80900" data-name="Grupo 80900" transform="translate(64.722 40.567)">
          <path id="Trazado_114271" data-name="Trazado 114271" d="M665.644,507.758a6.524,6.524,0,1,1,6.522-6.524A6.531,6.531,0,0,1,665.644,507.758Zm0-9.691a3.168,3.168,0,1,0,3.167,3.167A3.171,3.171,0,0,0,665.644,498.067Z" transform="translate(-638.805 -489.726)" fill="#64b5f6"/>
          <path id="Trazado_114272" data-name="Trazado 114272" d="M673.406,529.593a1.678,1.678,0,0,1-1.678-1.678v-7.028a3.574,3.574,0,0,0-3.569-3.569H657.912a3.574,3.574,0,0,0-3.569,3.569v7.028a1.678,1.678,0,1,1-3.356,0v-7.028a6.934,6.934,0,0,1,6.925-6.925h10.246a6.933,6.933,0,0,1,6.925,6.925v7.028A1.677,1.677,0,0,1,673.406,529.593Z" transform="translate(-636.196 -495.901)" fill="#64b5f6"/>
          <path id="Trazado_114273" data-name="Trazado 114273" d="M658.884,529.045a20.837,20.837,0,1,1,20.838-20.836A20.86,20.86,0,0,1,658.884,529.045Zm0-38.317a17.481,17.481,0,1,0,17.481,17.481A17.5,17.5,0,0,0,658.884,490.728Z" transform="translate(-632.045 -487.371)" fill="#64b5f6"/>
          <path id="Trazado_114274" data-name="Trazado 114274" d="M713.666,598.494a6.524,6.524,0,1,1,6.524-6.523A6.53,6.53,0,0,1,713.666,598.494Zm0-9.691a3.168,3.168,0,1,0,3.168,3.168A3.171,3.171,0,0,0,713.666,588.8Z" transform="translate(-654.21 -518.832)" fill="#64b5f6"/>
          <path id="Trazado_114275" data-name="Trazado 114275" d="M721.427,620.329a1.677,1.677,0,0,1-1.678-1.678v-7.028a3.573,3.573,0,0,0-3.568-3.569H705.934a3.573,3.573,0,0,0-3.567,3.569v7.028a1.678,1.678,0,0,1-3.357,0v-7.028a6.932,6.932,0,0,1,6.924-6.924h10.247a6.932,6.932,0,0,1,6.924,6.924v7.028A1.678,1.678,0,0,1,721.427,620.329Z" transform="translate(-651.601 -525.008)" fill="#64b5f6"/>
          <path id="Trazado_114276" data-name="Trazado 114276" d="M706.9,619.781a20.837,20.837,0,1,1,20.837-20.837A20.861,20.861,0,0,1,706.9,619.781Zm0-38.317a17.481,17.481,0,1,0,17.481,17.48A17.5,17.5,0,0,0,706.9,581.464Z" transform="translate(-647.449 -516.478)" fill="#64b5f6"/>
          <path id="Trazado_114277" data-name="Trazado 114277" d="M667.6,586.1a38.388,38.388,0,0,1-29.749-62.654,1.679,1.679,0,0,1,2.779.269,17.48,17.48,0,0,0,32.9-8.235,17.661,17.661,0,0,0-.342-3.439,1.677,1.677,0,0,1,1.974-1.973,38.393,38.393,0,0,1,27.528,53.215,1.677,1.677,0,0,1-2.628.589,17.465,17.465,0,0,0-27.6,19.769,1.679,1.679,0,0,1-1.408,2.3C669.833,586.046,668.7,586.1,667.6,586.1Zm-28.594-58.633A35.033,35.033,0,0,0,667.6,582.743c.331,0,.665-.006,1.006-.016a20.65,20.65,0,0,1-.776-5.62,20.817,20.817,0,0,1,32.6-17.178,34.739,34.739,0,0,0,2.2-12.221,35.124,35.124,0,0,0-25.809-33.8c.041.526.061,1.052.061,1.574a20.836,20.836,0,0,1-37.879,11.988Z" transform="translate(-629.21 -494.641)" fill="#64b5f6"/>
          <path id="Trazado_114278" data-name="Trazado 114278" d="M712.941,525.88a1.679,1.679,0,0,1-1.644-1.35l-1.43-7.16a1.678,1.678,0,0,1,1.36-1.982l7.286-1.257a1.678,1.678,0,0,1,.57,3.307l-5.588.964,1.093,5.471a1.677,1.677,0,0,1-1.647,2.006Z" transform="translate(-655.073 -495.947)" fill="#64b5f6"/>
          <path id="Trazado_114279" data-name="Trazado 114279" d="M647.64,612.388a1.678,1.678,0,0,1-.283-3.332l5.587-.964-1.091-5.471a1.677,1.677,0,1,1,3.29-.657l1.429,7.16a1.677,1.677,0,0,1-1.36,1.982l-7.285,1.257A1.639,1.639,0,0,1,647.64,612.388Z" transform="translate(-634.584 -523.698)" fill="#64b5f6"/>
        </g>
        <path id="Trazado_114330" data-name="Trazado 114330" d="M677.891,625.83h-73.2a34.281,34.281,0,0,1-29.605-17.092l-36.6-63.394a34.278,34.278,0,0,1,0-34.184l36.6-63.393a34.28,34.28,0,0,1,29.605-17.092h73.2a34.28,34.28,0,0,1,29.6,17.092l36.6,63.393a34.278,34.278,0,0,1,0,34.184l-36.6,63.394A34.281,34.281,0,0,1,677.891,625.83Zm-73.2-191.038a30.152,30.152,0,0,0-26.039,15.033l-36.6,63.394a30.147,30.147,0,0,0,0,30.067l36.6,63.394a30.152,30.152,0,0,0,26.039,15.033h73.2A30.152,30.152,0,0,0,703.93,606.68l36.6-63.394a30.148,30.148,0,0,0,0-30.067l-36.6-63.394a30.152,30.152,0,0,0-26.039-15.033Z" transform="translate(-533.92 -428.617)" fill="#fef536"/>
        <g id="Grupo_80908" data-name="Grupo 80908" transform="translate(1.647)">
          <path id="Trazado_114335" data-name="Trazado 114335" d="M680.315,622.8h-73.2a34.279,34.279,0,0,1-29.6-17.092l-36.6-63.394a34.275,34.275,0,0,1,0-34.184l36.6-63.393a34.278,34.278,0,0,1,29.6-17.092h73.2a34.278,34.278,0,0,1,29.6,17.092l36.6,63.393a34.278,34.278,0,0,1,0,34.184l-36.6,63.394A34.278,34.278,0,0,1,680.315,622.8Zm-73.2-191.038A30.151,30.151,0,0,0,581.076,446.8l-36.6,63.393a30.152,30.152,0,0,0,0,30.067l36.6,63.394a30.15,30.15,0,0,0,26.038,15.033h73.2a30.152,30.152,0,0,0,26.039-15.033l36.6-63.394a30.148,30.148,0,0,0,0-30.067l-36.6-63.393a30.153,30.153,0,0,0-26.039-15.034Z" transform="translate(-536.345 -427.644)" fill="#5c22c3"/>
        </g>
      </g>
    </g>
    <g id="Grupo_80946" data-name="Grupo 80946" transform="translate(932.641 2355.166)">
      <g id="Grupo_80932" data-name="Grupo 80932" transform="translate(0 16.06)">
        <g id="Grupo_80901" data-name="Grupo 80901" transform="translate(55.689 34.634)">
          <rect id="Rectángulo_33916" data-name="Rectángulo 33916" width="3.426" height="86.529" transform="translate(47.654 17.011)" fill="#64b5f6"/>
          <rect id="Rectángulo_33917" data-name="Rectángulo 33917" width="63.039" height="3.426" transform="translate(29.592 58.564)" fill="#64b5f6"/>
          <rect id="Rectángulo_33918" data-name="Rectángulo 33918" width="47.304" height="3.426" transform="translate(32.403 37.678)" fill="#64b5f6"/>
          <rect id="Rectángulo_33919" data-name="Rectángulo 33919" width="76.767" height="3.426" transform="translate(10.984 79.448)" fill="#64b5f6"/>
          <path id="Trazado_114280" data-name="Trazado 114280" d="M1087.122,526.967a5.525,5.525,0,0,1-4.79-2.727l-10.541-17.764a18.665,18.665,0,0,1-.5-18.189,17.562,17.562,0,0,1,14.181-9.586,20.646,20.646,0,0,1,3.285,0,17.559,17.559,0,0,1,14.195,9.58,18.661,18.661,0,0,1-.5,18.191l-10.544,17.768A5.525,5.525,0,0,1,1087.122,526.967Zm0-44.9q-.693,0-1.371.055a13.972,13.972,0,0,0-11.416,7.74,15.257,15.257,0,0,0,.4,14.869l10.54,17.764a2.145,2.145,0,0,0,3.689,0l10.543-17.768a15.252,15.252,0,0,0,.4-14.869,13.972,13.972,0,0,0-11.43-7.737Q1087.807,482.062,1087.122,482.062Z" transform="translate(-1000.93 -478.636)" fill="#64b5f6"/>
          <path id="Trazado_114281" data-name="Trazado 114281" d="M986.656,569.191a5.523,5.523,0,0,1-4.79-2.727L971.324,548.7a18.668,18.668,0,0,1-.5-18.191,17.568,17.568,0,0,1,14.181-9.584,20.892,20.892,0,0,1,3.285,0,17.561,17.561,0,0,1,14.195,9.581,18.663,18.663,0,0,1-.5,18.191l-10.543,17.767A5.526,5.526,0,0,1,986.656,569.191Zm0-44.906c-.462,0-.919.02-1.371.057a13.966,13.966,0,0,0-11.416,7.74,15.257,15.257,0,0,0,.4,14.869l10.542,17.764a2.144,2.144,0,0,0,3.689,0l10.543-17.767a15.252,15.252,0,0,0,.4-14.869,13.972,13.972,0,0,0-11.431-7.737C987.566,524.305,987.113,524.285,986.656,524.285Z" transform="translate(-968.702 -492.181)" fill="#64b5f6"/>
          <path id="Trazado_114282" data-name="Trazado 114282" d="M1020.142,591.114a45.028,45.028,0,0,1-44.977-44.977c0-.3.01-.6.02-.893l.173-6.278,11.528,19.428a2.2,2.2,0,0,0,3.689,0l10.543-17.767a15.25,15.25,0,0,0,.4-14.869,13.97,13.97,0,0,0-11.429-7.737c-.405-.033-.816-.047-1.229-.05l-3.966-.029,2.74-2.869a44.945,44.945,0,0,1,54.495-8.174l.638.358.183.709a15.161,15.161,0,0,0,1.636,3.984l10.54,17.764a2.145,2.145,0,0,0,3.689,0l1.926-3.249,1.281,3.264a44.974,44.974,0,0,1-41.877,61.384Zm-41.17-39.341a41.553,41.553,0,1,0,80.745-18.3,5.588,5.588,0,0,1-7.54-2.009L1041.636,513.7a18.469,18.469,0,0,1-1.807-4.154,41.587,41.587,0,0,0-19.687-4.961,41.129,41.129,0,0,0-27.451,10.37,17.627,17.627,0,0,1,11.869,9.231,18.661,18.661,0,0,1-.5,18.191L993.52,560.145a5.572,5.572,0,0,1-9.582,0Z" transform="translate(-970.775 -485.861)" fill="#64b5f6"/>
          <path id="Trazado_114283" data-name="Trazado 114283" d="M1030.511,591.119a45.032,45.032,0,0,1-12.113-1.665l-.62-.172-.352-.539c-5.981-9.126-9.693-24.414-9.929-40.895l-.007-.484,4-6.733a15.424,15.424,0,0,0-1.078-17.147l-.5-.642.184-.791c1.732-7.438,4.266-13.838,7.329-18.512l.352-.539.62-.173a45.156,45.156,0,0,1,24.227,0l.62.173.352.539c6.232,9.51,9.952,25.436,9.952,42.6s-3.72,33.093-9.952,42.6l-.353.539-.62.172A45.032,45.032,0,0,1,1030.511,591.119Zm-10.567-4.795a41.649,41.649,0,0,0,21.134,0c5.672-9.037,9.044-23.984,9.044-40.182s-3.372-31.145-9.044-40.184a41.651,41.651,0,0,0-21.134,0,55.565,55.565,0,0,0-6.33,16.1,18.624,18.624,0,0,1,.818,20.319l-3.5,5.9C1011.215,563.626,1014.565,577.746,1019.945,586.324Z" transform="translate(-981.144 -485.865)" fill="#64b5f6"/>
          <path id="Trazado_114284" data-name="Trazado 114284" d="M1092.808,497.871a5.919,5.919,0,1,1,5.919-5.919A5.925,5.925,0,0,1,1092.808,497.871Zm0-8.411a2.492,2.492,0,1,0,2.493,2.492A2.495,2.495,0,0,0,1092.808,489.461Z" transform="translate(-1006.614 -481.009)" fill="#64b5f6"/>
          <path id="Trazado_114285" data-name="Trazado 114285" d="M1099.544,516.056a1.712,1.712,0,0,1-1.713-1.713v-3.188a2.845,2.845,0,0,0-2.841-2.841H1086.1a2.845,2.845,0,0,0-2.841,2.841v3.188a1.713,1.713,0,0,1-3.426,0v-3.188a6.273,6.273,0,0,1,6.267-6.267h8.894a6.274,6.274,0,0,1,6.267,6.267v3.188A1.712,1.712,0,0,1,1099.544,516.056Z" transform="translate(-1004.35 -487.057)" fill="#64b5f6"/>
          <path id="Trazado_114286" data-name="Trazado 114286" d="M992.342,540.1a5.919,5.919,0,1,1,5.919-5.919A5.925,5.925,0,0,1,992.342,540.1Zm0-8.411a2.493,2.493,0,1,0,2.493,2.493A2.5,2.5,0,0,0,992.342,531.685Z" transform="translate(-974.387 -494.554)" fill="#64b5f6"/>
          <path id="Trazado_114287" data-name="Trazado 114287" d="M999.078,558.279a1.712,1.712,0,0,1-1.713-1.713v-3.187a2.845,2.845,0,0,0-2.841-2.84h-8.893a2.844,2.844,0,0,0-2.841,2.84v3.187a1.713,1.713,0,0,1-3.427,0v-3.187a6.274,6.274,0,0,1,6.268-6.266h8.893a6.273,6.273,0,0,1,6.267,6.266v3.187A1.712,1.712,0,0,1,999.078,558.279Z" transform="translate(-972.122 -500.602)" fill="#64b5f6"/>
        </g>
        <path id="Trazado_114329" data-name="Trazado 114329" d="M1033.107,625.83h-73.2A34.281,34.281,0,0,1,930.3,608.739l-36.6-63.394a34.279,34.279,0,0,1,0-34.184l36.6-63.393a34.28,34.28,0,0,1,29.605-17.092h73.2a34.28,34.28,0,0,1,29.6,17.092l36.6,63.393a34.278,34.278,0,0,1,0,34.184l-36.6,63.394A34.281,34.281,0,0,1,1033.107,625.83Zm-73.2-191.038a30.152,30.152,0,0,0-26.039,15.033l-36.6,63.394a30.148,30.148,0,0,0,0,30.067l36.6,63.394a30.152,30.152,0,0,0,26.039,15.033h73.2a30.152,30.152,0,0,0,26.039-15.033l36.6-63.394a30.147,30.147,0,0,0,0-30.067l-36.6-63.394a30.152,30.152,0,0,0-26.039-15.033Z" transform="translate(-887.489 -428.617)" fill="#fef536"/>
        <g id="Grupo_80909" data-name="Grupo 80909">
          <path id="Trazado_114336" data-name="Trazado 114336" d="M1030.682,622.8h-73.2a34.278,34.278,0,0,1-29.6-17.092l-36.6-63.394a34.278,34.278,0,0,1,0-34.184l36.6-63.393a34.278,34.278,0,0,1,29.6-17.092h73.2a34.279,34.279,0,0,1,29.6,17.092l36.6,63.393a34.275,34.275,0,0,1,0,34.184l-36.6,63.394A34.28,34.28,0,0,1,1030.682,622.8Zm-73.2-191.038A30.153,30.153,0,0,0,931.442,446.8l-36.6,63.393a30.147,30.147,0,0,0,0,30.067l36.6,63.394a30.153,30.153,0,0,0,26.039,15.033h73.2a30.15,30.15,0,0,0,26.038-15.033l36.6-63.394a30.152,30.152,0,0,0,0-30.067l-36.6-63.393a30.151,30.151,0,0,0-26.038-15.034Z" transform="translate(-886.711 -427.644)" fill="#5c22c3"/>
        </g>
      </g>
    </g>
  </g>
</svg>
