<svg xmlns="http://www.w3.org/2000/svg" width="62.956" height="65.304" viewBox="0 0 62.956 65.304">
  <path id="Trazado_115607" data-name="Trazado 115607" d="M352.185-52.654a7.454,7.454,0,0,1-7.444-7.444,7.453,7.453,0,0,1,7.444-7.444A7.452,7.452,0,0,1,359.63-60.1,7.453,7.453,0,0,1,352.185-52.654Zm0-12.384a4.945,4.945,0,0,0-4.939,4.939,4.946,4.946,0,0,0,4.939,4.939,4.946,4.946,0,0,0,4.939-4.939A4.945,4.945,0,0,0,352.185-65.038Z" transform="translate(-320.649 117.959)" fill="#5c22c3"/>
  <path id="Trazado_115608" data-name="Trazado 115608" d="M357.836-55.411h-1.628a1.25,1.25,0,0,1-.957-.445,1.251,1.251,0,0,1-.277-1.019,4.938,4.938,0,0,0,.078-.844,4.924,4.924,0,0,0-1.818-3.827,1.254,1.254,0,0,1-.388-1.39,1.254,1.254,0,0,1,1.18-.832h1.381a1.717,1.717,0,0,0,1.516-.907,5.015,5.015,0,0,0-.1-4.913L355.3-72.138a3.048,3.048,0,0,1,.182-3.4,3.039,3.039,0,0,1,2.344-1.222,3.061,3.061,0,0,1,2.421,1.062l3.474,4.036a7.779,7.779,0,0,1,1.565,7.324L364-60.007A6.47,6.47,0,0,1,357.836-55.411Zm-.282-2.5h.282a3.95,3.95,0,0,0,3.763-2.806l1.29-4.329a5.279,5.279,0,0,0-1.063-4.973l-3.474-4.036a.548.548,0,0,0-.438-.192.543.543,0,0,0-.424.22.552.552,0,0,0-.033.615l1.515,2.548a7.534,7.534,0,0,1,.158,7.381,4.222,4.222,0,0,1-2.56,2.062A7.414,7.414,0,0,1,357.554-57.916Z" transform="translate(-318.575 115.581)" fill="#5c22c3"/>
  <path id="Trazado_115609" data-name="Trazado 115609" d="M347.743-55.411h-1.627a6.473,6.473,0,0,1-6.165-4.6l-1.29-4.328a7.776,7.776,0,0,1,1.566-7.324l3.472-4.036a3.053,3.053,0,0,1,2.422-1.062,3.042,3.042,0,0,1,2.343,1.222,3.048,3.048,0,0,1,.182,3.4l-2.1,3.527a2.994,2.994,0,0,0-.063,2.935,3.619,3.619,0,0,0,3.192,1.907h.244a1.254,1.254,0,0,1,1.18.832,1.252,1.252,0,0,1-.387,1.39A4.928,4.928,0,0,0,348.9-57.72a4.975,4.975,0,0,0,.079.844,1.256,1.256,0,0,1-.277,1.019A1.253,1.253,0,0,1,347.743-55.411Zm-6.681-9.64,1.29,4.329a3.952,3.952,0,0,0,3.764,2.806h.281a7.417,7.417,0,0,1,1.122-3.74,6.126,6.126,0,0,1-3.237-2.833,5.513,5.513,0,0,1,.116-5.4l2.1-3.525a.552.552,0,0,0-.033-.614.545.545,0,0,0-.424-.221.554.554,0,0,0-.438.192l-3.474,4.036a5.283,5.283,0,0,0-1.064,4.973Z" transform="translate(-322.303 115.581)" fill="#5c22c3"/>
  <path id="Trazado_115610" data-name="Trazado 115610" d="M344.311-52.959H327.887a2.273,2.273,0,0,1-1.768-.678,2.95,2.95,0,0,1-.471-2.436c.028-.283.06-.591.06-.916V-96.563a4.034,4.034,0,0,1,4.03-4.029h14.572a1.251,1.251,0,0,1,1.252,1.252,1.252,1.252,0,0,1-1.252,1.253H329.739a1.526,1.526,0,0,0-1.525,1.524v39.575a11.557,11.557,0,0,1-.073,1.165c-.011.111-.024.239-.033.36h16.2a1.251,1.251,0,0,1,1.252,1.252A1.252,1.252,0,0,1,344.311-52.959Z" transform="translate(-325.592 109.428)" fill="#5c22c3"/>
  <path id="Trazado_115611" data-name="Trazado 115611" d="M375.676-52.959H361.1a1.253,1.253,0,0,1-1.253-1.253,1.252,1.252,0,0,1,1.253-1.252h14.572a1.526,1.526,0,0,0,1.524-1.525V-96.563a1.525,1.525,0,0,0-1.524-1.524H361.1a1.253,1.253,0,0,1-1.253-1.253,1.252,1.252,0,0,1,1.253-1.252h14.572a4.032,4.032,0,0,1,4.029,4.029v39.575A4.034,4.034,0,0,1,375.676-52.959Z" transform="translate(-316.749 109.428)" fill="#5c22c3"/>
  <path id="Trazado_115612" data-name="Trazado 115612" d="M352.185-92.726a7.454,7.454,0,0,1-7.444-7.444,7.453,7.453,0,0,1,7.444-7.444,7.452,7.452,0,0,1,7.444,7.444A7.453,7.453,0,0,1,352.185-92.726Zm0-12.384a4.945,4.945,0,0,0-4.939,4.939,4.946,4.946,0,0,0,4.939,4.939,4.946,4.946,0,0,0,4.939-4.939A4.945,4.945,0,0,0,352.185-105.11Z" transform="translate(-320.649 107.615)" fill="#5c22c3"/>
  <path id="Trazado_115613" data-name="Trazado 115613" d="M346.017-82.186a3.044,3.044,0,0,1-2.315-1.063l-3.475-4.037a7.779,7.779,0,0,1-1.565-7.324l1.29-4.328a6.473,6.473,0,0,1,6.165-4.6h1.627a1.257,1.257,0,0,1,.959.445,1.257,1.257,0,0,1,.277,1.019,4.977,4.977,0,0,0-.079.845,4.925,4.925,0,0,0,1.818,3.826,1.253,1.253,0,0,1,.387,1.39,1.252,1.252,0,0,1-1.18.832h-1.38a1.719,1.719,0,0,0-1.517.907,5.012,5.012,0,0,0,.106,4.913l1.515,2.549a3.048,3.048,0,0,1-.181,3.4,3.045,3.045,0,0,1-2.345,1.222Zm.1-18.843a3.952,3.952,0,0,0-3.764,2.806l-1.29,4.329a5.283,5.283,0,0,0,1.063,4.973l3.475,4.037a.524.524,0,0,0,.438.191.539.539,0,0,0,.423-.22.552.552,0,0,0,.034-.615l-1.516-2.548a7.531,7.531,0,0,1-.157-7.38,4.219,4.219,0,0,1,2.559-2.062,7.433,7.433,0,0,1-.984-3.511Z" transform="translate(-322.303 108.669)" fill="#5c22c3"/>
  <path id="Trazado_115614" data-name="Trazado 115614" d="M357.934-82.186l-.1,0a3.044,3.044,0,0,1-2.345-1.22,3.052,3.052,0,0,1-.182-3.4l2.1-3.527a2.991,2.991,0,0,0,.064-2.934,3.619,3.619,0,0,0-3.193-1.909h-.244a1.253,1.253,0,0,1-1.18-.832,1.255,1.255,0,0,1,.388-1.39,4.921,4.921,0,0,0,1.818-3.826,4.94,4.94,0,0,0-.078-.845,1.252,1.252,0,0,1,.277-1.019,1.254,1.254,0,0,1,.957-.445h1.628a6.47,6.47,0,0,1,6.164,4.6l1.29,4.328a7.778,7.778,0,0,1-1.565,7.324l-3.474,4.037A3.048,3.048,0,0,1,357.934-82.186Zm-1.5-15.1a6.123,6.123,0,0,1,3.237,2.835,5.511,5.511,0,0,1-.116,5.4l-2.1,3.525a.552.552,0,0,0,.033.615.539.539,0,0,0,.424.22.531.531,0,0,0,.438-.191l3.474-4.037a5.279,5.279,0,0,0,1.063-4.973l-1.29-4.329a3.95,3.95,0,0,0-3.763-2.806h-.282A7.4,7.4,0,0,1,356.432-97.289Z" transform="translate(-318.575 108.669)" fill="#5c22c3"/>
  <path id="Trazado_115615" data-name="Trazado 115615" d="M358.809-80.011h-13.19a1.252,1.252,0,0,1-1.253-1.252v-5.78a1.254,1.254,0,0,1,.449-.961.522.522,0,0,0,.089-.093.554.554,0,0,0,.034-.616l-.35-.588a1.252,1.252,0,0,1-.013-1.259,1.254,1.254,0,0,1,1.09-.633h13.144a1.253,1.253,0,0,1,1.253,1.253v.151a1.261,1.261,0,0,1-.176.64l-.259.437a.547.547,0,0,0,.013.584l.073.073a1.256,1.256,0,0,1,.35.868v5.925A1.252,1.252,0,0,1,358.809-80.011Zm-11.937-2.5h10.685v-4.219a3.044,3.044,0,0,1-.5-1.954h-9.542a3.045,3.045,0,0,1-.6,2.092C346.872-86.545,346.872-82.516,346.872-82.516Z" transform="translate(-320.746 111.854)" fill="#5c22c3"/>
  <path id="Trazado_115616" data-name="Trazado 115616" d="M332.693-63.908a1.252,1.252,0,0,1-1.252-1.253V-92.119a1.252,1.252,0,0,1,1.252-1.253,1.253,1.253,0,0,1,1.253,1.253v26.958A1.253,1.253,0,0,1,332.693-63.908Z" transform="translate(-324.082 111.292)" fill="#5c22c3"/>
  <path id="Trazado_115617" data-name="Trazado 115617" d="M338.722-72.441a1.252,1.252,0,0,1-1.253-1.252v-12.8a1.252,1.252,0,0,1,1.253-1.252,1.251,1.251,0,0,1,1.252,1.252v12.8A1.251,1.251,0,0,1,338.722-72.441Z" transform="translate(-322.526 112.745)" fill="#5c22c3"/>
  <path id="Trazado_115618" data-name="Trazado 115618" d="M369.043-63.908a1.253,1.253,0,0,1-1.253-1.253V-92.119a1.253,1.253,0,0,1,1.253-1.253,1.252,1.252,0,0,1,1.252,1.253v26.958A1.252,1.252,0,0,1,369.043-63.908Z" transform="translate(-314.699 111.292)" fill="#5c22c3"/>
  <path id="Trazado_115619" data-name="Trazado 115619" d="M363.014-72.441a1.251,1.251,0,0,1-1.252-1.252v-12.8a1.251,1.251,0,0,1,1.252-1.252,1.252,1.252,0,0,1,1.253,1.252v12.8A1.252,1.252,0,0,1,363.014-72.441Z" transform="translate(-316.255 112.745)" fill="#5c22c3"/>
</svg>

