<svg id="Grupo_80178" data-name="Grupo 80178" xmlns="http://www.w3.org/2000/svg" width="94.809" height="132.833" viewBox="0 0 94.809 132.833">
  <g id="Grupo_80180" data-name="Grupo 80180" transform="translate(4.793 0)">
    <path id="Trazado_113586" data-name="Trazado 113586" d="M213.813,219.136H123.8V156.392h90.015Zm-88.236-1.779h86.457V158.172H125.577Z" transform="translate(-123.798 -156.392)" fill="#ba68c8"/>
  </g>
  <g id="Grupo_80190" data-name="Grupo 80190" transform="translate(17.097 11.454)">
    <path id="Trazado_113593" data-name="Trazado 113593" d="M180.627,202.067a5.9,5.9,0,0,0-1.125-.919,12.991,12.991,0,0,0-1.72-.942,14.13,14.13,0,0,0-2.147-.773,12.372,12.372,0,0,0-2.4-.412l-.029,8.808.808.173a37.609,37.609,0,0,1,4.145,1.248,11.831,11.831,0,0,1,3.123,1.67,6.763,6.763,0,0,1,1.971,2.411,7.8,7.8,0,0,1,.691,3.47,8.445,8.445,0,0,1-.821,3.848,7.506,7.506,0,0,1-2.243,2.653,10.01,10.01,0,0,1-3.324,1.585,16.176,16.176,0,0,1-4.066.561l-.015,4.468-2.213-.007.015-4.553a21.428,21.428,0,0,1-5.826-1.232,18.343,18.343,0,0,1-5.055-2.8l2.184-4.078a7.52,7.52,0,0,0,1.358,1.111,15.488,15.488,0,0,0,2.081,1.156,19.258,19.258,0,0,0,2.614.987,16.751,16.751,0,0,0,2.955.605l.029-8.808c-.17-.057-.347-.108-.531-.151s-.361-.093-.532-.151a35.925,35.925,0,0,1-3.932-1.268,9.831,9.831,0,0,1-2.782-1.6,6.248,6.248,0,0,1-1.674-2.2,7.275,7.275,0,0,1-.564-3.045,8.971,8.971,0,0,1,.736-3.7,8.106,8.106,0,0,1,2.051-2.78,9.718,9.718,0,0,1,3.091-1.82,14.361,14.361,0,0,1,3.9-.817l.014-4.3,2.213.007-.014,4.3a16.393,16.393,0,0,1,5.1,1.123,18.507,18.507,0,0,1,4.12,2.269Zm-14.046,1.06a3.074,3.074,0,0,0,1.247,2.685,12.115,12.115,0,0,0,3.8,1.587l.027-8.383a6.167,6.167,0,0,0-3.834,1.2A3.685,3.685,0,0,0,166.581,203.127ZM178.833,217.3a3.149,3.149,0,0,0-1.48-2.835,15.972,15.972,0,0,0-4.165-1.737l-.027,8.425a7.756,7.756,0,0,0,4.195-1.008A3.212,3.212,0,0,0,178.833,217.3Z" transform="translate(-160.394 -190.462)" fill="#ba68c8"/>
  </g>
  <rect id="Rectángulo_33793" data-name="Rectángulo 33793" width="35.322" height="5.026" transform="translate(50.825 17.879)" fill="#cfd5e7"/>
  <rect id="Rectángulo_33794" data-name="Rectángulo 33794" width="27.762" height="5.026" transform="translate(50.825 28.859)" fill="#cfd5e7"/>
  <rect id="Rectángulo_33795" data-name="Rectángulo 33795" width="31.151" height="5.026" transform="translate(50.825 39.84)" fill="#cfd5e7"/>
  <g id="Grupo_80193" data-name="Grupo 80193" transform="translate(55.054 65.81)">
    <path id="Trazado_113596" data-name="Trazado 113596" d="M304.392,419.168H273.3V352.145h1.779v65.244h29.314Z" transform="translate(-273.3 -352.145)" fill="#cfd5e7"/>
  </g>
  <g id="Grupo_80196" data-name="Grupo 80196" transform="translate(0 34.853)">
    <path id="Trazado_113599" data-name="Trazado 113599" d="M144.564,293.063H109.54v-33h1.779v31.222h33.244Z" transform="translate(-109.54 -260.062)" fill="#ba68c8"/>
  </g>
</svg>
