<svg xmlns="http://www.w3.org/2000/svg" width="1240.332" height="324.547" viewBox="0 0 1240.332 324.547">
  <g id="Grupo_80489" data-name="Grupo 80489" transform="translate(-179.668 -3003.721)">
    <g id="Grupo_80354" data-name="Grupo 80354" transform="translate(105 86)">
      <g id="Grupo_80331" data-name="Grupo 80331" transform="translate(285 2917.721)">
        <path id="Trazado_113685" data-name="Trazado 113685" d="M477.865,231.314l-33.95-19.6v39.2Z" transform="translate(-132.032 -69.04)" fill="#64b5f6"/>
        <path id="Trazado_113686" data-name="Trazado 113686" d="M340.749,16.732H234.634V341.279H340.749a56.222,56.222,0,0,0,56.159-56.159V72.891A56.222,56.222,0,0,0,340.749,16.732Z" transform="translate(-75.887 -16.732)" fill="#64b5f6"/>
        <g id="Grupo_80325" data-name="Grupo 80325" transform="translate(2.184 5.631)">
          <path id="Trazado_113687" data-name="Trazado 113687" d="M23.153,77.327a2.482,2.482,0,0,1-2.482-2.482c0-.721.015-1.451.046-2.172a2.482,2.482,0,1,1,4.959.211c-.028.651-.042,1.311-.042,1.961A2.481,2.481,0,0,1,23.153,77.327Zm5.283-21.9a2.483,2.483,0,0,1-2.2-3.618c.331-.642.68-1.287,1.038-1.914a2.482,2.482,0,1,1,4.311,2.46c-.323.566-.637,1.146-.935,1.725A2.483,2.483,0,0,1,28.436,55.425ZM43.164,38.362a2.482,2.482,0,0,1-1.45-4.5c.586-.421,1.188-.835,1.791-1.229a2.482,2.482,0,0,1,2.718,4.153c-.543.356-1.087.728-1.615,1.107A2.466,2.466,0,0,1,43.164,38.362Zm20.875-8.456a2.482,2.482,0,0,1-.358-4.938c.715-.105,1.441-.2,2.157-.271a2.482,2.482,0,1,1,.51,4.938c-.645.067-1.3.149-1.945.244A2.56,2.56,0,0,1,64.039,29.906Zm93.044-.515h-2.069a2.482,2.482,0,0,1,0-4.963h2.069a2.482,2.482,0,1,1,0,4.963Zm-22.75,0h-2.069a2.482,2.482,0,0,1,0-4.963h2.069a2.482,2.482,0,1,1,0,4.963Zm-22.75,0h-2.069a2.482,2.482,0,0,1,0-4.963h2.069a2.482,2.482,0,0,1,0,4.963Zm-22.75,0H86.764a2.482,2.482,0,1,1,0-4.963h2.069a2.482,2.482,0,0,1,0,4.963Z" transform="translate(-20.671 -24.428)" fill="#64b5f6"/>
        </g>
        <g id="Grupo_80329" data-name="Grupo 80329" transform="translate(0 182.956)">
          <g id="Grupo_80326" data-name="Grupo 80326" transform="translate(2.598 4.432)">
            <path id="Trazado_113688" data-name="Trazado 113688" d="M177.465,403.937H71.24a50.061,50.061,0,0,1-50-50V272.822h4.136v81.111A45.919,45.919,0,0,0,71.24,399.8H177.465Z" transform="translate(-21.236 -272.822)" fill="#64b5f6"/>
          </g>
          <g id="Grupo_80328" data-name="Grupo 80328">
            <g id="Grupo_80327" data-name="Grupo 80327">
              <path id="Trazado_113689" data-name="Trazado 113689" d="M27.018,271.431a4.666,4.666,0,1,0-4.665,4.665A4.666,4.666,0,0,0,27.018,271.431Z" transform="translate(-17.686 -266.765)" fill="#64b5f6"/>
            </g>
          </g>
        </g>
        <rect id="Rectángulo_33815" data-name="Rectángulo 33815" width="283.184" height="283.184" rx="60.169" transform="translate(17.155 20.682)" fill="#f7f7f7"/>
        <g id="Grupo_80330" data-name="Grupo 80330" transform="translate(128.094 49.251)">
          <path id="Trazado_113690" data-name="Trazado 113690" d="M244.236,115.283a1.04,1.04,0,0,1-.735-.3l-4.634-4.635a1.038,1.038,0,0,1-.129-1.313,50.32,50.32,0,0,1,6.132-7.316,46.349,46.349,0,0,1,8.844-7.1c3.162-1.845,5.36-2.186,6.531-1.013,2.494,2.494-2.457,9.719-8.113,15.375a50.418,50.418,0,0,1-7.317,6.131A1.042,1.042,0,0,1,244.236,115.283Zm-3.288-5.8,3.41,3.41a49.885,49.885,0,0,0,6.3-5.391c6.779-6.779,8.76-11.79,8.114-12.436-.127-.127-1.237-.281-4.014,1.34a44.217,44.217,0,0,0-8.421,6.774A49.808,49.808,0,0,0,240.948,109.486Z" transform="translate(-205.035 -86.422)" fill="#64b5f6"/>
          <path id="Trazado_113691" data-name="Trazado 113691" d="M240.9,124.865a2.164,2.164,0,0,1-1.54-.639l-5.881-5.88a2.177,2.177,0,0,1,0-3.08l1.621-1.622a2.23,2.23,0,0,1,3.08,0l5.881,5.881a2.177,2.177,0,0,1,0,3.08l-1.622,1.621A2.161,2.161,0,0,1,240.9,124.865Zm-4.26-9.775a.1.1,0,0,0-.069.024l-1.622,1.622a.108.108,0,0,0,0,.139l5.882,5.882a.11.11,0,0,0,.139,0l1.622-1.622V121l-5.882-5.882A.1.1,0,0,0,236.637,115.09Z" transform="translate(-203.499 -91.817)" fill="#64b5f6"/>
          <path id="Trazado_113692" data-name="Trazado 113692" d="M226.261,133.511a1.039,1.039,0,0,1-1.016-.821,1.073,1.073,0,0,0-.835-.835,1.04,1.04,0,0,1-.8-1.235l1.353-6.275a1.036,1.036,0,0,1,1.211-.8,6.554,6.554,0,0,0,6.28-3.076,1.038,1.038,0,0,1,1.584-.137l2.729,2.728a1.04,1.04,0,0,1-.138,1.585,6.571,6.571,0,0,0-3.077,6.274,1.039,1.039,0,0,1-.8,1.217l-6.275,1.353A1.014,1.014,0,0,1,226.261,133.511Zm-.434-3.3a3.082,3.082,0,0,1,.6.467,3.158,3.158,0,0,1,.467.595l4.54-.979a8.6,8.6,0,0,1,3.044-6.592l-1.075-1.075a8.472,8.472,0,0,1-6.592,3.043Z" transform="translate(-201.018 -93.694)" fill="#64b5f6"/>
          <path id="Trazado_113693" data-name="Trazado 113693" d="M223.233,139.667a3.171,3.171,0,0,1-2.243-5.413,3.247,3.247,0,0,1,4.485,0,3.171,3.171,0,0,1-2.243,5.414Zm0-4.264a1.092,1.092,0,0,0-.773,1.865,1.119,1.119,0,0,0,1.545,0,1.092,1.092,0,0,0-.773-1.865Z" transform="translate(-200.072 -97.27)" fill="#64b5f6"/>
          <path id="Trazado_113694" data-name="Trazado 113694" d="M251.92,106.812a1.035,1.035,0,0,1-.735-.3l-2.149-2.148a1.039,1.039,0,0,1,1.47-1.47l2.148,2.148a1.039,1.039,0,0,1-.735,1.774Z" transform="translate(-207.763 -89.015)" fill="#64b5f6"/>
          <path id="Trazado_113695" data-name="Trazado 113695" d="M246.664,160.024H209.48a1.039,1.039,0,0,1,0-2.078,4.887,4.887,0,0,0,4.881-4.881v-5.92a1.039,1.039,0,0,1,1.039-1.039h37.846a1.039,1.039,0,0,1,1.04,1.039V152.4A7.63,7.63,0,0,1,246.664,160.024Zm-32.227-2.078h32.227a5.55,5.55,0,0,0,5.544-5.544v-4.218H216.44v4.881A6.937,6.937,0,0,1,214.436,157.946Z" transform="translate(-196.954 -100.691)" fill="#64b5f6"/>
          <path id="Trazado_113696" data-name="Trazado 113696" d="M207.314,153.193a6.823,6.823,0,0,1-4.8-1.992,7.228,7.228,0,0,1-2.16-5.122V140.87a1.039,1.039,0,0,1,2.079,0v5.209a5.131,5.131,0,0,0,1.537,3.638,4.688,4.688,0,0,0,3.437,1.4,4.9,4.9,0,0,0,4.787-4.879v-5.92a1.039,1.039,0,0,1,1.039-1.039h26.558V121.68a1.039,1.039,0,0,1,2.079,0v18.633a1.04,1.04,0,0,1-1.04,1.04H214.269v4.881a6.994,6.994,0,0,1-6.827,6.958Z" transform="translate(-194.784 -93.859)" fill="#64b5f6"/>
          <path id="Trazado_113697" data-name="Trazado 113697" d="M199.349,122.493a1.039,1.039,0,0,1-1.04-1.039V90.646a4.532,4.532,0,0,0-4.527-4.527,1.039,1.039,0,0,1,0-2.079h39.437a6.614,6.614,0,0,1,6.606,6.606,1.039,1.039,0,0,1-2.079,0,4.532,4.532,0,0,0-4.527-4.527h-34.63a6.582,6.582,0,0,1,1.8,4.527v30.808A1.039,1.039,0,0,1,199.349,122.493Z" transform="translate(-192.743 -84.04)" fill="#64b5f6"/>
          <path id="Trazado_113698" data-name="Trazado 113698" d="M236.411,95.59H212.388a1.039,1.039,0,1,1,0-2.078h24.023a1.039,1.039,0,0,1,0,2.078Z" transform="translate(-197.734 -86.581)" fill="#64b5f6"/>
          <path id="Trazado_113699" data-name="Trazado 113699" d="M233.793,103.127h-21.4a1.039,1.039,0,0,1,0-2.079h21.4a1.039,1.039,0,1,1,0,2.079Z" transform="translate(-197.734 -88.603)" fill="#64b5f6"/>
          <path id="Trazado_113700" data-name="Trazado 113700" d="M227.048,110.664h-14.66a1.039,1.039,0,0,1,0-2.079h14.66a1.039,1.039,0,0,1,0,2.079Z" transform="translate(-197.734 -90.625)" fill="#64b5f6"/>
          <path id="Trazado_113701" data-name="Trazado 113701" d="M223.418,118.2h-11.03a1.039,1.039,0,0,1,0-2.079h11.03a1.039,1.039,0,0,1,0,2.079Z" transform="translate(-197.734 -92.647)" fill="#64b5f6"/>
          <path id="Trazado_113702" data-name="Trazado 113702" d="M217.716,125.737h-5.328a1.039,1.039,0,1,1,0-2.078h5.328a1.039,1.039,0,1,1,0,2.078Z" transform="translate(-197.734 -94.669)" fill="#64b5f6"/>
        </g>
        <text id="Variabilidad_en_la_información" data-name="Variabilidad en 
la información" transform="translate(13.663 124.184)" fill="#12263f" font-size="20" font-family="Roboto-Black, Roboto" font-weight="800"><tspan x="75.857" y="21">Variabilidad en </tspan><tspan x="78.318" y="48">la información</tspan></text>
        <text id="Permiten_al_investigador_estar_al_tanto_de_los_cambios_y_avances_que_tienen_lugar_dentro_de_un_campo_o_tema_determinado" data-name="Permiten al investigador estar al tanto de los cambios y avances que tienen lugar dentro de un campo o tema determinado" transform="translate(25.497 181.583)" fill="#12263f" font-size="16" font-family="Roboto-Regular, Roboto"><tspan x="17.043" y="17">Permiten al investigador estar al </tspan><tspan x="4.754" y="41">tanto de los cambios y avances que </tspan><tspan x="10.219" y="65">tienen lugar dentro de un campo o </tspan><tspan x="66.27" y="89">tema determinado</tspan></text>
      </g>
      <g id="Grupo_80342" data-name="Grupo 80342" transform="translate(639.489 2917.721)">
        <path id="Trazado_113703" data-name="Trazado 113703" d="M961.755,231.314l-33.95-19.6v39.2Z" transform="translate(-616.336 -69.04)" fill="#8c29cc"/>
        <path id="Trazado_113704" data-name="Trazado 113704" d="M825.205,16.732H719.09V341.279H825.205a56.222,56.222,0,0,0,56.159-56.159V72.891A56.222,56.222,0,0,0,825.205,16.732Z" transform="translate(-560.343 -16.732)" fill="#8c29cc"/>
        <g id="Grupo_80335" data-name="Grupo 80335" transform="translate(0 6.045)">
          <g id="Grupo_80332" data-name="Grupo 80332" transform="translate(2.598)">
            <path id="Trazado_113705" data-name="Trazado 113705" d="M509.828,157.189h-4.136V75a50.061,50.061,0,0,1,50-50H661.921v4.136H555.7A45.919,45.919,0,0,0,509.828,75Z" transform="translate(-505.692 -24.993)" fill="#8c29cc"/>
          </g>
          <g id="Grupo_80334" data-name="Grupo 80334" transform="translate(0 127.297)">
            <g id="Grupo_80333" data-name="Grupo 80333">
              <path id="Trazado_113706" data-name="Trazado 113706" d="M511.473,203.626a4.665,4.665,0,1,1-4.665-4.665A4.666,4.666,0,0,1,511.473,203.626Z" transform="translate(-502.142 -198.961)" fill="#8c29cc"/>
            </g>
          </g>
        </g>
        <g id="Grupo_80339" data-name="Grupo 80339" transform="translate(0 182.956)">
          <g id="Grupo_80336" data-name="Grupo 80336" transform="translate(2.598 4.432)">
            <rect id="Rectángulo_33816" data-name="Rectángulo 33816" width="4.136" height="81.111" fill="#8c29cc"/>
          </g>
          <g id="Grupo_80338" data-name="Grupo 80338">
            <g id="Grupo_80337" data-name="Grupo 80337">
              <path id="Trazado_113707" data-name="Trazado 113707" d="M511.473,271.431a4.665,4.665,0,1,0-4.665,4.665A4.666,4.666,0,0,0,511.473,271.431Z" transform="translate(-502.142 -266.765)" fill="#8c29cc"/>
            </g>
          </g>
        </g>
        <g id="Grupo_80340" data-name="Grupo 80340" transform="translate(6.377 285.654)">
          <path id="Trazado_113708" data-name="Trazado 113708" d="M663.307,440.377h-2.069a2.482,2.482,0,1,1,0-4.963h2.069a2.482,2.482,0,0,1,0,4.963Zm-22.75,0h-2.069a2.482,2.482,0,1,1,0-4.963h2.069a2.482,2.482,0,0,1,0,4.963Zm-22.751,0h-2.068a2.482,2.482,0,1,1,0-4.963h2.068a2.482,2.482,0,1,1,0,4.963Zm-22.75,0h-2.068a2.482,2.482,0,1,1,0-4.963h2.068a2.482,2.482,0,1,1,0,4.963Zm-22.75,0h-2.068a2.482,2.482,0,1,1,0-4.963h2.068a2.482,2.482,0,1,1,0,4.963Zm-22.714-.582a2.568,2.568,0,0,1-.387-.03c-.713-.111-1.433-.241-2.141-.383a2.482,2.482,0,1,1,.981-4.866c.638.129,1.287.245,1.929.345a2.482,2.482,0,0,1-.381,4.934Zm-20.807-8.656a2.475,2.475,0,0,1-1.465-.48c-.585-.429-1.166-.874-1.728-1.323a2.482,2.482,0,0,1,3.1-3.874c.5.4,1.029.8,1.557,1.192a2.482,2.482,0,0,1-1.468,4.485Zm-14.556-17.2a2.481,2.481,0,0,1-2.219-1.367c-.323-.643-.637-1.3-.933-1.961a2.482,2.482,0,1,1,4.527-2.035c.266.593.549,1.186.841,1.765a2.483,2.483,0,0,1-2.216,3.6Z" transform="translate(-510.857 -407.116)" fill="#8c29cc"/>
        </g>
        <rect id="Rectángulo_33817" data-name="Rectángulo 33817" width="283.184" height="283.184" rx="60.169" transform="translate(17.155 20.682)" fill="#f7f7f7"/>
        <g id="Grupo_80341" data-name="Grupo 80341" transform="translate(132.081 46.331)">
          <path id="Trazado_113709" data-name="Trazado 113709" d="M715.593,124.139H696.484a1.069,1.069,0,0,1-1.068-1.068v-1.925a26.943,26.943,0,0,0-4.307-14.213,17.591,17.591,0,1,1,29.98-.2,28.969,28.969,0,0,0-4.428,14.941v1.394A1.069,1.069,0,0,1,715.593,124.139ZM697.554,122h16.971v-.326a31.105,31.105,0,0,1,4.739-16.05,15.455,15.455,0,1,0-26.342.173,29.075,29.075,0,0,1,4.633,15.346Z" transform="translate(-684.204 -80.049)" fill="#8c29cc"/>
          <path id="Trazado_113710" data-name="Trazado 113710" d="M697.757,97.039a1.069,1.069,0,0,1-.945-1.564,13.024,13.024,0,0,1,6.812-6.1,1.068,1.068,0,0,1,.776,1.991,10.889,10.889,0,0,0-5.694,5.1A1.068,1.068,0,0,1,697.757,97.039Z" transform="translate(-686.415 -82.531)" fill="#8c29cc"/>
          <path id="Trazado_113711" data-name="Trazado 113711" d="M712.1,135.346a1.069,1.069,0,0,1-1.069-1.068v-8.261a1.069,1.069,0,0,1,.435-.86l4.238-3.124a1.068,1.068,0,0,1,1.268,1.72l-3.8,2.8v7.721A1.069,1.069,0,0,1,712.1,135.346Z" transform="translate(-690.261 -91.256)" fill="#8c29cc"/>
          <path id="Trazado_113712" data-name="Trazado 113712" d="M710.543,135.346a1.069,1.069,0,0,1-1.069-1.068v-7.721l-3.8-2.8a1.069,1.069,0,0,1,1.268-1.72l4.238,3.125a1.066,1.066,0,0,1,.435.86v8.261A1.069,1.069,0,0,1,710.543,135.346Z" transform="translate(-688.708 -91.256)" fill="#8c29cc"/>
          <path id="Trazado_113713" data-name="Trazado 113713" d="M709.745,110.01a1.059,1.059,0,0,1-.508-.128,1.07,1.07,0,0,1-.432-1.449l2.955-5.463h-2.8a1.069,1.069,0,0,1-.874-1.683l3.735-5.315a1.069,1.069,0,1,1,1.749,1.229l-2.553,3.633h2.541a1.068,1.068,0,0,1,.94,1.577l-3.807,7.04A1.067,1.067,0,0,1,709.745,110.01Z" transform="translate(-689.419 -84.199)" fill="#8c29cc"/>
          <path id="Trazado_113714" data-name="Trazado 113714" d="M714.462,155.14h-13.4a3.75,3.75,0,0,1-3.746-3.746v-2.573a3.018,3.018,0,0,1-2.444-2.959v-6.007a2.474,2.474,0,0,1,2.471-2.471H718.18a2.474,2.474,0,0,1,2.472,2.471v6.007a3.018,3.018,0,0,1-2.444,2.959v2.573A3.75,3.75,0,0,1,714.462,155.14Zm-17.116-15.619a.334.334,0,0,0-.334.334v6.007a.876.876,0,0,0,.875.876h.5a1.069,1.069,0,0,1,1.068,1.068v3.588A1.61,1.61,0,0,0,701.065,153h13.4a1.611,1.611,0,0,0,1.609-1.609v-3.588a1.068,1.068,0,0,1,1.068-1.068h.5a.876.876,0,0,0,.875-.876v-6.007a.334.334,0,0,0-.334-.334Z" transform="translate(-685.928 -95.43)" fill="#8c29cc"/>
          <path id="Trazado_113715" data-name="Trazado 113715" d="M712.338,166.332h-5.11a4.829,4.829,0,0,1-4.824-4.824V159.8a1.068,1.068,0,0,1,1.068-1.068h12.62a1.069,1.069,0,0,1,1.068,1.068v1.711A4.829,4.829,0,0,1,712.338,166.332Zm-7.8-5.465v.642a2.69,2.69,0,0,0,2.687,2.686h5.11a2.69,2.69,0,0,0,2.687-2.686v-.642Z" transform="translate(-687.948 -101.157)" fill="#8c29cc"/>
          <path id="Trazado_113716" data-name="Trazado 113716" d="M712.37,152.3H699.283a1.068,1.068,0,0,1,0-2.137H712.37a1.068,1.068,0,1,1,0,2.137Z" transform="translate(-686.824 -98.86)" fill="#8c29cc"/>
          <path id="Trazado_113717" data-name="Trazado 113717" d="M736.487,116.07a1.068,1.068,0,0,1-.184-2.121l2.919-.515a1.069,1.069,0,0,1,.372,2.1l-2.919.515A1.085,1.085,0,0,1,736.487,116.07Z" transform="translate(-696.805 -89.001)" fill="#8c29cc"/>
          <path id="Trazado_113718" data-name="Trazado 113718" d="M739.409,125.375a1.018,1.018,0,0,1-.187-.017l-2.919-.514a1.069,1.069,0,0,1,.372-2.1l2.919.514a1.069,1.069,0,0,1-.184,2.121Z" transform="translate(-696.805 -91.497)" fill="#8c29cc"/>
          <path id="Trazado_113719" data-name="Trazado 113719" d="M736.112,134.425a1.062,1.062,0,0,1-.533-.143l-2.566-1.482a1.068,1.068,0,0,1,1.068-1.851l2.566,1.482a1.068,1.068,0,0,1-.535,1.994Z" transform="translate(-696.016 -93.666)" fill="#8c29cc"/>
          <path id="Trazado_113720" data-name="Trazado 113720" d="M687.141,134.425a1.069,1.069,0,0,1-.536-1.994l2.567-1.482a1.068,1.068,0,0,1,1.068,1.851l-2.566,1.482A1.062,1.062,0,0,1,687.141,134.425Z" transform="translate(-683.566 -93.666)" fill="#8c29cc"/>
          <path id="Trazado_113721" data-name="Trazado 113721" d="M683.715,125.375a1.069,1.069,0,0,1-.184-2.121l2.918-.514a1.068,1.068,0,1,1,.371,2.1l-2.918.514A1.017,1.017,0,0,1,683.715,125.375Z" transform="translate(-682.648 -91.497)" fill="#8c29cc"/>
          <path id="Trazado_113722" data-name="Trazado 113722" d="M686.636,116.07a1.084,1.084,0,0,1-.187-.016l-2.918-.515a1.068,1.068,0,1,1,.371-2.1l2.918.515a1.068,1.068,0,0,1-.184,2.121Z" transform="translate(-682.648 -89.001)" fill="#8c29cc"/>
        </g>
        <text id="Solución_a_problemas" data-name="Solución a 
problemas" transform="translate(16.98 125.967)" fill="#12263f" font-size="20" font-family="Roboto-Black, Roboto" font-weight="800"><tspan x="94.4" y="21">Solución a </tspan><tspan x="93.936" y="48">problemas</tspan></text>
        <text id="Son_recursos_informativos_que_tienen_como_objetivo_dar_una_respuesta_concreta_a_preguntas_previamente_planteadas" data-name="Son recursos informativos que tienen como objetivo dar una respuesta concreta a preguntas previamente planteadas" transform="translate(26.029 181.583)" fill="#12263f" font-size="16" font-family="Roboto-Regular, Roboto"><tspan x="22.821" y="17">Son recursos informativos que </tspan><tspan x="28.582" y="41">tienen como objetivo dar una </tspan><tspan x="18.879" y="65">respuesta concreta a preguntas </tspan><tspan x="46.133" y="89">previamente planteadas</tspan></text>
      </g>
      <g id="Grupo_80353" data-name="Grupo 80353" transform="translate(993.979 2917.721)">
        <path id="Trazado_113723" data-name="Trazado 113723" d="M1309.661,16.732H1203.545V341.279h106.116a56.222,56.222,0,0,0,56.159-56.159V72.891A56.223,56.223,0,0,0,1309.661,16.732Z" transform="translate(-1044.799 -16.732)" fill="#64b5f6"/>
        <g id="Grupo_80343" data-name="Grupo 80343" transform="translate(2.183 5.631)">
          <path id="Trazado_113724" data-name="Trazado 113724" d="M992.064,77.327a2.482,2.482,0,0,1-2.482-2.482c0-.724.015-1.455.046-2.172a2.482,2.482,0,1,1,4.959.211c-.027.647-.041,1.307-.041,1.961A2.482,2.482,0,0,1,992.064,77.327Zm5.283-21.9a2.483,2.483,0,0,1-2.2-3.618c.332-.644.681-1.289,1.039-1.915a2.482,2.482,0,1,1,4.31,2.462c-.322.564-.637,1.144-.935,1.725A2.483,2.483,0,0,1,997.347,55.425Zm14.728-17.062a2.482,2.482,0,0,1-1.449-4.5c.587-.421,1.19-.835,1.791-1.229a2.482,2.482,0,1,1,2.718,4.153c-.542.355-1.086.728-1.615,1.108A2.472,2.472,0,0,1,1012.075,38.362Zm20.875-8.456a2.482,2.482,0,0,1-.359-4.938c.715-.105,1.441-.2,2.157-.271a2.482,2.482,0,0,1,.511,4.938c-.646.067-1.3.149-1.945.244A2.568,2.568,0,0,1,1032.95,29.906Zm93.044-.515h-2.068a2.482,2.482,0,1,1,0-4.963h2.068a2.482,2.482,0,1,1,0,4.963Zm-22.75,0h-2.068a2.482,2.482,0,1,1,0-4.963h2.068a2.482,2.482,0,1,1,0,4.963Zm-22.75,0h-2.068a2.482,2.482,0,1,1,0-4.963h2.068a2.482,2.482,0,1,1,0,4.963Zm-22.75,0h-2.068a2.482,2.482,0,1,1,0-4.963h2.068a2.482,2.482,0,1,1,0,4.963Z" transform="translate(-989.582 -24.428)" fill="#64b5f6"/>
        </g>
        <g id="Grupo_80347" data-name="Grupo 80347" transform="translate(0 56.048)">
          <g id="Grupo_80344" data-name="Grupo 80344" transform="translate(2.597)">
            <rect id="Rectángulo_33818" data-name="Rectángulo 33818" width="4.136" height="81.111" fill="#64b5f6"/>
          </g>
          <g id="Grupo_80346" data-name="Grupo 80346" transform="translate(0 76.212)">
            <g id="Grupo_80345" data-name="Grupo 80345">
              <path id="Trazado_113725" data-name="Trazado 113725" d="M995.929,202.148a4.665,4.665,0,1,1-4.665-4.665A4.666,4.666,0,0,1,995.929,202.148Z" transform="translate(-986.598 -197.483)" fill="#64b5f6"/>
            </g>
          </g>
        </g>
        <g id="Grupo_80351" data-name="Grupo 80351" transform="translate(0 182.956)">
          <g id="Grupo_80348" data-name="Grupo 80348" transform="translate(2.598 4.432)">
            <path id="Trazado_113726" data-name="Trazado 113726" d="M1146.376,403.937H1040.151a50.06,50.06,0,0,1-50-50V272.822h4.136v81.111a45.918,45.918,0,0,0,45.867,45.867h106.225Z" transform="translate(-990.148 -272.822)" fill="#64b5f6"/>
          </g>
          <g id="Grupo_80350" data-name="Grupo 80350">
            <g id="Grupo_80349" data-name="Grupo 80349">
              <path id="Trazado_113727" data-name="Trazado 113727" d="M995.929,271.431a4.665,4.665,0,1,0-4.665,4.665A4.666,4.666,0,0,0,995.929,271.431Z" transform="translate(-986.598 -266.765)" fill="#64b5f6"/>
            </g>
          </g>
        </g>
        <rect id="Rectángulo_33819" data-name="Rectángulo 33819" width="283.184" height="283.184" rx="60.169" transform="translate(17.154 20.682)" fill="#f7f7f7"/>
        <g id="Grupo_80352" data-name="Grupo 80352" transform="translate(122.027 39.425)">
          <path id="Trazado_113728" data-name="Trazado 113728" d="M1238.868,110.159a1.248,1.248,0,0,1-.219-.019l-4.415-.779a1.252,1.252,0,1,1,.434-2.466l4.415.779a1.252,1.252,0,0,1-.216,2.486Z" transform="translate(-1174.781 -80.34)" fill="#64b5f6"/>
          <path id="Trazado_113729" data-name="Trazado 113729" d="M1233.882,123.85a1.242,1.242,0,0,1-.625-.168l-3.883-2.242a1.252,1.252,0,0,1,1.253-2.169l3.882,2.242a1.252,1.252,0,0,1-.628,2.336Z" transform="translate(-1173.588 -83.621)" fill="#64b5f6"/>
          <path id="Trazado_113730" data-name="Trazado 113730" d="M1224.518,135.011a1.254,1.254,0,0,1-.961-.447l-2.881-3.435a1.253,1.253,0,0,1,1.92-1.609l2.882,3.434a1.252,1.252,0,0,1-.959,2.057Z" transform="translate(-1171.344 -86.295)" fill="#64b5f6"/>
          <path id="Trazado_113731" data-name="Trazado 113731" d="M1169.528,135.011a1.252,1.252,0,0,1-.959-2.057l2.881-3.434a1.252,1.252,0,0,1,1.919,1.609l-2.881,3.435A1.253,1.253,0,0,1,1169.528,135.011Z" transform="translate(-1157.365 -86.295)" fill="#64b5f6"/>
          <path id="Trazado_113732" data-name="Trazado 113732" d="M1159.8,123.85a1.252,1.252,0,0,1-.627-2.336l3.883-2.242a1.252,1.252,0,1,1,1.253,2.169l-3.883,2.242A1.245,1.245,0,0,1,1159.8,123.85Z" transform="translate(-1154.753 -83.621)" fill="#64b5f6"/>
          <path id="Trazado_113733" data-name="Trazado 113733" d="M1154.616,110.159a1.252,1.252,0,0,1-.216-2.486l4.416-.779a1.252,1.252,0,1,1,.434,2.466l-4.416.779A1.232,1.232,0,0,1,1154.616,110.159Z" transform="translate(-1153.364 -80.34)" fill="#64b5f6"/>
          <path id="Trazado_113734" data-name="Trazado 113734" d="M1191.536,113.266a17.66,17.66,0,1,1,0-35.32,17.5,17.5,0,0,1,7.568,1.7,1.252,1.252,0,1,1-1.074,2.262,15.012,15.012,0,0,0-6.493-1.458,15.152,15.152,0,1,0,12.282,6.276,1.253,1.253,0,0,1,2.029-1.47,17.662,17.662,0,0,1-14.311,28.009Z" transform="translate(-1158.867 -72.58)" fill="#64b5f6"/>
          <path id="Trazado_113735" data-name="Trazado 113735" d="M1195.04,142.888a5.039,5.039,0,0,1-3.607-1.413,4.607,4.607,0,0,1-1.368-3.29V136.3h-.631a2.746,2.746,0,0,1-2.743-2.743v-3.778a1.252,1.252,0,0,1,1.656-1.185,20.605,20.605,0,0,0,13.255,0,1.252,1.252,0,0,1,1.657,1.185v3.777a2.745,2.745,0,0,1-2.743,2.743h-.632v1.881a4.6,4.6,0,0,1-1.368,3.29A4.95,4.95,0,0,1,1195.04,142.888Zm-5.845-11.422v2.1a.238.238,0,0,0,.239.238h1.883a1.252,1.252,0,0,1,1.252,1.253v3.133a2.092,2.092,0,0,0,.629,1.513,2.432,2.432,0,0,0,1.71.685,2.524,2.524,0,0,0,1.84-.685,2.093,2.093,0,0,0,.629-1.513v-3.133a1.252,1.252,0,0,1,1.253-1.253h1.884a.238.238,0,0,0,.238-.238v-2.095A23.115,23.115,0,0,1,1189.195,131.466Z" transform="translate(-1162.304 -86.15)" fill="#64b5f6"/>
          <path id="Trazado_113736" data-name="Trazado 113736" d="M1189.569,116.665a23.051,23.051,0,0,1-18.944-9.932,1.252,1.252,0,1,1,2.058-1.425,20.455,20.455,0,1,0-3.391-8.481,1.253,1.253,0,0,1-2.475.385,23.382,23.382,0,0,1-.275-3.573,23.027,23.027,0,1,1,23.027,23.026Z" transform="translate(-1156.899 -70.612)" fill="#64b5f6"/>
          <path id="Trazado_113737" data-name="Trazado 113737" d="M1195.932,138.236h-3.378a1.252,1.252,0,1,1,0-2.5h3.378a1.252,1.252,0,0,1,0,2.5Z" transform="translate(-1163.542 -88.082)" fill="#64b5f6"/>
          <path id="Trazado_113738" data-name="Trazado 113738" d="M1195.673,168.571a6.384,6.384,0,0,1-6.376-6.376V142.588a1.252,1.252,0,0,1,1.989-1.012,7.553,7.553,0,0,0,1.933,1.013,1.241,1.241,0,0,1,.548.381,2.386,2.386,0,0,0,1.857.849,2.443,2.443,0,0,0,1.953-.849,1.242,1.242,0,0,1,.549-.381,7.523,7.523,0,0,0,1.932-1.013,1.252,1.252,0,0,1,1.99,1.012v19.607A6.383,6.383,0,0,1,1195.673,168.571Zm-3.872-23.846v17.47a3.871,3.871,0,1,0,7.742,0v-17.47c-.092.039-.185.077-.279.113a5.085,5.085,0,0,1-7.185,0C1191.987,144.8,1191.894,144.763,1191.8,144.725Z" transform="translate(-1163.004 -89.585)" fill="#64b5f6"/>
          <path id="Trazado_113739" data-name="Trazado 113739" d="M1200.8,168.261H1190.55a1.252,1.252,0,1,1,0-2.5H1200.8a1.252,1.252,0,1,1,0,2.5Z" transform="translate(-1163.004 -96.137)" fill="#64b5f6"/>
          <path id="Trazado_113740" data-name="Trazado 113740" d="M1190.56,120.526a1,1,0,0,1-1-1V110.35a1,1,0,1,1,2,0v9.174A1,1,0,0,1,1190.56,120.526Z" transform="translate(-1163.074 -81.004)" fill="#64b5f6"/>
          <path id="Trazado_113741" data-name="Trazado 113741" d="M1204.728,120.6a1,1,0,0,1-1-1V110.35a1,1,0,1,1,2,0v9.243A1,1,0,0,1,1204.728,120.6Z" transform="translate(-1166.875 -81.004)" fill="#64b5f6"/>
          <path id="Trazado_113742" data-name="Trazado 113742" d="M1196.22,96.744H1196c-1.126,0-2.743-.517-3.991-2.878a8.966,8.966,0,0,1-.992-4.188v-.139a3.476,3.476,0,0,1,1.785-3.048,6.95,6.95,0,0,1,3.315-.895,6.723,6.723,0,0,1,3.558,1.158,3.467,3.467,0,0,1,1.58,2.923,8.97,8.97,0,0,1-1.008,4.22C1199,96.232,1197.39,96.744,1196.22,96.744Zm-.115-2c.952.043,1.726-.575,2.373-1.787a6.979,6.979,0,0,0,.771-3.275,1.47,1.47,0,0,0-.666-1.241,4.737,4.737,0,0,0-2.469-.837,4.952,4.952,0,0,0-2.346.645,1.472,1.472,0,0,0-.751,1.294v.139a6.96,6.96,0,0,0,.76,3.251C1194.425,94.157,1195.24,94.761,1196.105,94.74Z" transform="translate(-1163.465 -74.632)" fill="#64b5f6"/>
          <path id="Trazado_113743" data-name="Trazado 113743" d="M1194.154,119.43a17.284,17.284,0,0,1-10.1-3.246,1,1,0,0,1-.42-.815V107.2a5.342,5.342,0,0,1,5.337-5.336h10.367a5.34,5.34,0,0,1,5.335,5.334v8.176a1,1,0,0,1-.419.815A17.282,17.282,0,0,1,1194.154,119.43Zm-8.516-4.586a15.328,15.328,0,0,0,17.031,0v-7.65a3.334,3.334,0,0,0-3.332-3.33h-10.367a3.336,3.336,0,0,0-3.332,3.332Z" transform="translate(-1161.485 -78.995)" fill="#64b5f6"/>
        </g>
        <text id="Se_adapta_a_las_necesidades" data-name="Se adapta a 
las necesidades" transform="translate(13.335 124.184)" fill="#12263f" font-size="20" font-family="Roboto-Black, Roboto" font-weight="800"><tspan x="90.798" y="21">Se adapta a </tspan><tspan x="71.013" y="48">las necesidades</tspan></text>
        <text id="Estas_necesidades_varían_de_una_investigación_a_otra_y_abarcan_la_localización_y_obtención_de_documentos_espeíficos_o_generales_sobre_el_tema" data-name="Estas necesidades varían de una investigación a otra y abarcan la localización y obtención de documentos espeíficos o generales sobre el tema" transform="translate(25.169 181.583)" fill="#12263f" font-size="16" font-family="Roboto-Regular, Roboto"><tspan x="15.457" y="17">Estas necesidades varían de una </tspan><tspan x="17.286" y="41">investigación a otra y abarcan la </tspan><tspan x="35.321" y="65">localización y obtención de </tspan><tspan x="5.547" y="89">documentos espeíficos o generales </tspan></text>
      </g>
    </g>
    <g id="Grupo_80488" data-name="Grupo 80488" transform="translate(-211 197.964)">
      <path id="Rectángulo_5114" data-name="Rectángulo 5114" d="M0,0H190.332a0,0,0,0,1,0,0V71.333a30,30,0,0,1-30,30H0a0,0,0,0,1,0,0V0A0,0,0,0,1,0,0Z" transform="translate(390.668 2896)" fill="#5c22c3" opacity="0.25"/>
      <rect id="Rectángulo_5115" data-name="Rectángulo 5115" width="20.162" height="6.452" transform="translate(390.668 2896)" fill="#5c22c3"/>
      <text id="Características_de_las_fuentes_de_información" data-name="Características de las fuentes de información" transform="translate(410.83 2909.246)" fill="#12263f" font-size="18" font-family="Roboto-Black, Roboto" font-weight="800"><tspan x="0" y="19">Características de </tspan><tspan x="0" y="44">las fuentes de </tspan><tspan x="0" y="69">información</tspan></text>
    </g>
  </g>
</svg>
