<svg xmlns="http://www.w3.org/2000/svg" width="1030" height="365.77" viewBox="0 0 1030 365.77">
  <g id="Grupo_82236" data-name="Grupo 82236" transform="translate(-285 -924)">
    <path id="Trazado_115318" data-name="Trazado 115318" d="M514.741,558.567l2.848-2.821a3.937,3.937,0,0,1,.345-.493,64.665,64.665,0,0,0,6.759-8.371c9.732-14.4,14.092-30.273,12.4-47.578-2.021-20.654-11.4-37.444-27.672-50.313A68.4,68.4,0,0,0,487.291,437.4a71.363,71.363,0,0,0-43.9.043c-3.759,1.19-7.3,2.9-10.918,4.444a139.652,139.652,0,0,1-27.564,8.353,131.484,131.484,0,0,1-39.3,2.235,96.8,96.8,0,0,1-35.917-10.624,72.1,72.1,0,0,0-82.606,9.941,67.97,67.97,0,0,0-11.706,13.638,72,72,0,0,0,6.175,87.521,67.607,67.607,0,0,0,18.629,14.983,232.526,232.526,0,0,0,43.773,18.324c31.683,9.666,64.055,12.575,96.995,9.781a288.5,288.5,0,0,0,47.539-8.114,266.074,266.074,0,0,0,47.934-16.963,69.8,69.8,0,0,0,15.7-10.181C512.989,560.034,513.868,559.3,514.741,558.567Z" transform="translate(61.577 509.838)" fill="#64b5f6"/>
    <path id="Trazado_115319" data-name="Trazado 115319" d="M1585.628,558.567l2.848-2.821a3.879,3.879,0,0,1,.346-.493,64.809,64.809,0,0,0,6.759-8.371c9.731-14.4,14.092-30.273,12.4-47.578-2.021-20.654-11.4-37.444-27.672-50.313a68.413,68.413,0,0,0-22.129-11.594,71.362,71.362,0,0,0-43.9.043c-3.76,1.19-7.3,2.9-10.918,4.444a139.663,139.663,0,0,1-27.563,8.353,131.485,131.485,0,0,1-39.3,2.235,96.8,96.8,0,0,1-35.917-10.624,72.1,72.1,0,0,0-82.607,9.941,68,68,0,0,0-11.706,13.638,72,72,0,0,0,6.175,87.521,67.617,67.617,0,0,0,18.628,14.983,232.533,232.533,0,0,0,43.773,18.324c31.683,9.666,64.054,12.575,96.995,9.781a288.482,288.482,0,0,0,47.538-8.114,266.079,266.079,0,0,0,47.935-16.963,69.794,69.794,0,0,0,15.7-10.181C1583.876,560.034,1584.755,559.3,1585.628,558.567Z" transform="translate(-293.336 509.838)" fill="#d168cb"/>
    <path id="Trazado_115320" data-name="Trazado 115320" d="M781.574,443.215l-2.848,2.821a3.924,3.924,0,0,1-.346.493,64.724,64.724,0,0,0-6.758,8.371c-9.732,14.4-14.092,30.273-12.4,47.578,2.022,20.654,11.4,37.444,27.672,50.314a68.415,68.415,0,0,0,22.129,11.594,71.361,71.361,0,0,0,43.9-.043c3.76-1.189,7.3-2.9,10.919-4.444a139.7,139.7,0,0,1,27.564-8.353,131.484,131.484,0,0,1,39.3-2.234,96.806,96.806,0,0,1,35.917,10.624,72.1,72.1,0,0,0,82.607-9.941,67.97,67.97,0,0,0,11.705-13.638,72,72,0,0,0-6.175-87.521,67.6,67.6,0,0,0-18.629-14.984,232.584,232.584,0,0,0-43.773-18.325c-31.683-9.666-64.054-12.575-96.994-9.781a288.546,288.546,0,0,0-47.539,8.113,266.021,266.021,0,0,0-47.935,16.964,69.811,69.811,0,0,0-15.7,10.18C783.325,441.748,782.446,442.477,781.574,443.215Z" transform="translate(-115.879 519.267)" fill="#5c22c3"/>
    <path id="Trazado_115321" data-name="Trazado 115321" d="M736.219,832.109l2.847-2.821a3.915,3.915,0,0,1,.346-.493,64.78,64.78,0,0,0,6.759-8.371c9.731-14.4,14.092-30.273,12.4-47.577-2.021-20.654-11.4-37.444-27.672-50.314a68.429,68.429,0,0,0-22.129-11.594,71.364,71.364,0,0,0-43.9.043c-3.76,1.189-7.3,2.9-10.919,4.444a139.71,139.71,0,0,1-27.563,8.353,131.462,131.462,0,0,1-39.3,2.234,96.773,96.773,0,0,1-35.918-10.624,72.1,72.1,0,0,0-82.607,9.942,67.967,67.967,0,0,0-11.705,13.637,72.005,72.005,0,0,0,6.175,87.521,67.614,67.614,0,0,0,18.629,14.983A232.586,232.586,0,0,0,525.432,859.8c31.683,9.666,64.055,12.575,96.995,9.781a288.573,288.573,0,0,0,47.539-8.114A266.059,266.059,0,0,0,717.9,844.5a69.841,69.841,0,0,0,15.7-10.18C734.467,833.576,735.346,832.846,736.219,832.109Z" transform="translate(-11.825 419.181)" fill="#6a1cc7"/>
    <path id="Trazado_115322" data-name="Trazado 115322" d="M1003.051,716.757l-2.848,2.821a3.917,3.917,0,0,1-.346.493,64.814,64.814,0,0,0-6.759,8.371c-9.731,14.4-14.092,30.273-12.4,47.578,2.021,20.654,11.4,37.444,27.672,50.314a68.429,68.429,0,0,0,22.129,11.593,71.359,71.359,0,0,0,43.9-.043c3.76-1.19,7.3-2.9,10.919-4.444a139.7,139.7,0,0,1,27.563-8.353,131.483,131.483,0,0,1,39.3-2.235,96.8,96.8,0,0,1,35.917,10.624,72.1,72.1,0,0,0,82.607-9.941,67.993,67.993,0,0,0,11.706-13.638,72,72,0,0,0-6.175-87.521,67.634,67.634,0,0,0-18.629-14.984,232.62,232.62,0,0,0-43.773-18.324c-31.683-9.666-64.055-12.575-96.995-9.781A288.507,288.507,0,0,0,1069.3,687.4a266.067,266.067,0,0,0-47.934,16.963,69.815,69.815,0,0,0-15.7,10.18C1004.8,715.29,1003.924,716.02,1003.051,716.757Z" transform="translate(-189.281 428.609)" fill="#fff400"/>
    <text id="_1." data-name="1." transform="translate(322.024 1047.507)" fill="#5c22c3" font-size="60" font-family="Roboto-Black, Roboto" font-weight="800"><tspan x="0" y="0">1.</tspan></text>
    <text id="_4." data-name="4." transform="translate(465 1219.438)" fill="#fff400" font-size="60" font-family="Roboto-Black, Roboto" font-weight="800"><tspan x="0" y="0">4.</tspan></text>
    <text id="_5." data-name="5." transform="translate(850.077 1214.014)" fill="#6a1cc7" font-size="60" font-family="Roboto-Black, Roboto" font-weight="800"><tspan x="0" y="0">5.</tspan></text>
    <text id="_3." data-name="3." transform="translate(1058 1037.883)" fill="#fff" font-size="60" font-family="Roboto-Black, Roboto" font-weight="800"><tspan x="0" y="0">3.</tspan></text>
    <text id="_2." data-name="2." transform="translate(695.529 1027.058)" fill="#fef536" font-size="60" font-family="Roboto-Black, Roboto" font-weight="800"><tspan x="0" y="0">2.</tspan></text>
    <g id="Grupo_82233" data-name="Grupo 82233" transform="translate(547.997 1042.058)">
      <path id="Trazado_115323" data-name="Trazado 115323" d="M813.845,598.179l6.684-16.867L801.4,584.056" transform="translate(-677.973 -581.313)" fill="none" stroke="#373737" stroke-linecap="round" stroke-linejoin="round" stroke-width="5.5"/>
      <path id="Trazado_115324" data-name="Trazado 115324" d="M759.344,581.313l-.043.03c-55.768,39.244-119.342,44.957-142,12.767-.176-.25-.352-.5-.517-.758" transform="translate(-616.789 -581.313)" fill="none" stroke="#373737" stroke-linecap="round" stroke-linejoin="round" stroke-width="5.5"/>
    </g>
    <g id="Grupo_82234" data-name="Grupo 82234" transform="translate(685.399 1229.014)">
      <path id="Trazado_115325" data-name="Trazado 115325" d="M1019.358,877.811l6.684-16.867-19.126,2.744" transform="translate(-883.487 -860.945)" fill="none" stroke="#373737" stroke-linecap="round" stroke-linejoin="round" stroke-width="5.5"/>
      <path id="Trazado_115326" data-name="Trazado 115326" d="M964.857,860.945l-.043.031c-55.768,39.244-119.342,44.957-142,12.766-.176-.25-.352-.5-.517-.758" transform="translate(-822.302 -860.945)" fill="none" stroke="#373737" stroke-linecap="round" stroke-linejoin="round" stroke-width="5.5"/>
    </g>
    <g id="Grupo_82235" data-name="Grupo 82235" transform="translate(893.528 1042.058)">
      <path id="Trazado_115327" data-name="Trazado 115327" d="M1330.658,598.179l6.684-16.867-19.126,2.744" transform="translate(-1194.786 -581.313)" fill="none" stroke="#373737" stroke-linecap="round" stroke-linejoin="round" stroke-width="5.5"/>
      <path id="Trazado_115328" data-name="Trazado 115328" d="M1276.157,581.313l-.043.03c-55.768,39.244-119.342,44.957-142,12.767-.176-.25-.352-.5-.517-.758" transform="translate(-1133.602 -581.313)" fill="none" stroke="#373737" stroke-linecap="round" stroke-linejoin="round" stroke-width="5.5"/>
    </g>
    <text id="Organizar_la_información_desde_el_momento_en_que_se_obtiene." data-name="Organizar la información desde el momento en que se obtiene." transform="translate(380.001 995.185)" fill="#12263f" font-size="16" font-family="Roboto-Regular, Roboto"><tspan x="0" y="15">Organizar la información </tspan><tspan x="0" y="39">desde el momento en </tspan><tspan x="0" y="63">que se obtiene.</tspan></text>
    <text id="Ser_selectivo_en_la_información._" data-name="Ser selectivo en la información. " transform="translate(754.053 987.704)" fill="#fff" font-size="16" font-family="Roboto-Regular, Roboto"><tspan x="0" y="15">Ser selectivo en la </tspan><tspan x="0" y="39">información. </tspan></text>
    <text id="Regresar_a_la_fuente_en_caso_de_ser_necesario." data-name="Regresar a la fuente en caso de ser necesario." transform="translate(523.268 1181.816)" fill="#fff" font-size="16" font-family="Roboto-Regular, Roboto"><tspan x="0" y="15">Regresar a la fuente en </tspan><tspan x="0" y="39">caso de ser necesario.</tspan></text>
    <text id="Tomar_nota_de_la_bibliografía_de_la_información._" data-name="Tomar nota de la bibliografía de la información.  " transform="translate(909.083 1157.014)" fill="#5c22c3" font-size="16" font-family="Roboto-Regular, Roboto"><tspan x="0" y="15">Tomar nota de la </tspan><tspan x="0" y="39">bibliografía de la </tspan><tspan x="0" y="63" xml:space="preserve">información.  </tspan></text>
    <text id="Identificar_sobre_que_elementos_hace_falta_mas_información._" data-name="Identificar sobre que elementos hace falta mas información. " transform="translate(1116 982.882)" fill="#fff" font-size="16" font-family="Roboto-Regular, Roboto"><tspan x="0" y="15">Identificar sobre que </tspan><tspan x="0" y="39">elementos hace falta </tspan><tspan x="0" y="63">mas información. </tspan></text>
  </g>
</svg>
