<svg xmlns="http://www.w3.org/2000/svg" width="820" height="247.64" viewBox="0 0 820 247.64">
  <g id="Grupo_80532" data-name="Grupo 80532" transform="translate(-26.509 -30.856)">
    <g id="Grupo_80551" data-name="Grupo 80551" transform="translate(26.509 30.856)">
      <rect id="Rectángulo_33859" data-name="Rectángulo 33859" width="206.818" height="206.818" rx="4.86" transform="translate(20.411 20.411)" fill="#ba68c8"/>
      <g id="Grupo_80535" data-name="Grupo 80535" transform="translate(0 115.712)">
        <g id="Grupo_80532-2" data-name="Grupo 80532" transform="translate(243.585)">
          <path id="Trazado_113879" data-name="Trazado 113879" d="M347.866,190.657a2.027,2.027,0,0,1-2.028-2.027v-4.054a2.027,2.027,0,1,1,4.054,0v4.054A2.027,2.027,0,0,1,347.866,190.657Z" transform="translate(-345.838 -182.549)" fill="#64b5f6"/>
        </g>
        <g id="Grupo_80533" data-name="Grupo 80533" transform="translate(0 20.178)">
          <path id="Trazado_113880" data-name="Trazado 113880" d="M251.121,320.751h-8.062a2.027,2.027,0,1,1,0-4.054h8.062a2.027,2.027,0,1,1,0,4.054Zm-24.187,0h-8.062a2.027,2.027,0,0,1,0-4.054h8.062a2.027,2.027,0,1,1,0,4.054Zm-24.187,0h-8.062a2.027,2.027,0,1,1,0-4.054h8.062a2.027,2.027,0,0,1,0,4.054Zm-24.187,0H170.5a2.027,2.027,0,0,1,0-4.054h8.062a2.027,2.027,0,1,1,0,4.054Zm-24.187,0h-8.062a2.027,2.027,0,0,1,0-4.054h8.062a2.027,2.027,0,0,1,0,4.054Zm-24.186,0h-8.063a2.027,2.027,0,0,1,0-4.054h8.063a2.027,2.027,0,1,1,0,4.054Zm-24.186,0H97.937a2.027,2.027,0,1,1,0-4.054H106a2.027,2.027,0,1,1,0,4.054Zm-24.188,0H73.75a2.027,2.027,0,1,1,0-4.054h8.063a2.027,2.027,0,1,1,0,4.054Zm-24.186,0H49.563a2.027,2.027,0,1,1,0-4.054h8.064a2.027,2.027,0,1,1,0,4.054Zm-23.049-4.6a2.016,2.016,0,0,1-1.348-.516q-.424-.379-.827-.78a20.015,20.015,0,0,1-4.337-6.457,2.027,2.027,0,1,1,3.739-1.565,16.007,16.007,0,0,0,3.464,5.156c.214.214.434.422.659.623a2.027,2.027,0,0,1-1.35,3.539Zm231.521-.018a2.027,2.027,0,0,1-1.353-3.536c.22-.2.436-.4.645-.611a16,16,0,0,0,3.471-5.176,2.027,2.027,0,0,1,3.742,1.561,20.068,20.068,0,0,1-4.348,6.485q-.395.392-.8.76A2.022,2.022,0,0,1,266.1,316.135ZM28.536,293.707a2.027,2.027,0,0,1-2.027-2.027v-8.062a2.027,2.027,0,0,1,4.054,0v8.062A2.027,2.027,0,0,1,28.536,293.707Zm243.586-.027a2.028,2.028,0,0,1-2.028-2.027v-8.064a2.027,2.027,0,1,1,4.054,0v8.064A2.028,2.028,0,0,1,272.122,293.679ZM28.536,269.521a2.027,2.027,0,0,1-2.027-2.027V259.43a2.027,2.027,0,1,1,4.054,0v8.064A2.027,2.027,0,0,1,28.536,269.521Zm243.586-.029a2.028,2.028,0,0,1-2.028-2.027V259.4a2.027,2.027,0,0,1,4.054,0v8.062A2.028,2.028,0,0,1,272.122,269.492ZM28.536,245.333a2.027,2.027,0,0,1-2.027-2.027v-8.062a2.027,2.027,0,1,1,4.054,0v8.062A2.027,2.027,0,0,1,28.536,245.333Zm243.586-.027a2.028,2.028,0,0,1-2.028-2.027v-8.064a2.027,2.027,0,1,1,4.054,0v8.064A2.028,2.028,0,0,1,272.122,245.305ZM28.536,221.147a2.027,2.027,0,0,1-2.027-2.027v-8.064a2.027,2.027,0,1,1,4.054,0v8.064A2.027,2.027,0,0,1,28.536,221.147Zm243.586-.029a2.028,2.028,0,0,1-2.028-2.027v-8.062a2.027,2.027,0,0,1,4.054,0v8.062A2.028,2.028,0,0,1,272.122,221.118Z" transform="translate(-26.509 -209.002)" fill="#ba68c8"/>
        </g>
        <g id="Grupo_80534" data-name="Grupo 80534">
          <path id="Trazado_113881" data-name="Trazado 113881" d="M28.536,190.657a2.027,2.027,0,0,1-2.027-2.027v-4.054a2.027,2.027,0,1,1,4.054,0v4.054A2.027,2.027,0,0,1,28.536,190.657Z" transform="translate(-26.509 -182.549)" fill="#64b5f6"/>
        </g>
      </g>
      <g id="Grupo_80538" data-name="Grupo 80538">
        <g id="Grupo_80536" data-name="Grupo 80536">
          <path id="Trazado_113882" data-name="Trazado 113882" d="M302.388,156.7H270.094V50.98A16.068,16.068,0,0,0,254.025,34.91H46.632A16.069,16.069,0,0,0,30.563,50.98v103.7H26.509V50.98A20.124,20.124,0,0,1,46.632,30.856H254.025A20.124,20.124,0,0,1,274.149,50.98V152.649h28.24Z" transform="translate(-26.509 -30.856)" fill="#ba68c8"/>
        </g>
        <g id="Grupo_80537" data-name="Grupo 80537" transform="translate(272.922 113.714)">
          <path id="Trazado_113883" data-name="Trazado 113883" d="M384.3,200.142l17.5-10.106L384.3,179.93Z" transform="translate(-384.297 -179.93)" fill="#ba68c8"/>
        </g>
      </g>
      <rect id="Rectángulo_33860" data-name="Rectángulo 33860" width="206.818" height="206.818" rx="4.86" transform="translate(592.771 20.411)" fill="#ba68c8"/>
      <g id="Grupo_80542" data-name="Grupo 80542" transform="translate(572.36 115.712)">
        <g id="Grupo_80539" data-name="Grupo 80539" transform="translate(243.586)">
          <path id="Trazado_113884" data-name="Trazado 113884" d="M1098.2,190.657a2.027,2.027,0,0,1-2.027-2.027v-4.054a2.027,2.027,0,1,1,4.053,0v4.054A2.027,2.027,0,0,1,1098.2,190.657Z" transform="translate(-1096.177 -182.549)" fill="#ba68c8"/>
        </g>
        <g id="Grupo_80540" data-name="Grupo 80540" transform="translate(0 20.178)">
          <path id="Trazado_113885" data-name="Trazado 113885" d="M1001.46,320.751H993.4a2.027,2.027,0,0,1,0-4.054h8.062a2.027,2.027,0,1,1,0,4.054Zm-24.187,0h-8.062a2.027,2.027,0,1,1,0-4.054h8.062a2.027,2.027,0,1,1,0,4.054Zm-24.187,0h-8.062a2.027,2.027,0,0,1,0-4.054h8.062a2.027,2.027,0,0,1,0,4.054Zm-24.187,0h-8.062a2.027,2.027,0,1,1,0-4.054H928.9a2.027,2.027,0,0,1,0,4.054Zm-24.187,0H896.65a2.027,2.027,0,1,1,0-4.054h8.062a2.027,2.027,0,1,1,0,4.054Zm-24.187,0h-8.062a2.027,2.027,0,0,1,0-4.054h8.062a2.027,2.027,0,1,1,0,4.054Zm-24.187,0h-8.062a2.027,2.027,0,0,1,0-4.054h8.062a2.027,2.027,0,0,1,0,4.054Zm-24.187,0h-8.062a2.027,2.027,0,1,1,0-4.054h8.062a2.027,2.027,0,0,1,0,4.054Zm-24.187,0H799.9a2.027,2.027,0,0,1,0-4.054h8.062a2.027,2.027,0,0,1,0,4.054Zm-23.047-4.6a2.015,2.015,0,0,1-1.348-.516c-.284-.253-.558-.512-.828-.78A20.015,20.015,0,0,1,778.4,308.4a2.026,2.026,0,1,1,3.738-1.565,16.035,16.035,0,0,0,3.465,5.156c.214.214.435.422.659.623a2.026,2.026,0,0,1-1.349,3.539Zm231.521-.018a2.027,2.027,0,0,1-1.353-3.536c.22-.2.435-.4.645-.611a16,16,0,0,0,3.472-5.176,2.027,2.027,0,0,1,3.742,1.561,20.049,20.049,0,0,1-4.35,6.485q-.393.392-.8.76A2.025,2.025,0,0,1,1016.438,316.135ZM778.874,293.707a2.028,2.028,0,0,1-2.027-2.027v-8.062a2.027,2.027,0,0,1,4.054,0v8.062A2.028,2.028,0,0,1,778.874,293.707Zm243.586-.027a2.027,2.027,0,0,1-2.027-2.027v-8.064a2.027,2.027,0,1,1,4.053,0v8.064A2.027,2.027,0,0,1,1022.46,293.679Zm-243.586-24.16a2.028,2.028,0,0,1-2.027-2.027V259.43a2.027,2.027,0,1,1,4.054,0v8.062A2.028,2.028,0,0,1,778.874,269.519Zm243.586-.027a2.027,2.027,0,0,1-2.027-2.027V259.4a2.027,2.027,0,1,1,4.053,0v8.062A2.027,2.027,0,0,1,1022.46,269.492ZM778.874,245.333a2.028,2.028,0,0,1-2.027-2.027v-8.062a2.027,2.027,0,0,1,4.054,0v8.062A2.028,2.028,0,0,1,778.874,245.333Zm243.586-.027a2.027,2.027,0,0,1-2.027-2.027v-8.064a2.027,2.027,0,1,1,4.053,0v8.064A2.027,2.027,0,0,1,1022.46,245.305Zm-243.586-24.16a2.028,2.028,0,0,1-2.027-2.027v-8.062a2.027,2.027,0,0,1,4.054,0v8.062A2.028,2.028,0,0,1,778.874,221.145Zm243.586-.027a2.027,2.027,0,0,1-2.027-2.027v-8.062a2.027,2.027,0,1,1,4.053,0v8.062A2.027,2.027,0,0,1,1022.46,221.118Z" transform="translate(-776.847 -209.002)" fill="#ba68c8"/>
        </g>
        <g id="Grupo_80541" data-name="Grupo 80541">
          <path id="Trazado_113886" data-name="Trazado 113886" d="M778.874,190.657a2.027,2.027,0,0,1-2.027-2.027v-4.054a2.027,2.027,0,1,1,4.054,0v4.054A2.027,2.027,0,0,1,778.874,190.657Z" transform="translate(-776.847 -182.549)" fill="#ba68c8"/>
        </g>
      </g>
      <g id="Grupo_80543" data-name="Grupo 80543" transform="translate(572.36)">
        <path id="Trazado_113887" data-name="Trazado 113887" d="M1024.486,154.676h-4.053V50.98a16.069,16.069,0,0,0-16.07-16.069H796.97A16.07,16.07,0,0,0,780.9,50.98v103.7h-4.054V50.98A20.125,20.125,0,0,1,796.97,30.856h207.392a20.124,20.124,0,0,1,20.124,20.124Z" transform="translate(-776.846 -30.856)" fill="#ba68c8"/>
      </g>
      <path id="Trazado_113893" data-name="Trazado 113893" d="M3.707,0h199.4a3.707,3.707,0,0,1,3.707,3.707v199.4a3.707,3.707,0,0,1-3.707,3.707H3.707A3.707,3.707,0,0,1,0,203.111V3.707A3.707,3.707,0,0,1,3.707,0Z" transform="translate(306.397 20.411)" fill="#64b5f6"/>
      <g id="Grupo_80547" data-name="Grupo 80547" transform="translate(285.986)">
        <g id="Grupo_80544" data-name="Grupo 80544" transform="translate(243.586 123.82)">
          <path id="Trazado_113888" data-name="Trazado 113888" d="M722.781,201.286a2.027,2.027,0,0,1-2.027-2.027V195.2a2.027,2.027,0,1,1,4.053,0v4.054A2.028,2.028,0,0,1,722.781,201.286Z" transform="translate(-720.754 -193.178)" fill="#64b5f6"/>
        </g>
        <g id="Grupo_80545" data-name="Grupo 80545">
          <path id="Trazado_113889" data-name="Trazado 113889" d="M647.037,142.606a2.027,2.027,0,0,1-2.027-2.027v-8.062a2.027,2.027,0,0,1,4.054,0v8.062A2.028,2.028,0,0,1,647.037,142.606Zm-243.586-.027a2.028,2.028,0,0,1-2.027-2.027v-8.064a2.027,2.027,0,0,1,4.054,0v8.064A2.027,2.027,0,0,1,403.451,142.578ZM647.037,118.42a2.027,2.027,0,0,1-2.027-2.027v-8.064a2.027,2.027,0,1,1,4.054,0v8.064A2.028,2.028,0,0,1,647.037,118.42Zm-243.586-.029a2.028,2.028,0,0,1-2.027-2.028V108.3a2.027,2.027,0,1,1,4.054,0v8.061A2.027,2.027,0,0,1,403.451,118.391ZM647.037,94.232a2.027,2.027,0,0,1-2.027-2.027V84.143a2.027,2.027,0,1,1,4.054,0v8.062A2.028,2.028,0,0,1,647.037,94.232ZM403.451,94.2a2.028,2.028,0,0,1-2.027-2.027V84.113a2.027,2.027,0,1,1,4.054,0v8.064A2.027,2.027,0,0,1,403.451,94.2ZM647.037,70.046a2.027,2.027,0,0,1-2.027-2.027V59.955a2.027,2.027,0,1,1,4.054,0v8.064A2.028,2.028,0,0,1,647.037,70.046Zm-243.586-.029a2.028,2.028,0,0,1-2.027-2.028V59.928a2.027,2.027,0,1,1,4.054,0v8.061A2.027,2.027,0,0,1,403.451,70.017Zm242.2-23.974a2.025,2.025,0,0,1-1.871-1.246,16.019,16.019,0,0,0-3.475-5.179c-.207-.207-.422-.41-.641-.607a2.027,2.027,0,0,1,2.7-3.019c.273.245.541.5.8.757a20.067,20.067,0,0,1,4.352,6.488,2.026,2.026,0,0,1-1.09,2.65A2,2,0,0,1,645.648,46.043Zm-240.8-.026a2.027,2.027,0,0,1-1.87-2.809,20.011,20.011,0,0,1,4.337-6.458c.269-.269.544-.528.827-.78a2.026,2.026,0,1,1,2.7,3.023q-.338.3-.659.624a15.989,15.989,0,0,0-3.463,5.156A2.029,2.029,0,0,1,404.85,46.017ZM626.036,34.91h-8.061a2.027,2.027,0,1,1,0-4.054h8.061a2.027,2.027,0,1,1,0,4.054Zm-24.187,0h-8.062a2.027,2.027,0,0,1,0-4.054h8.062a2.027,2.027,0,0,1,0,4.054Zm-24.187,0H569.6a2.027,2.027,0,1,1,0-4.054h8.061a2.027,2.027,0,1,1,0,4.054Zm-24.186,0h-8.063a2.027,2.027,0,0,1,0-4.054h8.063a2.027,2.027,0,0,1,0,4.054Zm-24.188,0h-8.061a2.027,2.027,0,1,1,0-4.054h8.061a2.027,2.027,0,1,1,0,4.054Zm-24.185,0H497.04a2.027,2.027,0,1,1,0-4.054H505.1a2.027,2.027,0,0,1,0,4.054Zm-24.187,0h-8.063a2.027,2.027,0,1,1,0-4.054h8.063a2.027,2.027,0,0,1,0,4.054Zm-24.187,0h-8.063a2.027,2.027,0,1,1,0-4.054h8.063a2.027,2.027,0,0,1,0,4.054Zm-24.187,0h-8.063a2.027,2.027,0,1,1,0-4.054h8.063a2.027,2.027,0,0,1,0,4.054Z" transform="translate(-401.424 -30.856)" fill="#64b5f6"/>
        </g>
        <g id="Grupo_80546" data-name="Grupo 80546" transform="translate(0 123.82)">
          <path id="Trazado_113890" data-name="Trazado 113890" d="M403.451,201.286a2.028,2.028,0,0,1-2.027-2.027V195.2a2.027,2.027,0,1,1,4.054,0v4.054A2.027,2.027,0,0,1,403.451,201.286Z" transform="translate(-401.424 -193.178)" fill="#64b5f6"/>
        </g>
      </g>
      <g id="Grupo_80550" data-name="Grupo 80550" transform="translate(285.986 113.714)">
        <g id="Grupo_80548" data-name="Grupo 80548" transform="translate(0 8.079)">
          <path id="Trazado_113891" data-name="Trazado 113891" d="M628.941,316.368H421.547a20.124,20.124,0,0,1-20.123-20.123v-103.7h4.054v103.7a16.069,16.069,0,0,0,16.069,16.069H628.941a16.069,16.069,0,0,0,16.069-16.069V190.521H677.3v4.054h-28.24v101.67a20.124,20.124,0,0,1-20.123,20.123Z" transform="translate(-401.424 -190.521)" fill="#64b5f6"/>
        </g>
        <g id="Grupo_80549" data-name="Grupo 80549" transform="translate(272.922 0)">
          <path id="Trazado_113892" data-name="Trazado 113892" d="M759.213,200.142l17.5-10.106-17.5-10.106Z" transform="translate(-759.213 -179.93)" fill="#64b5f6"/>
        </g>
      </g>
    </g>
    <text id="Los_métodos_e_instrumentos_de_investigación" data-name="Los métodos e instrumentos de investigación" transform="translate(59.509 99.583)" fill="#fff" font-size="24" font-family="Roboto-Regular, Roboto"><tspan x="-79.107" y="25">Los métodos e </tspan><tspan x="-86.742" y="55">instrumentos de </tspan><tspan x="-70.641" y="85">investigación</tspan></text>
    <text id="Plan_de_muestreo" data-name="Plan de 
muestreo" transform="translate(349.631 122.468)" fill="#12263f" font-size="24" font-family="Roboto-Regular, Roboto"><tspan x="-39.727" y="25">Plan de </tspan><tspan x="-50.859" y="55">muestreo</tspan></text>
    <text id="Técnicas_para_establecer_contacto_con_la_muestra" data-name="Técnicas para establecer contacto con la muestra" transform="translate(635.233 92.468)" fill="#fff" font-size="24" font-family="Roboto-Regular, Roboto"><tspan x="-74.912" y="25">Técnicas para </tspan><tspan x="-55.693" y="55">establecer </tspan><tspan x="-82.248" y="85">contacto con la </tspan><tspan x="-43.951" y="115">muestra</tspan></text>
  </g>
</svg>
