<svg xmlns="http://www.w3.org/2000/svg" width="1240" height="742" viewBox="0 0 1240 742">
  <g id="Grupo_82192" data-name="Grupo 82192" transform="translate(-180 -4725)">
    <g id="Grupo_80642" data-name="Grupo 80642" transform="translate(160.285 4810.5)">
      <path id="Trazado_113903" data-name="Trazado 113903" d="M215.178,589.939c-54.315,4.869-104.329-31.106-139.16-73.065C42.3,476.251,16.743,425.463,19.994,372.767a147.864,147.864,0,0,1,42.978-94.856C81.017,260,105.621,246.52,130.911,249.13c30.443,3.141,55.131,28.417,85.558,31.706,30.983,3.349,58.994-16.489,85.595-32.723,23.947-14.613,50.044-27.2,78.009-29.426s58.189,7.62,74.478,30.46c12.689,17.794,15.964,41.519,30.823,57.544,15.511,16.728,39.714,21.148,61.308,28.5,36.78,12.532,71.821,39.225,80.786,77.033,8.391,35.381-7.8,72.413-30.511,100.813C553.972,566.8,485.77,599.479,416.937,599.289c-14.147-.039-28.613-1.473-41.443-7.435" transform="translate(0 -62.054)" fill="#f7efff"/>
      <g id="Grupo_80556" data-name="Grupo 80556" transform="translate(85.783 26.5)">
        <path id="Trazado_113904" data-name="Trazado 113904" d="M694.886,135.937c-91.893.9-121.972-11.726-131.91-24.977s-15.561-30-14.089-46.5c1.265-14.194,9.249-29.09,22.958-32.983,10.894-3.094,23.142,1.811,30.274,10.608,7.77,9.583,10.273,23.132,19.736,31.048-1.963-16.358,12.733-32.684,29.207-32.446s30.692,16.981,28.259,33.276c6.062-9.373,17.7-15.523,28.6-13.1S727.086,75.6,723.4,86.141c15.742-9.189,37.519-6.4,50.431,6.47a22.282,22.282,0,0,1,5.936,9.085c2.17,7.2-1.454,15.192-7.153,20.1s-13.11,7.311-20.41,9.137a183.121,183.121,0,0,1-57.319,5" transform="translate(-256.844 -27.81)" fill="#f7efff"/>
        <path id="Trazado_113905" data-name="Trazado 113905" d="M162.966,143.5a50.993,50.993,0,0,1-36.816-17.188c-4.742-5.424-8.371-12.128-8.757-19.322s2.983-14.826,9.344-18.209c9.187-4.886,20.3.173,29.42,5.186.425-6.062-2.009-11.907-4.171-17.585-2.3-6.045-4.364-12.3-4.554-18.765a31.4,31.4,0,0,1,9.156-23.222,27.7,27.7,0,0,1,23.577-7.528c9.559,1.663,17.573,8.787,22.073,17.382s5.866,18.516,5.873,28.218c3.764-8.276,11.184-15.062,20.062-17.016s18.983,1.479,24.016,9.05,3.908,18.931-3.142,24.671c6.005-1.6,12.317-2.588,18.435-1.488s12.045,4.55,14.949,10.045,2.064,13.069-2.762,16.985a34.62,34.62,0,0,1,14.8.429c3.213.8,6.566,2.3,8.074,5.25,1.433,2.8.792,6.33-.923,8.971a21.151,21.151,0,0,1-7.037,6.18c-10.788,6.563-39.1,11.165-131.618,7.956" transform="translate(-117.363 -26.5)" fill="#f7efff"/>
        <path id="Trazado_113906" data-name="Trazado 113906" d="M804.893,300.552a23.866,23.866,0,0,1-17.23-8.044,15.352,15.352,0,0,1-4.1-9.043c-.181-3.367,1.4-6.939,4.373-8.522,4.3-2.287,9.5.081,13.768,2.427.2-2.837-.94-5.572-1.952-8.23a27.22,27.22,0,0,1-2.131-8.782,14.7,14.7,0,0,1,4.285-10.867,12.959,12.959,0,0,1,11.034-3.523c4.474.778,8.224,4.112,10.33,8.135a28.413,28.413,0,0,1,2.748,13.206,13.994,13.994,0,0,1,9.389-7.964,10.907,10.907,0,0,1,11.24,4.236c2.356,3.543,1.829,8.859-1.47,11.546a19.978,19.978,0,0,1,8.627-.7,9.774,9.774,0,0,1,7,4.7c1.359,2.572.966,6.116-1.292,7.949a16.2,16.2,0,0,1,6.928.2,5.539,5.539,0,0,1,3.779,2.457,4.306,4.306,0,0,1-.432,4.2,9.9,9.9,0,0,1-3.293,2.892c-5.049,3.071-18.3,5.225-61.6,3.723" transform="translate(-332.81 -97.421)" fill="#f7efff"/>
      </g>
      <g id="Grupo_80560" data-name="Grupo 80560" transform="translate(345.033 112.805)" opacity="0.46">
        <path id="Trazado_113909" data-name="Trazado 113909" d="M502.149,157.411a1.678,1.678,0,0,0,0-3.353,1.678,1.678,0,0,0,0,3.353Z" transform="translate(-500.529 -154.058)" fill="#fff"/>
      </g>
      <g id="Grupo_80641" data-name="Grupo 80641" transform="translate(37.991 32.12)">
        <g id="Grupo_80608" data-name="Grupo 80608" transform="translate(0 134.558)">
          <g id="Grupo_80590" data-name="Grupo 80590">
            <g id="Grupo_80562" data-name="Grupo 80562" transform="translate(94.427 44.6)">
              <g id="Grupo_80561" data-name="Grupo 80561" transform="translate(18.151 21.562)">
                <path id="Trazado_113910" data-name="Trazado 113910" d="M290.242,428a149.8,149.8,0,0,1-21.265-14.059,156.083,156.083,0,0,1-18.457-17.211A158.056,158.056,0,0,1,234.9,376.553,155.945,155.945,0,0,1,222.823,354.3a150.79,150.79,0,0,1-8.252-23.938q-.387-1.531-.74-3.072c-.108-.466-.812-.231-.706.231a150.45,150.45,0,0,0,7.851,24.358,156.664,156.664,0,0,0,11.7,22.569,159.12,159.12,0,0,0,15.179,20.41,156.762,156.762,0,0,0,18.376,17.822,151.3,151.3,0,0,0,20.918,14.444q1.371.785,2.759,1.539c.42.229.754-.434.335-.662Z" transform="translate(-213.115 -327.034)" fill="#ecdbff"/>
              </g>
              <path id="Trazado_113911" data-name="Trazado 113911" d="M210.635,323c-5.219-2.382-10.632-9.416-11.75-16.3a15.656,15.656,0,0,1,.026-5.888,8.008,8.008,0,0,1,2.965-4.888,4.91,4.91,0,0,1,4.806-.252c3.78,1.685,5.913,6.629,6.236,11.758s-.883,10.451-2.282,15.573" transform="translate(-190.275 -295.165)" fill="#ecdbff"/>
              <path id="Trazado_113912" data-name="Trazado 113912" d="M213.185,356.234c-5.046,2.73-13.921,2.813-20.091-.443a15.647,15.647,0,0,1-4.683-3.568,8.005,8.005,0,0,1-2.115-5.313,4.91,4.91,0,0,1,2.694-3.988c3.623-2,8.854-.725,13.142,2.108s7.809,7,11.054,11.2" transform="translate(-186.288 -310.296)" fill="#ecdbff"/>
              <path id="Trazado_113913" data-name="Trazado 113913" d="M224.918,352.321c-1.8-5.449-.31-14.2,3.985-19.7a15.642,15.642,0,0,1,4.339-3.98,8,8,0,0,1,5.6-1.144,4.909,4.909,0,0,1,3.449,3.356c1.33,3.92-.85,8.842-4.4,12.562s-8.271,6.449-12.98,8.9" transform="translate(-198.539 -305.577)" fill="#ecdbff"/>
              <path id="Trazado_113914" data-name="Trazado 113914" d="M232.2,394.4c-4.57,3.468-13.329,4.9-19.923,2.625a15.634,15.634,0,0,1-5.173-2.811,8.006,8.006,0,0,1-2.9-4.928,4.91,4.91,0,0,1,2.054-4.352c3.275-2.53,8.64-2.066,13.309.079s8.785,5.729,12.633,9.387" transform="translate(-192.075 -323.64)" fill="#ecdbff"/>
              <path id="Trazado_113915" data-name="Trazado 113915" d="M244.152,388.293c-2.606-5.111-2.471-13.985.936-20.073a15.658,15.658,0,0,1,3.681-4.6,8.008,8.008,0,0,1,5.363-1.984,4.909,4.909,0,0,1,3.92,2.791c1.912,3.671.507,8.869-2.429,13.085s-7.191,7.635-11.471,10.776" transform="translate(-204.418 -316.658)" fill="#ecdbff"/>
              <path id="Trazado_113916" data-name="Trazado 113916" d="M258.383,429.839c-4.038,4.075-12.508,6.727-19.357,5.4a15.646,15.646,0,0,1-5.517-2.057,8.005,8.005,0,0,1-3.564-4.472,4.908,4.908,0,0,1,1.422-4.6c2.888-2.966,8.264-3.26,13.188-1.792s9.5,4.437,13.827,7.519" transform="translate(-200.366 -336.009)" fill="#ecdbff"/>
              <path id="Trazado_113917" data-name="Trazado 113917" d="M270.084,421.919c-3.3-4.694-4.412-13.5-1.894-20.006a15.663,15.663,0,0,1,3-5.066,8.007,8.007,0,0,1,5.031-2.718,4.909,4.909,0,0,1,4.274,2.213c2.409,3.365,1.748,8.709-.566,13.3s-6.047,8.57-9.843,12.281" transform="translate(-212.33 -327.168)" fill="#ecdbff"/>
              <path id="Trazado_113918" data-name="Trazado 113918" d="M290.709,458.2c-2.491,3.849-8.681,7.311-14.255,7.394a12.5,12.5,0,0,1-4.652-.7,6.4,6.4,0,0,1-3.52-2.913,3.924,3.924,0,0,1,.359-3.829c1.773-2.792,5.929-3.9,10.021-3.562s8.16,1.913,12.047,3.615" transform="translate(-212.693 -346.702)" fill="#ecdbff"/>
              <path id="Trazado_113919" data-name="Trazado 113919" d="M299.144,450.153c-3.349-3.131-5.662-9.836-4.759-15.337a12.5,12.5,0,0,1,1.516-4.454,6.4,6.4,0,0,1,3.489-2.95,3.923,3.923,0,0,1,3.705,1.03c2.435,2.238,2.794,6.526,1.735,10.493s-3.324,7.694-5.686,11.219" transform="translate(-221.183 -337.893)" fill="#ecdbff"/>
            </g>
            <g id="Grupo_80569" data-name="Grupo 80569" transform="translate(61.856 282.951)">
              <path id="Trazado_113920" data-name="Trazado 113920" d="M252.413,683.792c-5.871,6.221-13.88,10.191-22.232,12.039a71.288,71.288,0,0,1-25.519.449,106.7,106.7,0,0,1-66.514-37.486c2.874-3.179,6.967-4.951,11.019-6.344a92.337,92.337,0,0,1,91.2,18.15c3.418,3.022,9.89,9.171,12.043,13.194" transform="translate(-138.148 -647.444)" fill="#aaa2fd"/>
              <g id="Grupo_80568" data-name="Grupo 80568" transform="translate(7.264 5.217)">
                <g id="Grupo_80563" data-name="Grupo 80563" transform="translate(0 5.779)">
                  <path id="Trazado_113921" data-name="Trazado 113921" d="M149.3,664.754c13.531,2.3,26.807,5.827,40,9.557s26.357,7.672,39.724,10.793c7.467,1.744,15,3.225,22.6,4.27.679.094.89-.955.207-1.049a311.31,311.31,0,0,1-40.122-8.773c-13.237-3.645-26.374-7.656-39.69-11.014-7.443-1.877-14.941-3.547-22.51-4.832a.535.535,0,0,0-.207,1.049Z" transform="translate(-148.884 -663.696)" fill="#fff"/>
                </g>
                <g id="Grupo_80564" data-name="Grupo 80564" transform="translate(52.08 27.491)">
                  <path id="Trazado_113922" data-name="Trazado 113922" d="M259.088,695.868a97.049,97.049,0,0,1-25.249,8.99q-3.728.764-7.508,1.233c-.679.084-.606,1.152.079,1.066a97.783,97.783,0,0,0,26.276-7.082q3.563-1.52,7-3.32a.538.538,0,0,0,.146-.742.547.547,0,0,0-.742-.146Z" transform="translate(-225.858 -695.786)" fill="#fff"/>
                </g>
                <g id="Grupo_80565" data-name="Grupo 80565" transform="translate(45.094 2.206)">
                  <path id="Trazado_113923" data-name="Trazado 113923" d="M241.558,679.885a42.1,42.1,0,0,0-8.358-9.8,83.421,83.421,0,0,0-10.578-7.726c-2.091-1.326-4.215-2.6-6.341-3.87-.592-.354-1.066.606-.479.956,3.7,2.209,7.4,4.433,10.92,6.922a57.963,57.963,0,0,1,9.676,8.36,37.1,37.1,0,0,1,4.271,5.75c.355.591,1.242-.007.888-.6Z" transform="translate(-215.533 -658.415)" fill="#fff"/>
                </g>
                <g id="Grupo_80566" data-name="Grupo 80566" transform="translate(24.458 17.436)">
                  <path id="Trazado_113924" data-name="Trazado 113924" d="M208.063,680.962a67.493,67.493,0,0,1-17.509,4.048q-2.516.236-5.043.282c-.687.014-.608,1.08.079,1.067a68.617,68.617,0,0,0,17.92-2.746q2.482-.725,4.9-1.641c.642-.242.295-1.254-.351-1.01Z" transform="translate(-185.033 -680.924)" fill="#fff"/>
                </g>
                <g id="Grupo_80567" data-name="Grupo 80567" transform="translate(11.725)">
                  <path id="Trazado_113925" data-name="Trazado 113925" d="M185.726,667.712a43.77,43.77,0,0,0-14.166-10.651,42.768,42.768,0,0,0-4.662-1.875.535.535,0,0,0-.329,1.017,42.25,42.25,0,0,1,18.359,12.222c.455.518,1.252-.195.8-.713Z" transform="translate(-166.214 -655.155)" fill="#fff"/>
                </g>
              </g>
            </g>
            <g id="Grupo_80576" data-name="Grupo 80576" transform="translate(366.837 219.271)">
              <path id="Trazado_113926" data-name="Trazado 113926" d="M589.733,685.741c-2.406-14.8.6-30.173,6.923-43.766s15.838-25.512,26.554-36a187.013,187.013,0,0,1,123.019-52.653c1.364,7.386-.53,14.97-2.907,22.095a161.829,161.829,0,0,1-122.4,107.61c-7.846,1.537-23.3,4-31.189,2.71" transform="translate(-588.906 -553.326)" fill="#ebd7ff"/>
              <g id="Grupo_80575" data-name="Grupo 80575" transform="translate(4.624 9.691)">
                <g id="Grupo_80570" data-name="Grupo 80570">
                  <path id="Trazado_113927" data-name="Trazado 113927" d="M739.276,567.9c-17.608,16.385-36.661,31.106-55.907,45.5s-38.751,28.515-57.332,43.794c-10.38,8.537-20.463,17.441-30.01,26.9-.853.845.381,2.256,1.24,1.405,17.065-16.916,35.821-31.994,54.944-46.5,19.172-14.543,38.746-28.556,57.6-43.512,10.541-8.359,20.851-17.018,30.7-26.184.881-.82-.355-2.229-1.24-1.405Z" transform="translate(-595.74 -567.649)" fill="#a2a4ed"/>
                </g>
                <g id="Grupo_80571" data-name="Grupo 80571" transform="translate(22.377 38.381)">
                  <path id="Trazado_113928" data-name="Trazado 113928" d="M630.692,682.318a170.13,170.13,0,0,1,14.38-44.718q2.906-6,6.279-11.763c.606-1.036-.957-2.07-1.569-1.026a171.409,171.409,0,0,0-18.128,44.115q-1.679,6.579-2.832,13.275a.943.943,0,0,0,.877.994.959.959,0,0,0,.993-.877Z" transform="translate(-628.812 -624.376)" fill="#a2a4ed"/>
                </g>
                <g id="Grupo_80572" data-name="Grupo 80572" transform="translate(43.954 66.566)">
                  <path id="Trazado_113929" data-name="Trazado 113929" d="M661.545,680.188a73.759,73.759,0,0,0,22.537-1.2,146.182,146.182,0,0,0,22.02-6.493c4.074-1.5,8.11-3.1,12.141-4.7,1.122-.447.292-2.128-.822-1.684-7.016,2.8-14.051,5.577-21.265,7.828a101.6,101.6,0,0,1-21.942,4.562,65.11,65.11,0,0,1-12.552-.178c-1.2-.135-1.313,1.735-.117,1.87Z" transform="translate(-660.703 -666.032)" fill="#a2a4ed"/>
                </g>
                <g id="Grupo_80573" data-name="Grupo 80573" transform="translate(76.773 17.019)">
                  <path id="Trazado_113930" data-name="Trazado 113930" d="M711.033,630.221a118.333,118.333,0,0,1,13.014-28.682q2.35-3.752,4.978-7.319c.714-.971-.855-2-1.568-1.026a120.25,120.25,0,0,0-15.265,27.866q-1.633,4.229-2.939,8.573c-.348,1.152,1.43,1.746,1.78.588Z" transform="translate(-709.209 -592.802)" fill="#a2a4ed"/>
                </g>
                <g id="Grupo_80574" data-name="Grupo 80574" transform="translate(101.771 22.481)">
                  <path id="Trazado_113931" data-name="Trazado 113931" d="M747.133,615.448a76.707,76.707,0,0,0,29.913-8.372,75.1,75.1,0,0,0,7.575-4.49.938.938,0,0,0-1.065-1.542,74.027,74.027,0,0,1-36.564,12.536.938.938,0,0,0,.141,1.869Z" transform="translate(-746.156 -600.876)" fill="#a2a4ed"/>
                </g>
              </g>
            </g>
            <g id="Grupo_80578" data-name="Grupo 80578" transform="translate(156.328)">
              <g id="Grupo_80577" data-name="Grupo 80577" transform="translate(19.07 19.49)">
                <path id="Trazado_113932" data-name="Trazado 113932" d="M312.3,383.585a149.8,149.8,0,0,1-4.771-25.042,156.089,156.089,0,0,1-.555-25.23,158.081,158.081,0,0,1,3.552-25.264,155.908,155.908,0,0,1,7.509-24.184,150.8,150.8,0,0,1,11.386-22.616q.828-1.346,1.684-2.674c.259-.4-.4-.742-.658-.343a150.448,150.448,0,0,0-11.966,22.622,156.676,156.676,0,0,0-8,24.13,159.266,159.266,0,0,0-4.024,25.115,156.67,156.67,0,0,0,.06,25.6,151.216,151.216,0,0,0,4.252,25.061q.395,1.529.823,3.051c.129.46.837.237.708-.223Z" transform="translate(-305.963 -258.052)" fill="#d37bc8"/>
              </g>
              <path id="Trazado_113933" data-name="Trazado 113933" d="M337.866,254.529c-1.936-5.4-.677-14.186,3.474-19.793a15.638,15.638,0,0,1,4.235-4.091,8,8,0,0,1,5.572-1.288,4.908,4.908,0,0,1,3.535,3.265c1.43,3.884-.622,8.861-4.07,12.672s-8.1,6.661-12.746,9.234" transform="translate(-296.923 -229.247)" fill="#d37bc8"/>
              <path id="Trazado_113934" data-name="Trazado 113934" d="M318.958,279.358c-5.477-1.708-11.73-8.007-13.7-14.7a15.634,15.634,0,0,1-.714-5.844,8.008,8.008,0,0,1,2.329-5.223,4.911,4.911,0,0,1,4.736-.853c3.961,1.2,6.7,5.836,7.662,10.883s.435,10.479-.31,15.736" transform="translate(-286.416 -236.761)" fill="#d37bc8"/>
              <path id="Trazado_113935" data-name="Trazado 113935" d="M324.485,287.218c2.649-5.089,9.954-10.131,16.888-10.891a15.653,15.653,0,0,1,5.879.33,8.007,8.007,0,0,1,4.728,3.215,4.908,4.908,0,0,1,0,4.812c-1.879,3.688-6.927,5.562-12.065,5.618s-10.391-1.423-15.433-3.085" transform="translate(-292.883 -244.431)" fill="#d37bc8"/>
              <path id="Trazado_113936" data-name="Trazado 113936" d="M304.924,319.74c-5.673-.854-12.813-6.125-15.784-12.437a15.662,15.662,0,0,1-1.6-5.667,8.006,8.006,0,0,1,1.505-5.516,4.909,4.909,0,0,1,4.551-1.566c4.1.58,7.509,4.746,9.231,9.587s2.028,10.29,2.093,15.6" transform="translate(-280.93 -250.348)" fill="#d37bc8"/>
              <path id="Trazado_113937" data-name="Trazado 113937" d="M311.912,325.611c1.842-5.433,8.292-11.53,15.03-13.338a15.637,15.637,0,0,1,5.861-.57,8.006,8.006,0,0,1,5.163,2.457,4.909,4.909,0,0,1,.737,4.755c-1.295,3.931-6,6.553-11.068,7.392s-10.487.178-15.723-.7" transform="translate(-288.816 -255.887)" fill="#d37bc8"/>
              <path id="Trazado_113938" data-name="Trazado 113938" d="M297.735,363.385c-5.737-.048-13.547-4.264-17.376-10.1a15.653,15.653,0,0,1-2.376-5.387,8,8,0,0,1,.715-5.673,4.908,4.908,0,0,1,4.285-2.19c4.139,0,8.1,3.643,10.487,8.195s3.454,9.9,4.265,15.15" transform="translate(-277.777 -265.078)" fill="#d37bc8"/>
              <path id="Trazado_113939" data-name="Trazado 113939" d="M306.028,367.229c1.061-5.638,6.589-12.581,13.006-15.319a15.669,15.669,0,0,1,5.722-1.388,8.006,8.006,0,0,1,5.457,1.706,4.911,4.911,0,0,1,1.4,4.6c-.73,4.074-5.018,7.33-9.919,8.874s-10.358,1.65-15.665,1.521" transform="translate(-286.914 -268.467)" fill="#d37bc8"/>
              <path id="Trazado_113940" data-name="Trazado 113940" d="M300.3,406.3c-4.5.9-11.294-1.114-15.244-5.049a12.5,12.5,0,0,1-2.742-3.823,6.4,6.4,0,0,1-.37-4.554,3.922,3.922,0,0,1,2.993-2.415c3.237-.679,6.933,1.522,9.545,4.691s4.324,7.179,5.818,11.15" transform="translate(-279.037 -281.345)" fill="#d37bc8"/>
              <path id="Trazado_113941" data-name="Trazado 113941" d="M308.336,406.85c-.094-4.583,3.093-10.919,7.663-14.112a12.5,12.5,0,0,1,4.248-2.023,6.394,6.394,0,0,1,4.548.44,3.923,3.923,0,0,1,1.848,3.372c.1,3.307-2.723,6.556-6.3,8.567s-7.83,2.988-12,3.756" transform="translate(-287.659 -281.397)" fill="#d37bc8"/>
            </g>
            <g id="Grupo_80580" data-name="Grupo 80580" transform="translate(388.448 151.465)">
              <g id="Grupo_80579" data-name="Grupo 80579" transform="translate(2.08 15.03)">
                <path id="Trazado_113942" data-name="Trazado 113942" d="M624.655,570.308a149.7,149.7,0,0,1,9.722-23.566,156.018,156.018,0,0,1,13.353-21.414,158.121,158.121,0,0,1,16.807-19.194,156,156,0,0,1,19.528-16.123,150.748,150.748,0,0,1,21.912-12.687q1.429-.674,2.873-1.315c.437-.195.071-.841-.363-.648a150.425,150.425,0,0,0-22.4,12.376,156.607,156.607,0,0,0-19.909,15.808,159.181,159.181,0,0,0-17.121,18.81A156.579,156.579,0,0,0,635.089,543.8a151.239,151.239,0,0,0-10.166,23.3q-.508,1.5-.982,3c-.144.456.57.657.714.2Z" transform="translate(-623.922 -475.324)" fill="#c7c7ff"/>
              </g>
              <path id="Trazado_113943" data-name="Trazado 113943" d="M741.134,472.671c1.338-5.579,7.2-12.24,13.747-14.658a15.642,15.642,0,0,1,5.783-1.1,8,8,0,0,1,5.367,1.974,4.91,4.91,0,0,1,1.169,4.668c-.93,4.033-5.373,7.074-10.345,8.374s-10.426,1.137-15.721.746" transform="translate(-659.748 -454.337)" fill="#c7c7ff"/>
              <path id="Trazado_113944" data-name="Trazado 113944" d="M714.694,481.329c-3.646-4.428-5.429-13.123-3.416-19.8a15.667,15.667,0,0,1,2.6-5.281,8,8,0,0,1,4.809-3.094,4.909,4.909,0,0,1,4.43,1.88c2.658,3.172,2.409,8.55.451,13.3s-5.374,9.007-8.877,13" transform="translate(-649.821 -453.11)" fill="#c7c7ff"/>
              <path id="Trazado_113945" data-name="Trazado 113945" d="M715.414,493.256c5-2.807,13.876-3.026,20.095.136a15.645,15.645,0,0,1,4.738,3.5,8.005,8.005,0,0,1,2.2,5.28,4.908,4.908,0,0,1-2.632,4.028c-3.592,2.057-8.842.86-13.172-1.907s-7.916-6.88-11.224-11.033" transform="translate(-651.43 -465.391)" fill="#c7c7ff"/>
              <path id="Trazado_113946" data-name="Trazado 113946" d="M681.329,507.346c-4.28-3.821-7.367-12.142-6.4-19.05a15.653,15.653,0,0,1,1.768-5.616,8.006,8.006,0,0,1,4.281-3.791,4.909,4.909,0,0,1,4.665,1.182c3.112,2.729,3.684,8.083,2.474,13.077s-3.939,9.721-6.791,14.2" transform="translate(-638.28 -461.386)" fill="#c7c7ff"/>
              <path id="Trazado_113947" data-name="Trazado 113947" d="M683.091,518.842c4.518-3.537,13.253-5.106,19.881-2.93a15.651,15.651,0,0,1,5.215,2.732,8.009,8.009,0,0,1,2.975,4.884,4.908,4.908,0,0,1-1.987,4.382c-3.237,2.58-8.607,2.2-13.308.125s-8.872-5.594-12.776-9.193" transform="translate(-640.977 -473.098)" fill="#c7c7ff"/>
              <path id="Trazado_113948" data-name="Trazado 113948" d="M651.77,539.888c-4.774-3.181-9-10.986-9.01-17.962a15.651,15.651,0,0,1,.961-5.809,8.008,8.008,0,0,1,3.705-4.355,4.91,4.91,0,0,1,4.785.515c3.464,2.265,4.784,7.485,4.287,12.6s-2.533,10.178-4.729,15.012" transform="translate(-627.934 -471.946)" fill="#c7c7ff"/>
              <path id="Trazado_113949" data-name="Trazado 113949" d="M654.665,550.546c3.975-4.137,12.4-6.917,19.272-5.694a15.645,15.645,0,0,1,5.547,1.972,8.006,8.006,0,0,1,3.632,4.416,4.909,4.909,0,0,1-1.352,4.618c-2.842,3.01-8.212,3.386-13.159,1.993s-9.57-4.291-13.94-7.306" transform="translate(-631.784 -482.686)" fill="#c7c7ff"/>
              <path id="Trazado_113950" data-name="Trazado 113950" d="M631.179,577.031c-4.255-1.706-8.84-7.118-9.99-12.573a12.5,12.5,0,0,1-.2-4.7,6.4,6.4,0,0,1,2.185-4.013,3.923,3.923,0,0,1,3.827-.382c3.08,1.2,4.968,5.07,5.417,9.152s-.313,8.375-1.238,12.516" transform="translate(-620.847 -486.074)" fill="#c7c7ff"/>
              <path id="Trazado_113951" data-name="Trazado 113951" d="M634.993,584.038c2.431-3.887,8.568-7.443,14.14-7.612a12.5,12.5,0,0,1,4.662.634,6.393,6.393,0,0,1,3.564,2.859,3.923,3.923,0,0,1-.3,3.834c-1.729,2.819-5.869,3.994-9.966,3.715s-8.188-1.788-12.1-3.43" transform="translate(-625.422 -492.988)" fill="#c7c7ff"/>
            </g>
            <g id="Grupo_80582" data-name="Grupo 80582" transform="translate(0 220.112)">
              <g id="Grupo_80581" data-name="Grupo 80581" transform="translate(18.846 14.847)">
                <path id="Trazado_113952" data-name="Trazado 113952" d="M198.611,603.645a149.762,149.762,0,0,1-25.3,3.1,155.963,155.963,0,0,1-25.211-1.121,158.067,158.067,0,0,1-24.973-5.221,155.892,155.892,0,0,1-23.633-9.1,150.647,150.647,0,0,1-21.81-12.862q-1.288-.914-2.556-1.857c-.384-.285-.768.351-.386.634a150.445,150.445,0,0,0,21.778,13.441,156.637,156.637,0,0,0,23.546,9.584,159.159,159.159,0,0,0,24.792,5.682,156.659,156.659,0,0,0,25.546,1.639,151.291,151.291,0,0,0,25.288-2.58q1.552-.292,3.1-.619c.468-.1.292-.819-.175-.721Z" transform="translate(-74.58 -576.512)" fill="#c7c7ff"/>
              </g>
              <path id="Trazado_113953" data-name="Trazado 113953" d="M71.158,573.1c-5.517,1.573-14.2-.267-19.518-4.781a15.659,15.659,0,0,1-3.8-4.5,8.01,8.01,0,0,1-.915-5.645,4.909,4.909,0,0,1,3.493-3.31c3.97-1.17,8.8,1.208,12.374,4.9S68.9,568.3,71.158,573.1" transform="translate(-46.727 -554.568)" fill="#c7c7ff"/>
              <path id="Trazado_113954" data-name="Trazado 113954" d="M94.436,595.3c-2.068,5.351-8.768,11.172-15.575,12.7a15.645,15.645,0,0,1-5.879.324,8,8,0,0,1-5.056-2.671,4.906,4.906,0,0,1-.537-4.781c1.458-3.874,6.267-6.3,11.367-6.923s10.485.261,15.681,1.354" transform="translate(-53.286 -567.236)" fill="#c7c7ff"/>
              <path id="Trazado_113955" data-name="Trazado 113955" d="M103.066,583.872c-4.9-2.982-9.448-10.6-9.746-17.574a15.647,15.647,0,0,1,.72-5.844,8.005,8.005,0,0,1,3.522-4.5,4.908,4.908,0,0,1,4.8.316c3.555,2.12,5.089,7.281,4.805,12.412s-2.11,10.273-4.1,15.2" transform="translate(-61.788 -554.857)" fill="#c7c7ff"/>
              <path id="Trazado_113956" data-name="Trazado 113956" d="M133.79,611.2c-1.228,5.6-6.961,12.379-13.458,14.924a15.634,15.634,0,0,1-5.761,1.217,8,8,0,0,1-5.4-1.868,4.908,4.908,0,0,1-1.261-4.644c.85-4.051,5.234-7.178,10.179-8.575s10.4-1.341,15.7-1.053" transform="translate(-66.471 -572.83)" fill="#c7c7ff"/>
              <path id="Trazado_113957" data-name="Trazado 113957" d="M140.557,599.443c-5.3-2.2-10.954-9.039-12.312-15.882a15.646,15.646,0,0,1-.179-5.885,8,8,0,0,1,2.794-4.989,4.909,4.909,0,0,1,4.794-.42c3.836,1.553,6.14,6.42,6.641,11.534s-.518,10.475-1.738,15.643" transform="translate(-72.966 -560.153)" fill="#c7c7ff"/>
              <path id="Trazado_113958" data-name="Trazado 113958" d="M176.861,620.069c-.429,5.721-5.153,13.234-11.227,16.667a15.662,15.662,0,0,1-5.533,2.014,8.008,8.008,0,0,1-5.613-1.091,4.909,4.909,0,0,1-1.9-4.421c.273-4.13,4.173-7.842,8.873-9.92s10.111-2.789,15.4-3.25" transform="translate(-80.958 -575.752)" fill="#c7c7ff"/>
              <path id="Trazado_113959" data-name="Trazado 113959" d="M181.679,608.741c-5.555-1.432-12.115-7.41-14.421-13.995a15.644,15.644,0,0,1-1-5.8,8,8,0,0,1,2.065-5.332A4.909,4.909,0,0,1,173,582.524c4.017,1,6.982,5.493,8.2,10.486s.959,10.445.478,15.732" transform="translate(-85.378 -563.551)" fill="#c7c7ff"/>
              <path id="Trazado_113960" data-name="Trazado 113960" d="M219.833,620.76c.6,4.545-1.862,11.2-6.049,14.876a12.5,12.5,0,0,1-4,2.482,6.4,6.4,0,0,1-4.569.067,3.923,3.923,0,0,1-2.21-3.147c-.463-3.275,1.979-6.817,5.314-9.213s7.451-3.838,11.512-5.065" transform="translate(-97.25 -575.975)" fill="#c7c7ff"/>
              <path id="Trazado_113961" data-name="Trazado 113961" d="M221.2,612.549c-4.579-.211-10.69-3.811-13.572-8.583a12.5,12.5,0,0,1-1.737-4.373,6.4,6.4,0,0,1,.742-4.509,3.924,3.924,0,0,1,3.487-1.62c3.305.123,6.361,3.152,8.129,6.858s2.461,8.012,2.951,12.226" transform="translate(-98.167 -567.146)" fill="#c7c7ff"/>
            </g>
            <g id="Grupo_80589" data-name="Grupo 80589" transform="translate(44.912 108.794)">
              <path id="Trazado_113962" data-name="Trazado 113962" d="M252.267,571.427c-16.594,1.9-33.546-2.25-48.342-10s-27.559-18.964-38.664-31.441A208.349,208.349,0,0,1,113.122,390.32c8.291-1.131,16.632,1.376,24.436,4.394A180.3,180.3,0,0,1,250.889,536.575c1.3,8.812,3.225,26.138,1.378,34.852" transform="translate(-113.106 -390.043)" fill="#ebd7ff"/>
              <g id="Grupo_80588" data-name="Grupo 80588" transform="translate(10.35 9.318)">
                <g id="Grupo_80583" data-name="Grupo 80583">
                  <path id="Trazado_113963" data-name="Trazado 113963" d="M128.651,405.493c17.31,20.455,32.692,42.431,47.7,64.6s29.7,44.622,45.727,66.1c8.955,12,18.335,23.688,28.365,34.809.9.993,2.53-.306,1.629-1.306-17.929-19.879-33.724-41.542-48.864-63.585-15.177-22.1-29.745-44.617-45.4-66.388-8.75-12.169-17.844-24.1-27.528-35.54-.867-1.024-2.5.277-1.629,1.306Z" transform="translate(-128.404 -403.814)" fill="#a2a4ed"/>
                </g>
                <g id="Grupo_80584" data-name="Grupo 80584" transform="translate(37.46 113.328)">
                  <path id="Trazado_113964" data-name="Trazado 113964" d="M247.212,597.444a189.576,189.576,0,0,1-49.01-18.349q-6.528-3.548-12.761-7.6c-1.121-.729-2.355.957-1.223,1.692a190.882,190.882,0,0,0,48.141,22.489q7.233,2.214,14.625,3.849a1.051,1.051,0,0,0,1.152-.924,1.069,1.069,0,0,0-.924-1.151Z" transform="translate(-183.769 -571.311)" fill="#a2a4ed"/>
                </g>
                <g id="Grupo_80585" data-name="Grupo 80585" transform="translate(71.816 51.405)">
                  <path id="Trazado_113965" data-name="Trazado 113965" d="M247.349,544.169a82.194,82.194,0,0,0-.152-25.144,162.9,162.9,0,0,0-6.071-24.845c-1.453-4.612-3.02-9.187-4.6-13.758-.439-1.272-2.354-.436-1.917.826,2.745,7.953,5.469,15.929,7.595,24.075a113.18,113.18,0,0,1,3.926,24.657,72.538,72.538,0,0,1-.857,13.959c-.214,1.33,1.862,1.553,2.074.229Z" transform="translate(-234.547 -479.789)" fill="#a2a4ed"/>
                </g>
                <g id="Grupo_80586" data-name="Grupo 80586" transform="translate(16.401 54.647)">
                  <path id="Trazado_113966" data-name="Trazado 113966" d="M193.385,506.724a131.841,131.841,0,0,1-31.236-15.988q-4.051-2.813-7.884-5.925c-1.043-.845-2.266.847-1.223,1.692a133.967,133.967,0,0,0,30.21,18.449q4.62,2.04,9.386,3.722c1.265.447,2.019-1.5.748-1.95Z" transform="translate(-152.644 -484.581)" fill="#a2a4ed"/>
                </g>
                <g id="Grupo_80587" data-name="Grupo 80587" transform="translate(24.785 6.122)">
                  <path id="Trazado_113967" data-name="Trazado 113967" d="M179.314,455.741a85.469,85.469,0,0,0-7.747-33.729,83.665,83.665,0,0,0-4.6-8.665,1.044,1.044,0,0,0-1.771,1.1A82.494,82.494,0,0,1,177.227,455.8a1.044,1.044,0,0,0,2.087-.058Z" transform="translate(-165.035 -412.862)" fill="#a2a4ed"/>
                </g>
              </g>
            </g>
          </g>
          <g id="Grupo_80607" data-name="Grupo 80607" transform="translate(127.617 111.277)">
            <g id="Grupo_80593" data-name="Grupo 80593" transform="translate(0 218.078)">
              <path id="Trazado_113968" data-name="Trazado 113968" d="M262.373,757.954A18.573,18.573,0,0,1,243.8,739.382h0a18.572,18.572,0,0,1,18.573-18.572H491.134a2.4,2.4,0,0,0,2.4-2.4v-.077a2.3,2.3,0,0,0-2.3-2.3H259.063a23.72,23.72,0,0,0-23.721,23.721h0a23.72,23.72,0,0,0,23.721,23.721H490.749a2.789,2.789,0,0,0,2.789-2.789v-.134a2.594,2.594,0,0,0-2.594-2.593Z" transform="translate(-235.342 -716.029)" fill="#826ce9"/>
              <path id="Trazado_113969" data-name="Trazado 113969" d="M247.843,741.667h0a18.482,18.482,0,0,0,18.39,18.573h228.9l-.33-1.281a69.355,69.355,0,0,1,0-34.583l.33-1.281h-228.9A18.481,18.481,0,0,0,247.843,741.667Z" transform="translate(-239.385 -718.314)" fill="#f2e7ff"/>
              <path id="Trazado_113970" data-name="Trazado 113970" d="M253.237,745.345h0a18.482,18.482,0,0,1,18.389-18.573H494.262c.176-.8.333-1.6.537-2.4l.33-1.281h-228.9a18.481,18.481,0,0,0-18.39,18.572h0a18.574,18.574,0,0,0,10.972,16.987A18.594,18.594,0,0,1,253.237,745.345Z" transform="translate(-239.385 -718.314)" fill="#e6d1ff"/>
              <g id="Grupo_80591" data-name="Grupo 80591" transform="translate(77.744 18.932)">
                <rect id="Rectángulo_33867" data-name="Rectángulo 33867" width="100.033" height="1.364" fill="#e6d1ff"/>
              </g>
              <g id="Grupo_80592" data-name="Grupo 80592" transform="translate(140.617 31.98)">
                <rect id="Rectángulo_33868" data-name="Rectángulo 33868" width="100.033" height="1.364" fill="#e6d1ff"/>
              </g>
              <path id="Trazado_113971" data-name="Trazado 113971" d="M404.177,745.227v21.317l9.691-7.9,9.536,7.637L422.3,745.15Z" transform="translate(-289.944 -725.447)" fill="#d37bc8"/>
            </g>
            <g id="Grupo_80594" data-name="Grupo 80594" transform="translate(33.146 183.041)">
              <rect id="Rectángulo_33869" data-name="Rectángulo 33869" width="253.391" height="35.037" rx="9.405" transform="translate(0 0)" fill="#03005a"/>
              <rect id="Rectángulo_33870" data-name="Rectángulo 33870" width="4.168" height="35.037" transform="translate(214.285 0)" fill="#fff" opacity="0.43"/>
              <rect id="Rectángulo_33871" data-name="Rectángulo 33871" width="4.168" height="35.037" transform="translate(195.835 0)" fill="#fff" opacity="0.43"/>
              <path id="Trazado_113972" data-name="Trazado 113972" d="M284.331,674.03v4.981l198.41-14.766H296.331C289.7,664.245,284.331,670.414,284.331,674.03Z" transform="translate(-284.331 -664.245)" fill="#000037"/>
              <rect id="Rectángulo_33872" data-name="Rectángulo 33872" width="4.168" height="35.037" transform="translate(30.402 0)" fill="#fff" opacity="0.43"/>
              <rect id="Rectángulo_33873" data-name="Rectángulo 33873" width="4.168" height="35.037" transform="translate(48.055 0)" fill="#fff" opacity="0.43"/>
            </g>
            <g id="Grupo_80599" data-name="Grupo 80599" transform="translate(38.89 135.6)">
              <path id="Trazado_113973" data-name="Trazado 113973" d="M304.473,619.765h0c0,10.257,7.674,18.572,17.14,18.572H534.954l-.307-1.281a74.268,74.268,0,0,1,0-34.583l.307-1.281H321.613C312.147,601.193,304.473,609.508,304.473,619.765Z" transform="translate(-296.589 -596.412)" fill="#f2e7ff"/>
              <g id="Grupo_80598" data-name="Grupo 80598">
                <path id="Trazado_113974" data-name="Trazado 113974" d="M318.015,636.052c-9.56,0-17.31-8.315-17.31-18.572h0c0-10.257,7.75-18.573,17.31-18.573H531.23a2.327,2.327,0,0,0,2.241-2.4v-.077a2.227,2.227,0,0,0-2.144-2.3H314.93c-12.211,0-22.109,10.62-22.109,23.721h0c0,13.1,9.9,23.721,22.109,23.721H530.872a2.7,2.7,0,0,0,2.6-2.789v-.134a2.51,2.51,0,0,0-2.417-2.593Z" transform="translate(-292.821 -594.127)" fill="#826ce9"/>
                <path id="Trazado_113975" data-name="Trazado 113975" d="M309.5,623.443h0c0-10.257,7.674-18.573,17.14-18.573H534.147c.164-.8.31-1.6.5-2.4l.307-1.281H321.613c-9.467,0-17.14,8.315-17.14,18.572h0A18.678,18.678,0,0,0,314.7,636.751,19.287,19.287,0,0,1,309.5,623.443Z" transform="translate(-296.589 -596.412)" fill="#e6d1ff"/>
                <g id="Grupo_80597" data-name="Grupo 80597" transform="translate(40.191 18.973)">
                  <g id="Grupo_80595" data-name="Grupo 80595">
                    <rect id="Rectángulo_33874" data-name="Rectángulo 33874" width="100.033" height="1.364" fill="#e6d1ff"/>
                  </g>
                  <g id="Grupo_80596" data-name="Grupo 80596" transform="translate(62.873 13.048)">
                    <rect id="Rectángulo_33875" data-name="Rectángulo 33875" width="100.033" height="1.364" fill="#e6d1ff"/>
                  </g>
                </g>
              </g>
            </g>
            <g id="Grupo_80602" data-name="Grupo 80602" transform="translate(26.332)">
              <path id="Trazado_113976" data-name="Trazado 113976" d="M475.332,430.181a16.155,16.155,0,0,0,16.154-16.154h0a16.154,16.154,0,0,0-16.154-16.154H276.351a2.091,2.091,0,0,1-2.091-2.091v-.066a2,2,0,0,1,2-2H478.211a20.633,20.633,0,0,1,20.633,20.633h0a20.633,20.633,0,0,1-20.633,20.633H276.686a2.426,2.426,0,0,1-2.426-2.426v-.116a2.256,2.256,0,0,1,2.256-2.256Z" transform="translate(-274.26 -393.713)" fill="#d37bc8"/>
              <path id="Trazado_113977" data-name="Trazado 113977" d="M492.506,416.014h0a16.076,16.076,0,0,1-16,16.154h-199.1l.287-1.114a60.327,60.327,0,0,0,0-30.081l-.287-1.114h199.1A16.076,16.076,0,0,1,492.506,416.014Z" transform="translate(-275.279 -395.701)" fill="#f2e7ff"/>
              <path id="Trazado_113978" data-name="Trazado 113978" d="M487.814,419.213h0a16.076,16.076,0,0,0-16-16.154H278.166c-.153-.7-.289-1.394-.467-2.085l-.287-1.114h199.1a16.076,16.076,0,0,1,16,16.154h0a16.154,16.154,0,0,1-9.544,14.775A16.173,16.173,0,0,0,487.814,419.213Z" transform="translate(-275.279 -395.701)" fill="#e6d1ff"/>
              <g id="Grupo_80600" data-name="Grupo 80600" transform="translate(69.949 16.468)">
                <rect id="Rectángulo_33876" data-name="Rectángulo 33876" width="87.011" height="1.186" fill="#e6d1ff"/>
              </g>
              <g id="Grupo_80601" data-name="Grupo 80601" transform="translate(94.283 27.224)">
                <rect id="Rectángulo_33877" data-name="Rectángulo 33877" width="87.011" height="1.186" fill="#e6d1ff"/>
              </g>
            </g>
            <g id="Grupo_80603" data-name="Grupo 80603" transform="translate(20.224 88.828)">
              <rect id="Rectángulo_33878" data-name="Rectángulo 33878" width="253.391" height="46.691" rx="9.405" fill="#d37bc8"/>
              <rect id="Rectángulo_33879" data-name="Rectángulo 33879" width="4.168" height="46.691" transform="translate(214.285)" fill="#fff" opacity="0.43"/>
              <rect id="Rectángulo_33880" data-name="Rectángulo 33880" width="4.168" height="46.691" transform="translate(195.835)" fill="#fff" opacity="0.43"/>
              <path id="Trazado_113979" data-name="Trazado 113979" d="M265.233,537v7.678L463.642,525H277.232A12,12,0,0,0,265.233,537Z" transform="translate(-265.233 -525)" fill="#e84a6c"/>
              <rect id="Rectángulo_33881" data-name="Rectángulo 33881" width="4.168" height="46.691" transform="translate(30.402)" fill="#fff" opacity="0.43"/>
              <rect id="Rectángulo_33882" data-name="Rectángulo 33882" width="4.168" height="46.691" transform="translate(48.055)" fill="#fff" opacity="0.43"/>
            </g>
            <g id="Grupo_80606" data-name="Grupo 80606" transform="translate(7.65 41.266)">
              <path id="Trazado_113980" data-name="Trazado 113980" d="M268.685,496.629c-8.362,0-15.141-8.315-15.141-18.573h0c0-10.257,6.779-18.572,15.142-18.572h186.5a2.216,2.216,0,0,0,1.959-2.4V457a2.121,2.121,0,0,0-1.876-2.3H265.987c-10.68,0-19.339,10.62-19.339,23.721h0c0,13.1,8.658,23.721,19.339,23.721H454.868a2.571,2.571,0,0,0,2.273-2.789v-.134a2.391,2.391,0,0,0-2.114-2.593Z" transform="translate(-246.648 -454.704)" fill="#826ce9"/>
              <path id="Trazado_113981" data-name="Trazado 113981" d="M256.84,480.342h0c0,10.257,6.712,18.573,14.993,18.573H458.439l-.269-1.281a84.61,84.61,0,0,1,0-34.583l.269-1.281H271.833C263.553,461.77,256.84,470.085,256.84,480.342Z" transform="translate(-249.944 -456.989)" fill="#f2e7ff"/>
              <path id="Trazado_113982" data-name="Trazado 113982" d="M261.238,484.02h0c0-10.257,6.712-18.573,14.992-18.573h181.5c.143-.8.271-1.6.438-2.4l.269-1.28H271.833c-8.28,0-14.993,8.315-14.993,18.572h0c0,7.589,3.679,14.105,8.945,16.987A20.865,20.865,0,0,1,261.238,484.02Z" transform="translate(-249.944 -456.989)" fill="#e6d1ff"/>
              <g id="Grupo_80604" data-name="Grupo 80604" transform="translate(63.381 18.932)">
                <rect id="Rectángulo_33883" data-name="Rectángulo 33883" width="81.551" height="1.364" fill="#e6d1ff"/>
              </g>
              <g id="Grupo_80605" data-name="Grupo 80605" transform="translate(114.638 31.98)">
                <rect id="Rectángulo_33884" data-name="Rectángulo 33884" width="81.552" height="1.364" fill="#e6d1ff"/>
              </g>
              <path id="Trazado_113983" data-name="Trazado 113983" d="M449.273,503.056v21.317l7.9-7.9,7.775,7.637-.9-21.128Z" transform="translate(-312.177 -470.316)" fill="#03005a"/>
            </g>
          </g>
        </g>
        <g id="Grupo_80640" data-name="Grupo 80640" transform="translate(272.813)">
          <g id="Grupo_80615" data-name="Grupo 80615" transform="translate(13.911)">
            <g id="Grupo_80609" data-name="Grupo 80609" transform="translate(18.379 61.846)">
              <path id="Trazado_113984" data-name="Trazado 113984" d="M511.018,121.78A38.376,38.376,0,0,1,498.2,143.813a1.273,1.273,0,0,0-.526.719,1.072,1.072,0,0,0,.33.807,6.618,6.618,0,0,0,3.161,1.716,46.373,46.373,0,0,0,13.523,2.059,3.628,3.628,0,0,0,2.43-.606,3.688,3.688,0,0,0,.918-1.6,114.983,114.983,0,0,0,4.18-14.362,1.626,1.626,0,0,0,.052-.671c-.09-.438-.509-.717-.887-.956a30.3,30.3,0,0,1-7.468-6.69" transform="translate(-497.664 -121.78)" fill="#fbb473"/>
              <path id="Trazado_113985" data-name="Trazado 113985" d="M528.4,131.873c-.09-.438-.509-.717-.887-.956a30.3,30.3,0,0,1-7.468-6.69l-2.892-2.447c-.142.761-.337,1.51-.527,2.26a7.8,7.8,0,0,1,.492,2.464c.14,3.411,3.636,6.978,4.944,10.131a16.818,16.818,0,0,1,.4,12.279,2.164,2.164,0,0,0,.785-.407,3.687,3.687,0,0,0,.918-1.6,115.025,115.025,0,0,0,4.18-14.362A1.628,1.628,0,0,0,528.4,131.873Z" transform="translate(-503.795 -121.78)" fill="#fbb473"/>
            </g>
            <g id="Grupo_80614" data-name="Grupo 80614">
              <path id="Trazado_113986" data-name="Trazado 113986" d="M566.183,133.687a15.609,15.609,0,0,1-.508-11.668c.709-1.974,1.826-3.825,2.153-5.9.478-3.033-.8-6.056-2.287-8.744s-3.233-5.319-3.82-8.333a11.771,11.771,0,0,1,3.828-10.976l3.527,1.853a17.144,17.144,0,0,0,.98,13.244c1.136,2.2,2.769,4.186,3.375,6.585,1.027,4.064-1.1,8.2-3.246,11.8s-4.464,7.554-3.84,11.7" transform="translate(-499.936 -49.032)" fill="#03005a"/>
              <path id="Trazado_113987" data-name="Trazado 113987" d="M534.227,58.725a18.379,18.379,0,0,1,16.356,21.657c-.468,2.522-1.461,4.929-1.845,7.465s-.041,5.385,1.777,7.195c.687.683,1.254,1.165,1.879,1.905s1.013,1.328.459,2.122c-.725,1.041-2.13,1.377-3.16,2.118a4.3,4.3,0,0,0-1.2,1.7,69.666,69.666,0,0,1-9.911,15.024,1.954,1.954,0,0,1-.742.61,1.993,1.993,0,0,1-1.426-.214c-5.062-2.134-10.159-4.288-14.722-7.347s-8.608-7.119-10.773-12.168a21.713,21.713,0,0,1-.666-15.169" transform="translate(-483.015 -39.542)" fill="#fbb473"/>
              <g id="Grupo_80610" data-name="Grupo 80610" transform="translate(53.116 48.845)">
                <path id="Trazado_113988" data-name="Trazado 113988" d="M564.477,104.009c0,.8-.455,1.445-1.018,1.445s-1.018-.647-1.018-1.445.455-1.444,1.018-1.444S564.477,103.211,564.477,104.009Z" transform="translate(-553.35 -102.565)" fill="#03005a"/>
                <path id="Trazado_113989" data-name="Trazado 113989" d="M557.472,115.831a4.234,4.234,0,1,1-4.234-4.234A4.234,4.234,0,0,1,557.472,115.831Z" transform="translate(-549.004 -105.486)" fill="#f76662" opacity="0.51"/>
                <path id="Trazado_113990" data-name="Trazado 113990" d="M562.377,127.88l-5.009-1.034s2.244,2.378,3.449,2.715S562.377,127.88,562.377,127.88Z" transform="translate(-551.709 -110.418)" fill="#f76662"/>
              </g>
              <g id="Grupo_80612" data-name="Grupo 80612">
                <path id="Trazado_113991" data-name="Trazado 113991" d="M493.28,58.883a27.078,27.078,0,0,1-15.754-1.257,11.675,11.675,0,0,1-5.979-5.253,12.057,12.057,0,0,1-.7-7.886,18.36,18.36,0,0,1,15.5-14.011,15.624,15.624,0,0,1,11.951,3.514,12.348,12.348,0,0,1,4.066,11.537" transform="translate(-470.5 -30.373)" fill="#03005a"/>
                <path id="Trazado_113992" data-name="Trazado 113992" d="M546.46,58.641C543.7,55.151,534.84,47.208,522.589,46.9c-7.284-.449-13.078.3-18.092,3.35s-7.754,7.445-10.742,12.494c-3.573,6.037-5.828,9.983-5.586,16.993A23.531,23.531,0,0,0,497.1,97.525c1.474,1.168,5.311,4.259,7.181,4.47,2.324.263,2.288.788,4.02-.785a15.632,15.632,0,0,0,3.782-5.84c.963-2.391,1.825-5.187,4.16-6.277,1.919-.9,4-.282,6.126.275a13.287,13.287,0,0,0,.029,1.53c.332,3.7,2.111,7.095,3.564,10.518s2.62,7.228,1.664,10.823c-.653,2.456-2.229,4.546-3.33,6.836a18.916,18.916,0,0,0-.845,14.125l.252-.5c-.235-5.074,3.055-9.545,6.088-13.62s6.114-8.79,5.384-13.816c-.432-2.968-2.152-5.565-3.246-8.357a20.569,20.569,0,0,1-1.375-8.217c.338-.163.675-.327,1.005-.5,5.633-2.9,11.217-6.429,14.655-11.75S550.389,63.61,546.46,58.641Z" transform="translate(-476.209 -35.679)" fill="#03005a"/>
                <g id="Grupo_80611" data-name="Grupo 80611" transform="translate(15.41 8.415)">
                  <path id="Trazado_113993" data-name="Trazado 113993" d="M493.91,68.184s-2.166,0,1.5-4.991,13.659-14.967,13.659-14.967,1.629-.984-1.259,5.252S498.193,65.491,493.91,68.184Z" transform="translate(-493.275 -44.543)" fill="#d37bc8"/>
                  <path id="Trazado_113994" data-name="Trazado 113994" d="M517.3,48.5s1.387-.635,3.485,2.287,4.822,9.671,4.822,9.671.252,1.077-2.676-1.637S518.018,51.349,517.3,48.5Z" transform="translate(-501.044 -44.631)" fill="#d37bc8"/>
                  <path id="Trazado_113995" data-name="Trazado 113995" d="M517.3,47.069s.031-1.321,2.864-2.417a50.662,50.662,0,0,1,8.646-1.841s.883.022-2.052,1.84A19.647,19.647,0,0,1,517.3,47.069Z" transform="translate(-501.044 -42.81)" fill="#d37bc8"/>
                  <path id="Trazado_113996" data-name="Trazado 113996" d="M518.349,47.97a2.013,2.013,0,1,1-2.013-2.013A2.013,2.013,0,0,1,518.349,47.97Z" transform="translate(-500.082 -43.828)" fill="#d37bc8"/>
                </g>
              </g>
              <g id="Grupo_80613" data-name="Grupo 80613" transform="translate(34.556 47.677)">
                <path id="Trazado_113997" data-name="Trazado 113997" d="M530.119,106.342c.832,1.989.879,7.005-1.221,7.493a4.713,4.713,0,0,1-3.951-1.083,9.18,9.18,0,0,1-2.423-3.437,8.236,8.236,0,0,1-.784-5.267,4.051,4.051,0,0,1,3.84-3.205,4.221,4.221,0,0,1,3.1,1.984,12.5,12.5,0,0,1,1.44,3.514" transform="translate(-521.573 -100.839)" fill="#fbb473"/>
                <path id="Trazado_113998" data-name="Trazado 113998" d="M529.531,111.848c-5.374,0-7.67-4.759-6.907-8.845a4.6,4.6,0,0,0-.883,1.746,8.236,8.236,0,0,0,.784,5.267,9.18,9.18,0,0,0,2.423,3.437,4.713,4.713,0,0,0,3.951,1.083c.952-.221,1.46-1.376,1.656-2.755A8.317,8.317,0,0,1,529.531,111.848Z" transform="translate(-521.573 -101.539)" fill="#fbb473"/>
              </g>
            </g>
          </g>
          <g id="Grupo_80616" data-name="Grupo 80616" transform="translate(1.043 147.865)">
            <path id="Trazado_113999" data-name="Trazado 113999" d="M640.188,495.7c.835,7.417,2.527,15.394-4.068,26.97-.735,1.29-1.82,2.461-1.964,3.939-.257,2.645,2.25,4.78,4.769,5.629s5.291.947,7.655,2.162c2.848,1.465,4.67,4.31,6.938,6.572a20.912,20.912,0,0,0,11.154,5.758c.485.083,1.129.06,1.288-.405a1,1,0,0,0-.085-.679c-1.064-2.672-3.822-4.217-5.64-6.445-1.786-2.188-2.621-4.982-4-7.449-1.124-2.016-2.968-5.8-3.845-7.931-1.415-3.44-.817-7.122-.03-10.758s2.595-12.4,4-16.215" transform="translate(-510.553 -328.724)" fill="#fbb473"/>
            <path id="Trazado_114000" data-name="Trazado 114000" d="M509.664,318.382a182.217,182.217,0,0,1,63.719-8.991c15.991.6,33.36,4.132,43.537,16.48,7.332,8.9,8.133,13.141,8.817,24.648.622,10.451-.764,27.9-1.679,38.331-1.555,17.719-1.945,36.118-5.914,53.457a3.417,3.417,0,0,1-.681,1.612,3.267,3.267,0,0,1-1.624.8,33.382,33.382,0,0,1-15.14.435,3.634,3.634,0,0,1-1.982-.875,3.775,3.775,0,0,1-.774-2.16c-1.629-12.28-3.012-31.4-4.06-43.739-.845-9.949-.694-13.156-3.961-22.592a18.874,18.874,0,0,0-3.719-7.032c-3.754-3.949-9.871-4.259-15.313-3.975-18.42.961-37.033,5.664-55.08,1.855" transform="translate(-470.297 -268.431)" fill="#000020"/>
            <path id="Trazado_114001" data-name="Trazado 114001" d="M601.165,390.809a31.378,31.378,0,0,1-10.982,18.959,8.775,8.775,0,0,0-2.966,3.252c-.97,2.475.859,5.214,3.05,6.717s4.831,2.357,6.773,4.172c2.34,2.187,3.315,5.422,4.88,8.217a20.913,20.913,0,0,0,9.158,8.586c.444.212,1.069.367,1.35-.037a1,1,0,0,0,.1-.677c-.294-2.861-2.524-5.1-3.664-7.74-1.12-2.593-1.16-5.508-1.81-8.257-.531-2.246-1.271-6.386-1.533-8.68-.422-3.7.766-5.376,2.516-8.658s6.428-9.021,8.826-12.307" transform="translate(-495.292 -294.804)" fill="#fbb473"/>
            <path id="Trazado_114002" data-name="Trazado 114002" d="M451.98,310.766c-.886,8.666-1.141,18.7,4.037,25.883,7.6,10.546,22.86,12.464,35.844,13.113s25.989-.5,37.23-7.027,21-15.318,30.219-24.48c13.422-13.335,25.9-27.59,38.032-42.107-19.729,19.433-38.324,41.7-44.918,68.593a3.119,3.119,0,0,0-.089,1.689,3.2,3.2,0,0,0,1.713,1.591l16.467,8.9a3.162,3.162,0,0,0,4.888-1.035,376.667,376.667,0,0,0,24.487-33.364c11.115-16.629,22.019-34.539,23.368-54.5.343-5.079-.133-10.663-3.589-14.4-3.824-4.137-10.071-4.758-15.7-4.712-23.006.187-47.764,14.706-68.325,25.031s-44.485,37.861-59.138,6.884" transform="translate(-451.481 -248.915)" fill="#040966"/>
          </g>
          <g id="Grupo_80617" data-name="Grupo 80617" transform="translate(133.094 73.317)">
            <path id="Trazado_114003" data-name="Trazado 114003" d="M700.368,177.194l28.468-36.833a1.336,1.336,0,0,1,2.388.706l2.32,27.579L716.1,195.979Z" transform="translate(-664.023 -139.092)" fill="#d37bc8"/>
            <path id="Trazado_114004" data-name="Trazado 114004" d="M680.507,184.153l39.37-45.418,6.3,28.9h0Z" transform="translate(-657.6 -138.734)" fill="#f1e4ff"/>
            <path id="Trazado_114005" data-name="Trazado 114005" d="M674.03,188.1l20.427-37.161,30.569,21.3Z" transform="translate(-655.505 -142.681)" fill="#fff"/>
            <path id="Trazado_114006" data-name="Trazado 114006" d="M646.955,208.269c5.158-8.355,22.881-36.417,27.761-44.14a2.957,2.957,0,0,1,3.47-1.214l37.985,13.14-28.413,44.528a1.8,1.8,0,0,1-1.977.769l-37.613-10.043A2.038,2.038,0,0,1,646.955,208.269Z" transform="translate(-646.651 -146.502)" fill="#d37bc8"/>
            <path id="Trazado_114007" data-name="Trazado 114007" d="M715.994,181.981a6.8,6.8,0,0,1-3.3,4.189c-4.959,2.921-8.453,8.311-13,11.907a102.893,102.893,0,0,1-14.956,9.993c-10.611,5.692-24.033,8.761-36.012,9.413.039.013.072.034.112.045l37.613,10.043a1.8,1.8,0,0,0,1.977-.769l28.413-44.528Z" transform="translate(-647.323 -152.72)" fill="#f05475"/>
          </g>
          <g id="Grupo_80639" data-name="Grupo 80639" transform="translate(0 78.573)">
            <path id="Trazado_114008" data-name="Trazado 114008" d="M487.56,146.5c-14.106,8.779-23.787,23.5-29.124,39.238s-6.692,32.532-7.054,49.143.224,33.273-1.408,49.808c-.112,1.139.005,2.648,1.115,2.928a2.492,2.492,0,0,0,2.032-.819c16.625-13.64,38.13-19.492,57.16-29.509a7.328,7.328,0,0,0,2.963-2.313,7.5,7.5,0,0,0,.818-2.253q1.109-4.522,2.219-9.044c3.242-13.209,6.5-26.529,7.008-40.121s-2.558-24.23-9.928-35.662c-1.393-2.161-6.527-11.321-8.365-13.121-4.673-4.574-10.457-1.634-17.436-8.275" transform="translate(-449.94 -146.502)" fill="#aaa2fd"/>
            <g id="Grupo_80628" data-name="Grupo 80628" transform="translate(23.147 12.312)">
              <path id="Trazado_114009" data-name="Trazado 114009" d="M528.268,179.313a6.566,6.566,0,0,1-6.455,4.152c-11.363-.686-23.579-.7-34.981-2.426-1.189,13.188,1.269,27.074,8.725,38.178,8.349,12.433,21.4,20.295,34.573,26.744,2.471-10.481,4.595-21.05,5-31.791C535.574,202.208,533.738,189.889,528.268,179.313Z" transform="translate(-484.926 -169.425)" fill="#8f8ae7"/>
              <g id="Grupo_80627" data-name="Grupo 80627">
                <path id="Trazado_114010" data-name="Trazado 114010" d="M678.176,227.277c2.137,1.21,4.922.092,6.629-1.673a64.016,64.016,0,0,0,4.378-5.589c1.821-2.34,5.656-4.079,9.29-6.57a.56.56,0,0,1,.871.592c-.6,2.175-3.875,5.708-4.411,7.731a.766.766,0,0,0,.041.689.73.73,0,0,0,.644.154c4.066-.409,7.125-3.857,10.942-5.318a2.726,2.726,0,0,1,1.746-.209c1.233.38.307,2.882.006,4.136a15.678,15.678,0,0,1-4.7,7.238c-7.258,6.363-15.972,7.782-25.532,6.445" transform="translate(-546.867 -180.43)" fill="#fbb473"/>
                <g id="Grupo_80626" data-name="Grupo 80626">
                  <path id="Trazado_114011" data-name="Trazado 114011" d="M486.733,168.18c5.243-3.777,12.008-4,18.208-2.912,11.9,2.091,22.831,8.453,32.822,15.823,9.284,6.847,18.04,14.684,28.115,20.031,13.513,7.172,28.839,9.517,43.857,9.066,2.855-.086,5.861-.234,8.4,1.2s4.277,5.087,2.81,7.766c-.9,1.634-2.647,2.412-4.277,3.083-11.9,4.9-23.854,9.816-36.3,12.673s-25.495,3.59-37.8.116c-16.952-4.784-31.245-17.105-43.951-30.27-3.758-3.893-7.482-7.968-9.949-12.944s-7.637-16.512-1.933-23.626" transform="translate(-484.151 -164.699)" fill="#aaa2fd"/>
                  <g id="Grupo_80625" data-name="Grupo 80625" transform="translate(19.222 11.181)">
                    <g id="Grupo_80618" data-name="Grupo 80618" opacity="0.46">
                      <path id="Trazado_114012" data-name="Trazado 114012" d="M514.181,184.579a1.678,1.678,0,0,0,0-3.354,1.678,1.678,0,0,0,0,3.354Z" transform="translate(-512.561 -181.225)" fill="#fff"/>
                    </g>
                    <g id="Grupo_80619" data-name="Grupo 80619" transform="translate(27.047 35.975)" opacity="0.46">
                      <path id="Trazado_114013" data-name="Trazado 114013" d="M554.156,237.75a1.678,1.678,0,0,0,0-3.354,1.678,1.678,0,0,0,0,3.354Z" transform="translate(-552.536 -234.396)" fill="#fff"/>
                    </g>
                    <g id="Grupo_80620" data-name="Grupo 80620" transform="translate(30.724 9.453)" opacity="0.46">
                      <path id="Trazado_114014" data-name="Trazado 114014" d="M559.59,198.551a1.678,1.678,0,0,0,0-3.354,1.678,1.678,0,0,0,0,3.354Z" transform="translate(-557.97 -195.197)" fill="#fff"/>
                    </g>
                    <g id="Grupo_80621" data-name="Grupo 80621" transform="translate(6.827 24.422)" opacity="0.46">
                      <path id="Trazado_114015" data-name="Trazado 114015" d="M524.272,220.673a1.678,1.678,0,0,0,0-3.353,1.678,1.678,0,0,0,0,3.353Z" transform="translate(-522.652 -217.32)" fill="#fff"/>
                    </g>
                    <g id="Grupo_80622" data-name="Grupo 80622" transform="translate(58.559 33.875)" opacity="0.46">
                      <path id="Trazado_114016" data-name="Trazado 114016" d="M600.73,234.645a1.678,1.678,0,0,0,0-3.353,1.678,1.678,0,0,0,0,3.353Z" transform="translate(-599.11 -231.292)" fill="#fff"/>
                    </g>
                    <g id="Grupo_80623" data-name="Grupo 80623" transform="translate(52.825 53.307)" opacity="0.46">
                      <path id="Trazado_114017" data-name="Trazado 114017" d="M592.256,263.365a1.678,1.678,0,0,0,0-3.353,1.678,1.678,0,0,0,0,3.353Z" transform="translate(-590.636 -260.012)" fill="#fff"/>
                    </g>
                    <g id="Grupo_80624" data-name="Grupo 80624" transform="translate(91.383 41.228)" opacity="0.46">
                      <path id="Trazado_114018" data-name="Trazado 114018" d="M649.243,245.512a1.678,1.678,0,0,0,0-3.353,1.678,1.678,0,0,0,0,3.353Z" transform="translate(-647.623 -242.159)" fill="#fff"/>
                    </g>
                  </g>
                </g>
              </g>
            </g>
            <g id="Grupo_80638" data-name="Grupo 80638" transform="translate(4.818 25.857)">
              <g id="Grupo_80629" data-name="Grupo 80629" transform="translate(50.155 73.001)" opacity="0.46">
                <path id="Trazado_114019" data-name="Trazado 114019" d="M532.81,295.966a1.678,1.678,0,0,0,0-3.353,1.678,1.678,0,0,0,0,3.353Z" transform="translate(-531.19 -292.613)" fill="#fff"/>
              </g>
              <g id="Grupo_80630" data-name="Grupo 80630" transform="translate(29.148 47.005)" opacity="0.46">
                <path id="Trazado_114020" data-name="Trazado 114020" d="M501.761,257.544a1.678,1.678,0,0,0,0-3.354,1.678,1.678,0,0,0,0,3.354Z" transform="translate(-500.141 -254.19)" fill="#fff"/>
              </g>
              <g id="Grupo_80631" data-name="Grupo 80631" transform="translate(23.371 80.879)" opacity="0.46">
                <path id="Trazado_114021" data-name="Trazado 114021" d="M493.223,307.61a1.678,1.678,0,0,0,0-3.354,1.678,1.678,0,0,0,0,3.354Z" transform="translate(-491.603 -304.256)" fill="#fff"/>
              </g>
              <g id="Grupo_80632" data-name="Grupo 80632" transform="translate(3.151 99.523)" opacity="0.46">
                <path id="Trazado_114022" data-name="Trazado 114022" d="M463.339,335.166a1.678,1.678,0,0,0,0-3.354,1.678,1.678,0,0,0,0,3.354Z" transform="translate(-461.719 -331.812)" fill="#fff"/>
              </g>
              <g id="Grupo_80633" data-name="Grupo 80633" transform="translate(3.939 57.771)" opacity="0.46">
                <path id="Trazado_114023" data-name="Trazado 114023" d="M464.5,273.456a1.678,1.678,0,0,0,0-3.354,1.678,1.678,0,0,0,0,3.354Z" transform="translate(-462.883 -270.102)" fill="#fff"/>
              </g>
              <g id="Grupo_80634" data-name="Grupo 80634" transform="translate(15.493 25.209)" opacity="0.46">
                <path id="Trazado_114024" data-name="Trazado 114024" d="M481.58,225.33a1.678,1.678,0,0,0,0-3.353,1.678,1.678,0,0,0,0,3.353Z" transform="translate(-479.96 -221.977)" fill="#fff"/>
              </g>
              <g id="Grupo_80635" data-name="Grupo 80635" transform="translate(15.493)" opacity="0.46">
                <path id="Trazado_114025" data-name="Trazado 114025" d="M481.58,188.072a1.678,1.678,0,0,0,0-3.354,1.678,1.678,0,0,0,0,3.354Z" transform="translate(-479.96 -184.718)" fill="#fff"/>
              </g>
              <g id="Grupo_80636" data-name="Grupo 80636" transform="translate(56.458 53.307)" opacity="0.46">
                <path id="Trazado_114026" data-name="Trazado 114026" d="M542.125,266.858a1.678,1.678,0,0,0,0-3.353,1.678,1.678,0,0,0,0,3.353Z" transform="translate(-540.505 -263.505)" fill="#fff"/>
              </g>
              <g id="Grupo_80637" data-name="Grupo 80637" transform="translate(0 31.512)" opacity="0.46">
                <path id="Trazado_114027" data-name="Trazado 114027" d="M458.681,234.645a1.678,1.678,0,0,0,0-3.353,1.678,1.678,0,0,0,0,3.353Z" transform="translate(-457.061 -231.292)" fill="#fff"/>
              </g>
            </g>
          </g>
        </g>
      </g>
    </g>
    <g id="Grupo_82191" data-name="Grupo 82191" transform="translate(0 0.383)">
      <text id="Las_fuentes_primarias_pueden_presentarse_a_través_de:" data-name="Las fuentes primarias pueden presentarse a través de:" transform="translate(810 4724.617)" fill="#12263f" font-size="20" font-family="Roboto-Black, Roboto" font-weight="800"><tspan x="0" y="21">Las fuentes primarias pueden presentarse a través de:</tspan></text>
      <g id="Grupo_82184" data-name="Grupo 82184" transform="translate(0 12.617)">
        <rect id="Rectangle" width="610" height="238" rx="24" transform="translate(810 4776)" fill="#80c2f7" opacity="0.5"/>
        <text id="What_do_you_mean_by" data-name="What do you mean by" transform="translate(838.332 4835)" fill="#12263f" font-size="16" font-family="Roboto-Bold, Roboto" font-weight="700"><tspan x="0" y="0">Monografías</tspan></text>
        <g id="Light_Button_Secondary_Icon" data-name="Light/Button/Secondary/Icon" transform="translate(1324 4806)">
          <g id="Rectangle-2" data-name="Rectangle" transform="translate(0 0)" fill="none" stroke="#12263f" stroke-miterlimit="10" stroke-width="1">
            <rect width="48" height="48" rx="24" stroke="none"/>
            <rect x="0.5" y="0.5" width="47" height="47" rx="23.5" fill="none"/>
          </g>
        </g>
        <path id="Path" d="M0,10.5,1.63,12,8,6,1.63,0,0,1.5,4.8,6Z" transform="translate(1342.332 4834) rotate(-90)" fill="#12263f"/>
        <text id="A_bank_is_a_financia" data-name="A bank is a financia" transform="translate(838.332 4869)" fill="#12263f" font-size="16" font-family="Roboto-Regular, Roboto"><tspan x="0" y="17">Son documentos de un tema específico, en la cual se desarrolla en función </tspan><tspan x="0" y="41">de la perspectiva del autor. Es muy útil por el análisis e integración que </tspan><tspan x="0" y="65">hacen sobre el tema, debido a que es abordado de manera integral. La </tspan><tspan x="0" y="89">monografía facilita la recolección de la información de una manera amplia y </tspan><tspan x="0" y="113">con gran cobertura para profundizar en el contenido.</tspan></text>
        <rect id="Rectangle-3" data-name="Rectangle" width="514" height="1" transform="translate(857 5121)" fill="#e8e8e8"/>
        <rect id="Rectangle-4" data-name="Rectangle" width="514" height="1" transform="translate(857 5232.002)" fill="#e8e8e8"/>
        <text id="How_many_types_of_ba" data-name="How many types of ba" transform="translate(838 5074)" fill="#12263f" font-size="16" font-family="Roboto-Black, Roboto" font-weight="800"><tspan x="0" y="0">Obras de referencia</tspan></text>
        <g id="Light_Button_Secondary_Icon-2" data-name="Light/Button/Secondary/Icon" transform="translate(1324 5044)">
          <g id="Rectangle-5" data-name="Rectangle" transform="translate(0 0)" fill="none" stroke="#afafaf" stroke-miterlimit="10" stroke-width="1">
            <rect width="48" height="48" rx="24" stroke="none"/>
            <rect x="0.5" y="0.5" width="47" height="47" rx="23.5" fill="none"/>
          </g>
        </g>
        <path id="Path-2" data-name="Path" d="M0,1.5,1.63,0,8,6,1.63,12,0,10.5,4.8,6Z" transform="translate(1354.332 5064) rotate(90)" fill="#12263f"/>
        <text id="What_are_the_two_mea" data-name="What are the two mea" transform="translate(838 5182.002)" fill="#12263f" font-size="16" font-family="Roboto-Black, Roboto" font-weight="800"><tspan x="0" y="0">Fotografías</tspan></text>
        <g id="Light_Button_Secondary_Icon-3" data-name="Light/Button/Secondary/Icon" transform="translate(1324 5153.002)">
          <g id="Rectangle-6" data-name="Rectangle" transform="translate(0 0)" fill="none" stroke="#afafaf" stroke-miterlimit="10" stroke-width="1">
            <rect width="48" height="48" rx="24" stroke="none"/>
            <rect x="0.5" y="0.5" width="47" height="47" rx="23.5" fill="none"/>
          </g>
        </g>
        <path id="Path-3" data-name="Path" d="M0,1.5,1.63,0,8,6,1.63,12,0,10.5,4.8,6Z" transform="translate(1354.332 5173.002) rotate(90)" fill="#111e61"/>
        <text id="How_do_banks_work_" data-name="How do banks work?" transform="translate(838 5293.003)" fill="#12263f" font-size="16" font-family="Roboto-Black, Roboto" font-weight="800"><tspan x="0" y="0">Métodos de recolección de información </tspan></text>
        <g id="Grupo_80643" data-name="Grupo 80643" transform="translate(1324 5264.004)">
          <g id="Light_Button_Secondary_Icon-4" data-name="Light/Button/Secondary/Icon" transform="translate(0 0)">
            <g id="Rectangle-7" data-name="Rectangle" fill="none" stroke="#afafaf" stroke-miterlimit="10" stroke-width="1">
              <rect width="48" height="48" rx="24" stroke="none"/>
              <rect x="0.5" y="0.5" width="47" height="47" rx="23.5" fill="none"/>
            </g>
          </g>
          <path id="Path-4" data-name="Path" d="M0,1.5,1.63,0,8,6,1.63,12,0,10.5,4.8,6Z" transform="translate(30.332 21) rotate(90)" fill="#12263f"/>
        </g>
        <rect id="Rectangle-8" data-name="Rectangle" width="514" height="1" transform="translate(857 5343)" fill="#e8e8e8"/>
        <text id="How_do_banks_work_2" data-name="How do banks work?" transform="translate(838 5404.001)" fill="#12263f" font-size="16" font-family="Roboto-Black, Roboto" font-weight="800"><tspan x="0" y="0">Encuesta </tspan></text>
        <g id="Grupo_80648" data-name="Grupo 80648" transform="translate(1324 5375.002)">
          <g id="Light_Button_Secondary_Icon-5" data-name="Light/Button/Secondary/Icon" transform="translate(0 0)">
            <g id="Rectangle-9" data-name="Rectangle" fill="none" stroke="#afafaf" stroke-miterlimit="10" stroke-width="1">
              <rect width="48" height="48" rx="24" stroke="none"/>
              <rect x="0.5" y="0.5" width="47" height="47" rx="23.5" fill="none"/>
            </g>
          </g>
          <path id="Path-5" data-name="Path" d="M0,1.5,1.63,0,8,6,1.63,12,0,10.5,4.8,6Z" transform="translate(30.332 21) rotate(90)" fill="#12263f"/>
        </g>
        <rect id="Rectangle-10" data-name="Rectangle" width="514" height="1" transform="translate(857 5453)" fill="#e8e8e8"/>
      </g>
    </g>
  </g>
</svg>
