<svg xmlns="http://www.w3.org/2000/svg" width="1240" height="351.896" viewBox="0 0 1240 351.896">
  <g id="Grupo_80555" data-name="Grupo 80555" transform="translate(-179.668 -3916.881)">
    <path id="Trazado_115286" data-name="Trazado 115286" d="M50,0H1240V237a50,50,0,0,1-50,50H0V50A50,50,0,0,1,50,0Z" transform="translate(179.668 3959)" fill="#64b5f6" opacity="0.25"/>
    <text id="Las_fuentes_de_información_directa_suceden_cuando_el_investigador_toma_directamente_los_datos_de_la_población_es_decir_no_emplea_formatos_como_cuestionarios_entrevistas_listas_de_chequeo_etc._Por_ejemplo_cuando_un_docente_realiza_un_estudio_investigat" data-name="Las fuentes de información directa suceden cuando el investigador toma directamente los datos de la población, es decir no emplea formatos como cuestionarios, entrevistas, listas de chequeo, etc. Por ejemplo, cuando un docente realiza un estudio investigat" transform="translate(722.668 4009)" fill="#12263f" font-size="16" font-family="Roboto-Regular, Roboto"><tspan x="0" y="17">Las fuentes de información directa suceden cuando el investigador toma directamente los </tspan><tspan x="0" y="41">datos de la población, es decir no emplea formatos como cuestionarios, entrevistas, listas de </tspan><tspan x="0" y="65">chequeo, etc. Por ejemplo, cuando un docente realiza un estudio investigativo en el aula de </tspan><tspan x="0" y="89">clases sobre el rendimiento académico de sus alumnos. </tspan><tspan x="0" y="113"></tspan><tspan x="0" y="137">Las fuentes de información indirecta son aquellas que se generan cuando los datos o la </tspan><tspan x="0" y="161">información no se obtiene directamente por el investigador, debido a que es necesario la </tspan><tspan x="0" y="185">aplicación de un cuestionario, formato, entrevista, lista de chequeo, etc.</tspan></text>
    <g id="Grupo_80491" data-name="Grupo 80491" transform="translate(220.668 3872.081)">
      <circle id="Elipse_4848" data-name="Elipse 4848" cx="169.972" cy="169.972" r="169.972" transform="translate(78.255 44.8)" fill="#98cbed"/>
      <g id="Grupo_80504" data-name="Grupo 80504" transform="translate(164.124 133.28)">
        <g id="Grupo_80491-2" data-name="Grupo 80491">
          <path id="Trazado_113844" data-name="Trazado 113844" d="M468.2,460.139H308.849V230.858H485.7V445.205C485.7,453.453,477.867,460.139,468.2,460.139Z" transform="translate(-308.807 -230.858)" fill="#f6f6f6"/>
          <rect id="Rectángulo_33832" data-name="Rectángulo 33832" width="176.561" height="10.645" transform="translate(0 0)" fill="#427ccc"/>
        </g>
        <g id="Grupo_80493" data-name="Grupo 80493" transform="translate(41.89 123.403)">
          <g id="Grupo_80492" data-name="Grupo 80492">
            <path id="Trazado_113845" data-name="Trazado 113845" d="M487.259,493.046c2.382,0,2.382-2.693,0-2.693H398.636c-2.381,0-2.381,2.693,0,2.693h88.624Z" transform="translate(-396.85 -490.353)" fill="#9ba7ae"/>
          </g>
        </g>
        <g id="Grupo_80494" data-name="Grupo 80494" transform="translate(37.878 18.028)">
          <path id="Trazado_113846" data-name="Trazado 113846" d="M447.13,268.767A46.88,46.88,0,0,0,411.6,284.993l35.526,30.783,35.526-30.783A46.88,46.88,0,0,0,447.13,268.767Z" transform="translate(-400.576 -268.767)" fill="#d0e8f4"/>
          <path id="Trazado_113847" data-name="Trazado 113847" d="M539.958,353.133l-46.528,6.69v47.009a46.994,46.994,0,0,0,46.528-53.7Z" transform="translate(-443.489 -313.013)" fill="#06529c"/>
          <path id="Trazado_113848" data-name="Trazado 113848" d="M399.491,303.214a46.991,46.991,0,0,0,11.07,70.185l24.873-39.886Z" transform="translate(-388.413 -286.833)" fill="#5bb5dc"/>
          <path id="Trazado_113849" data-name="Trazado 113849" d="M459.129,414.07a46.792,46.792,0,0,1-25.413-7.466l25.418-39.542Z" transform="translate(-412.172 -320.318)" fill="#427ccc"/>
          <path id="Trazado_113850" data-name="Trazado 113850" d="M544.984,321.117a46.8,46.8,0,0,0-11-24.094l-35.526,30.783Z" transform="translate(-446.125 -283.586)" fill="#33435a"/>
        </g>
        <g id="Grupo_80499" data-name="Grupo 80499" transform="translate(20.834 137.821)">
          <g id="Grupo_80495" data-name="Grupo 80495" transform="translate(0 23.456)">
            <rect id="Rectángulo_33833" data-name="Rectángulo 33833" width="17.269" height="41.596" transform="translate(0 16.107)" fill="#427ccc"/>
            <rect id="Rectángulo_33834" data-name="Rectángulo 33834" width="17.269" height="19.547" fill="#d0e8f4"/>
          </g>
          <g id="Grupo_80496" data-name="Grupo 80496" transform="translate(113.689 6.333)">
            <rect id="Rectángulo_33835" data-name="Rectángulo 33835" width="17.269" height="41.596" transform="translate(0 35.106)" fill="#427ccc"/>
            <rect id="Rectángulo_33836" data-name="Rectángulo 33836" width="17.382" height="38.546" fill="#d0e8f4"/>
          </g>
          <g id="Grupo_80497" data-name="Grupo 80497" transform="translate(75.792 34.246)">
            <rect id="Rectángulo_33837" data-name="Rectángulo 33837" width="17.269" height="43.941" transform="translate(0 3.909)" fill="#427ccc"/>
            <rect id="Rectángulo_33838" data-name="Rectángulo 33838" width="17.269" height="29.164" fill="#d0e8f4"/>
          </g>
          <g id="Grupo_80498" data-name="Grupo 80498" transform="translate(37.896 0)">
            <rect id="Rectángulo_33839" data-name="Rectángulo 33839" width="17.269" height="59.012" transform="translate(0 22.85)" fill="#427ccc"/>
            <rect id="Rectángulo_33840" data-name="Rectángulo 33840" width="17.269" height="47.2" fill="#d0e8f4"/>
          </g>
        </g>
        <g id="Grupo_80503" data-name="Grupo 80503" transform="translate(4.475 3.791)">
          <g id="Grupo_80500" data-name="Grupo 80500">
            <path id="Trazado_113851" data-name="Trazado 113851" d="M320.442,243.371a2.271,2.271,0,1,1,2.271-2.271A2.273,2.273,0,0,1,320.442,243.371Zm0-4.163a1.893,1.893,0,1,0,1.892,1.893A1.9,1.9,0,0,0,320.442,239.208Z" transform="translate(-318.171 -238.829)" fill="#fff"/>
          </g>
          <g id="Grupo_80501" data-name="Grupo 80501" transform="translate(7.002)">
            <path id="Trazado_113852" data-name="Trazado 113852" d="M335.167,243.371a2.271,2.271,0,1,1,2.271-2.271A2.273,2.273,0,0,1,335.167,243.371Zm0-4.163a1.893,1.893,0,1,0,1.893,1.893A1.895,1.895,0,0,0,335.167,239.208Z" transform="translate(-332.896 -238.829)" fill="#fff"/>
          </g>
          <g id="Grupo_80502" data-name="Grupo 80502" transform="translate(14.004)">
            <path id="Trazado_113853" data-name="Trazado 113853" d="M349.891,243.371a2.271,2.271,0,1,1,2.271-2.271A2.273,2.273,0,0,1,349.891,243.371Zm0-4.163a1.893,1.893,0,1,0,1.892,1.893A1.895,1.895,0,0,0,349.891,239.208Z" transform="translate(-347.62 -238.829)" fill="#fff"/>
          </g>
        </g>
      </g>
      <path id="Trazado_113854" data-name="Trazado 113854" d="M194.538,535.029H81.806v-174.1h123.2V524.561A10.468,10.468,0,0,1,194.538,535.029Z" transform="translate(-25.61 -165.792)" fill="#184462" opacity="0.07"/>
      <g id="Grupo_80506" data-name="Grupo 80506" transform="translate(42.197 181.961)">
        <g id="Grupo_80505" data-name="Grupo 80505" transform="translate(0)">
          <path id="Trazado_113855" data-name="Trazado 113855" d="M169.867,515.634H52.37V333.227H185.12V500.381A15.253,15.253,0,0,1,169.867,515.634Z" transform="translate(-52.37 -333.227)" fill="#5bb5dc"/>
        </g>
        <rect id="Rectángulo_33841" data-name="Rectángulo 33841" width="107.464" height="67.955" transform="translate(14.09 14.565)" fill="#fff"/>
        <path id="Trazado_113856" data-name="Trazado 113856" d="M159.924,393.969a4.489,4.489,0,0,0,2.678,2.213c2.721,1.016,6.379.283,7.948-2,2.622-3.809,1.885-9.26,4.707-13.217a9.26,9.26,0,0,1,4.95-3.5,8.463,8.463,0,0,1,6.252.594c2.984,1.643,4.017,5.04,4.046,8.122a96.042,96.042,0,0,1-1.838,17.881c-.516,2.826-1.311,5.73-3.359,7.964-2.778,3.029-7.354,4.29-11.729,4.965-11.07,1.706-22.425.663-33.6-.385L113,414.087c-2.534-.238-10,.146-11.514-1.61-1.482-1.715-.317-7.526.549-9.319,1.929-3.994,7.207-6.248,12.161-5.995,11.174.572,6.757-11.1,10.333-16.637,1.9-2.944,6.084-5.059,9.687-3.832,3.437,1.17,4.872,4.62,6.566,7.483.879,1.486,2.129,3.027,4.008,3.348,3.2.547,5.862-2.7,9.115-2.577a5.442,5.442,0,0,1,4.4,2.894C159.438,389.909,159.043,392.193,159.924,393.969Z" transform="translate(-77.759 -355.837)" fill="#d0e8f4"/>
        <path id="Trazado_113857" data-name="Trazado 113857" d="M189.091,441.408s.018-4.891.019-5.16c.026-7.3.025-14.6.034-21.9.009-6.974.584-13.946.47-20.9-.05-3.218-1.44-4.9-4.83-4.036a15.662,15.662,0,0,0-8.489,5.563c-1.423,1.851-2.605,4.169-4.817,4.914-3.954,1.332-7.189-3.121-10.739-5.312a11.039,11.039,0,0,0-12.575.939c-4.145,3.505-5.1,9.566-8.6,13.71a14.164,14.164,0,0,1-16.3,3.587c-2.226-1.034-4.139-2.646-6.334-3.746-8.7-4.363-20.8,1.915-22.247,11.542V440.53S189.267,441.583,189.091,441.408Z" transform="translate(-74.561 -362.575)" fill="#f6c5b0"/>
        <rect id="Rectángulo_33842" data-name="Rectángulo 33842" width="8.077" height="8.077" transform="translate(15.846 92.88)" fill="#06529c"/>
        <rect id="Rectángulo_33843" data-name="Rectángulo 33843" width="8.077" height="8.077" transform="translate(15.846 104.82)" fill="#427ccc"/>
        <rect id="Rectángulo_33844" data-name="Rectángulo 33844" width="23.53" height="2.458" transform="translate(30.596 95.338)" fill="#f6f6f6"/>
        <rect id="Rectángulo_33845" data-name="Rectángulo 33845" width="23.53" height="2.458" transform="translate(30.244 108.332)" fill="#f6f6f6"/>
        <rect id="Rectángulo_33846" data-name="Rectángulo 33846" width="102.548" height="2.656" transform="translate(16.899 126.671)" fill="#f6f6f6"/>
        <rect id="Rectángulo_33847" data-name="Rectángulo 33847" width="45.655" height="36.392" transform="translate(16.899 134.386)" fill="#33435a"/>
        <rect id="Rectángulo_33848" data-name="Rectángulo 33848" width="49.869" height="15.847" transform="translate(69.578 134.737)" fill="#427ccc"/>
        <rect id="Rectángulo_33849" data-name="Rectángulo 33849" width="49.869" height="15.847" transform="translate(69.051 154.755)" fill="#06529c"/>
      </g>
      <g id="Grupo_80508" data-name="Grupo 80508" transform="translate(32.973 106.579)">
        <path id="Trazado_113858" data-name="Trazado 113858" d="M117.459,174.712h-83.9a.613.613,0,0,0-.585.638V219.8c0,10.958,8.152,19.841,18.209,19.841H85.97l14.224,19.956a.678.678,0,0,0,1.231-.384l.292-19.573h15.743a.613.613,0,0,0,.585-.638V175.35A.613.613,0,0,0,117.459,174.712Z" transform="translate(-32.973 -174.712)" fill="#06529c"/>
        <g id="Grupo_80507" data-name="Grupo 80507" transform="translate(10.987 10.622)">
          <rect id="Rectángulo_33850" data-name="Rectángulo 33850" width="52.262" height="2.178" fill="#d0e8f4"/>
          <rect id="Rectángulo_33851" data-name="Rectángulo 33851" width="62.333" height="2.178" transform="translate(0 16.604)" fill="#d0e8f4"/>
          <rect id="Rectángulo_33852" data-name="Rectángulo 33852" width="62.333" height="2.178" transform="translate(0 33.208)" fill="#d0e8f4"/>
        </g>
      </g>
      <g id="Grupo_80511" data-name="Grupo 80511" transform="translate(109.816 83.307)">
        <g id="Grupo_80509" data-name="Grupo 80509" transform="translate(0 0)">
          <path id="Trazado_113859" data-name="Trazado 113859" d="M256.792,169.885h-62.23V125.773h58.273l12.48,13.181v21.822C265.314,165.807,261.5,169.885,256.792,169.885Z" transform="translate(-194.561 -125.773)" fill="#427ccc"/>
          <path id="Trazado_113860" data-name="Trazado 113860" d="M329.421,139.059l-12.529.315v-13.6Z" transform="translate(-258.718 -125.773)" fill="#f6c5b0"/>
        </g>
        <g id="Grupo_80510" data-name="Grupo 80510" transform="translate(10.777 11.448)">
          <rect id="Rectángulo_33853" data-name="Rectángulo 33853" width="39.7" height="1.891" transform="translate(6.289)" fill="#5bb5dc"/>
          <rect id="Rectángulo_33854" data-name="Rectángulo 33854" width="45.989" height="1.891" transform="translate(0 9.137)" fill="#5bb5dc"/>
          <rect id="Rectángulo_33855" data-name="Rectángulo 33855" width="45.989" height="1.891" transform="translate(0 18.275)" fill="#5bb5dc"/>
        </g>
      </g>
      <g id="Grupo_80515" data-name="Grupo 80515" transform="translate(296.745 156.85)">
        <g id="Grupo_80512" data-name="Grupo 80512" transform="translate(0 55.998)">
          <path id="Trazado_113861" data-name="Trazado 113861" d="M588.286,401.043a.479.479,0,0,1-.474-.414c-.089-.646-.147-1.3-.173-1.954a.479.479,0,0,1,.957-.038c.025.619.08,1.245.165,1.861a.479.479,0,0,1-.409.54A.446.446,0,0,1,588.286,401.043Z" transform="translate(-587.639 -398.178)" fill="#fef536"/>
        </g>
        <g id="Grupo_80513" data-name="Grupo 80513" transform="translate(0.215 5.219)">
          <path id="Trazado_113862" data-name="Trazado 113862" d="M588.57,339.328a.47.47,0,0,1-.072-.006.478.478,0,0,1-.4-.545,22.487,22.487,0,0,1,.923-3.783.479.479,0,1,1,.908.306,21.491,21.491,0,0,0-.884,3.62A.479.479,0,0,1,588.57,339.328Zm2.395-7.209a.479.479,0,0,1-.425-.7,30.088,30.088,0,0,1,2-3.319.479.479,0,0,1,.787.545,29.1,29.1,0,0,0-1.937,3.213A.478.478,0,0,1,590.964,332.119Zm4.315-6.273a.479.479,0,0,1-.36-.793c.828-.95,1.73-1.885,2.681-2.781a.479.479,0,1,1,.656.7c-.928.874-1.809,1.787-2.616,2.713A.479.479,0,0,1,595.28,325.846Zm5.543-5.234a.479.479,0,0,1-.3-.855c1-.788,2.058-1.545,3.133-2.25a.479.479,0,1,1,.525.8c-1.053.69-2.085,1.431-3.067,2.2A.475.475,0,0,1,600.823,320.612Zm6.377-4.185a.479.479,0,0,1-.231-.9c1.113-.611,2.265-1.2,3.424-1.75a.479.479,0,0,1,.41.865c-1.142.542-2.277,1.122-3.373,1.724A.479.479,0,0,1,607.2,316.427Zm6.892-3.272a.479.479,0,0,1-.18-.923c1.171-.475,2.381-.928,3.6-1.347a.479.479,0,1,1,.312.905c-1.2.413-2.395.86-3.549,1.329A.482.482,0,0,1,614.091,313.155Zm7.213-2.485a.479.479,0,0,1-.132-.939c1.21-.348,2.46-.674,3.714-.971a.479.479,0,1,1,.22.932c-1.239.292-2.474.615-3.669.959A.489.489,0,0,1,621.3,310.67Zm61.042-1.356h-.389a.479.479,0,0,1-.476-.482.471.471,0,0,1,.483-.476h.381c1.184,0,2.324-.042,3.391-.125a.479.479,0,1,1,.074.955C684.72,309.271,683.554,309.314,682.346,309.314Zm-4.2-.147h-.032c-1.139-.074-2.388-.179-3.819-.32a.479.479,0,0,1,.094-.953c1.42.14,2.659.244,3.787.318a.479.479,0,0,1-.03.956Zm-49.421-.253a.479.479,0,0,1-.088-.949c1.234-.233,2.506-.447,3.783-.634a.479.479,0,1,1,.139.947c-1.263.185-2.523.4-3.743.628A.481.481,0,0,1,628.727,308.913Zm60.828-.226a.479.479,0,0,1-.09-.949,26.592,26.592,0,0,0,3.619-.962.479.479,0,0,1,.313.9,27.483,27.483,0,0,1-3.751,1A.463.463,0,0,1,689.555,308.687Zm-19.006-.242-.052,0-1.137-.124q-1.323-.143-2.654-.272a.479.479,0,0,1,.093-.953q1.335.13,2.664.274l1.138.124a.479.479,0,0,1-.052.955Zm-34.274-.645a.479.479,0,0,1-.051-.954c1.245-.135,2.529-.251,3.817-.345a.479.479,0,0,1,.07.955c-1.277.093-2.55.208-3.783.341A.389.389,0,0,1,636.275,307.8Zm26.676-.09h-.038c-1.282-.1-2.559-.193-3.8-.267a.479.479,0,1,1,.058-.956c1.245.075,2.529.165,3.816.269a.479.479,0,0,1-.038.956Zm-7.619-.458h-.019c-1.284-.05-2.564-.084-3.8-.1a.479.479,0,0,1-.472-.486.473.473,0,0,1,.486-.471c1.247.019,2.535.053,3.827.1a.479.479,0,0,1-.019.957Zm-11.447-.011a.479.479,0,0,1-.019-.957c1.25-.051,2.538-.085,3.829-.1a.485.485,0,0,1,.484.473.479.479,0,0,1-.473.485c-1.281.015-2.56.048-3.8.1Zm52.848-1.062a.479.479,0,0,1-.227-.9,24.305,24.305,0,0,0,3.142-2.025.479.479,0,0,1,.578.763,25.3,25.3,0,0,1-3.266,2.1A.476.476,0,0,1,696.733,306.179Zm6.076-4.573a.479.479,0,0,1-.338-.818,32.524,32.524,0,0,0,2.5-2.809.479.479,0,0,1,.75.594,33.481,33.481,0,0,1-2.571,2.892A.477.477,0,0,1,702.809,301.606Zm4.748-5.957a.479.479,0,0,1-.4-.738c.66-1.026,1.3-2.123,1.9-3.26a.479.479,0,1,1,.846.449c-.616,1.16-1.27,2.281-1.945,3.329A.478.478,0,0,1,707.557,295.649Z" transform="translate(-588.09 -291.397)" fill="#fef536"/>
        </g>
        <g id="Grupo_80514" data-name="Grupo 80514" transform="translate(122.801)">
          <path id="Trazado_113863" data-name="Trazado 113863" d="M846.347,283.145a.479.479,0,0,1-.438-.672c.251-.569.5-1.157.739-1.75a.479.479,0,1,1,.888.358c-.242.6-.495,1.2-.75,1.779A.479.479,0,0,1,846.347,283.145Z" transform="translate(-845.868 -280.423)" fill="#fef536"/>
        </g>
      </g>
      <g id="Grupo_80516" data-name="Grupo 80516" transform="translate(403.925 120.101)">
        <path id="Trazado_113864" data-name="Trazado 113864" d="M852.78,204.454l-2,45.407-14.994-15.74s17.057-30.94,17.176-30.428l-.655-.546c.505-.145-18.243,29.8-18.243,29.8l-21.044-5.452,38.709-23.819Z" transform="translate(-813.021 -203.146)" fill="#fef536"/>
      </g>
      <g id="Grupo_80520" data-name="Grupo 80520" transform="translate(328.687 264.743)">
        <rect id="Rectángulo_33856" data-name="Rectángulo 33856" width="88.48" height="63.965" transform="translate(0 3.711)" fill="#184462" opacity="0.07"/>
        <g id="Grupo_80519" data-name="Grupo 80519" transform="translate(3.023)">
          <g id="Grupo_80518" data-name="Grupo 80518">
            <g id="Grupo_80517" data-name="Grupo 80517">
              <rect id="Rectángulo_33857" data-name="Rectángulo 33857" width="89.081" height="64.156" fill="#06529c"/>
              <rect id="Rectángulo_33858" data-name="Rectángulo 33858" width="88.96" height="5.107" fill="#427ccc"/>
            </g>
            <path id="Trazado_113865" data-name="Trazado 113865" d="M750.4,529.176v-.2H739.466v-10.73h-.2v10.73H726.16v-10.73h-.2v10.73H712.853v-10.73h-.2v10.73H699.546v-10.73h-.2v10.73H686.24v-10.73h-.2v10.73H672.933v-10.73h-.2v10.73H661.817v.2h10.918V541.3H661.817v.2h10.918v12.124H661.817v.2h10.918v12.124H661.817v.2h10.918v11.281h.2V566.141h13.109v11.281h.2V566.141h13.109v11.281h.2V566.141h13.109v11.281h.2V566.141h13.109v11.281h.2V566.141h13.109v11.281h.2V566.141H750.4v-.2H739.466V553.819H750.4v-.2H739.466V541.5H750.4v-.2H739.466V529.176Zm-24.439,0V541.3H712.853V529.176ZM699.546,541.5h13.109v12.124H699.546Zm-.2,12.124H686.24V541.5h13.109Zm13.5-12.124h13.109v12.124H712.853Zm-.2-12.322V541.3H699.546V529.176Zm-13.307,0V541.3H686.24V529.176Zm-26.415,0h13.109V541.3H672.933Zm0,12.322h13.109v12.124H672.933Zm0,24.446V553.819h13.109v12.124Zm13.307,0V553.819h13.109v12.124Zm13.306,0V553.819h13.109v12.124Zm13.307,0V553.819h13.109v12.124Zm26.415,0H726.16V553.819h13.109Zm0-12.322H726.16V541.5h13.109Zm0-12.322H726.16V529.176h13.109Z" transform="translate(-661.507 -513.043)" fill="#232020" opacity="0.03"/>
          </g>
          <path id="Trazado_113866" data-name="Trazado 113866" d="M744.615,535.336a2.717,2.717,0,0,0-1.907,4.653l-9.455,8.142-.719.619a2.717,2.717,0,1,0-3.181,4.4l-2.071,4.987-.883,2.126a2.7,2.7,0,0,0-2.963,1.281l-9.134-5.774-6.768-4.278a2.717,2.717,0,1,0-5.24-1.009,2.735,2.735,0,0,0,.057.555l-12.81,5.228-1.256.513a2.717,2.717,0,1,0-4.356,3.057l-1.9,2.159L672.944,572.3a2.733,2.733,0,1,0,.7.695l7.754-8.8,3.365-3.819a2.716,2.716,0,0,0,3.741-2.518c0-.037,0-.072-.005-.108l.185-.076,14.035-5.729a2.711,2.711,0,0,0,4.279.38l6.139,3.88L723.1,562.5a2.717,2.717,0,1,0,4.2-1.849l2.96-7.125a2.716,2.716,0,0,0,3.289-2.657,2.7,2.7,0,0,0-.372-1.368l1.673-1.44,7.164-6.169,1.546-1.331a2.718,2.718,0,1,0,1.056-5.223Z" transform="translate(-665.119 -522.005)" fill="#f6f6f6"/>
        </g>
      </g>
      <g id="Grupo_80531" data-name="Grupo 80531" transform="translate(243.291 103.805)">
        <g id="Grupo_80529" data-name="Grupo 80529">
          <g id="Grupo_80527" data-name="Grupo 80527">
            <g id="Grupo_80524" data-name="Grupo 80524">
              <g id="Grupo_80522" data-name="Grupo 80522" transform="translate(113.881 94.533)">
                <g id="Grupo_80521" data-name="Grupo 80521">
                  <path id="Trazado_113867" data-name="Trazado 113867" d="M785.856,405.77,775.2,422.845l-60.488-38.106,10.66-17.075Z" transform="translate(-714.708 -367.664)" fill="#f6f6f6"/>
                  <path id="Trazado_113868" data-name="Trazado 113868" d="M842.014,451.688l-.123.2c-3.363,5.386-9.363,7.708-13.4,5.186l-46.43-28.5,12.2-20.52,46.529,29.318C844.827,439.891,845.376,446.3,842.014,451.688Z" transform="translate(-750.03 -388.845)" fill="#06529c"/>
                </g>
                <path id="Trazado_113869" data-name="Trazado 113869" d="M723.607,388.147l2.928,2.132,26.5-6.88-22.084-14.091Z" transform="translate(-719.375 -368.527)" fill="#bbbcc0" opacity="0.2" style="mix-blend-mode: multiply;isolation: isolate"/>
              </g>
              <g id="Grupo_80523" data-name="Grupo 80523">
                <path id="Trazado_113870" data-name="Trazado 113870" d="M595.5,205.658a60.589,60.589,0,1,0,19.309,83.482A60.589,60.589,0,0,0,595.5,205.658Zm12.128,79a52.122,52.122,0,1,1-16.611-71.816A52.122,52.122,0,0,1,607.625,284.656Z" transform="translate(-489.699 -183.341)" fill="#06529c"/>
                <circle id="Elipse_4849" data-name="Elipse 4849" cx="52.122" cy="52.122" r="52.122" transform="translate(0 73.712) rotate(-45)" fill="#d0e8f4" opacity="0.5"/>
              </g>
            </g>
            <g id="Grupo_80526" data-name="Grupo 80526" transform="translate(28.864 26.701)">
              <g id="Grupo_80525" data-name="Grupo 80525" opacity="0.22">
                <path id="Trazado_113871" data-name="Trazado 113871" d="M543.218,269.937a36.708,36.708,0,0,1,68.415-19.46c2.372,4.046,8.822.665,6.447-3.387a44.538,44.538,0,0,0-47.615-21.095c-18.453,3.927-32.068,19.787-34.287,38.325a40.331,40.331,0,0,0-.24,5.406c.072,4.676,7.352,4.922,7.28.212Z" transform="translate(-535.932 -225.025)" fill="#fff"/>
              </g>
              <circle id="Elipse_4850" data-name="Elipse 4850" cx="4.796" cy="4.796" r="4.796" transform="translate(78.66 32.514) rotate(-7.528)" fill="#fff" opacity="0.31"/>
            </g>
          </g>
          <path id="Trazado_113872" data-name="Trazado 113872" d="M780.206,425.542l11.609-19.524a1.52,1.52,0,0,0-.4-2l-.2-.151a1.521,1.521,0,0,0-2.219.457l-11.432,19.66a1.52,1.52,0,0,0,.576,2.093l.027.015A1.52,1.52,0,0,0,780.206,425.542Z" transform="translate(-633.68 -291.962)" fill="#5bb5dc"/>
          <g id="Grupo_80528" data-name="Grupo 80528" transform="translate(18.651 19.739)">
            <path id="Trazado_113873" data-name="Trazado 113873" d="M620.362,264.732a51.581,51.581,0,1,1-6.919-25.822,51.975,51.975,0,0,1,6.919,25.822,1.387,1.387,0,0,0,2.773,0,54.351,54.351,0,1,0-17.224,39.694,54.968,54.968,0,0,0,17.224-39.694A1.387,1.387,0,0,0,620.362,264.732Z" transform="translate(-514.455 -210.386)" fill="#f6f6f6"/>
          </g>
        </g>
        <path id="Trazado_113874" data-name="Trazado 113874" d="M834.954,445.35c1.959-5.142,4.8-15.307,6.428-20.241-3.574-12.02-10.929-32.1-11.692-32.32-4.457-1.291-8.431-2.472-12.875-3.754-.205-.059-1.508,6.588-1.714,6.529a9.474,9.474,0,0,1-.286-2.9v0l-.856-8.641a1.632,1.632,0,0,0-1.22-1.524c-2.6-.676-8.227-2-8.472-1.588-.09.15-.576,7.651-.979,9.794l-.939-.49-1.225-14s-9.725-2.451-9.916-2c-.224.531-2.388,12.406-2.388,12.406s-3.762,28.34-4.19,30.354c-.626,2.951-2.6,5.595-2.313,8.537.317,3.286,1.755,6.335,3.177,9.327l10.293,21.665c.749,4.9,1.534,16.13,2.662,20.955,12.691-2.561,25.437-4.5,39.562-8.994C838.409,468.343,834.11,447.567,834.954,445.35Z" transform="translate(-636.269 -276.54)" fill="#fbb473"/>
        <g id="Grupo_80530" data-name="Grupo 80530" transform="translate(151.313 174.828)">
          <path id="Trazado_113875" data-name="Trazado 113875" d="M805.706,581.057l-2.93-25.759,50.735-18.787,8.82,31.405L805.879,584.77Z" transform="translate(-798.327 -536.511)" fill="#f6f6f6"/>
          <path id="Trazado_113876" data-name="Trazado 113876" d="M859.376,568.492s-52.184,29.821-62.975,32.645l-2.98,70.209h88.728Z" transform="translate(-793.421 -553.283)" fill="#5bb5dc"/>
          <path id="Trazado_113877" data-name="Trazado 113877" d="M819.175,594.056a2.892,2.892,0,1,1-2.054-3.537A2.892,2.892,0,0,1,819.175,594.056Z" transform="translate(-803.944 -564.784)" fill="#33435a"/>
        </g>
        <path id="Trazado_113878" data-name="Trazado 113878" d="M757.65,456.059l-6.768-10.673-9.8-9.123s-1.9-5.5,4.235-5.652,10.27,4.98,12.988,9.054c1.2,1.792,6.971,7.005,11.454,10.2,5.865,4.173-.263,22.546-.263,22.546S758.329,457.078,757.65,456.059Z" transform="translate(-614.514 -306.142)" fill="#fbb473"/>
      </g>
    </g>
  </g>
</svg>
