<svg id="Grupo_80359" data-name="Grupo 80359" xmlns="http://www.w3.org/2000/svg" width="94.74" height="156.821" viewBox="0 0 94.74 156.821">
  <g id="Grupo_80447" data-name="Grupo 80447" transform="translate(0 0)">
    <g id="Grupo_80407" data-name="Grupo 80407">
      <g id="Grupo_80379" data-name="Grupo 80379" transform="translate(83.596 23.312)">
        <path id="Trazado_113759" data-name="Trazado 113759" d="M948.618,276.121h5.005s-10.982-77.32-10.367-99.133l-.777,99.133Z" transform="translate(-942.479 -176.988)" fill="#e1e1e1"/>
      </g>
      <g id="Grupo_80380" data-name="Grupo 80380" transform="translate(19.948 0.041)">
        <path id="Trazado_113760" data-name="Trazado 113760" d="M753.126,90.842s18.707-1.149,18.206,19.562c-1.449,59.918,5.6,104.995,5.6,104.995h-70.1V92.984Z" transform="translate(-706.829 -90.831)" fill="#ececec"/>
      </g>
      <g id="Grupo_80389" data-name="Grupo 80389" transform="translate(7.566 13.686)">
        <g id="Grupo_80388" data-name="Grupo 80388">
          <g id="Grupo_80387" data-name="Grupo 80387">
            <g id="Grupo_80385" data-name="Grupo 80385">
              <g id="Grupo_80384" data-name="Grupo 80384">
                <g id="Grupo_80383" data-name="Grupo 80383">
                  <g id="Grupo_80382" data-name="Grupo 80382">
                    <g id="Grupo_80381" data-name="Grupo 80381">
                      <path id="Trazado_113761" data-name="Trazado 113761" d="M671.608,284.487l48.631-.029a10.593,10.593,0,0,0,10.587-10.6L730.8,151.944a10.593,10.593,0,0,0-10.6-10.592l-48.631.029a10.594,10.594,0,0,0-10.587,10.6l.024,121.919A10.593,10.593,0,0,0,671.608,284.487Z" transform="translate(-660.985 -141.352)" fill="#553e93"/>
                    </g>
                  </g>
                </g>
              </g>
            </g>
            <g id="Grupo_80386" data-name="Grupo 80386" transform="translate(3.224 4.312)">
              <path id="Trazado_113762" data-name="Trazado 113762" d="M680.336,157.347l9.429-.006,27.537-.016,3.316,0,8.253,0a7.419,7.419,0,0,1,7.423,7.418l.023,119a7.419,7.419,0,0,1-7.415,7.421l-48.534.028a7.419,7.419,0,0,1-7.423-7.417l-.023-119A7.419,7.419,0,0,1,680.336,157.347Z" transform="translate(-672.922 -157.318)" fill="#ececec"/>
            </g>
          </g>
        </g>
      </g>
      <g id="Grupo_80391" data-name="Grupo 80391" transform="translate(13.231 0.041)">
        <g id="Grupo_80390" data-name="Grupo 80390">
          <path id="Trazado_113763" data-name="Trazado 113763" d="M693.036,90.83l46.541.433c-6.824-.318-8.27,2.4-9.39,4.13a8.36,8.36,0,0,0,.518,10.139,9.687,9.687,0,0,0,5.527,3.248l-51,.009a9.714,9.714,0,0,1-3.146-8.807A11.015,11.015,0,0,1,693.036,90.83Z" transform="translate(-681.959 -90.83)" fill="#ececec"/>
        </g>
      </g>
      <g id="Grupo_80393" data-name="Grupo 80393" transform="translate(59.883 0.383)">
        <g id="Grupo_80392" data-name="Grupo 80392">
          <path id="Trazado_113764" data-name="Trazado 113764" d="M870.834,94.2a1.969,1.969,0,0,1-.295-.179,8.117,8.117,0,0,0-.846-.5,11.313,11.313,0,0,0-3.429-1.073,12.123,12.123,0,0,0-5.287.282,8.474,8.474,0,0,0-4.871,4.065,9.06,9.06,0,0,0-1.017,6.287,7.226,7.226,0,0,0,1.168,2.566,9.153,9.153,0,0,0,1.689,1.809,11.5,11.5,0,0,0,3.1,1.813c.8.305,1.262.406,1.256.433a1.973,1.973,0,0,1-.338-.069,9.394,9.394,0,0,1-.949-.281,11.034,11.034,0,0,1-3.172-1.771,9.178,9.178,0,0,1-1.741-1.824,7.364,7.364,0,0,1-1.218-2.627,9.21,9.21,0,0,1,1.023-6.446,8.634,8.634,0,0,1,5.009-4.155,12.1,12.1,0,0,1,5.373-.24,10.868,10.868,0,0,1,3.445,1.153,6.587,6.587,0,0,1,.831.539A1.945,1.945,0,0,1,870.834,94.2Z" transform="translate(-854.684 -92.099)" fill="#35322c"/>
        </g>
      </g>
      <g id="Grupo_80395" data-name="Grupo 80395" transform="translate(77.995 3.581)">
        <g id="Grupo_80394" data-name="Grupo 80394">
          <path id="Trazado_113765" data-name="Trazado 113765" d="M921.744,103.937a5.682,5.682,0,0,1,1.03.713,14.838,14.838,0,0,1,2.443,2.632,15.128,15.128,0,0,1,1.372,2.209,11.581,11.581,0,0,1,1.052,2.91,20.018,20.018,0,0,1,.195,3.549q.053,1.884.112,3.976c.095,2.787.221,5.839.371,9.115.01,1.645-.02,3.338-.029,5.086s0,3.545-.006,5.388c.018,7.374.159,15.48.474,23.983.616,17.014,1.875,32.38,2.977,43.479.566,5.549,1.069,10.034,1.433,13.131l.422,3.567.1.928c.022.209.028.317.028.317s-.021-.106-.051-.314l-.126-.926-.464-3.562c-.391-3.095-.919-7.578-1.505-13.126-1.143-11.1-2.427-26.467-3.044-43.487-.315-8.506-.449-16.615-.456-23.991.006-1.844-.006-3.643.016-5.389s.046-3.444.041-5.078c-.142-3.277-.259-6.33-.343-9.118-.042-1.394-.076-2.722-.1-3.978a20.035,20.035,0,0,0-.175-3.527,11.509,11.509,0,0,0-1.025-2.886,16.4,16.4,0,0,0-3.747-4.855c-.153-.137-.3-.247-.421-.34a3.509,3.509,0,0,0-.317-.229C921.831,104,921.744,103.937,921.744,103.937Z" transform="translate(-921.744 -103.937)" fill="#35322c"/>
        </g>
      </g>
      <g id="Grupo_80396" data-name="Grupo 80396" transform="translate(1.995 53.638)">
        <path id="Trazado_113766" data-name="Trazado 113766" d="M712.528,327.887s-.612,48.078-4.451,55.079l-67.715-.879,1.379-5.767,70.81-87.049Z" transform="translate(-640.362 -289.27)" fill="#e1e1e1"/>
      </g>
      <g id="Grupo_80397" data-name="Grupo 80397" transform="translate(0.126 25.416)">
        <path id="Trazado_113767" data-name="Trazado 113767" d="M707.476,184.781s-1.214,106.525-8.048,115.843H633.441s15.182-79.934,10.664-115.812Z" transform="translate(-633.441 -184.781)" fill="#f5f5f5"/>
      </g>
      <g id="Grupo_80401" data-name="Grupo 80401" transform="translate(0 25.416)">
        <g id="Grupo_80398" data-name="Grupo 80398" transform="translate(0.126)">
          <path id="Trazado_113768" data-name="Trazado 113768" d="M708.048,184.781S706.835,291.306,700,300.624h-66.56s10.582-78.726,10.582-114.1" transform="translate(-633.441 -184.781)" fill="#fafafa"/>
        </g>
        <g id="Grupo_80400" data-name="Grupo 80400">
          <g id="Grupo_80399" data-name="Grupo 80399">
            <path id="Trazado_113769" data-name="Trazado 113769" d="M643.682,186.521s0,.191,0,.565-.01.933-.018,1.663-.022,1.641-.036,2.715-.023,2.318-.093,3.719c-.187,5.606-.632,13.76-1.425,23.949-1.625,20.376-4.628,48.889-8.9,81.507l-.11-.125,34.174,0,32.385,0-.089.045a10.632,10.632,0,0,0,1.2-2.816c.281-.99.529-1.987.733-2.989.418-2,.736-4.009,1.018-6,.559-3.986.965-7.918,1.318-11.772.7-7.709,1.166-15.109,1.558-22.118.767-14.021,1.2-26.487,1.519-36.87s.495-18.687.611-24.394c.055-2.851.1-5.055.126-6.549.015-.743.026-1.309.033-1.693s.017-.575.017-.575,0,.194,0,.575-.008.95-.013,1.694c-.02,1.494-.05,3.7-.088,6.549-.092,5.707-.251,14.011-.545,24.4s-.716,22.852-1.47,36.876c-.385,7.011-.85,14.413-1.541,22.127-.351,3.856-.755,7.791-1.313,11.783-.281,2-.6,4.006-1.018,6.016-.2,1.006-.452,2.009-.736,3.007a10.805,10.805,0,0,1-1.237,2.885l-.031.045h-.059l-32.385,0-34.174,0h-.126l.016-.125c4.283-32.612,7.314-61.12,8.978-81.489.813-10.186,1.28-18.336,1.491-23.941.075-1.4.09-2.643.111-3.717s.04-1.981.055-2.714.029-1.286.037-1.663S643.682,186.521,643.682,186.521Z" transform="translate(-632.974 -184.781)" fill="#35322c"/>
          </g>
        </g>
      </g>
      <g id="Grupo_80402" data-name="Grupo 80402" transform="translate(10.8 17.86)">
        <path id="Trazado_113770" data-name="Trazado 113770" d="M736.334,164.226s-.145-7.41-7.423-7.418-50.234,0-50.234,0a8.182,8.182,0,0,0-5.716,7.945l44.876,3.45Z" transform="translate(-672.961 -156.805)" fill="#fafafa"/>
      </g>
      <g id="Grupo_80404" data-name="Grupo 80404" transform="translate(13.033)">
        <g id="Grupo_80403" data-name="Grupo 80403">
          <path id="Trazado_113771" data-name="Trazado 113771" d="M692.5,90.72a.77.77,0,0,1-.121,0c-.08,0-.2-.005-.357,0a9.249,9.249,0,0,0-1.379.118,10.385,10.385,0,0,0-4.721,2.009,12.28,12.28,0,0,0-4.268,6.5,8.719,8.719,0,0,0,.193,4.723,9.716,9.716,0,0,0,1.09,2.323,10.455,10.455,0,0,0,1.691,2.066l-.07-.026,12.824.018,26.895.086,8.15.052,2.216.026.576.012c.13,0,.2.012.2.012s-.067.008-.2.011l-.576.01-2.216.017-8.15.02-26.895-.019-12.824-.032h-.042l-.028-.026a10.621,10.621,0,0,1-1.726-2.118,9.887,9.887,0,0,1-1.105-2.373,8.894,8.894,0,0,1-.179-4.826,12.363,12.363,0,0,1,4.365-6.565,9.817,9.817,0,0,1,2.628-1.433,9.616,9.616,0,0,1,2.163-.54,8.342,8.342,0,0,1,1.389-.085A2.967,2.967,0,0,1,692.5,90.72Z" transform="translate(-681.226 -90.679)" fill="#35322c"/>
        </g>
      </g>
      <g id="Grupo_80406" data-name="Grupo 80406" transform="translate(1.995 68.298)">
        <g id="Grupo_80405" data-name="Grupo 80405">
          <path id="Trazado_113772" data-name="Trazado 113772" d="M712.551,343.545s.007.129.011.38,0,.629.008,1.114c0,.986,0,2.428,0,4.284-.009,3.72-.033,9.1-.106,15.754s-.177,14.571-.469,23.362c-.149,4.395-.358,9.011-.8,13.778s-1.061,9.688-1.914,14.694c-.335,1.958-.7,3.891-1.09,5.7l-.019.088h-.091c-18.978-.042-35.906-.355-48.091-.563l-14.381-.287-3.89-.094-1.009-.03c-.227-.008-.343-.018-.343-.018s.116-.005.344,0l1.01.009,3.891.053,14.383.217c12.185.167,29.114.453,48.088.491l-.11.088c.392-1.8.752-3.729,1.087-5.683.851-5,1.468-9.915,1.916-14.676s.663-9.371.817-13.765c.3-8.787.415-16.707.518-23.357.075-6.647.136-12.027.178-15.753.018-1.856.032-3.3.042-4.283q.01-.728.015-1.114C712.543,343.674,712.551,343.545,712.551,343.545Z" transform="translate(-640.362 -343.545)" fill="#35322c"/>
        </g>
      </g>
    </g>
    <g id="Grupo_80446" data-name="Grupo 80446" transform="translate(2.628 37.17)">
      <g id="Grupo_80409" data-name="Grupo 80409" transform="translate(7.733)">
        <g id="Grupo_80408" data-name="Grupo 80408">
          <path id="Trazado_113773" data-name="Trazado 113773" d="M734.253,228.413c0,.063-14.086.113-31.458.113s-31.461-.051-31.461-.113,14.083-.114,31.461-.114S734.253,228.35,734.253,228.413Z" transform="translate(-671.335 -228.299)" fill="#e1e1e1"/>
        </g>
      </g>
      <g id="Grupo_80411" data-name="Grupo 80411" transform="translate(8.276 21.732)">
        <g id="Grupo_80410" data-name="Grupo 80410">
          <path id="Trazado_113774" data-name="Trazado 113774" d="M736.262,308.874c0,.063-14.086.114-31.457.114s-31.461-.051-31.461-.114,14.083-.114,31.461-.114S736.262,308.811,736.262,308.874Z" transform="translate(-673.344 -308.76)" fill="#e1e1e1"/>
        </g>
      </g>
      <g id="Grupo_80413" data-name="Grupo 80413" transform="translate(4.938 42.58)">
        <g id="Grupo_80412" data-name="Grupo 80412">
          <path id="Trazado_113775" data-name="Trazado 113775" d="M726.543,386.061c0,.063-14.677.114-32.777.114s-32.781-.051-32.781-.114,14.674-.114,32.781-.114S726.543,386,726.543,386.061Z" transform="translate(-660.985 -385.947)" fill="#e1e1e1"/>
        </g>
      </g>
      <g id="Grupo_80415" data-name="Grupo 80415" transform="translate(2.371 62.907)">
        <g id="Grupo_80414" data-name="Grupo 80414">
          <path id="Trazado_113776" data-name="Trazado 113776" d="M718.722,461.32c0,.063-15.053.113-33.618.113s-33.622-.051-33.622-.113,15.05-.114,33.622-.114S718.722,461.257,718.722,461.32Z" transform="translate(-651.482 -461.206)" fill="#e1e1e1"/>
        </g>
      </g>
      <g id="Grupo_80417" data-name="Grupo 80417" transform="translate(0 85.772)">
        <g id="Grupo_80416" data-name="Grupo 80416">
          <path id="Trazado_113777" data-name="Trazado 113777" d="M710.2,545.974c0,.063-15.11.114-33.746.114s-33.749-.051-33.749-.114,15.107-.113,33.749-.113S710.2,545.912,710.2,545.974Z" transform="translate(-642.704 -545.861)" fill="#e1e1e1"/>
        </g>
      </g>
      <g id="Grupo_80419" data-name="Grupo 80419" transform="translate(13.21 7.762)">
        <g id="Grupo_80418" data-name="Grupo 80418">
          <path id="Trazado_113778" data-name="Trazado 113778" d="M699.025,264.425a.817.817,0,0,1-.011-.145c0-.109-.007-.24-.012-.4-.006-.37-.015-.868-.026-1.489-.012-1.292-.029-3.092-.05-5.241l.1.1-7.272.015.113-.112v.5q0,.248,0,.493,0,.491,0,.972,0,.962,0,1.88c0,1.219-.008,2.371-.011,3.43l-.1-.1,5.241.05,1.489.026.4.012a.794.794,0,0,1,.144.011,4.248,4.248,0,0,1-.5.022l-1.467.026-5.3.05h-.1v-.1c0-1.059-.007-2.211-.011-3.43q0-.916,0-1.88,0-.481,0-.972v-.989c-.1.1.138-.14.115-.115l7.272.015h.1v.1c-.021,2.175-.038,4-.05,5.3-.011.612-.019,1.1-.026,1.467A4.19,4.19,0,0,1,699.025,264.425Z" transform="translate(-691.613 -257.036)" fill="#35322c"/>
        </g>
      </g>
      <g id="Grupo_80421" data-name="Grupo 80421" transform="translate(25.384 10.905)">
        <g id="Grupo_80420" data-name="Grupo 80420">
          <path id="Trazado_113779" data-name="Trazado 113779" d="M773.775,268.789c0,.063-8.3.113-18.544.113s-18.546-.051-18.546-.113,8.3-.114,18.546-.114S773.775,268.726,773.775,268.789Z" transform="translate(-736.685 -268.675)" fill="#35322c"/>
        </g>
      </g>
      <g id="Grupo_80423" data-name="Grupo 80423" transform="translate(25.384 13.789)">
        <g id="Grupo_80422" data-name="Grupo 80422">
          <path id="Trazado_113780" data-name="Trazado 113780" d="M755.82,279.464c0,.063-4.284.114-9.567.114s-9.568-.051-9.568-.114,4.283-.114,9.568-.114S755.82,279.4,755.82,279.464Z" transform="translate(-736.685 -279.35)" fill="#35322c"/>
        </g>
      </g>
      <g id="Grupo_80425" data-name="Grupo 80425" transform="translate(15.242 4.031)">
        <g id="Grupo_80424" data-name="Grupo 80424">
          <path id="Trazado_113781" data-name="Trazado 113781" d="M704.707,243.227c.3.078-.273,3.25-1.552,7-.159.468-.322.923-.484,1.36l-.245.642-.122.31-.031.079c-.021.048-.043.095-.066.14a1.158,1.158,0,0,1-.193.249,1.074,1.074,0,0,1-1.107.231,1.044,1.044,0,0,1-.454-.325l-.077-.11-.04-.07-.072-.13c-.186-.343-.343-.667-.479-.966-.535-1.2-.745-1.98-.608-2.048s.611.591,1.312,1.66l.578.861.08.114.038.053a.023.023,0,0,1,.01.008.056.056,0,0,0,.033.006c.023,0,.053-.019.048-.028a.01.01,0,0,1,0-.008.007.007,0,0,1,0-.008l.025-.075.1-.313.216-.645.458-1.355C703.345,246.153,704.4,243.146,704.707,243.227Z" transform="translate(-699.137 -243.225)" fill="#553e93"/>
        </g>
      </g>
      <g id="Grupo_80427" data-name="Grupo 80427" transform="translate(12.415 29.673)">
        <g id="Grupo_80426" data-name="Grupo 80426">
          <path id="Trazado_113782" data-name="Trazado 113782" d="M696.079,345.55a.868.868,0,0,1-.011-.145c0-.109-.007-.24-.011-.4-.006-.37-.015-.868-.026-1.489-.012-1.292-.03-3.092-.05-5.241l.1.1-7.272.015c-.026.025.214-.214.113-.112v.5q0,.248,0,.493,0,.491,0,.972,0,.962,0,1.88c0,1.22-.008,2.371-.011,3.431l-.1-.1,5.241.05,1.489.026.4.012a.824.824,0,0,1,.144.011,4.237,4.237,0,0,1-.5.022l-1.467.026-5.3.05h-.1v-.1c0-1.059-.007-2.211-.011-3.431q0-.916,0-1.88,0-.481,0-.972v-.988c-.1.1.138-.14.115-.115l7.272.015h.1v.1c-.021,2.175-.038,4-.05,5.3-.011.612-.019,1.1-.026,1.467A4.11,4.11,0,0,1,696.079,345.55Z" transform="translate(-688.668 -338.161)" fill="#35322c"/>
        </g>
      </g>
      <g id="Grupo_80429" data-name="Grupo 80429" transform="translate(24.588 32.817)">
        <g id="Grupo_80428" data-name="Grupo 80428">
          <path id="Trazado_113783" data-name="Trazado 113783" d="M770.83,349.914c0,.063-8.3.114-18.544.114s-18.546-.051-18.546-.114,8.3-.114,18.546-.114S770.83,349.851,770.83,349.914Z" transform="translate(-733.74 -349.8)" fill="#35322c"/>
        </g>
      </g>
      <g id="Grupo_80431" data-name="Grupo 80431" transform="translate(11.289 50.064)">
        <g id="Grupo_80430" data-name="Grupo 80430">
          <path id="Trazado_113784" data-name="Trazado 113784" d="M691.913,421.046a.864.864,0,0,1-.011-.144c0-.109-.007-.24-.011-.4-.006-.37-.015-.868-.026-1.489-.012-1.292-.03-3.092-.05-5.241l.1.1-7.272.015c-.026.025.215-.214.113-.112v.5q0,.248,0,.493,0,.491,0,.972,0,.962,0,1.88c0,1.22-.008,2.371-.011,3.431l-.1-.1,5.241.05,1.489.026.4.011a.828.828,0,0,1,.144.011,4.22,4.22,0,0,1-.5.022l-1.466.026-5.3.05h-.1v-.1c0-1.059-.007-2.211-.011-3.431q0-.916,0-1.88,0-.481,0-.972v-.989c-.1.1.138-.14.114-.115l7.272.015h.1v.1c-.021,2.175-.038,4-.05,5.3-.011.612-.019,1.1-.026,1.467A4.1,4.1,0,0,1,691.913,421.046Z" transform="translate(-684.502 -413.657)" fill="#35322c"/>
        </g>
      </g>
      <g id="Grupo_80433" data-name="Grupo 80433" transform="translate(23.463 53.208)">
        <g id="Grupo_80432" data-name="Grupo 80432">
          <path id="Trazado_113785" data-name="Trazado 113785" d="M766.664,425.41c0,.063-8.3.114-18.544.114s-18.546-.051-18.546-.114,8.3-.114,18.546-.114S766.664,425.347,766.664,425.41Z" transform="translate(-729.574 -425.296)" fill="#35322c"/>
        </g>
      </g>
      <g id="Grupo_80435" data-name="Grupo 80435" transform="translate(9.528 71.646)">
        <g id="Grupo_80434" data-name="Grupo 80434">
          <path id="Trazado_113786" data-name="Trazado 113786" d="M685.393,500.949a.859.859,0,0,1-.011-.144c0-.109-.007-.24-.011-.4-.006-.37-.015-.868-.026-1.489-.012-1.292-.029-3.092-.05-5.241l.1.1-7.272.015c-.026.025.215-.214.113-.112v.5q0,.247,0,.493,0,.491,0,.972,0,.962,0,1.88c0,1.22-.008,2.371-.011,3.431l-.1-.1,5.241.05,1.489.026.4.011a.826.826,0,0,1,.144.011,4.275,4.275,0,0,1-.5.022l-1.466.026-5.3.05h-.1v-.1c0-1.059-.008-2.211-.011-3.431q0-.917,0-1.88,0-.481,0-.972,0-.245,0-.493v-.5c-.1.1.138-.14.114-.115l7.272.015h.1v.1c-.021,2.175-.038,4-.05,5.3-.011.612-.019,1.1-.026,1.467A4.217,4.217,0,0,1,685.393,500.949Z" transform="translate(-677.982 -493.56)" fill="#35322c"/>
        </g>
      </g>
      <g id="Grupo_80437" data-name="Grupo 80437" transform="translate(21.702 74.789)">
        <g id="Grupo_80436" data-name="Grupo 80436">
          <path id="Trazado_113787" data-name="Trazado 113787" d="M760.143,505.313c0,.063-8.3.114-18.544.114s-18.546-.051-18.546-.114,8.3-.114,18.546-.114S760.143,505.25,760.143,505.313Z" transform="translate(-723.053 -505.199)" fill="#35322c"/>
        </g>
      </g>
      <g id="Grupo_80439" data-name="Grupo 80439" transform="translate(8.483 92.115)">
        <g id="Grupo_80438" data-name="Grupo 80438">
          <path id="Trazado_113788" data-name="Trazado 113788" d="M681.524,576.736a.845.845,0,0,1-.011-.145c0-.109-.007-.24-.011-.4-.006-.37-.015-.868-.026-1.489-.012-1.292-.03-3.092-.05-5.241l.1.1-7.272.015.113-.112v.5q0,.248,0,.493,0,.491,0,.972,0,.962,0,1.88c0,1.22-.008,2.371-.011,3.431l-.1-.1,5.241.05,1.488.026.4.012a.789.789,0,0,1,.144.011,4.24,4.24,0,0,1-.5.022l-1.466.026-5.3.05h-.1v-.1c0-1.059-.007-2.211-.011-3.431q0-.916,0-1.88,0-.481,0-.972,0-.245,0-.493v-.5c-.1.1.138-.14.114-.115l7.272.015h.1v.1c-.021,2.175-.038,4-.05,5.3-.01.612-.019,1.1-.026,1.467A4.236,4.236,0,0,1,681.524,576.736Z" transform="translate(-674.113 -569.347)" fill="#35322c"/>
        </g>
      </g>
      <g id="Grupo_80441" data-name="Grupo 80441" transform="translate(21.947 94.896)">
        <g id="Grupo_80440" data-name="Grupo 80440">
          <path id="Trazado_113789" data-name="Trazado 113789" d="M761.051,579.758c0,.063-8.3.114-18.544.114s-18.546-.051-18.546-.114,8.3-.114,18.546-.114S761.051,579.7,761.051,579.758Z" transform="translate(-723.961 -579.644)" fill="#35322c"/>
        </g>
      </g>
      <g id="Grupo_80443" data-name="Grupo 80443" transform="translate(23.151 56.008)">
        <g id="Grupo_80442" data-name="Grupo 80442">
          <path id="Trazado_113790" data-name="Trazado 113790" d="M757.572,435.778c0,.063-6.527.114-14.576.114s-14.578-.051-14.578-.114,6.526-.114,14.578-.114S757.572,435.715,757.572,435.778Z" transform="translate(-728.419 -435.664)" fill="#35322c"/>
        </g>
      </g>
      <g id="Grupo_80445" data-name="Grupo 80445" transform="translate(21.947 78.309)">
        <g id="Grupo_80444" data-name="Grupo 80444">
          <path id="Trazado_113791" data-name="Trazado 113791" d="M735.761,518.344c0,.063-2.642.114-5.9.114s-5.9-.051-5.9-.114,2.641-.114,5.9-.114S735.761,518.281,735.761,518.344Z" transform="translate(-723.961 -518.23)" fill="#35322c"/>
        </g>
      </g>
    </g>
  </g>
  <g id="Grupo_80449" data-name="Grupo 80449" transform="translate(24.419 0.009)">
    <g id="Grupo_80448" data-name="Grupo 80448">
      <path id="Trazado_113792" data-name="Trazado 113792" d="M764.863,90.825c0,.063-9.286.114-20.739.114s-20.741-.051-20.741-.114,9.284-.114,20.741-.114S764.863,90.762,764.863,90.825Z" transform="translate(-723.384 -90.711)" fill="#35322c"/>
    </g>
  </g>
</svg>
