<svg xmlns="http://www.w3.org/2000/svg" xmlns:xlink="http://www.w3.org/1999/xlink" width="1240" height="468.683" viewBox="0 0 1240 468.683">
  <defs>
    <clipPath id="clip-path">
      <rect id="Rectángulo_33823" data-name="Rectángulo 33823" width="115.663" height="42.82" rx="21.41" transform="matrix(0.633, 0.774, -0.774, 0.633, 33.162, 0)" fill="#210059"/>
    </clipPath>
  </defs>
  <g id="Grupo_81809" data-name="Grupo 81809" transform="translate(-180 -3349.063)">
    <text id="Las_fuentes_primarias_corresponden_a_aquellas_en_las_que_los_datos_han_sido_tomados_directamente_de_la_población_o_muestra_seleccionada_como_objeto_de_estudio_es_decir_la_recopilación_de_datos_se_obtienen_directamente_del_objeto_de_estudio._Además_las_fu" data-name="Las fuentes primarias corresponden a aquellas en las que los datos han sido tomados directamente de la población o muestra seleccionada como objeto de estudio, es decir la recopilación de datos se obtienen directamente del objeto de estudio. Además, las fu" transform="translate(180 3529)" fill="#12263f" font-size="16" font-family="Roboto-Regular, Roboto"><tspan x="0" y="17">Las fuentes primarias corresponden a aquellas en las </tspan><tspan x="0" y="41">que los datos han sido tomados directamente de la </tspan><tspan x="0" y="65">población o muestra seleccionada como objeto de </tspan><tspan x="0" y="89">estudio, es decir la recopilación de datos se obtienen </tspan><tspan x="0" y="113">directamente del objeto de estudio. Además, las fuentes </tspan><tspan x="0" y="137">primarias pueden subdividirse en las siguientes: </tspan></text>
    <g id="Grupo_80453" data-name="Grupo 80453" transform="translate(0 -591)">
      <text id="No_se_emplean_formatos_en_la_recolección." data-name="No se emplean formatos en la recolección." transform="translate(601.213 4363.746)" fill="#12263f" font-size="16" font-family="Roboto-Regular, Roboto"><tspan x="0" y="17">No se emplean formatos en la recolección.</tspan></text>
      <text id="Observación_directa:" data-name="Observación directa:" transform="translate(601.213 4332.75)" fill="#12263f" font-size="18" font-family="Roboto-Black, Roboto" font-weight="800"><tspan x="0" y="0">Observación directa:</tspan></text>
      <g id="Image_Place_Holder" data-name="Image Place Holder" transform="translate(600.001 4013.025)" style="isolation: isolate">
        <rect id="Image_Place_Holder-2" data-name="Image Place Holder" width="400" height="270.769" rx="10" fill="#ede7f8"/>
      </g>
      <g id="Grupo_80358" data-name="Grupo 80358" transform="translate(651.893 3940.063)">
        <g id="Grupo_80370" data-name="Grupo 80370" transform="translate(23.377 53.705)">
          <g id="Grupo_80358-2" data-name="Grupo 80358" transform="translate(90.575 74.208)">
            <g id="Grupo_80357" data-name="Grupo 80357">
              <path id="Trazado_113744" data-name="Trazado 113744" d="M307.039,408.267l-36.232-30.039a2.219,2.219,0,0,0-3.136.3l-3.033,3.709-10.387,12.706a1.852,1.852,0,0,1-3.241-.765l-4.434-19.72-1.948-8.658-7.856-34.93a1.854,1.854,0,0,1,1.807-2.259h.008l45.325.175,20.459.08a1.853,1.853,0,0,1,1.429,3.025l-10.869,13.3a2.224,2.224,0,0,0,.3,3.115l37.988,31.5.2-.313-37.953-31.466a1.857,1.857,0,0,1-.252-2.6l10.87-13.3a2.219,2.219,0,0,0-1.711-3.624l-20.161-.079-45.624-.176a2.221,2.221,0,0,0-2.175,2.708l7.837,34.848,2.029,9.019h0l4.372,19.438a2.221,2.221,0,0,0,3.885.918l10.387-12.7,3.034-3.712a1.851,1.851,0,0,1,2.615-.255l36.161,29.98C306.836,408.417,306.937,408.34,307.039,408.267Z" transform="translate(-236.359 -328.248)" fill="#66192d"/>
            </g>
          </g>
          <g id="Grupo_80359" data-name="Grupo 80359" transform="translate(71.729 67.504)">
            <path id="Trazado_113745" data-name="Trazado 113745" d="M313.789,379.762,260.639,335.7a2.034,2.034,0,0,1-.277-2.855l7.87-9.629.3-.366,2.7-3.3a2.036,2.036,0,0,0-1.568-3.324l-24.365-.094h0l-6-.024h0l-9.226-.036-1.57-.005-3.833-.015h0l-2.485-.009h0l-6.695-.026-5.615-.021h0l-5.988-.024a2.037,2.037,0,0,0-1.993,2.483l14.237,63.308a2.036,2.036,0,0,0,3.562.841l9.8-11.983,1.118-1.369h0l.3-.361,2.209-2.7a2.035,2.035,0,0,1,2.876-.279l12.978,10.759.285.236,35.946,29.8C296.524,400.072,306.066,390.525,313.789,379.762Z" transform="translate(-201.834 -315.966)" fill="#553e93"/>
          </g>
          <g id="Grupo_80360" data-name="Grupo 80360" transform="translate(142.128 20.184)">
            <path id="Trazado_113746" data-name="Trazado 113746" d="M389.145,262.718V288.2l-42.494-35.753a1.064,1.064,0,0,0-1.5.146l-5.963,7.293a1.065,1.065,0,0,1-1.865-.441l-6.492-28.863a1.065,1.065,0,0,1,1.044-1.3l29.993.115a1.067,1.067,0,0,1,.822,1.741l-4.782,5.848a1.066,1.066,0,0,0,.145,1.5Z" transform="translate(-330.801 -229.279)" fill="#786ab5"/>
          </g>
          <g id="Grupo_80361" data-name="Grupo 80361" transform="translate(97.282 111.763)">
            <path id="Trazado_113747" data-name="Trazado 113747" d="M316.482,436.557l-34.123-28.291a.97.97,0,0,1-.133-1.361l6.643-8.126a.97.97,0,0,0-.748-1.584l-37.912-.146h-.588a.969.969,0,0,0-.949,1.184l2.07,9.206L257,435.279a.971.971,0,0,0,1.7.4l8.106-9.914a.97.97,0,0,1,1.371-.133l27.71,22.975A75.841,75.841,0,0,0,316.482,436.557Z" transform="translate(-248.647 -397.046)" fill="#64b5f6"/>
            <path id="Trazado_113748" data-name="Trazado 113748" d="M348.319,493.248" transform="translate(-293.911 -440.734)" fill="#64b5f6"/>
          </g>
          <g id="Grupo_80363" data-name="Grupo 80363" transform="translate(0 115.869)">
            <g id="Grupo_80362" data-name="Grupo 80362">
              <path id="Trazado_113749" data-name="Trazado 113749" d="M108.9,417.537a2.276,2.276,0,0,1-.316-3.251L113,409.061a2.645,2.645,0,0,0-2.01-4.353l-28.98-.108-8.924-.033h-.01a2.646,2.646,0,0,0-2.577,3.245l1.3,5.57h.377l-1.317-5.652a2.278,2.278,0,0,1,2.219-2.795h.008l9.007.033h0l28.9.107a2.278,2.278,0,0,1,1.73,3.75l-4.423,5.225a2.645,2.645,0,0,0,.365,3.775l43.905,35.151h.587Z" transform="translate(-70.431 -404.567)" fill="#66192d"/>
            </g>
          </g>
          <g id="Grupo_80364" data-name="Grupo 80364" transform="translate(115.474 44.188)">
            <path id="Trazado_113750" data-name="Trazado 113750" d="M297.3,275.723a4.377,4.377,0,0,0-4.41-2.441c-3.161.35-2.785,3.146-4.291,2.884s-3.613,0-4.064,1.748-2.484.787-2.559,2.272,2.333,2.534,5.118,1.224,4.139,1.018,8.053.6,4.4-.947,6.715-.684,2.262-1.58,1.208-2.8S297.75,277.413,297.3,275.723Z" transform="translate(-281.973 -273.253)" fill="#c8c1e1"/>
          </g>
          <g id="Grupo_80365" data-name="Grupo 80365" transform="translate(119.804)">
            <path id="Trazado_113751" data-name="Trazado 113751" d="M309.825,195.514a5.69,5.69,0,0,0-5.733-3.171c-4.109.454-3.62,4.089-5.576,3.748s-4.7,0-5.283,2.272-3.228,1.022-3.326,2.953,3.032,3.294,6.652,1.59,5.381,1.324,10.468.776,5.717-1.23,8.728-.889,2.94-2.053,1.57-3.643S310.412,197.71,309.825,195.514Z" transform="translate(-289.905 -192.303)" fill="#c8c1e1"/>
          </g>
          <g id="Grupo_80366" data-name="Grupo 80366" transform="translate(2.605 63.426)">
            <path id="Trazado_113752" data-name="Trazado 113752" d="M89.444,313.442a9.712,9.712,0,0,1,9.709-4.885c6.959.7,6.131,6.3,9.445,5.773s7.953,0,8.947,3.5,5.468,1.574,5.634,4.549-5.137,5.073-11.267,2.449-9.113,2.039-17.729,1.194-9.684-1.894-14.784-1.37-4.979-3.162-2.659-5.611S88.449,316.824,89.444,313.442Z" transform="translate(-75.203 -308.496)" fill="#c8c1e1"/>
          </g>
          <g id="Grupo_80367" data-name="Grupo 80367" transform="translate(38.809 50.446)">
            <path id="Trazado_113753" data-name="Trazado 113753" d="M148.517,287.116a4.774,4.774,0,0,1,4.765-2.37c3.416.34,3.009,3.056,4.636,2.8s3.9,0,4.392,1.7,2.684.764,2.765,2.207-2.521,2.461-5.531,1.188-4.473.989-8.7.58-4.753-.919-7.257-.664-2.444-1.534-1.305-2.723S148.029,288.757,148.517,287.116Z" transform="translate(-141.527 -284.716)" fill="#c8c1e1"/>
          </g>
          <g id="Grupo_80368" data-name="Grupo 80368" transform="translate(14.575 29.989)">
            <path id="Trazado_113754" data-name="Trazado 113754" d="M105.468,250.1a5.694,5.694,0,0,1,5.684-2.827c4.074.405,3.589,3.644,5.529,3.341s4.656,0,5.238,2.025,3.2.911,3.3,2.632-3.007,2.936-6.6,1.417-5.335,1.18-10.379.691-5.669-1.1-8.655-.792-2.914-1.83-1.556-3.247S104.886,252.06,105.468,250.1Z" transform="translate(-97.131 -247.241)" fill="#c8c1e1"/>
          </g>
          <g id="Grupo_80369" data-name="Grupo 80369" transform="translate(8.583 101.494)">
            <path id="Trazado_113755" data-name="Trazado 113755" d="M189.122,446.38l-35.494,1.495-47.942-41.054a.971.971,0,0,0-1.371.133l-8.106,9.914a.97.97,0,0,1-1.7-.4l-5.276-23.459h0l-.081-.367-2.974-13.223a.97.97,0,0,1,.95-1.185l38.5.15a.97.97,0,0,1,.748,1.584l-6.642,8.125a.969.969,0,0,0,.132,1.362Z" transform="translate(-86.155 -378.233)" fill="#fef536"/>
          </g>
        </g>
        <g id="Grupo_80377" data-name="Grupo 80377" transform="translate(0 0)">
          <g id="Grupo_80376" data-name="Grupo 80376">
            <g id="Grupo_80374" data-name="Grupo 80374">
              <g id="Grupo_80373" data-name="Grupo 80373" transform="translate(177.607 195.056)">
                <rect id="Rectángulo_33820" data-name="Rectángulo 33820" width="24.422" height="24.422" transform="matrix(0.633, 0.774, -0.774, 0.633, 18.914, 0)" fill="#0d1519"/>
                <g id="Grupo_80372" data-name="Grupo 80372" transform="translate(6.657 11.051)">
                  <rect id="Rectángulo_33821" data-name="Rectángulo 33821" width="115.663" height="42.82" rx="21.41" transform="matrix(0.633, 0.774, -0.774, 0.633, 33.162, 0)" fill="#210059"/>
                  <g id="Grupo_80371" data-name="Grupo 80371" transform="translate(0 0)" clip-path="url(#clip-path)">
                    <rect id="Rectángulo_33822" data-name="Rectángulo 33822" width="122.883" height="20.981" transform="matrix(0.633, 0.774, -0.774, 0.633, 10.084, 14.534)" fill="#0d1519" opacity="0.24"/>
                  </g>
                </g>
              </g>
              <path id="Trazado_113756" data-name="Trazado 113756" d="M247.995,265.531a117.3,117.3,0,1,0-29.441,35.922A116.55,116.55,0,0,0,247.995,265.531ZM62.139,278.212a106.434,106.434,0,1,1,149.761,15.1A106.434,106.434,0,0,1,62.139,278.212Z" transform="translate(-27.606 -93.918)" fill="#907fac"/>
            </g>
            <g id="Grupo_80375" data-name="Grupo 80375" transform="translate(9.135 8.776)">
              <path id="Trazado_113757" data-name="Trazado 113757" d="M69.629,285.322C30.863,240.306,37.6,171.044,83.437,133.962c39.1-32.423,97.973-31.966,136.577,1.471a104.826,104.826,0,0,1,14.493,15.206c-2.286-2.65-4.677-5.205-7.193-7.626-27.4-26.952-69.194-37.231-105.758-25.885C49.724,139.2,23.412,226.043,69.629,285.322Z" transform="translate(-44.341 -109.995)" fill="#6642a0"/>
              <path id="Trazado_113758" data-name="Trazado 113758" d="M255.545,184.451c38.766,45.016,32.029,114.278-13.808,151.36-39.1,32.423-97.973,31.966-136.577-1.471a104.857,104.857,0,0,1-14.493-15.206c2.286,2.65,4.677,5.205,7.193,7.627,27.4,26.952,69.194,37.23,105.758,25.885,71.833-22.074,98.144-108.916,51.927-168.2Z" transform="translate(-65.379 -143.807)" fill="#6642a0"/>
            </g>
          </g>
        </g>
      </g>
    </g>
    <g id="Grupo_80454" data-name="Grupo 80454" transform="translate(0 -591)">
      <text id="Se_emplean_cuestionarios_encuestas_y_listas_de_chequeo." data-name="Se emplean cuestionarios, encuestas y listas de chequeo." transform="translate(1018.407 4363.746)" fill="#12263f" font-size="16" font-family="Roboto-Regular, Roboto"><tspan x="0" y="17">Se emplean cuestionarios, encuestas y listas de </tspan><tspan x="0" y="41">chequeo.</tspan></text>
      <text id="Observación_indirecta:" data-name="Observación indirecta:" transform="translate(1017.012 4313.75)" fill="#12263f" font-size="18" font-family="Roboto-Black, Roboto" font-weight="800"><tspan x="0" y="19">Observación indirecta:</tspan></text>
      <g id="Image_Place_Holder-3" data-name="Image Place Holder" transform="translate(1020 4013.025)" opacity="0.1">
        <rect id="Image_Place_Holder-4" data-name="Image Place Holder" width="400" height="270.769" rx="10" fill="#5c22c3"/>
      </g>
      <g id="Grupo_80359-2" data-name="Grupo 80359" transform="translate(1124.775 3940.063)">
        <g id="Grupo_80447" data-name="Grupo 80447" transform="translate(0 0)">
          <g id="Grupo_80407" data-name="Grupo 80407">
            <g id="Grupo_80379" data-name="Grupo 80379" transform="translate(168.949 47.113)">
              <path id="Trazado_113759" data-name="Trazado 113759" d="M954.886,377.338H965s-22.2-156.267-20.952-200.35l-1.571,200.35Z" transform="translate(-942.479 -176.988)" fill="#e1e1e1"/>
            </g>
            <g id="Grupo_80380" data-name="Grupo 80380" transform="translate(40.315 0.083)">
              <path id="Trazado_113760" data-name="Trazado 113760" d="M800.4,90.854s37.807-2.323,36.795,39.536c-2.928,121.1,11.315,212.2,11.315,212.2H706.829V95.182Z" transform="translate(-706.829 -90.831)" fill="#ececec"/>
            </g>
            <g id="Grupo_80389" data-name="Grupo 80389" transform="translate(15.29 27.661)">
              <g id="Grupo_80388" data-name="Grupo 80388">
                <g id="Grupo_80387" data-name="Grupo 80387">
                  <g id="Grupo_80385" data-name="Grupo 80385">
                    <g id="Grupo_80384" data-name="Grupo 80384">
                      <g id="Grupo_80383" data-name="Grupo 80383">
                        <g id="Grupo_80382" data-name="Grupo 80382">
                          <g id="Grupo_80381" data-name="Grupo 80381">
                            <path id="Trazado_113761" data-name="Trazado 113761" d="M682.455,430.631l98.285-.058a21.409,21.409,0,0,0,21.4-21.413l-.049-246.4a21.41,21.41,0,0,0-21.422-21.406l-98.285.058a21.41,21.41,0,0,0-21.4,21.413l.049,246.4A21.409,21.409,0,0,0,682.455,430.631Z" transform="translate(-660.985 -141.352)" fill="#553e93"/>
                          </g>
                        </g>
                      </g>
                    </g>
                  </g>
                  <g id="Grupo_80386" data-name="Grupo 80386" transform="translate(6.516 8.715)">
                    <path id="Trazado_113762" data-name="Trazado 113762" d="M687.907,157.376l19.056-.011,55.653-.033,6.7,0,16.679-.01a14.994,14.994,0,0,1,15,14.991l.047,240.506a14.994,14.994,0,0,1-14.985,15l-98.088.057a14.994,14.994,0,0,1-15-14.991l-.047-240.507A14.993,14.993,0,0,1,687.907,157.376Z" transform="translate(-672.922 -157.318)" fill="#ececec"/>
                  </g>
                </g>
              </g>
            </g>
            <g id="Grupo_80391" data-name="Grupo 80391" transform="translate(26.74 0.082)">
              <g id="Grupo_80390" data-name="Grupo 80390">
                <path id="Trazado_113763" data-name="Trazado 113763" d="M704.345,90.83l94.062.874c-13.791-.643-16.714,4.85-18.978,8.347a16.894,16.894,0,0,0,1.048,20.49,19.578,19.578,0,0,0,11.17,6.564l-103.071.019c-6-5.887-7.247-12.157-6.359-17.8A22.261,22.261,0,0,1,704.345,90.83Z" transform="translate(-681.959 -90.83)" fill="#ececec"/>
              </g>
            </g>
            <g id="Grupo_80393" data-name="Grupo 80393" transform="translate(121.025 0.775)">
              <g id="Grupo_80392" data-name="Grupo 80392">
                <path id="Trazado_113764" data-name="Trazado 113764" d="M887.325,96.346a3.982,3.982,0,0,1-.6-.362,16.408,16.408,0,0,0-1.71-1.007,22.866,22.866,0,0,0-6.93-2.169,24.5,24.5,0,0,0-10.685.57,17.127,17.127,0,0,0-9.844,8.216A18.31,18.31,0,0,0,855.5,114.3a14.606,14.606,0,0,0,2.361,5.186,18.5,18.5,0,0,0,3.414,3.656,23.235,23.235,0,0,0,6.268,3.664c1.612.617,2.551.822,2.538.874a3.981,3.981,0,0,1-.683-.14,19,19,0,0,1-1.918-.567,22.3,22.3,0,0,1-6.411-3.58,18.551,18.551,0,0,1-3.519-3.687,14.887,14.887,0,0,1-2.463-5.31,18.613,18.613,0,0,1,2.067-13.028,17.449,17.449,0,0,1,10.124-8.4,24.456,24.456,0,0,1,10.859-.485,21.966,21.966,0,0,1,6.962,2.331,13.325,13.325,0,0,1,1.679,1.089A3.949,3.949,0,0,1,887.325,96.346Z" transform="translate(-854.684 -92.099)" fill="#35322c"/>
              </g>
            </g>
            <g id="Grupo_80395" data-name="Grupo 80395" transform="translate(157.631 7.237)">
              <g id="Grupo_80394" data-name="Grupo 80394">
                <path id="Trazado_113765" data-name="Trazado 113765" d="M921.744,103.937a11.487,11.487,0,0,1,2.081,1.44,29.985,29.985,0,0,1,4.937,5.32,30.557,30.557,0,0,1,2.773,4.465,23.407,23.407,0,0,1,2.127,5.881c.5,2.222.3,4.65.394,7.173q.108,3.807.227,8.036c.192,5.632.446,11.8.75,18.421.021,3.324-.04,6.746-.058,10.279-.037,3.532-.006,7.164-.012,10.89.037,14.9.32,31.285.958,48.47,1.245,34.386,3.79,65.441,6.016,87.871,1.144,11.214,2.16,20.279,2.9,26.539.369,3.12.656,5.546.853,7.208q.137,1.222.21,1.876c.045.423.056.641.056.641s-.042-.215-.1-.635-.144-1.058-.255-1.871c-.216-1.66-.532-4.083-.938-7.2-.791-6.255-1.857-15.315-3.042-26.527-2.31-22.428-4.906-53.49-6.152-87.888-.638-17.191-.908-33.579-.922-48.486.013-3.726-.013-7.362.032-10.891.026-3.526.093-6.961.082-10.262-.287-6.622-.522-12.792-.693-18.427-.084-2.817-.154-5.5-.195-8.041-.082-2.541.132-4.949-.353-7.128a23.266,23.266,0,0,0-2.071-5.832,33.136,33.136,0,0,0-7.573-9.813c-.308-.277-.6-.5-.85-.687a7.08,7.08,0,0,0-.64-.463C921.921,104.066,921.744,103.937,921.744,103.937Z" transform="translate(-921.744 -103.937)" fill="#35322c"/>
              </g>
            </g>
            <g id="Grupo_80396" data-name="Grupo 80396" transform="translate(4.033 108.405)">
              <path id="Trazado_113766" data-name="Trazado 113766" d="M786.212,367.316s-1.237,97.167-9,111.316l-136.854-1.777L643.15,465.2,786.259,289.27Z" transform="translate(-640.362 -289.27)" fill="#e1e1e1"/>
            </g>
            <g id="Grupo_80397" data-name="Grupo 80397" transform="translate(0.255 51.367)">
              <path id="Trazado_113767" data-name="Trazado 113767" d="M783.069,184.781S780.615,400.071,766.8,418.9H633.441s30.682-161.549,21.552-234.06Z" transform="translate(-633.441 -184.781)" fill="#f5f5f5"/>
            </g>
            <g id="Grupo_80401" data-name="Grupo 80401" transform="translate(0 51.367)">
              <g id="Grupo_80398" data-name="Grupo 80398" transform="translate(0.255)">
                <path id="Trazado_113768" data-name="Trazado 113768" d="M784.225,184.781s-2.453,215.29-16.264,234.123H633.441S654.827,259.8,654.827,188.3" transform="translate(-633.441 -184.781)" fill="#fafafa"/>
              </g>
              <g id="Grupo_80400" data-name="Grupo 80400">
                <g id="Grupo_80399" data-name="Grupo 80399">
                  <path id="Trazado_113769" data-name="Trazado 113769" d="M654.614,188.3s.007.386,0,1.141-.02,1.886-.036,3.361-.044,3.316-.073,5.487-.046,4.685-.187,7.516c-.378,11.33-1.277,27.809-2.881,48.4-3.285,41.18-9.354,98.806-17.988,164.728l-.222-.253,69.068-.007,65.451.006-.181.092A21.49,21.49,0,0,0,770,413.08c.569-2,1.069-4.015,1.481-6.041.845-4.048,1.487-8.1,2.057-12.129,1.13-8.055,1.951-16,2.664-23.791,1.406-15.581,2.356-30.535,3.148-44.7,1.55-28.337,2.424-53.531,3.07-74.516s1-37.768,1.235-49.3c.111-5.763.2-10.215.254-13.235.03-1.5.052-2.646.067-3.422s.035-1.162.035-1.162.009.393.006,1.163-.015,1.92-.027,3.423c-.04,3.02-.1,7.473-.178,13.236-.186,11.535-.508,28.318-1.1,49.307s-1.447,46.185-2.97,74.528c-.779,14.17-1.717,29.129-3.115,44.719-.709,7.793-1.526,15.747-2.654,23.814-.568,4.033-1.21,8.1-2.057,12.159-.412,2.034-.914,4.06-1.487,6.077a21.842,21.842,0,0,1-2.5,5.83l-.062.092h-.12l-65.451.005-69.068-.006h-.255l.033-.253c8.656-65.909,14.782-123.525,18.145-164.692,1.643-20.587,2.586-37.059,3.013-48.385.152-2.83.182-5.341.224-7.513s.081-4,.111-5.485.058-2.6.076-3.36S654.614,188.3,654.614,188.3Z" transform="translate(-632.974 -184.781)" fill="#35322c"/>
                </g>
              </g>
            </g>
            <g id="Grupo_80402" data-name="Grupo 80402" transform="translate(21.828 36.096)">
              <path id="Trazado_113770" data-name="Trazado 113770" d="M801.039,171.8s-.294-14.975-15-14.991-101.525,0-101.525,0-11.551,3.205-11.551,16.058l90.7,6.972Z" transform="translate(-672.961 -156.805)" fill="#fafafa"/>
            </g>
            <g id="Grupo_80404" data-name="Grupo 80404" transform="translate(26.34)">
              <g id="Grupo_80403" data-name="Grupo 80403">
                <path id="Trazado_113771" data-name="Trazado 113771" d="M704.012,90.762a1.552,1.552,0,0,1-.246,0c-.162,0-.4-.01-.722,0a18.693,18.693,0,0,0-2.786.239,20.986,20.986,0,0,0-9.542,4.06,24.817,24.817,0,0,0-8.627,13.14,17.625,17.625,0,0,0,.39,9.545,19.649,19.649,0,0,0,2.2,4.7,21.121,21.121,0,0,0,3.418,4.176l-.141-.052,25.918.037,54.356.174,16.472.1,4.478.052,1.165.025c.263.008.4.025.4.025s-.134.015-.4.022l-1.165.021-4.478.034-16.472.041-54.356-.039-25.918-.064h-.085l-.057-.052a21.457,21.457,0,0,1-3.489-4.28,19.984,19.984,0,0,1-2.234-4.8,17.975,17.975,0,0,1-.362-9.753,24.986,24.986,0,0,1,8.822-13.267,19.843,19.843,0,0,1,5.311-2.9,19.436,19.436,0,0,1,4.371-1.092,16.862,16.862,0,0,1,2.807-.171A6,6,0,0,1,704.012,90.762Z" transform="translate(-681.226 -90.679)" fill="#35322c"/>
              </g>
            </g>
            <g id="Grupo_80406" data-name="Grupo 80406" transform="translate(4.033 138.032)">
              <g id="Grupo_80405" data-name="Grupo 80405">
                <path id="Trazado_113772" data-name="Trazado 113772" d="M786.259,343.545s.015.26.021.767.009,1.271.015,2.252c0,1.992,0,4.907,0,8.657-.017,7.518-.066,18.4-.215,31.84-.166,13.442-.359,29.449-.948,47.216-.3,8.882-.723,18.211-1.626,27.846s-2.145,19.58-3.868,29.7c-.676,3.957-1.406,7.863-2.2,11.511l-.039.179h-.185c-38.354-.086-72.567-.717-97.193-1.138l-29.065-.581-7.862-.19-2.04-.062c-.459-.016-.694-.035-.694-.035s.235-.011.695-.009l2.04.017,7.864.108,29.068.439c24.626.338,58.84.915,97.187.992l-.223.179c.791-3.63,1.52-7.537,2.2-11.486,1.721-10.1,2.967-20.039,3.872-29.661s1.339-18.94,1.651-27.819c.613-17.759.839-33.765,1.046-47.205.152-13.434.275-24.307.36-31.837.036-3.751.065-6.665.085-8.657q.02-1.471.03-2.251C786.242,343.8,786.259,343.545,786.259,343.545Z" transform="translate(-640.362 -343.545)" fill="#35322c"/>
              </g>
            </g>
          </g>
          <g id="Grupo_80446" data-name="Grupo 80446" transform="translate(5.311 75.122)">
            <g id="Grupo_80409" data-name="Grupo 80409" transform="translate(15.629)">
              <g id="Grupo_80408" data-name="Grupo 80408">
                <path id="Trazado_113773" data-name="Trazado 113773" d="M798.495,228.529c0,.127-28.468.229-63.577.229s-63.583-.1-63.583-.229,28.462-.23,63.583-.23S798.495,228.4,798.495,228.529Z" transform="translate(-671.335 -228.299)" fill="#e1e1e1"/>
              </g>
            </g>
            <g id="Grupo_80411" data-name="Grupo 80411" transform="translate(16.725 43.921)">
              <g id="Grupo_80410" data-name="Grupo 80410">
                <path id="Trazado_113774" data-name="Trazado 113774" d="M800.5,308.99c0,.127-28.468.23-63.576.23s-63.583-.1-63.583-.23,28.462-.23,63.583-.23S800.5,308.863,800.5,308.99Z" transform="translate(-673.344 -308.76)" fill="#e1e1e1"/>
              </g>
            </g>
            <g id="Grupo_80413" data-name="Grupo 80413" transform="translate(9.979 86.055)">
              <g id="Grupo_80412" data-name="Grupo 80412">
                <path id="Trazado_113775" data-name="Trazado 113775" d="M793.479,386.177c0,.127-29.662.23-66.244.23s-66.25-.1-66.25-.23,29.656-.23,66.25-.23S793.479,386.05,793.479,386.177Z" transform="translate(-660.985 -385.947)" fill="#e1e1e1"/>
              </g>
            </g>
            <g id="Grupo_80415" data-name="Grupo 80415" transform="translate(4.792 127.137)">
              <g id="Grupo_80414" data-name="Grupo 80414">
                <path id="Trazado_113776" data-name="Trazado 113776" d="M787.376,461.436c0,.127-30.424.229-67.944.229s-67.95-.1-67.95-.229,30.417-.23,67.95-.23S787.376,461.309,787.376,461.436Z" transform="translate(-651.482 -461.206)" fill="#e1e1e1"/>
              </g>
            </g>
            <g id="Grupo_80417" data-name="Grupo 80417" transform="translate(0 173.348)">
              <g id="Grupo_80416" data-name="Grupo 80416">
                <path id="Trazado_113777" data-name="Trazado 113777" d="M779.113,546.09c0,.127-30.539.23-68.2.23s-68.207-.1-68.207-.23,30.532-.229,68.207-.229S779.113,545.964,779.113,546.09Z" transform="translate(-642.704 -545.861)" fill="#e1e1e1"/>
              </g>
            </g>
            <g id="Grupo_80419" data-name="Grupo 80419" transform="translate(26.698 15.687)">
              <g id="Grupo_80418" data-name="Grupo 80418">
                <path id="Trazado_113778" data-name="Trazado 113778" d="M706.593,271.968a1.626,1.626,0,0,1-.022-.292c-.007-.22-.014-.485-.024-.806-.013-.747-.03-1.754-.052-3.009-.025-2.612-.059-6.249-.1-10.593l.2.2-14.7.031c-.052.05.433-.433.228-.227v1q0,.5,0,1,0,.992,0,1.965,0,1.945-.006,3.8c-.008,2.465-.016,4.793-.023,6.933l-.2-.2,10.593.1,3.009.052.806.023a1.616,1.616,0,0,1,.292.022,8.588,8.588,0,0,1-1.016.045l-2.964.052-10.719.1-.2,0v-.2c-.007-2.14-.015-4.469-.023-6.933q0-1.852-.006-3.8,0-.973,0-1.965v-2c-.2.2.28-.283.231-.232l14.7.031h.2l0,.2c-.042,4.4-.076,8.076-.1,10.719-.022,1.236-.039,2.228-.052,2.964A8.553,8.553,0,0,1,706.593,271.968Z" transform="translate(-691.613 -257.036)" fill="#35322c"/>
              </g>
            </g>
            <g id="Grupo_80421" data-name="Grupo 80421" transform="translate(51.301 22.04)">
              <g id="Grupo_80420" data-name="Grupo 80420">
                <path id="Trazado_113779" data-name="Trazado 113779" d="M811.646,268.9c0,.127-16.782.229-37.479.229s-37.482-.1-37.482-.229,16.778-.23,37.482-.23S811.646,268.778,811.646,268.9Z" transform="translate(-736.685 -268.675)" fill="#35322c"/>
              </g>
            </g>
            <g id="Grupo_80423" data-name="Grupo 80423" transform="translate(51.301 27.867)">
              <g id="Grupo_80422" data-name="Grupo 80422">
                <path id="Trazado_113780" data-name="Trazado 113780" d="M775.358,279.58c0,.127-8.658.23-19.335.23s-19.337-.1-19.337-.23,8.656-.23,19.337-.23S775.358,279.453,775.358,279.58Z" transform="translate(-736.685 -279.35)" fill="#35322c"/>
              </g>
            </g>
            <g id="Grupo_80425" data-name="Grupo 80425" transform="translate(30.805 8.148)">
              <g id="Grupo_80424" data-name="Grupo 80424">
                <path id="Trazado_113781" data-name="Trazado 113781" d="M710.395,243.228c.606.157-.551,6.568-3.137,14.143-.322.947-.65,1.866-.979,2.749l-.494,1.3-.246.626-.063.159c-.042.1-.086.191-.133.284a2.342,2.342,0,0,1-.389.5,2.17,2.17,0,0,1-2.238.467,2.107,2.107,0,0,1-.918-.657l-.156-.222-.081-.141-.145-.262c-.376-.694-.694-1.348-.967-1.952-1.082-2.417-1.506-4-1.229-4.139s1.235,1.194,2.651,3.355l1.168,1.739.162.23.076.106a.049.049,0,0,1,.021.016.112.112,0,0,0,.067.013c.046,0,.107-.039.1-.057s0-.011,0-.016,0-.012,0-.016l.05-.151c.069-.208.139-.42.21-.633l.436-1.3.926-2.738C707.641,249.143,709.774,243.065,710.395,243.228Z" transform="translate(-699.137 -243.225)" fill="#553e93"/>
              </g>
            </g>
            <g id="Grupo_80427" data-name="Grupo 80427" transform="translate(25.09 59.97)">
              <g id="Grupo_80426" data-name="Grupo 80426">
                <path id="Trazado_113782" data-name="Trazado 113782" d="M703.647,353.093a1.745,1.745,0,0,1-.022-.292c-.006-.22-.014-.485-.023-.806-.013-.747-.03-1.753-.052-3.008-.025-2.612-.06-6.249-.1-10.592l.2.2-14.7.031c-.052.05.433-.433.228-.227v1q0,.5,0,1,0,.992,0,1.965,0,1.945-.006,3.8c-.008,2.465-.016,4.793-.023,6.934l-.2-.2,10.593.1,3.009.052.806.023a1.664,1.664,0,0,1,.291.022,8.537,8.537,0,0,1-1.015.045l-2.964.052-10.719.1-.2,0v-.2c-.007-2.141-.015-4.469-.023-6.934q0-1.852-.006-3.8,0-.973,0-1.965v-2c-.205.2.28-.283.231-.232l14.7.031h.2l0,.2c-.042,4.4-.076,8.076-.1,10.719-.022,1.236-.039,2.228-.052,2.964A8.3,8.3,0,0,1,703.647,353.093Z" transform="translate(-688.668 -338.161)" fill="#35322c"/>
              </g>
            </g>
            <g id="Grupo_80429" data-name="Grupo 80429" transform="translate(49.694 66.324)">
              <g id="Grupo_80428" data-name="Grupo 80428">
                <path id="Trazado_113783" data-name="Trazado 113783" d="M808.7,350.03c0,.127-16.782.23-37.479.23s-37.482-.1-37.482-.23,16.778-.23,37.482-.23S808.7,349.9,808.7,350.03Z" transform="translate(-733.74 -349.8)" fill="#35322c"/>
              </g>
            </g>
            <g id="Grupo_80431" data-name="Grupo 80431" transform="translate(22.816 101.181)">
              <g id="Grupo_80430" data-name="Grupo 80430">
                <path id="Trazado_113784" data-name="Trazado 113784" d="M699.481,428.589a1.748,1.748,0,0,1-.022-.292c-.006-.22-.014-.485-.023-.806-.013-.747-.03-1.754-.052-3.009-.025-2.612-.06-6.249-.1-10.592l.2.2-14.7.031c-.052.05.433-.433.228-.227v1q0,.5,0,1,0,.992,0,1.965,0,1.945-.006,3.8c-.008,2.465-.016,4.793-.023,6.934l-.2-.2,10.593.1,3.009.052.806.023a1.669,1.669,0,0,1,.292.022,8.541,8.541,0,0,1-1.015.045l-2.964.052-10.72.1-.2,0v-.2c-.007-2.141-.015-4.469-.023-6.934q0-1.852-.006-3.8,0-.972,0-1.965v-2c-.205.2.28-.283.231-.232l14.7.031h.2l0,.2c-.042,4.4-.076,8.076-.1,10.719-.022,1.236-.039,2.228-.052,2.964A8.313,8.313,0,0,1,699.481,428.589Z" transform="translate(-684.502 -413.657)" fill="#35322c"/>
              </g>
            </g>
            <g id="Grupo_80433" data-name="Grupo 80433" transform="translate(47.42 107.535)">
              <g id="Grupo_80432" data-name="Grupo 80432">
                <path id="Trazado_113785" data-name="Trazado 113785" d="M804.535,425.526c0,.127-16.782.23-37.479.23s-37.482-.1-37.482-.23,16.778-.23,37.482-.23S804.535,425.4,804.535,425.526Z" transform="translate(-729.574 -425.296)" fill="#35322c"/>
              </g>
            </g>
            <g id="Grupo_80435" data-name="Grupo 80435" transform="translate(19.257 144.798)">
              <g id="Grupo_80434" data-name="Grupo 80434">
                <path id="Trazado_113786" data-name="Trazado 113786" d="M692.961,508.492a1.7,1.7,0,0,1-.022-.292c-.007-.219-.014-.485-.023-.806-.013-.747-.03-1.754-.052-3.009-.025-2.612-.06-6.249-.1-10.592l.2.2-14.7.031c-.052.05.433-.433.228-.227v1q0,.5,0,1,0,.992,0,1.965c0,1.3,0,2.565-.006,3.8-.008,2.465-.016,4.793-.023,6.934l-.2-.2,10.593.1,3.008.052.806.023a1.681,1.681,0,0,1,.292.022,8.572,8.572,0,0,1-1.016.045l-2.964.052-10.719.1-.2,0v-.2c-.007-2.141-.015-4.468-.023-6.934,0-1.235,0-2.5-.007-3.8q0-.973,0-1.965,0-.5,0-1v-1c-.205.2.279-.283.231-.232l14.7.031h.2l0,.2c-.042,4.4-.076,8.076-.1,10.719-.022,1.236-.039,2.228-.052,2.964A8.549,8.549,0,0,1,692.961,508.492Z" transform="translate(-677.982 -493.56)" fill="#35322c"/>
              </g>
            </g>
            <g id="Grupo_80437" data-name="Grupo 80437" transform="translate(43.86 151.151)">
              <g id="Grupo_80436" data-name="Grupo 80436">
                <path id="Trazado_113787" data-name="Trazado 113787" d="M798.014,505.429c0,.127-16.782.23-37.479.23s-37.482-.1-37.482-.23,16.778-.23,37.482-.23S798.014,505.3,798.014,505.429Z" transform="translate(-723.053 -505.199)" fill="#35322c"/>
              </g>
            </g>
            <g id="Grupo_80439" data-name="Grupo 80439" transform="translate(17.145 186.168)">
              <g id="Grupo_80438" data-name="Grupo 80438">
                <path id="Trazado_113788" data-name="Trazado 113788" d="M689.092,584.279a1.7,1.7,0,0,1-.022-.292c-.007-.22-.014-.485-.023-.806-.013-.747-.031-1.754-.052-3.009-.025-2.612-.06-6.249-.1-10.592l.2.2-14.7.031c-.052.05.434-.433.228-.227v1q0,.5,0,1,0,.992,0,1.965,0,1.945-.006,3.8c-.008,2.465-.016,4.793-.023,6.933l-.2-.2,10.593.1,3.008.052.806.023a1.61,1.61,0,0,1,.291.022,8.563,8.563,0,0,1-1.016.045l-2.964.052-10.719.1-.2,0v-.2c-.007-2.14-.015-4.468-.023-6.933q0-1.852-.006-3.8,0-.973,0-1.965,0-.5,0-1v-1c-.205.2.279-.283.231-.232l14.7.031h.2l0,.2c-.042,4.4-.076,8.076-.1,10.719-.021,1.237-.039,2.228-.052,2.964A8.593,8.593,0,0,1,689.092,584.279Z" transform="translate(-674.113 -569.347)" fill="#35322c"/>
              </g>
            </g>
            <g id="Grupo_80441" data-name="Grupo 80441" transform="translate(44.356 191.789)">
              <g id="Grupo_80440" data-name="Grupo 80440">
                <path id="Trazado_113789" data-name="Trazado 113789" d="M798.922,579.874c0,.127-16.782.23-37.479.23s-37.482-.1-37.482-.23,16.778-.23,37.482-.23S798.922,579.747,798.922,579.874Z" transform="translate(-723.961 -579.644)" fill="#35322c"/>
              </g>
            </g>
            <g id="Grupo_80443" data-name="Grupo 80443" transform="translate(46.789 113.194)">
              <g id="Grupo_80442" data-name="Grupo 80442">
                <path id="Trazado_113790" data-name="Trazado 113790" d="M787.339,435.894c0,.127-13.191.23-29.458.23s-29.462-.1-29.462-.23,13.188-.23,29.462-.23S787.339,435.767,787.339,435.894Z" transform="translate(-728.419 -435.664)" fill="#35322c"/>
              </g>
            </g>
            <g id="Grupo_80445" data-name="Grupo 80445" transform="translate(44.356 158.265)">
              <g id="Grupo_80444" data-name="Grupo 80444">
                <path id="Trazado_113791" data-name="Trazado 113791" d="M747.81,518.46c0,.127-5.339.23-11.923.23s-11.925-.1-11.925-.23,5.338-.23,11.925-.23S747.81,518.333,747.81,518.46Z" transform="translate(-723.961 -518.23)" fill="#35322c"/>
              </g>
            </g>
          </g>
        </g>
        <g id="Grupo_80449" data-name="Grupo 80449" transform="translate(49.352 0.017)">
          <g id="Grupo_80448" data-name="Grupo 80448">
            <path id="Trazado_113792" data-name="Trazado 113792" d="M807.215,90.941c0,.127-18.768.23-41.914.23s-41.917-.1-41.917-.23,18.764-.23,41.917-.23S807.215,90.814,807.215,90.941Z" transform="translate(-723.384 -90.711)" fill="#35322c"/>
          </g>
        </g>
      </g>
    </g>
  </g>
</svg>
