<svg xmlns="http://www.w3.org/2000/svg" width="350" height="479" viewBox="0 0 350 479">
  <g id="Recurso_33" data-name="Recurso 33" transform="translate(-0.139 -0.462)" style="isolation: isolate">
    <g id="Capa_2" transform="translate(0.14 0.462)">
      <g id="Capa_8" transform="translate(0)">
        <g id="Grupo_80377" data-name="Grupo 80377">
          <rect id="Rectángulo_33839" data-name="Rectángulo 33839" width="350" height="479" transform="translate(0 0)" fill="none"/>
          <path id="Trazado_116048" data-name="Trazado 116048" d="M323.456,200.091a420.894,420.894,0,0,1-15.415,68.464c-14.485,45.866-36.333,87.811-66.884,125.084a338.816,338.816,0,0,1-47.727,47.787c-.39.33-.79.65-1.18.97-.18.14-.36.29-.53.42-.56.45-1.14.9-1.711,1.34a98.372,98.372,0,0,1-28.23,15.005,107.83,107.83,0,0,1-33.282,5.9h-1.711c-.57,0-1.14,0-1.711-.02A105.161,105.161,0,0,1,85.5,456.251a102.4,102.4,0,0,1-44.9-37.283A99.054,99.054,0,0,1,28.732,395.66q-13.325-38.2,1.911-75.747c6.632-16.226,17.006-29.71,30.481-40.9a140.846,140.846,0,0,0,34.192-42.445,191.342,191.342,0,0,0,18.767-54.119,204.265,204.265,0,0,0,4.031-41.715c-.08-5.722-.41-11.434.07-17.146a103.889,103.889,0,0,1,24.259-59.091A99.4,99.4,0,0,1,170.3,41.145c26.329-14.775,54.109-18.086,83.019-9.363,24.229,7.313,43.165,21.968,57.15,43.035a93.239,93.239,0,0,1,7.523,13.735,5.66,5.66,0,0,0,.47.73c.74,1.8,1.481,3.591,2.221,5.4.51,1.581,1,3.171,1.531,4.742a101.736,101.736,0,0,1,5,26.769c1.29,24.759-.3,49.377-3.731,73.9Z" transform="translate(-0.115 -0.424)" fill="#fef536"/>
          <g id="Sparkles" transform="translate(19.206 68.294)">
            <path id="Trazado_116049" data-name="Trazado 116049" d="M250.973,309.192l2.311-.57a.488.488,0,0,0,.36-.6.474.474,0,0,0-.36-.36l-2.311-.57a2.567,2.567,0,0,1-1.881-1.881l-.57-2.311a.488.488,0,0,0-.6-.36.474.474,0,0,0-.36.36l-.57,2.311a2.567,2.567,0,0,1-1.881,1.881l-2.311.57a.488.488,0,0,0-.36.6.474.474,0,0,0,.36.36l2.311.57a2.567,2.567,0,0,1,1.881,1.881l.57,2.311a.488.488,0,0,0,.6.36.474.474,0,0,0,.36-.36l.57-2.311A2.567,2.567,0,0,1,250.973,309.192Z" transform="translate(-19.244 -68.621)" fill="#3a3a3a"/>
            <path id="Trazado_116050" data-name="Trazado 116050" d="M138.933,447.252l2.311-.57a.488.488,0,0,0,.36-.6.474.474,0,0,0-.36-.36l-2.311-.57a2.567,2.567,0,0,1-1.881-1.881l-.57-2.311a.488.488,0,0,0-.6-.36.474.474,0,0,0-.36.36l-.57,2.311a2.567,2.567,0,0,1-1.881,1.881l-2.311.57a.488.488,0,0,0-.36.6.474.474,0,0,0,.36.36l2.311.57a2.567,2.567,0,0,1,1.881,1.881l.57,2.311a.488.488,0,0,0,.6.36.474.474,0,0,0,.36-.36l.57-2.311A2.567,2.567,0,0,1,138.933,447.252Z" transform="translate(-19.283 -68.572)" fill="#3a3a3a"/>
            <path id="Trazado_116051" data-name="Trazado 116051" d="M116.034,77.633l3.091-.76a.662.662,0,0,0,.49-.8.677.677,0,0,0-.49-.49l-3.091-.76a3.435,3.435,0,0,1-2.521-2.521l-.76-3.091a.67.67,0,0,0-1.3,0l-.76,3.091a3.435,3.435,0,0,1-2.521,2.521l-3.091.76a.662.662,0,0,0-.49.8.677.677,0,0,0,.49.49l3.091.76a3.435,3.435,0,0,1,2.521,2.521l.76,3.091a.67.67,0,0,0,1.3,0l.76-3.091A3.435,3.435,0,0,1,116.034,77.633Z" transform="translate(-19.292 -68.703)" fill="#3a3a3a"/>
            <path id="Trazado_116052" data-name="Trazado 116052" d="M284.842,226.912l1.721-.42a.371.371,0,0,0,0-.72l-1.721-.42a1.915,1.915,0,0,1-1.4-1.4l-.42-1.721a.371.371,0,0,0-.72,0l-.42,1.721a1.915,1.915,0,0,1-1.4,1.4l-1.721.42a.371.371,0,0,0,0,.72l1.721.42a1.915,1.915,0,0,1,1.4,1.4l.42,1.721a.371.371,0,0,0,.72,0l.42-1.721A1.915,1.915,0,0,1,284.842,226.912Z" transform="translate(-19.231 -68.649)" fill="#3a3a3a"/>
            <path id="Trazado_116053" data-name="Trazado 116053" d="M64.282,314.732l1.841-.45a.4.4,0,0,0,.29-.48.39.39,0,0,0-.29-.29l-1.841-.45a2.034,2.034,0,0,1-1.491-1.49l-.45-1.841a.4.4,0,0,0-.48-.29.423.423,0,0,0-.29.29l-.45,1.841a2.034,2.034,0,0,1-1.491,1.49l-1.841.45a.4.4,0,0,0-.29.48.39.39,0,0,0,.29.29l1.841.45a2.034,2.034,0,0,1,1.491,1.49l.45,1.841a.4.4,0,0,0,.48.29.423.423,0,0,0,.29-.29l.45-1.841A2.034,2.034,0,0,1,64.282,314.732Z" transform="translate(-19.309 -68.618)" fill="#3a3a3a"/>
            <path id="Trazado_116054" data-name="Trazado 116054" d="M324.954,340.443l2.851-.7a.613.613,0,0,0,0-1.19l-2.851-.7a3.164,3.164,0,0,1-2.321-2.321l-.7-2.851a.613.613,0,0,0-1.19,0l-.7,2.851a3.164,3.164,0,0,1-2.321,2.321l-2.851.7a.613.613,0,0,0,0,1.19l2.851.7a3.164,3.164,0,0,1,2.321,2.321l.7,2.851a.613.613,0,0,0,1.19,0l.7-2.851A3.164,3.164,0,0,1,324.954,340.443Z" transform="translate(-19.218 -68.61)" fill="#3a3a3a"/>
            <path id="Trazado_116055" data-name="Trazado 116055" d="M29.874,444.033l2.851-.7a.613.613,0,0,0,0-1.19l-2.851-.7a3.164,3.164,0,0,1-2.321-2.321l-.7-2.851a.613.613,0,0,0-1.19,0l-.7,2.851a3.164,3.164,0,0,1-2.321,2.321l-2.851.7a.613.613,0,0,0,0,1.19l2.851.7a3.164,3.164,0,0,1,2.321,2.321l.7,2.851a.613.613,0,0,0,1.19,0l.7-2.851A3.164,3.164,0,0,1,29.874,444.033Z" transform="translate(-19.322 -68.574)" fill="#3a3a3a"/>
          </g>
          <g id="Circles" transform="translate(20.247 24.435)">
            <circle id="Elipse_4763" data-name="Elipse 4763" cx="10.534" cy="10.534" r="10.534" transform="translate(257.188 85.9)" fill="#3a3a3a"/>
            <g id="Grupo_80368" data-name="Grupo 80368" transform="translate(260.04 87.572)">
              <circle id="Elipse_4764" data-name="Elipse 4764" cx="9.363" cy="9.363" r="9.363" transform="translate(1.17 1.18)" fill="#fff"/>
              <path id="Trazado_116056" data-name="Trazado 116056" d="M292.9,130.876a8.2,8.2,0,1,1,5.882-9.993,8.209,8.209,0,0,1-5.882,9.993m.59,2.271a10.54,10.54,0,1,0-12.845-7.563A10.543,10.543,0,0,0,293.495,133.147Z" transform="translate(-280.311 -112.401)" fill="#3a3a3a"/>
            </g>
            <circle id="Elipse_4765" data-name="Elipse 4765" cx="10.534" cy="10.534" r="10.534" transform="translate(2.468 34.852)" fill="#3a3a3a"/>
            <g id="Grupo_80369" data-name="Grupo 80369" transform="translate(0 32.644)">
              <circle id="Elipse_4766" data-name="Elipse 4766" cx="9.363" cy="9.363" r="9.363" transform="translate(1.168 1.178)" fill="#fff"/>
              <path id="Trazado_116057" data-name="Trazado 116057" d="M30.434,59.851a8.2,8.2,0,1,1-7.723,8.643,8.186,8.186,0,0,1,7.723-8.643M30.3,57.51a10.536,10.536,0,1,0,11.114,9.923A10.532,10.532,0,0,0,30.3,57.51Z" transform="translate(-20.363 -57.493)" fill="#3a3a3a"/>
            </g>
            <circle id="Elipse_4767" data-name="Elipse 4767" cx="7.723" cy="7.723" r="7.723" transform="translate(45.843 129.406)" fill="#3a3a3a"/>
            <g id="Grupo_80370" data-name="Grupo 80370" transform="translate(44.734 127.255)">
              <circle id="Elipse_4768" data-name="Elipse 4768" cx="6.862" cy="6.862" r="6.862" transform="translate(0.86 0.85)" fill="#fff"/>
              <path id="Trazado_116058" data-name="Trazado 116058" d="M74.633,154.071a6,6,0,1,1-7.543,3.891,6,6,0,0,1,7.543-3.891m.52-1.631a7.719,7.719,0,1,0,5,9.7A7.718,7.718,0,0,0,75.154,152.44Z" transform="translate(-65.081 -152.07)" fill="#3a3a3a"/>
            </g>
            <circle id="Elipse_4769" data-name="Elipse 4769" cx="7.163" cy="7.163" r="7.163" transform="translate(271.943 350.854)" fill="#3a3a3a"/>
            <g id="Grupo_80371" data-name="Grupo 80371" transform="translate(270.251 349.352)">
              <circle id="Elipse_4770" data-name="Elipse 4770" cx="6.372" cy="6.372" r="6.372" transform="translate(0.802 0.802)" fill="#fff"/>
              <path id="Trazado_116059" data-name="Trazado 116059" d="M297.372,375.691a5.576,5.576,0,1,1-5.252,5.882,5.587,5.587,0,0,1,5.252-5.882m-.09-1.591a7.169,7.169,0,1,0,7.563,6.752A7.171,7.171,0,0,0,297.282,374.1Z" transform="translate(-290.519 -374.089)" fill="#3a3a3a"/>
            </g>
            <circle id="Elipse_4771" data-name="Elipse 4771" cx="7.323" cy="7.323" r="7.323" transform="translate(84.457)" fill="#fff" stroke="#3a3a3a" stroke-linecap="round" stroke-miterlimit="10" stroke-width="1.17"/>
          </g>
          <g id="Grupo_80372" data-name="Grupo 80372" transform="translate(226.784 381.867)">
            <path id="Trazado_116060" data-name="Trazado 116060" d="M266.839,434.564c-1.01-.58-1.18-.79.03-3.4.94-2.031,2.681-5.8-1.5-8.213-3.271-1.891-7.343-1.26-11.284-.65-3.451.53-6.712,1.03-8.843-.2a1.867,1.867,0,0,0-1.871,3.231c3.271,1.891,7.343,1.26,11.284.65,3.451-.53,6.712-1.03,8.843.2,1.01.58,1.18.79-.03,3.4-.94,2.031-2.681,5.8,1.5,8.213,3.261,1.891,7.343,1.26,11.284.66,3.451-.53,6.722-1.03,8.853.2,1.01.58,1.18.79-.03,3.4-.94,2.031-2.681,5.8,1.49,8.213,3.271,1.891,7.353,1.26,11.294.65,3.451-.53,6.712-1.03,8.843.19,1.01.58,1.18.8-.03,3.411-.94,2.031-2.681,5.8,1.491,8.213a10.6,10.6,0,0,0,5.422,1.26,39.385,39.385,0,0,0,5.872-.61c3.451-.53,6.712-1.03,8.843.19a1.869,1.869,0,0,0,1.861-3.241c-3.271-1.881-7.343-1.25-11.274-.65-3.451.53-6.722,1.04-8.853-.2-1.01-.58-1.18-.8.03-3.411.94-2.031,2.681-5.8-1.5-8.223-3.271-1.881-7.343-1.26-11.274-.65-3.451.53-6.722,1.04-8.853-.2-1.01-.58-1.18-.79.03-3.4.94-2.031,2.681-5.8-1.49-8.213-3.271-1.891-7.343-1.26-11.284-.66-3.451.53-6.712,1.03-8.843-.2Z" transform="translate(-226.822 -382.152)" fill="#fef536"/>
            <path id="Trazado_116061" data-name="Trazado 116061" d="M271.356,395.9c-3.271-1.891-7.343-1.26-11.284-.66-3.451.53-6.712,1.03-8.843-.2-1.01-.58-1.18-.79.03-3.4.94-2.031,2.681-5.8-1.5-8.213-3.271-1.891-7.343-1.26-11.284-.66-3.451.53-6.712,1.03-8.843-.2a1.867,1.867,0,1,0-1.871,3.231c3.271,1.891,7.343,1.26,11.284.66,3.451-.53,6.712-1.03,8.843.2,1.01.58,1.18.79-.03,3.4-.94,2.031-2.681,5.8,1.5,8.213,3.261,1.891,7.343,1.26,11.284.66,3.451-.53,6.722-1.03,8.853.2,1.01.58,1.18.79-.03,3.4-.94,2.031-2.681,5.8,1.491,8.213,3.271,1.891,7.353,1.26,11.294.65,3.451-.53,6.712-1.03,8.843.19,1.01.58,1.18.8-.03,3.411-.94,2.031-2.681,5.8,1.49,8.213a10.6,10.6,0,0,0,5.422,1.26,39.657,39.657,0,0,0,5.872-.61c3.451-.53,6.712-1.03,8.843.19a1.869,1.869,0,1,0,1.861-3.241c-3.271-1.881-7.343-1.26-11.274-.65-3.451.53-6.722,1.03-8.853-.2-1.01-.58-1.18-.8.03-3.411.94-2.031,2.681-5.8-1.5-8.213-3.271-1.881-7.343-1.26-11.274-.65-3.451.53-6.722,1.03-8.853-.2-1.01-.58-1.18-.79.03-3.4.94-2.031,2.681-5.8-1.49-8.213Z" transform="translate(-226.827 -382.166)" fill="#3a3a3a"/>
          </g>
          <g id="Grupo_80374" data-name="Grupo 80374" transform="translate(119.398 69.846)">
            <g id="Grupo_80373" data-name="Grupo 80373" transform="translate(1.689 197.548)">
              <path id="Trazado_116062" data-name="Trazado 116062" d="M142.871,337.8a12.961,12.961,0,0,0,5.082-1.771,15.528,15.528,0,0,1-7.062,1.2,1.343,1.343,0,0,1-.9-.3h-.39v.03a3.331,3.331,0,0,0,.39.36,4.032,4.032,0,0,0,2.861.49Z" transform="translate(-121.161 -267.709)" fill="#fff"/>
              <path id="Trazado_116063" data-name="Trazado 116063" d="M198.567,331.322c1.03-6.412,1.8-13.7-1.38-19.367-2.471-4.392-6.9-7.453-11.674-9.063a42.947,42.947,0,0,0-14.935-1.761c-1.791.05-3.691.13-5.272-.72-2.061-1.11-3.071-3.561-3.261-5.9s.3-4.672.43-7.012c.26-4.772-.94-9.493-2.121-14.115a9.414,9.414,0,0,0-1.711-3.981c-1.931-2.231-5.7-2.121-8-.28s-3.321,4.922-3.411,7.863a43.491,43.491,0,0,0,1.09,8.773,67.705,67.705,0,0,1,.88,14.3,2.05,2.05,0,0,1-.3,1.17,1.986,1.986,0,0,1-1.22.61,32.677,32.677,0,0,0-5.222,1.19c-4.242,1.691-6.522,6.372-7.323,10.874a28.5,28.5,0,0,0,.55,12.154c-1.29-2.911-3.531-5.642-6.632-6.332-3.151-.69-6.952,1.711-6.712,4.932a10.236,10.236,0,0,0,1.481,3.791,23.316,23.316,0,0,1-.5,21.868c-3.141,5.472-2.581,12.374-.02,18.136,1.461,3.291,3.541,6.282,5.1,9.533a65.707,65.707,0,0,1,3.871,11.644c1.791,6.762,3.591,13.8,2.271,20.677-.82,4.262-2.8,8.773-1.02,12.734,1.441,3.221,4.932,4.932,8.193,6.272a55.776,55.776,0,0,0,16.156,4.452c5.582.49,11.434-.45,16.126-3.521,3.311-2.171,5.892-5.272,8.333-8.373,2.031-2.581,4.432-5.5,5.712-8.523a118.086,118.086,0,0,1-1.971-24.088c.81-19.767,9.393-38.374,12.524-57.91Zm-49.7,15.766a2.746,2.746,0,0,1-.55,1.31,2.445,2.445,0,0,1-1.03.58,7.126,7.126,0,0,1-5.042-.27,2.3,2.3,0,0,1-.93-.66,2.744,2.744,0,0,1-.39-.93,32.235,32.235,0,0,1-1.09-6.622,17.591,17.591,0,0,0-.06-3.171,2.027,2.027,0,0,0-.14-.34s-.02-.01-.02-.02h.02c-.25-.54-.68-1.04-.9-1.6-.67-1.711-1.13-3.481-1.641-5.252a27.436,27.436,0,0,0,3.111,5.442,3.473,3.473,0,0,0,1.21,1.17c2.311,1.17,5.232-2.661,7.3-1.1-.24.16-.49.3-.74.45.18-.08.36-.15.53-.23a.679.679,0,0,1,.55-.09c.22.09.28.36.31.6a32.364,32.364,0,0,1-.49,10.754Z" transform="translate(-121.168 -267.733)" fill="#fff"/>
            </g>
            <path id="Trazado_116064" data-name="Trazado 116064" d="M187.831,417.981l.64-.62c-.77-.8-1.541-1.651-2.331-2.541.05.52.12,1.05.22,1.581.49.54.98,1.07,1.471,1.581Z" transform="translate(-119.456 -70.134)" fill="#e0dfe6"/>
            <path id="Trazado_116065" data-name="Trazado 116065" d="M156.131,423.53c5.252.38,9.633-1.21,14.335-3.421a39.875,39.875,0,0,0,9.063-5.462,4.321,4.321,0,0,0,6.6-3.631c.12-2.281.19-4.552.24-6.832,2.371-6.592,2.971-14.235,3.491-20.657.67-8.313.6-16.666,1.31-24.969.25-1.05.5-2.091.77-3.131,2.231-8.673,5.862-17.046,7.763-25.779a29.856,29.856,0,0,0,.55-11.144,3.4,3.4,0,0,0,.34-3.851,3.859,3.859,0,0,0-2.9-2.191,19.673,19.673,0,0,0-3.681-3.441c-1.19-.89-2.761.57-2.4,1.851a35.956,35.956,0,0,1,.93,9.513c-.42.83-.88,1.631-1.26,2.391-1.08,2.2-2,4.482-2.941,6.742A81.021,81.021,0,0,0,183.51,344.7a195.968,195.968,0,0,0-2.951,26.659c-.76,4.332-1.411,8.673-1.911,13.055-.61,5.262-1.25,10.754-1.48,16.2a22.044,22.044,0,0,1-1.461,3.6c-1.9,3.6-5.832,5.872-9.193,7.913-4.221,2.561-8.193,4.782-11.624,8.383a1.784,1.784,0,0,0,1.25,3.011Z" transform="translate(-119.467 -70.171)" fill="#d7dce0" style="mix-blend-mode: multiply;isolation: isolate"/>
            <path id="Trazado_116066" data-name="Trazado 116066" d="M191.673,404.3v38.384c-.56.45-1.14.9-1.711,1.34a98.373,98.373,0,0,1-28.23,15.005,107.83,107.83,0,0,1-33.282,5.9H126.74V409.512a9.979,9.979,0,0,0,.39,1.661,13.976,13.976,0,0,0,4.332,6.042,21.577,21.577,0,0,0,1.711,1.34c.45.33.92.64,1.421.95.23.14.47.29.72.43,10.454,6.032,26.289,6.692,35.342,1.461l10.724-6.192,4.191-2.421c.08-.04.15-.09.22-.13h0v-.01a14.487,14.487,0,0,0,1.421-.93,14.058,14.058,0,0,0,1.711-1.491,9.6,9.6,0,0,0,2.491-4.232,8.035,8.035,0,0,0,.26-1.691Z" transform="translate(-119.477 -70.137)" fill="#3a3a3a"/>
            <path id="Trazado_116067" data-name="Trazado 116067" d="M147.293,280.827a8.088,8.088,0,0,0,.73-.46l-.1-5.412a6.757,6.757,0,0,1,6.742-6.852c.14,0,.27,0,.4.01q.03-.42.03-.84c0-4.982-3.5-7-7.823-4.512a17.286,17.286,0,0,0-7.813,13.545c0,4.992,3.5,7,7.813,4.512Z" transform="translate(-119.472 -70.187)" fill="#f6d84c"/>
            <path id="Trazado_116068" data-name="Trazado 116068" d="M188.14,413.12c.05-.04.11-.08.16-.12-.03.03-.08.06-.11.09A.085.085,0,0,1,188.14,413.12Z" transform="translate(-119.455 -70.134)" fill="#3a3a3a"/>
            <path id="Trazado_116069" data-name="Trazado 116069" d="M193.362,404.3v36.993c-.39.33-.79.65-1.18.97-.18.14-.36.29-.53.42-.56.45-1.14.9-1.711,1.34v-32.4a13.1,13.1,0,0,1-1.631,1.39,1.481,1.481,0,0,0,.24-.26,1.1,1.1,0,0,0,.09-.14,1.418,1.418,0,0,0,.23-.6c0-.03.01-.07.01-.1,0-.06.01-.13.01-.19v-4.241a6.7,6.7,0,0,0,1.04-3.231v.05a1.683,1.683,0,0,0,.21.81.671.671,0,0,0,.09.14.64.64,0,0,0,.1.13c.01.02.03.03.05.05.05.06.12.12.18.18a.708.708,0,0,0,.18.12.207.207,0,0,0,.1.06,1.56,1.56,0,0,0,.26.11c.1.03.19.06.29.08a2.111,2.111,0,0,0,.26.02,1.716,1.716,0,0,0,1.711-1.711Z" transform="translate(-119.455 -70.137)" fill="#3a3a3a"/>
            <path id="Trazado_116070" data-name="Trazado 116070" d="M132.2,419.974s-.03-.02-.05-.03a21.806,21.806,0,0,1-3.711-3.291v48.267h-.4l-1.31-19.667-1.711-25.6V409.5a1.71,1.71,0,0,0,1.711,1.711h.2a.629.629,0,0,0,.19-.03,1.221,1.221,0,0,0,.27-.09,1.66,1.66,0,0,0,.23-.12,1.6,1.6,0,0,0,.25-.18,1.449,1.449,0,0,0,.17-.18,1.587,1.587,0,0,0,.18-.27,1.229,1.229,0,0,0,.1-.24,1.61,1.61,0,0,0,.1-.58v-.11a10.294,10.294,0,0,0,3.011,5.462v3.691a1.7,1.7,0,0,0,.75,1.421Z" transform="translate(-119.477 -70.135)" fill="#3a3a3a"/>
            <path id="Trazado_116071" data-name="Trazado 116071" d="M133.15,420.273a1.777,1.777,0,0,1-.96-.29,26.546,26.546,0,0,0,2.241,1.441c10.924,6.3,27.54,6.952,37.053,1.461l14.925-8.613a17.29,17.29,0,0,0,1.731-1.13,1.709,1.709,0,0,1-2.661-1.421v-.89c-.25.16-.51.32-.79.49l-14.915,8.613c-8.563,4.952-23.648,4.292-33.622-1.461-.47-.27-.89-.54-1.29-.8v.9a1.71,1.71,0,0,1-1.711,1.711Z" transform="translate(-119.475 -70.135)" fill="#3a3a3a"/>
            <path id="Trazado_116072" data-name="Trazado 116072" d="M128.041,464.926h-1.31c-.57,0-1.14,0-1.711-.02V419.66l1.711,25.6Z" transform="translate(-119.477 -70.132)" fill="#3a3a3a"/>
            <path id="Trazado_116073" data-name="Trazado 116073" d="M172.322,302.871c16.6,0,25.009,6.842,25.009,20.347,0,6.362-2.121,14.385-4.572,23.658-2.851,10.764-6.072,22.968-7.273,36.863v27.12q.36-.24.69-.48a10.325,10.325,0,0,0,2.731-2.861v-9.863a5.359,5.359,0,0,0-2.441-1.9,1.714,1.714,0,0,1,1.5-3.081c.33.16.64.33.93.5v-9.2c1.17-13.565,4.352-25.589,7.163-36.2,2.511-9.513,4.692-17.726,4.692-24.539,0-15.555-9.833-23.768-28.43-23.768-.64,0-1.3,0-1.961.03a1.544,1.544,0,0,0-.3.04l-2.561.55,3.811,2.821c.34,0,.68-.01,1.01-.01Z" transform="translate(-119.462 -70.174)" fill="#3a3a3a"/>
            <path id="Trazado_116074" data-name="Trazado 116074" d="M187.181,413.422a1.719,1.719,0,0,0,.95-.29h.01a1.721,1.721,0,0,0,.75-1.41V407.49a10.325,10.325,0,0,1-2.731,2.861q-.33.24-.69.48v.89a1.71,1.71,0,0,0,1.711,1.711Z" transform="translate(-119.456 -70.136)" fill="#3a3a3a"/>
            <path id="Trazado_116075" data-name="Trazado 116075" d="M135.891,322.018c.15.18.3.38.44.58l.84-10.324a8.926,8.926,0,0,1,6.812-7.983l2.741-.66-.06-3.511-3.481.84a12.332,12.332,0,0,0-9.433,11.034l-.62,7.643a10.445,10.445,0,0,1,2.761,2.381Z" transform="translate(-119.474 -70.174)" fill="#3a3a3a"/>
            <path id="Trazado_116076" data-name="Trazado 116076" d="M177.084,325.514a1.715,1.715,0,0,0,1.02-3.091L166.09,313.58l.34,4.5,9.643,7.1a1.74,1.74,0,0,0,1.01.33Z" transform="translate(-119.463 -70.169)" fill="#3a3a3a"/>
            <path id="Trazado_116077" data-name="Trazado 116077" d="M185.707,317.807a1.691,1.691,0,0,0,1.02.34,1.734,1.734,0,0,0,1.38-.69,1.71,1.71,0,0,0-.36-2.391l-16.426-12.174h-.69l-3.111.67a1.708,1.708,0,1,1-.71-3.341l.7-.15-2.581-1.911.34,4.512,20.447,15.145Z" transform="translate(-119.463 -70.175)" fill="#3a3a3a"/>
            <path id="Trazado_116078" data-name="Trazado 116078" d="M165.48,302.241a1.711,1.711,0,0,0,2.031,1.31l3.111-.67h.69L167.5,300.06l-.7.15a1.726,1.726,0,0,0-1.32,2.031Z" transform="translate(-119.463 -70.174)" fill="#3a3a3a"/>
            <path id="Trazado_116079" data-name="Trazado 116079" d="M144.2,319.43a1.714,1.714,0,1,0-1.811,2.911l4.722,2.921-.07-4.071-2.851-1.761Z" transform="translate(-119.471 -70.167)" fill="#3a3a3a"/>
            <path id="Trazado_116080" data-name="Trazado 116080" d="M140.8,335.691c.09.35.18.69.26,1.05.22.88.42,1.731.61,2.541.34.03.7.05,1.06.05a7.961,7.961,0,0,0,4.612-1.33l-.09-5.272a1.384,1.384,0,0,0-.2.33C145.892,335.571,144.2,336.321,140.8,335.691Z" transform="translate(-119.472 -70.162)" fill="#3a3a3a"/>
            <path id="Trazado_116081" data-name="Trazado 116081" d="M150.071,301.082a1.219,1.219,0,0,1,.04.32l-.48-26.479a5.038,5.038,0,0,1,5.032-5.112,2.811,2.811,0,0,1,.3.01,5.048,5.048,0,0,1,4.722,4.742l4.161,54.819a1.716,1.716,0,1,0,3.421-.26l-.84-11.034-3-2.211a1.71,1.71,0,1,1,2.031-2.751l.63.46-.83-10.914-2.521-1.871a1.706,1.706,0,1,1,2.031-2.741l.14.1-1.461-19.237c-.08.15-.15.3-.24.45a1.712,1.712,0,0,1-3.011-1.631,46.03,46.03,0,0,0,2.5-5.482,8.47,8.47,0,0,0-5.922-5.6c.01.2.03.4.03.61,0,.31-.02.64-.04.96a1.715,1.715,0,0,1-3.421-.24c.02-.24.03-.48.03-.71,0-.27-.02-.53-.04-.78a8.459,8.459,0,0,0-7.143,8.483l.08,4.432s.09-.05.14-.07c.2-.12.41-.25.62-.39a1.712,1.712,0,0,1,1.941,2.821c-.27.19-.56.36-.84.53a10.584,10.584,0,0,1-1.791.83l.17,9.593c.27-.16.54-.32.81-.49a1.709,1.709,0,0,1,1.841,2.881c-.34.22-.68.42-1.03.62-.52.3-1.04.57-1.551.82l.06,3.561,1.34-.32a1.712,1.712,0,0,1,2.061,1.26Z" transform="translate(-119.47 -70.186)" fill="#3a3a3a"/>
            <path id="Trazado_116082" data-name="Trazado 116082" d="M149.711,322.858a1.717,1.717,0,0,1,.81,1.37l-.41-22.788a1.71,1.71,0,0,1-1.31,1.691l-2.081.5.32,17.566,2.671,1.651Z" transform="translate(-119.47 -70.173)" fill="#3a3a3a"/>
            <path id="Trazado_116083" data-name="Trazado 116083" d="M134.645,398.738a1.72,1.72,0,0,1-1.1,2.161,5.21,5.21,0,0,0-2.1,1.5v12.514a18.925,18.925,0,0,0,2.7,2.3c.23.17.47.33.72.5v-21.2c0-5.512-2.831-12.044-6.1-19.617-1.511-3.481-3.071-7.092-4.562-11.014a18.477,18.477,0,0,1-.75-11.214l.64-2.461a40.248,40.248,0,0,1,2.751-7.2,13.688,13.688,0,0,0,.31-11.074l-3.371-8.233a2.936,2.936,0,0,1,2.3-4.011l.43-.07a7.294,7.294,0,0,1,6.722,2.591,7.059,7.059,0,0,1,1.21,2.141c1.12,3.2,2.231,6.982,3.281,11.244,1.02,4.121,1.741,7.643,2.071,9.383a5.61,5.61,0,0,0,11.114-1.18l-.39-21.5a1.77,1.77,0,0,1-.25.94,1.709,1.709,0,0,1-1.461.81,1.648,1.648,0,0,1-.9-.26l-.8-.49.13,7.463a1.712,1.712,0,0,1,2.911,1.761,8.408,8.408,0,0,1-2.811,3.511l.14,7.823a2.182,2.182,0,0,1-4.322.47c-.27-1.391-.78-3.931-1.5-7a19.1,19.1,0,0,1-2.661-.47,1.716,1.716,0,0,1,.78-3.341c.35.08.68.15,1.01.21-1-3.941-2.041-7.473-3.111-10.5a10.227,10.227,0,0,0-1.36-2.6l-.05.64a1.7,1.7,0,0,1-1.7,1.571h-.14a1.719,1.719,0,0,1-1.571-1.841l.27-3.321A10.784,10.784,0,0,0,126,318.25l-.43.07a6.359,6.359,0,0,0-4.962,8.7l3.371,8.233a10.3,10.3,0,0,1-.23,8.3,43.6,43.6,0,0,0-2.971,7.813l-.64,2.461a21.838,21.838,0,0,0,.86,13.295c1.521,4,3.091,7.643,4.622,11.164,3.121,7.223,5.822,13.455,5.822,18.256v1.6a6.867,6.867,0,0,1,1.04-.46,1.72,1.72,0,0,1,2.161,1.1Z" transform="translate(-119.479 -70.168)" fill="#3a3a3a"/>
            <path id="Trazado_116084" data-name="Trazado 116084" d="M133.151,420.272a1.71,1.71,0,0,0,1.711-1.711v-.9c-.25-.16-.49-.33-.72-.5a18.931,18.931,0,0,1-2.7-2.3v3.691a1.725,1.725,0,0,0,.75,1.421h0a1.727,1.727,0,0,0,.96.29Z" transform="translate(-119.475 -70.134)" fill="#3a3a3a"/>
            <path id="Trazado_116085" data-name="Trazado 116085" d="M148.8,303.131a1.72,1.72,0,0,0,1.31-1.691v-.05a1.649,1.649,0,0,0-.04-.32,1.709,1.709,0,0,0-2.061-1.26l-1.34.32.06,3.511,2.081-.5Z" transform="translate(-119.47 -70.174)" fill="#3a3a3a"/>
            <path id="Trazado_116086" data-name="Trazado 116086" d="M134.431,324.792h.14a1.709,1.709,0,0,0,1.7-1.571l.05-.64c-.14-.2-.28-.39-.44-.58a10.446,10.446,0,0,0-2.761-2.381l-.27,3.321a1.707,1.707,0,0,0,1.571,1.841Z" transform="translate(-119.475 -70.167)" fill="#3a3a3a"/>
            <path id="Trazado_116087" data-name="Trazado 116087" d="M165.461,313.11a1.71,1.71,0,0,0-2.031,2.751l3,2.211-.34-4.5Z" transform="translate(-119.464 -70.169)" fill="#3a3a3a"/>
            <path id="Trazado_116088" data-name="Trazado 116088" d="M162.38,298.4a1.71,1.71,0,0,0,.36,2.391l2.521,1.871-.34-4.512-.14-.1a1.717,1.717,0,0,0-2.391.35Z" transform="translate(-119.464 -70.175)" fill="#3a3a3a"/>
            <path id="Trazado_116089" data-name="Trazado 116089" d="M149.711,322.851,147.04,321.2l.07,4.071.8.49a1.71,1.71,0,0,0,2.361-.55,1.685,1.685,0,0,0,.25-.94v-.05a1.717,1.717,0,0,0-.81-1.37Z" transform="translate(-119.47 -70.167)" fill="#3a3a3a"/>
            <path id="Trazado_116090" data-name="Trazado 116090" d="M140.8,335.69c-.32-.06-.65-.13-1.01-.21a1.716,1.716,0,1,0-.78,3.341,19.1,19.1,0,0,0,2.661.47c-.19-.81-.39-1.661-.61-2.541-.09-.35-.18-.7-.26-1.05Z" transform="translate(-119.473 -70.161)" fill="#3a3a3a"/>
            <path id="Trazado_116091" data-name="Trazado 116091" d="M150.161,334.491a1.712,1.712,0,0,0-2.911-1.761l.09,5.272a8.407,8.407,0,0,0,2.811-3.511Z" transform="translate(-119.469 -70.163)" fill="#3a3a3a"/>
            <path id="Trazado_116092" data-name="Trazado 116092" d="M126.611,407.8a1.715,1.715,0,0,1,1.811,1.481.5.5,0,0,0,.02.12,12.162,12.162,0,0,1,3-7.052v-4.3c-3.691,1.951-6.432,7.443-6.432,11.454a1.716,1.716,0,0,1,1.6-1.711Z" transform="translate(-119.477 -70.139)" fill="#3a3a3a"/>
            <path id="Trazado_116093" data-name="Trazado 116093" d="M126.731,411.221a1.71,1.71,0,0,0,1.711-1.711v-.11c0-.04-.02-.08-.02-.12a1.713,1.713,0,1,0-1.7,1.941Z" transform="translate(-119.477 -70.136)" fill="#3a3a3a"/>
            <path id="Trazado_116094" data-name="Trazado 116094" d="M133.541,400.861a1.715,1.715,0,1,0-1.06-3.261,7.327,7.327,0,0,0-1.04.46v4.3a5.209,5.209,0,0,1,2.1-1.5Z" transform="translate(-119.475 -70.14)" fill="#3a3a3a"/>
            <path id="Trazado_116095" data-name="Trazado 116095" d="M189.93,404.244v-.02a1.707,1.707,0,0,1,1.711-1.631h.04a1.708,1.708,0,0,1,1.671,1.711c0-5.792-.68-8.933-4.462-11.164v4.482c.74,1.17,1.04,3.041,1.04,6.632Z" transform="translate(-119.455 -70.141)" fill="#3a3a3a"/>
            <path id="Trazado_116096" data-name="Trazado 116096" d="M191.681,402.58h-.04a1.714,1.714,0,0,0-1.711,1.631v.08a1.711,1.711,0,1,0,1.751-1.711Z" transform="translate(-119.454 -70.138)" fill="#3a3a3a"/>
            <path id="Trazado_116097" data-name="Trazado 116097" d="M185.67,393.42a1.711,1.711,0,0,0,.79,2.291,5.426,5.426,0,0,1,2.441,1.9V393.13c-.29-.17-.6-.34-.93-.5a1.719,1.719,0,0,0-2.291.79Z" transform="translate(-119.456 -70.141)" fill="#3a3a3a"/>
            <path id="Trazado_116098" data-name="Trazado 116098" d="M153.676,260.74c-2.031-1.17-4.6-.98-7.243.55a18.918,18.918,0,0,0-8.673,15.025c0,3.051,1.12,5.372,3.151,6.542a5.741,5.741,0,0,0,2.881.76,7.729,7.729,0,0,0,2.561-.47l-.07-3.721c-1.461.81-2.791.98-3.671.47-.91-.53-1.43-1.831-1.43-3.581a15.66,15.66,0,0,1,6.962-12.054c1.521-.87,2.911-1.07,3.821-.55a3.446,3.446,0,0,1,1.391,2.791,9.083,9.083,0,0,1,1.811-.09,8.033,8.033,0,0,1,1.631.26c-.14-2.741-1.23-4.842-3.121-5.932Z" transform="translate(-119.473 -70.188)" fill="#3a3a3a"/>
            <path id="Trazado_116099" data-name="Trazado 116099" d="M148.151,282.3c.28-.16.56-.34.84-.53a1.712,1.712,0,0,0-1.941-2.821c-.2.14-.42.27-.62.39a.916.916,0,0,1-.14.07l.07,3.721A11.424,11.424,0,0,0,148.151,282.3Z" transform="translate(-119.47 -70.182)" fill="#3a3a3a"/>
            <path id="Trazado_116100" data-name="Trazado 116100" d="M153.35,266.5a6.571,6.571,0,0,1,.04.78c0,.23-.01.47-.03.71a1.715,1.715,0,0,0,3.421.24c.02-.32.04-.64.04-.96,0-.21-.02-.41-.03-.61a8.035,8.035,0,0,0-1.631-.26,9.081,9.081,0,0,0-1.811.09Z" transform="translate(-119.467 -70.186)" fill="#3a3a3a"/>
            <path id="Trazado_116101" data-name="Trazado 116101" d="M146.437,292.8c-4.642,2.681-8.923,3.161-12.044,1.361s-4.852-5.752-4.852-11.114c0-11.844,8.343-26.3,18.607-32.231,4.652-2.681,8.923-3.161,12.054-1.361s4.842,5.752,4.842,11.114a33.917,33.917,0,0,1-2.321,11.7,8.827,8.827,0,0,1,.4,2.071l.35,4.592a40.567,40.567,0,0,0,5-18.367c0-6.642-2.331-11.644-6.552-14.085s-9.723-1.961-15.475,1.36c-11.2,6.472-20.317,22.268-20.317,35.2,0,6.642,2.331,11.644,6.562,14.085a11.742,11.742,0,0,0,5.922,1.531,18.225,18.225,0,0,0,8-2.081l-.07-3.841s-.07.04-.1.06Z" transform="translate(-119.477 -70.193)" fill="#3a3a3a"/>
            <path id="Trazado_116102" data-name="Trazado 116102" d="M201.033,106.137a8.089,8.089,0,0,0,.73-.46l4.251-4.3c-.05-3.761,1.651-4.261,2.4-7.953.03-.13.27,0,.4.01q.03-.42.03-.84c0-4.982-3.5-7-7.823-4.512a17.286,17.286,0,0,0-7.813,13.545c0,4.992,3.5,7,7.813,4.512Z" transform="translate(-119.453 -70.249)" fill="#f6d84c"/>
            <path id="Trazado_116103" data-name="Trazado 116103" d="M207.426,86.05c-2.031-1.17-4.6-.98-7.243.55a18.918,18.918,0,0,0-8.673,15.025c0,3.051,1.12,5.372,3.151,6.542a5.741,5.741,0,0,0,2.881.76,7.728,7.728,0,0,0,2.561-.47l-.07-3.721c-1.461.81-2.791.98-3.671.47-.91-.53-1.431-1.831-1.431-3.581a15.66,15.66,0,0,1,6.962-12.054c1.521-.87,2.911-1.07,3.821-.55a3.446,3.446,0,0,1,1.391,2.791,9.084,9.084,0,0,1,1.811-.09,8.036,8.036,0,0,1,1.631.26c-.14-2.741-1.23-4.842-3.121-5.932Z" transform="translate(-119.454 -70.25)" fill="#3a3a3a"/>
            <path id="Trazado_116104" data-name="Trazado 116104" d="M200.177,118.107c-4.642,2.681-8.923,3.161-12.044,1.36s-4.852-5.752-4.852-11.114c0-11.844,8.343-26.3,18.607-32.231,4.652-2.681,8.923-3.161,12.054-1.36s4.842,5.752,4.842,11.114a33.917,33.917,0,0,1-2.321,11.7,8.827,8.827,0,0,1,.4,2.071l.35,4.592a40.567,40.567,0,0,0,5-18.366c0-6.642-2.331-11.644-6.552-14.085s-9.723-1.961-15.475,1.36c-11.2,6.472-20.317,22.268-20.317,35.2,0,6.642,2.331,11.644,6.562,14.085a11.743,11.743,0,0,0,5.922,1.531,18.224,18.224,0,0,0,8-2.081l-.07-3.841s-.07.04-.1.06Z" transform="translate(-119.458 -70.255)" fill="#3a3a3a"/>
            <path id="Trazado_116105" data-name="Trazado 116105" d="M149.181,295.121a1.709,1.709,0,1,0-1.841-2.881c-.27.17-.54.33-.81.49l.07,3.841c.51-.25,1.03-.52,1.551-.82.35-.2.69-.41,1.03-.62Z" transform="translate(-119.47 -70.177)" fill="#3a3a3a"/>
            <path id="Trazado_116106" data-name="Trazado 116106" d="M162.711,272.26a44.632,44.632,0,0,1-2.5,5.482,1.712,1.712,0,0,0,3.011,1.631l.24-.45-.35-4.592a8.346,8.346,0,0,0-.4-2.071Z" transform="translate(-119.465 -70.184)" fill="#3a3a3a"/>
            <path id="Trazado_116107" data-name="Trazado 116107" d="M207.092,91.81c-.75,4.632-1.541,9.473-7.062,12.915l.07,3.721c5.182-2.651,9.633-7.783,10.434-16.466l-1.681-1.12-1.751.95Z" transform="translate(-119.451 -70.248)" fill="#3a3a3a"/>
            <path id="Trazado_116108" data-name="Trazado 116108" d="M216.456,97.57c-3.371,7.273-7.012,13.595-16.186,20.467l-1.541,2.521,1.611,1.32c8.273-5.172,11.834-9.053,16.856-17.646l.48-5.762-1.22-.9Z" transform="translate(-119.451 -70.245)" fill="#3a3a3a"/>
          </g>
          <g id="Grupo_80375" data-name="Grupo 80375" transform="translate(165.004 105.01)">
            <path id="Trazado_116109" data-name="Trazado 116109" d="M215.111,114.973a2.736,2.736,0,0,1-2.731-2.561c-.16-2.541-.31-3.971-.31-3.991a2.74,2.74,0,0,1,5.452-.56c0,.06.16,1.541.33,4.2a2.742,2.742,0,0,1-2.561,2.911h-.18Z" transform="translate(-165.053 -105.406)" fill="#3a3a3a"/>
            <path id="Trazado_116110" data-name="Trazado 116110" d="M181.481,245.373a2.736,2.736,0,0,1-2.031-4.572c1.831-2.031,3.611-4.211,5.3-6.472a2.737,2.737,0,0,1,4.382,3.281c-1.791,2.391-3.681,4.692-5.622,6.852a2.744,2.744,0,0,1-2.041.91Zm13.255-18.707a2.675,2.675,0,0,1-1.33-.35,2.741,2.741,0,0,1-1.05-3.731c1.34-2.4,2.631-4.922,3.851-7.493a2.736,2.736,0,0,1,4.952,2.331c-1.27,2.691-2.621,5.332-4.021,7.833a2.724,2.724,0,0,1-2.391,1.4Zm9.383-20.957a2.647,2.647,0,0,1-.91-.16,2.736,2.736,0,0,1-1.671-3.491c.92-2.6,1.8-5.322,2.611-8.063a2.738,2.738,0,1,1,5.252,1.551c-.84,2.841-1.751,5.642-2.7,8.333a2.748,2.748,0,0,1-2.581,1.831Zm6.2-22.128a2.933,2.933,0,0,1-.58-.06,2.733,2.733,0,0,1-2.1-3.251c.59-2.731,1.13-5.542,1.621-8.353a2.742,2.742,0,0,1,5.4.94c-.5,2.891-1.06,5.772-1.661,8.573a2.743,2.743,0,0,1-2.671,2.161Zm3.651-22.7a1.67,1.67,0,0,1-.31-.02,2.74,2.74,0,0,1-2.421-3.021c.31-2.8.58-5.652.8-8.493a2.739,2.739,0,1,1,5.462.42c-.23,2.9-.5,5.822-.82,8.673a2.746,2.746,0,0,1-2.721,2.441Zm1.551-22.938h-.07a2.746,2.746,0,0,1-2.671-2.811c.06-2.371.09-4.762.09-7.112v-1.43a2.745,2.745,0,0,1,2.721-2.761h.02a2.741,2.741,0,0,1,2.741,2.721v1.461c0,2.4-.03,4.832-.09,7.253a2.744,2.744,0,0,1-2.741,2.671Z" transform="translate(-165.065 -105.4)" fill="#3a3a3a"/>
            <path id="Trazado_116111" data-name="Trazado 116111" d="M167.811,257.673a2.74,2.74,0,0,1-1.6-4.962c1.07-.77,2.131-1.581,3.161-2.4a2.74,2.74,0,1,1,3.421,4.281c-1.1.88-2.231,1.741-3.381,2.571a2.728,2.728,0,0,1-1.6.52Z" transform="translate(-165.069 -105.355)" fill="#3a3a3a"/>
          </g>
          <g id="Grupo_80376" data-name="Grupo 80376" transform="translate(73.253 185.766)">
            <path id="Trazado_116112" data-name="Trazado 116112" d="M101.543,257.641c2.8.93,5.852.44,8.733-.17a28.5,28.5,0,0,0,7.082-2.241c3.991-2.021,6.962-5.572,9.8-9.033a96.772,96.772,0,0,0,6.012-7.833,47.189,47.189,0,0,0,7.753-25c.06-3.3-.32-6.822-2.371-9.4-2.151-2.7-5.682-3.821-9-4.742a19.33,19.33,0,0,0-7.213-1,17.269,17.269,0,0,0-5.822,2.031,54.579,54.579,0,0,0-6.692,4.011,25.821,25.821,0,0,0-5.772,5.262,33.115,33.115,0,0,0-3.331,5.812c-4.312,8.913-8.393,18.286-8.553,28.19-.1,5.972,3.411,12.124,9.373,14.115Z" transform="translate(-73.343 -186.129)" fill="#5c22c3"/>
            <path id="Trazado_116113" data-name="Trazado 116113" d="M105.42,188.1c.33-.13.67-.22,1-.34l-.06-.06-.95.4Z" transform="translate(-73.339 -186.133)" fill="#e0dfe6"/>
            <path id="Trazado_116114" data-name="Trazado 116114" d="M116.034,189.771c-4.3-2.481-10.254-2.121-16.826,1.661C86.054,199.024,75.4,217.48,75.4,232.656c0,7.593,2.661,12.925,6.962,15.415l16.706,9.643c-4.111-2.561-6.642-7.823-6.642-15.215,0-15.185,10.654-33.642,23.808-41.225,6.442-3.721,12.284-4.141,16.566-1.811Z" transform="translate(-73.349 -186.133)" fill="#d7dce0"/>
            <path id="Trazado_116115" data-name="Trazado 116115" d="M114.444,233.137l-8.583-4.952-3.321,5.742,11.984,6.912,14.325-25.959-3.4-1.761Z" transform="translate(-73.34 -186.124)" fill="#fff"/>
            <path id="Trazado_116116" data-name="Trazado 116116" d="M94.471,242.5c0-14.505,10.224-32.2,22.778-39.454,5.582-3.221,10.754-3.851,14.565-1.791h0L123.3,196.33a26.5,26.5,0,0,0-8.093,3.161c-13.695,7.9-24.829,27.19-24.829,43.005a26.486,26.486,0,0,0,1.31,8.583l8.413,4.852c-3.621-2.3-5.622-7.062-5.622-13.435Z" transform="translate(-73.344 -186.13)" fill="#3a3a3a"/>
            <path id="Trazado_116117" data-name="Trazado 116117" d="M134.842,200.581a2.043,2.043,0,0,1-2.781.81l-.03-.02c3.831,2.221,5.942,7.062,5.942,13.635,0,7.213-2.631,15.706-7.233,23.318-4.242,7.062-9.753,12.784-15.545,16.126-5.462,3.151-10.554,3.831-14.3,1.931l-.51-.28c.08.05.16.11.23.16a2.04,2.04,0,0,1,.35,3.681l-.91.54a14.708,14.708,0,0,0,5.532,1.04,23.664,23.664,0,0,0,11.664-3.531c6.182-3.561,12.034-9.533,16.566-16.856-.22.06-.44.11-.66.19a2.05,2.05,0,1,1-1.29-3.891,17.687,17.687,0,0,1,4.522-.85A48.554,48.554,0,0,0,142.075,215c0-8.1-2.841-14.205-7.993-17.186h-.02a2.045,2.045,0,0,1,.79,2.771Z" transform="translate(-73.341 -186.129)" fill="#3a3a3a"/>
            <path id="Trazado_116118" data-name="Trazado 116118" d="M101.691,257.13a2.042,2.042,0,0,0-1.07-.88,2.041,2.041,0,0,1-1.24,3.671,1.956,1.956,0,0,1-.99-.26h.01l.6.32c.34.17.7.33,1.06.47l.91-.54a2.041,2.041,0,0,0,.72-2.8Z" transform="translate(-73.341 -186.109)" fill="#3a3a3a"/>
            <path id="Trazado_116119" data-name="Trazado 116119" d="M130.55,240.021a2.049,2.049,0,0,0,2.591,1.3c.22-.07.44-.12.66-.19.15-.24.29-.47.44-.71.77-1.27,1.471-2.551,2.131-3.841a17.685,17.685,0,0,0-4.522.85A2.049,2.049,0,0,0,130.55,240.021Z" transform="translate(-73.33 -186.116)" fill="#3a3a3a"/>
            <path id="Trazado_116120" data-name="Trazado 116120" d="M100.09,255.91a.592.592,0,0,0,.06.04c.03.02.05.04.08.06a.848.848,0,0,1,.14.06l.03.02h0l-.3-.17Z" transform="translate(-73.341 -186.109)" fill="#3a3a3a"/>
            <path id="Trazado_116121" data-name="Trazado 116121" d="M131.8,201.26l.22.12h0l-.09-.06c-.04-.02-.08-.03-.12-.05h0Z" transform="translate(-73.329 -186.128)" fill="#3a3a3a"/>
            <path id="Trazado_116122" data-name="Trazado 116122" d="M91.686,251.083,83.4,246.3c-3.831-2.221-5.942-7.062-5.942-13.645,0-14.5,10.224-32.2,22.778-39.454,5.7-3.281,10.944-3.871,14.775-1.661l8.293,4.792a15.3,15.3,0,0,1,10.474,1.33c.05.03.08.06.13.09a1.006,1.006,0,0,1,.15.07.031.031,0,0,1-.02-.01L117.055,188c-5.152-2.971-11.854-2.381-18.877,1.661-13.695,7.913-24.829,27.2-24.829,43.005,0,8.1,2.841,14.205,7.993,17.186l14.505,8.373.28-.17a16.154,16.154,0,0,1-4.442-6.972Z" transform="translate(-73.35 -186.134)" fill="#3a3a3a"/>
            <path id="Trazado_116123" data-name="Trazado 116123" d="M98.381,259.661h.01a1.531,1.531,0,0,1-.21-.14,1.212,1.212,0,0,1-.2-.09,13.315,13.315,0,0,1-1.861-1.4l-.28.17,2.221,1.28.32.18Z" transform="translate(-73.342 -186.108)" fill="#3a3a3a"/>
            <path id="Trazado_116124" data-name="Trazado 116124" d="M131.8,201.262h0c.04.02.08.03.12.05a2.042,2.042,0,0,1,1.961-3.571,1.46,1.46,0,0,0-.13-.09,15.366,15.366,0,0,0-10.474-1.33l8.513,4.922h0Z" transform="translate(-73.332 -186.13)" fill="#3a3a3a"/>
            <path id="Trazado_116125" data-name="Trazado 116125" d="M97.582,256.892a2.028,2.028,0,0,1,2.641-.87c-.03-.02-.05-.04-.08-.06s-.04-.03-.06-.04L91.67,251.07a16.094,16.094,0,0,0,4.442,6.972l1.31-.77a1.725,1.725,0,0,1,.16-.37Z" transform="translate(-73.344 -186.111)" fill="#3a3a3a"/>
            <path id="Trazado_116126" data-name="Trazado 116126" d="M97.43,257.26l-1.31.77a13.311,13.311,0,0,0,1.861,1.4,1.765,1.765,0,0,0,.2.09,2.048,2.048,0,0,1-.75-2.261Z" transform="translate(-73.342 -186.109)" fill="#3a3a3a"/>
            <path id="Trazado_116127" data-name="Trazado 116127" d="M100.23,256.02a1.829,1.829,0,0,1,.22.17c.06.02.11.04.17.06a1.892,1.892,0,0,0-.23-.16l-.03-.02s-.09-.04-.14-.06Z" transform="translate(-73.341 -186.109)" fill="#3a3a3a"/>
            <path id="Trazado_116128" data-name="Trazado 116128" d="M134.581,200.431a2.049,2.049,0,0,1-2.661.87l.09.06h0l.03.02a2.049,2.049,0,0,0,1.991-3.581,1.01,1.01,0,0,0-.15-.07,2.038,2.038,0,0,1,.69,2.691Z" transform="translate(-73.329 -186.13)" fill="#3a3a3a"/>
            <path id="Trazado_116129" data-name="Trazado 116129" d="M101.171,258.881a2.046,2.046,0,0,0-.55-2.631,1.149,1.149,0,0,0-.17-.06,2.045,2.045,0,0,1-1.39,3.551,1.977,1.977,0,0,1-.88-.22,1.539,1.539,0,0,0,.21.14,2.047,2.047,0,0,0,2.781-.78Z" transform="translate(-73.341 -186.109)" fill="#3a3a3a"/>
            <path id="Trazado_116130" data-name="Trazado 116130" d="M97.58,256.89a1.724,1.724,0,0,0-.16.37l1.451-.86a2.031,2.031,0,0,1,1.571-.21c-.07-.06-.15-.12-.22-.17A2.044,2.044,0,0,0,97.58,256.89Z" transform="translate(-73.342 -186.109)" fill="#3a3a3a"/>
            <path id="Trazado_116131" data-name="Trazado 116131" d="M131.26,198.57a1.552,1.552,0,1,1,.01.01Z" transform="translate(-73.33 -186.13)" fill="#3a3a3a"/>
            <path id="Trazado_116132" data-name="Trazado 116132" d="M100.8,258.781a1.529,1.529,0,0,0-1.921-2.381l-1.451.86a2.048,2.048,0,0,0,.75,2.261,1.976,1.976,0,0,0,.88.22A2.056,2.056,0,0,0,100.8,258.781Z" transform="translate(-73.342 -186.109)" fill="#3a3a3a"/>
          </g>
        </g>
      </g>
    </g>
  </g>
</svg>
