<svg id="Grupo_82221" data-name="Grupo 82221" xmlns="http://www.w3.org/2000/svg" width="77.678" height="77.678" viewBox="0 0 77.678 77.678">
  <g id="Grupo_82219" data-name="Grupo 82219" transform="translate(0)">
    <circle id="Elipse_5210" data-name="Elipse 5210" cx="38.006" cy="38.006" r="38.006" transform="translate(0.833 0.833)" fill="#fff"/>
    <path id="Trazado_115302" data-name="Trazado 115302" d="M1260.04,163.574a38.839,38.839,0,1,1,38.839-38.839A38.884,38.884,0,0,1,1260.04,163.574Zm0-76.013a37.174,37.174,0,1,0,37.175,37.174A37.216,37.216,0,0,0,1260.04,87.561Z" transform="translate(-1221.201 -85.896)" fill="#373737"/>
  </g>
  <path id="Trazado_115303" data-name="Trazado 115303" d="M1282.162,93.977c-54.4-2.335-56.189,47.7-56.2,48.066a38.013,38.013,0,0,1,56.2-48.066Z" transform="translate(-1221.231 -85.938)" opacity="0.13"/>
  <g id="Grupo_82220" data-name="Grupo 82220" transform="translate(21.814 17.355)">
    <path id="Trazado_115304" data-name="Trazado 115304" d="M1244.348,119.653c5.813,10.733,30.321,10.025,34.569-.321.743,3.772-.748,6.466-3.727,8.487-6.891,4.675-20.017,4.72-26.94.111C1245.406,126.036,1243.681,123.6,1244.348,119.653Z" transform="translate(-1244.205 -104.98)" fill="#5c22c3"/>
    <path id="Trazado_115305" data-name="Trazado 115305" d="M1244.348,126.659c5.813,10.733,30.321,10.025,34.569-.321.743,3.773-.748,6.466-3.727,8.488-6.891,4.675-20.017,4.72-26.94.111C1245.406,133.043,1243.681,130.6,1244.348,126.659Z" transform="translate(-1244.205 -105.342)" fill="#5c22c3"/>
    <path id="Trazado_115306" data-name="Trazado 115306" d="M1244.554,141.315c4.036,6.194,10.438,7.425,17.112,7.392,6.8-.034,13.362-1.21,17.3-7.9a7.705,7.705,0,0,1-3.462,8.128c-6.976,4.993-20.673,5.035-27.665.062C1244.7,146.761,1243.581,144.044,1244.554,141.315Z" transform="translate(-1244.205 -106.09)" fill="#5c22c3"/>
    <path id="Trazado_115307" data-name="Trazado 115307" d="M1244.348,133.941c5.813,10.733,30.321,10.025,34.569-.321.743,3.772-.748,6.466-3.727,8.487-6.891,4.675-20.017,4.72-26.94.112C1245.406,140.325,1243.681,137.883,1244.348,133.941Z" transform="translate(-1244.205 -105.719)" fill="#5c22c3"/>
    <ellipse id="Elipse_5211" data-name="Elipse 5211" cx="17.45" cy="9.651" rx="17.45" ry="9.651" transform="translate(0.008)" fill="#5c22c3"/>
  </g>
</svg>
