<svg id="Grupo_82227" data-name="Grupo 82227" xmlns="http://www.w3.org/2000/svg" width="66.913" height="66.913" viewBox="0 0 66.913 66.913">
  <g id="Grupo_82225" data-name="Grupo 82225">
    <circle id="Elipse_5213" data-name="Elipse 5213" cx="32.624" cy="32.624" r="32.624" transform="translate(0.832 0.833)" fill="#fff"/>
    <path id="Trazado_115312" data-name="Trazado 115312" d="M1199.691,469.651a33.457,33.457,0,1,1,33.457-33.457A33.495,33.495,0,0,1,1199.691,469.651Zm0-65.248a31.791,31.791,0,1,0,31.791,31.791A31.827,31.827,0,0,0,1199.691,404.4Z" transform="translate(-1166.234 -402.738)" fill="#373737"/>
  </g>
  <path id="Trazado_115313" data-name="Trazado 115313" d="M1218.876,409.836c-46.7-2-48.232,40.948-48.242,41.259a32.63,32.63,0,0,1,48.242-41.259Z" transform="translate(-1166.276 -402.782)" opacity="0.13"/>
  <path id="Trazado_115314" data-name="Trazado 115314" d="M1214.14,426.55h-.012a1.922,1.922,0,0,1-1.557-.81c-2.734-3.853-6.955-7.6-12.3-7.638-5.757-.044-9.694,3.574-12.123,7.77a4.733,4.733,0,0,1-1.71,1.716.779.779,0,0,1-.269.12,9.253,9.253,0,0,0-.14,18.5h.017a.535.535,0,0,1,.34.945l-3.813,3.192,11.5-4.531a.541.541,0,0,1,.408.007q.37.156.754.295a14.033,14.033,0,0,0,4.82.891l.163,0c.059,0,.119,0,.18,0a14.671,14.671,0,0,0,8.2-2.292.531.531,0,0,1,.578-.008,9.519,9.519,0,0,0,5.027,1.476,9.762,9.762,0,0,0,9.771-9.755A9.931,9.931,0,0,0,1214.14,426.55ZM1191.7,444.26c.01-.009.023-.016.033-.025a.216.216,0,0,0,.027.02Z" transform="translate(-1166.789 -403.532)" fill="#5c22c3"/>
  <g id="Grupo_82226" data-name="Grupo 82226" transform="translate(24.585 29.459)">
    <path id="Trazado_115315" data-name="Trazado 115315" d="M1196.157,435.816a2,2,0,1,1-1.984-2.012A2,2,0,0,1,1196.157,435.816Z" transform="translate(-1192.16 -433.804)" fill="#fef536"/>
    <path id="Trazado_115316" data-name="Trazado 115316" d="M1203.883,435.816a2,2,0,1,1-1.983-2.012A2,2,0,0,1,1203.883,435.816Z" transform="translate(-1192.56 -433.804)" fill="#fef536"/>
    <path id="Trazado_115317" data-name="Trazado 115317" d="M1211.962,435.816a2,2,0,1,1-1.983-2.012A2,2,0,0,1,1211.962,435.816Z" transform="translate(-1192.977 -433.804)" fill="#fef536"/>
  </g>
</svg>
