<svg id="Grupo_82224" data-name="Grupo 82224" xmlns="http://www.w3.org/2000/svg" width="68.391" height="68.391" viewBox="0 0 68.391 68.391">
  <g id="Grupo_82222" data-name="Grupo 82222">
    <circle id="Elipse_5212" data-name="Elipse 5212" cx="33.363" cy="33.363" r="33.363" transform="translate(0.832 0.833)" fill="#fff"/>
    <path id="Trazado_115308" data-name="Trazado 115308" d="M956.137,166.1a34.2,34.2,0,1,1,34.2-34.2A34.234,34.234,0,0,1,956.137,166.1Zm0-66.725a32.53,32.53,0,1,0,32.53,32.53A32.568,32.568,0,0,0,956.137,99.379Z" transform="translate(-921.942 -97.714)" fill="#373737"/>
  </g>
  <path id="Trazado_115309" data-name="Trazado 115309" d="M975.9,104.93c-47.755-2.049-49.323,41.875-49.335,42.193A33.369,33.369,0,0,1,975.9,104.93Z" transform="translate(-921.991 -97.757)" opacity="0.13"/>
  <path id="Trazado_115310" data-name="Trazado 115310" d="M948.67,118.525h14.746a13.157,13.157,0,0,1,13.158,13.157v.479a13.157,13.157,0,0,1-13.158,13.158h-2.474a1.561,1.561,0,0,0-1.46,2.113l1.008,2.667a1.021,1.021,0,0,1-1.537,1.2l-7.339-5.1a4.946,4.946,0,0,0-2.822-.884h0a13.071,13.071,0,0,1-13.07-13.071v-.773A12.948,12.948,0,0,1,948.67,118.525Z" transform="translate(-922.655 -98.79)" fill="#5c22c3"/>
  <g id="Grupo_82223" data-name="Grupo 82223" transform="translate(25.261 27.31)">
    <path id="Trazado_115311" data-name="Trazado 115311" d="M955.7,130.36c0,2.71-1.714,4.125-3.587,4.125-1.973,0-3.528-1.475-3.528-3.906,0-2.312,1.415-4.066,3.627-4.066C954.44,126.513,955.7,128.148,955.7,130.36Zm-4.863.139c0,1.355.458,2.332,1.335,2.332.857,0,1.275-.877,1.275-2.332,0-1.315-.358-2.332-1.3-2.332C951.25,128.168,950.832,129.2,950.832,130.5Zm1.435,9.407,7.435-13.394h1.634l-7.454,13.394Zm12.755-4.166c0,2.711-1.714,4.126-3.587,4.126-1.953,0-3.508-1.475-3.528-3.907,0-2.311,1.415-4.065,3.627-4.065C963.767,131.895,965.022,133.528,965.022,135.741Zm-4.843.139c-.02,1.356.438,2.332,1.315,2.332.857,0,1.276-.876,1.276-2.332,0-1.315-.339-2.332-1.276-2.332C960.578,133.548,960.18,134.585,960.18,135.88Z" transform="translate(-948.58 -126.513)" fill="#fef536"/>
  </g>
</svg>
