<svg xmlns="http://www.w3.org/2000/svg" width="820" height="247.64" viewBox="0 0 820 247.64">
  <g id="Grupo_82402" data-name="Grupo 82402" transform="translate(-390 -3386.98)">
    <g id="Grupo_80551" data-name="Grupo 80551" transform="translate(390 3386.98)">
      <rect id="Rect치ngulo_33859" data-name="Rect치ngulo 33859" width="206.818" height="206.818" rx="4.86" transform="translate(20.411 20.411)" fill="#ba68c8"/>
      <g id="Grupo_80535" data-name="Grupo 80535" transform="translate(0 115.712)">
        <g id="Grupo_80532" data-name="Grupo 80532" transform="translate(243.585)">
          <path id="Trazado_113879" data-name="Trazado 113879" d="M347.866,190.657a2.027,2.027,0,0,1-2.028-2.027v-4.054a2.027,2.027,0,1,1,4.054,0v4.054A2.027,2.027,0,0,1,347.866,190.657Z" transform="translate(-345.838 -182.549)" fill="#64b5f6"/>
        </g>
        <g id="Grupo_80533" data-name="Grupo 80533" transform="translate(0 20.178)">
          <path id="Trazado_113880" data-name="Trazado 113880" d="M251.121,320.751h-8.062a2.027,2.027,0,1,1,0-4.054h8.062a2.027,2.027,0,1,1,0,4.054Zm-24.187,0h-8.062a2.027,2.027,0,0,1,0-4.054h8.062a2.027,2.027,0,1,1,0,4.054Zm-24.187,0h-8.062a2.027,2.027,0,1,1,0-4.054h8.062a2.027,2.027,0,0,1,0,4.054Zm-24.187,0H170.5a2.027,2.027,0,0,1,0-4.054h8.062a2.027,2.027,0,1,1,0,4.054Zm-24.187,0h-8.062a2.027,2.027,0,0,1,0-4.054h8.062a2.027,2.027,0,0,1,0,4.054Zm-24.186,0h-8.063a2.027,2.027,0,0,1,0-4.054h8.063a2.027,2.027,0,1,1,0,4.054Zm-24.186,0H97.937a2.027,2.027,0,1,1,0-4.054H106a2.027,2.027,0,1,1,0,4.054Zm-24.188,0H73.75a2.027,2.027,0,1,1,0-4.054h8.063a2.027,2.027,0,1,1,0,4.054Zm-24.186,0H49.563a2.027,2.027,0,1,1,0-4.054h8.064a2.027,2.027,0,1,1,0,4.054Zm-23.049-4.6a2.016,2.016,0,0,1-1.348-.516q-.424-.379-.827-.78a20.015,20.015,0,0,1-4.337-6.457,2.027,2.027,0,1,1,3.739-1.565,16.007,16.007,0,0,0,3.464,5.156c.214.214.434.422.659.623a2.027,2.027,0,0,1-1.35,3.539Zm231.521-.018a2.027,2.027,0,0,1-1.353-3.536c.22-.2.436-.4.645-.611a16,16,0,0,0,3.471-5.176,2.027,2.027,0,0,1,3.742,1.561,20.068,20.068,0,0,1-4.348,6.485q-.395.392-.8.76A2.022,2.022,0,0,1,266.1,316.135ZM28.536,293.707a2.027,2.027,0,0,1-2.027-2.027v-8.062a2.027,2.027,0,0,1,4.054,0v8.062A2.027,2.027,0,0,1,28.536,293.707Zm243.586-.027a2.028,2.028,0,0,1-2.028-2.027v-8.064a2.027,2.027,0,1,1,4.054,0v8.064A2.028,2.028,0,0,1,272.122,293.679ZM28.536,269.521a2.027,2.027,0,0,1-2.027-2.027V259.43a2.027,2.027,0,1,1,4.054,0v8.064A2.027,2.027,0,0,1,28.536,269.521Zm243.586-.029a2.028,2.028,0,0,1-2.028-2.027V259.4a2.027,2.027,0,0,1,4.054,0v8.062A2.028,2.028,0,0,1,272.122,269.492ZM28.536,245.333a2.027,2.027,0,0,1-2.027-2.027v-8.062a2.027,2.027,0,1,1,4.054,0v8.062A2.027,2.027,0,0,1,28.536,245.333Zm243.586-.027a2.028,2.028,0,0,1-2.028-2.027v-8.064a2.027,2.027,0,1,1,4.054,0v8.064A2.028,2.028,0,0,1,272.122,245.305ZM28.536,221.147a2.027,2.027,0,0,1-2.027-2.027v-8.064a2.027,2.027,0,1,1,4.054,0v8.064A2.027,2.027,0,0,1,28.536,221.147Zm243.586-.029a2.028,2.028,0,0,1-2.028-2.027v-8.062a2.027,2.027,0,0,1,4.054,0v8.062A2.028,2.028,0,0,1,272.122,221.118Z" transform="translate(-26.509 -209.002)" fill="#ba68c8"/>
        </g>
        <g id="Grupo_80534" data-name="Grupo 80534">
          <path id="Trazado_113881" data-name="Trazado 113881" d="M28.536,190.657a2.027,2.027,0,0,1-2.027-2.027v-4.054a2.027,2.027,0,1,1,4.054,0v4.054A2.027,2.027,0,0,1,28.536,190.657Z" transform="translate(-26.509 -182.549)" fill="#64b5f6"/>
        </g>
      </g>
      <g id="Grupo_80538" data-name="Grupo 80538">
        <g id="Grupo_80536" data-name="Grupo 80536">
          <path id="Trazado_113882" data-name="Trazado 113882" d="M302.388,156.7H270.094V50.98A16.068,16.068,0,0,0,254.025,34.91H46.632A16.069,16.069,0,0,0,30.563,50.98v103.7H26.509V50.98A20.124,20.124,0,0,1,46.632,30.856H254.025A20.124,20.124,0,0,1,274.149,50.98V152.649h28.24Z" transform="translate(-26.509 -30.856)" fill="#ba68c8"/>
        </g>
        <g id="Grupo_80537" data-name="Grupo 80537" transform="translate(272.922 113.714)">
          <path id="Trazado_113883" data-name="Trazado 113883" d="M384.3,200.142l17.5-10.106L384.3,179.93Z" transform="translate(-384.297 -179.93)" fill="#ba68c8"/>
        </g>
      </g>
      <rect id="Rect치ngulo_33860" data-name="Rect치ngulo 33860" width="206.818" height="206.818" rx="4.86" transform="translate(592.771 20.411)" fill="#ba68c8"/>
      <g id="Grupo_80542" data-name="Grupo 80542" transform="translate(572.36 115.712)">
        <g id="Grupo_80539" data-name="Grupo 80539" transform="translate(243.586)">
          <path id="Trazado_113884" data-name="Trazado 113884" d="M1098.2,190.657a2.027,2.027,0,0,1-2.027-2.027v-4.054a2.027,2.027,0,1,1,4.053,0v4.054A2.027,2.027,0,0,1,1098.2,190.657Z" transform="translate(-1096.177 -182.549)" fill="#ba68c8"/>
        </g>
        <g id="Grupo_80540" data-name="Grupo 80540" transform="translate(0 20.178)">
          <path id="Trazado_113885" data-name="Trazado 113885" d="M1001.46,320.751H993.4a2.027,2.027,0,0,1,0-4.054h8.062a2.027,2.027,0,1,1,0,4.054Zm-24.187,0h-8.062a2.027,2.027,0,1,1,0-4.054h8.062a2.027,2.027,0,1,1,0,4.054Zm-24.187,0h-8.062a2.027,2.027,0,0,1,0-4.054h8.062a2.027,2.027,0,0,1,0,4.054Zm-24.187,0h-8.062a2.027,2.027,0,1,1,0-4.054H928.9a2.027,2.027,0,0,1,0,4.054Zm-24.187,0H896.65a2.027,2.027,0,1,1,0-4.054h8.062a2.027,2.027,0,1,1,0,4.054Zm-24.187,0h-8.062a2.027,2.027,0,0,1,0-4.054h8.062a2.027,2.027,0,1,1,0,4.054Zm-24.187,0h-8.062a2.027,2.027,0,0,1,0-4.054h8.062a2.027,2.027,0,0,1,0,4.054Zm-24.187,0h-8.062a2.027,2.027,0,1,1,0-4.054h8.062a2.027,2.027,0,0,1,0,4.054Zm-24.187,0H799.9a2.027,2.027,0,0,1,0-4.054h8.062a2.027,2.027,0,0,1,0,4.054Zm-23.047-4.6a2.015,2.015,0,0,1-1.348-.516c-.284-.253-.558-.512-.828-.78A20.015,20.015,0,0,1,778.4,308.4a2.026,2.026,0,1,1,3.738-1.565,16.035,16.035,0,0,0,3.465,5.156c.214.214.435.422.659.623a2.026,2.026,0,0,1-1.349,3.539Zm231.521-.018a2.027,2.027,0,0,1-1.353-3.536c.22-.2.435-.4.645-.611a16,16,0,0,0,3.472-5.176,2.027,2.027,0,0,1,3.742,1.561,20.049,20.049,0,0,1-4.35,6.485q-.393.392-.8.76A2.025,2.025,0,0,1,1016.438,316.135ZM778.874,293.707a2.028,2.028,0,0,1-2.027-2.027v-8.062a2.027,2.027,0,0,1,4.054,0v8.062A2.028,2.028,0,0,1,778.874,293.707Zm243.586-.027a2.027,2.027,0,0,1-2.027-2.027v-8.064a2.027,2.027,0,1,1,4.053,0v8.064A2.027,2.027,0,0,1,1022.46,293.679Zm-243.586-24.16a2.028,2.028,0,0,1-2.027-2.027V259.43a2.027,2.027,0,1,1,4.054,0v8.062A2.028,2.028,0,0,1,778.874,269.519Zm243.586-.027a2.027,2.027,0,0,1-2.027-2.027V259.4a2.027,2.027,0,1,1,4.053,0v8.062A2.027,2.027,0,0,1,1022.46,269.492ZM778.874,245.333a2.028,2.028,0,0,1-2.027-2.027v-8.062a2.027,2.027,0,0,1,4.054,0v8.062A2.028,2.028,0,0,1,778.874,245.333Zm243.586-.027a2.027,2.027,0,0,1-2.027-2.027v-8.064a2.027,2.027,0,1,1,4.053,0v8.064A2.027,2.027,0,0,1,1022.46,245.305Zm-243.586-24.16a2.028,2.028,0,0,1-2.027-2.027v-8.062a2.027,2.027,0,0,1,4.054,0v8.062A2.028,2.028,0,0,1,778.874,221.145Zm243.586-.027a2.027,2.027,0,0,1-2.027-2.027v-8.062a2.027,2.027,0,1,1,4.053,0v8.062A2.027,2.027,0,0,1,1022.46,221.118Z" transform="translate(-776.847 -209.002)" fill="#ba68c8"/>
        </g>
        <g id="Grupo_80541" data-name="Grupo 80541">
          <path id="Trazado_113886" data-name="Trazado 113886" d="M778.874,190.657a2.027,2.027,0,0,1-2.027-2.027v-4.054a2.027,2.027,0,1,1,4.054,0v4.054A2.027,2.027,0,0,1,778.874,190.657Z" transform="translate(-776.847 -182.549)" fill="#ba68c8"/>
        </g>
      </g>
      <g id="Grupo_80543" data-name="Grupo 80543" transform="translate(572.36)">
        <path id="Trazado_113887" data-name="Trazado 113887" d="M1024.486,154.676h-4.053V50.98a16.069,16.069,0,0,0-16.07-16.069H796.97A16.07,16.07,0,0,0,780.9,50.98v103.7h-4.054V50.98A20.125,20.125,0,0,1,796.97,30.856h207.392a20.124,20.124,0,0,1,20.124,20.124Z" transform="translate(-776.846 -30.856)" fill="#ba68c8"/>
      </g>
      <path id="Trazado_113893" data-name="Trazado 113893" d="M3.707,0h199.4a3.707,3.707,0,0,1,3.707,3.707v199.4a3.707,3.707,0,0,1-3.707,3.707H3.707A3.707,3.707,0,0,1,0,203.111V3.707A3.707,3.707,0,0,1,3.707,0Z" transform="translate(306.397 20.411)" fill="#64b5f6"/>
      <g id="Grupo_80547" data-name="Grupo 80547" transform="translate(285.986)">
        <g id="Grupo_80544" data-name="Grupo 80544" transform="translate(243.586 123.82)">
          <path id="Trazado_113888" data-name="Trazado 113888" d="M722.781,201.286a2.027,2.027,0,0,1-2.027-2.027V195.2a2.027,2.027,0,1,1,4.053,0v4.054A2.028,2.028,0,0,1,722.781,201.286Z" transform="translate(-720.754 -193.178)" fill="#64b5f6"/>
        </g>
        <g id="Grupo_80545" data-name="Grupo 80545">
          <path id="Trazado_113889" data-name="Trazado 113889" d="M647.037,142.606a2.027,2.027,0,0,1-2.027-2.027v-8.062a2.027,2.027,0,0,1,4.054,0v8.062A2.028,2.028,0,0,1,647.037,142.606Zm-243.586-.027a2.028,2.028,0,0,1-2.027-2.027v-8.064a2.027,2.027,0,0,1,4.054,0v8.064A2.027,2.027,0,0,1,403.451,142.578ZM647.037,118.42a2.027,2.027,0,0,1-2.027-2.027v-8.064a2.027,2.027,0,1,1,4.054,0v8.064A2.028,2.028,0,0,1,647.037,118.42Zm-243.586-.029a2.028,2.028,0,0,1-2.027-2.028V108.3a2.027,2.027,0,1,1,4.054,0v8.061A2.027,2.027,0,0,1,403.451,118.391ZM647.037,94.232a2.027,2.027,0,0,1-2.027-2.027V84.143a2.027,2.027,0,1,1,4.054,0v8.062A2.028,2.028,0,0,1,647.037,94.232ZM403.451,94.2a2.028,2.028,0,0,1-2.027-2.027V84.113a2.027,2.027,0,1,1,4.054,0v8.064A2.027,2.027,0,0,1,403.451,94.2ZM647.037,70.046a2.027,2.027,0,0,1-2.027-2.027V59.955a2.027,2.027,0,1,1,4.054,0v8.064A2.028,2.028,0,0,1,647.037,70.046Zm-243.586-.029a2.028,2.028,0,0,1-2.027-2.028V59.928a2.027,2.027,0,1,1,4.054,0v8.061A2.027,2.027,0,0,1,403.451,70.017Zm242.2-23.974a2.025,2.025,0,0,1-1.871-1.246,16.019,16.019,0,0,0-3.475-5.179c-.207-.207-.422-.41-.641-.607a2.027,2.027,0,0,1,2.7-3.019c.273.245.541.5.8.757a20.067,20.067,0,0,1,4.352,6.488,2.026,2.026,0,0,1-1.09,2.65A2,2,0,0,1,645.648,46.043Zm-240.8-.026a2.027,2.027,0,0,1-1.87-2.809,20.011,20.011,0,0,1,4.337-6.458c.269-.269.544-.528.827-.78a2.026,2.026,0,1,1,2.7,3.023q-.338.3-.659.624a15.989,15.989,0,0,0-3.463,5.156A2.029,2.029,0,0,1,404.85,46.017ZM626.036,34.91h-8.061a2.027,2.027,0,1,1,0-4.054h8.061a2.027,2.027,0,1,1,0,4.054Zm-24.187,0h-8.062a2.027,2.027,0,0,1,0-4.054h8.062a2.027,2.027,0,0,1,0,4.054Zm-24.187,0H569.6a2.027,2.027,0,1,1,0-4.054h8.061a2.027,2.027,0,1,1,0,4.054Zm-24.186,0h-8.063a2.027,2.027,0,0,1,0-4.054h8.063a2.027,2.027,0,0,1,0,4.054Zm-24.188,0h-8.061a2.027,2.027,0,1,1,0-4.054h8.061a2.027,2.027,0,1,1,0,4.054Zm-24.185,0H497.04a2.027,2.027,0,1,1,0-4.054H505.1a2.027,2.027,0,0,1,0,4.054Zm-24.187,0h-8.063a2.027,2.027,0,1,1,0-4.054h8.063a2.027,2.027,0,0,1,0,4.054Zm-24.187,0h-8.063a2.027,2.027,0,1,1,0-4.054h8.063a2.027,2.027,0,0,1,0,4.054Zm-24.187,0h-8.063a2.027,2.027,0,1,1,0-4.054h8.063a2.027,2.027,0,0,1,0,4.054Z" transform="translate(-401.424 -30.856)" fill="#64b5f6"/>
        </g>
        <g id="Grupo_80546" data-name="Grupo 80546" transform="translate(0 123.82)">
          <path id="Trazado_113890" data-name="Trazado 113890" d="M403.451,201.286a2.028,2.028,0,0,1-2.027-2.027V195.2a2.027,2.027,0,1,1,4.054,0v4.054A2.027,2.027,0,0,1,403.451,201.286Z" transform="translate(-401.424 -193.178)" fill="#64b5f6"/>
        </g>
      </g>
      <g id="Grupo_80550" data-name="Grupo 80550" transform="translate(285.986 113.714)">
        <g id="Grupo_80548" data-name="Grupo 80548" transform="translate(0 8.079)">
          <path id="Trazado_113891" data-name="Trazado 113891" d="M628.941,316.368H421.547a20.124,20.124,0,0,1-20.123-20.123v-103.7h4.054v103.7a16.069,16.069,0,0,0,16.069,16.069H628.941a16.069,16.069,0,0,0,16.069-16.069V190.521H677.3v4.054h-28.24v101.67a20.124,20.124,0,0,1-20.123,20.123Z" transform="translate(-401.424 -190.521)" fill="#64b5f6"/>
        </g>
        <g id="Grupo_80549" data-name="Grupo 80549" transform="translate(272.922 0)">
          <path id="Trazado_113892" data-name="Trazado 113892" d="M759.213,200.142l17.5-10.106-17.5-10.106Z" transform="translate(-759.213 -179.93)" fill="#64b5f6"/>
        </g>
      </g>
    </g>
    <path id="Trazado_116543" data-name="Trazado 116543" d="M14.367,22.176h7.465V25H10.852V7.938h3.516Zm8.73-3.633a7.52,7.52,0,0,1,.727-3.363,5.319,5.319,0,0,1,2.092-2.285,6.1,6.1,0,0,1,3.17-.809,5.774,5.774,0,0,1,4.189,1.57,6.3,6.3,0,0,1,1.811,4.266l.023.867a6.627,6.627,0,0,1-1.629,4.682,5.662,5.662,0,0,1-4.371,1.764,5.69,5.69,0,0,1-4.377-1.758A6.744,6.744,0,0,1,23.1,18.7Zm3.387.24a4.74,4.74,0,0,0,.68,2.764,2.442,2.442,0,0,0,3.867.012,5.186,5.186,0,0,0,.691-3.022,4.692,4.692,0,0,0-.691-2.746,2.248,2.248,0,0,0-1.945-.974,2.211,2.211,0,0,0-1.922.968A5.274,5.274,0,0,0,26.484,18.783ZM44.063,21.5a1.091,1.091,0,0,0-.615-.979,6.989,6.989,0,0,0-1.975-.639q-4.523-.949-4.523-3.844a3.484,3.484,0,0,1,1.4-2.818,5.649,5.649,0,0,1,3.662-1.131,6.08,6.08,0,0,1,3.861,1.137,3.582,3.582,0,0,1,1.447,2.953H43.934a1.639,1.639,0,0,0-.469-1.2A1.984,1.984,0,0,0,42,14.5a2.027,2.027,0,0,0-1.324.387,1.221,1.221,0,0,0-.469.984,1.044,1.044,0,0,0,.533.908,5.485,5.485,0,0,0,1.8.6,14.692,14.692,0,0,1,2.133.568q2.684.984,2.684,3.41a3.307,3.307,0,0,1-1.488,2.807,6.42,6.42,0,0,1-3.844,1.072,6.706,6.706,0,0,1-2.83-.568,4.748,4.748,0,0,1-1.939-1.559,3.621,3.621,0,0,1-.7-2.139h3.211a1.768,1.768,0,0,0,.668,1.383,2.649,2.649,0,0,0,1.664.48,2.452,2.452,0,0,0,1.471-.369A1.149,1.149,0,0,0,44.063,21.5ZM58.688,12.32l.105,1.418a4.456,4.456,0,0,1,3.645-1.652A3.382,3.382,0,0,1,65.8,14.02a4.354,4.354,0,0,1,3.809-1.934,3.782,3.782,0,0,1,3.07,1.2A5.521,5.521,0,0,1,73.688,16.9V25h-3.4V16.914a2.414,2.414,0,0,0-.422-1.576,1.87,1.87,0,0,0-1.488-.5,2.114,2.114,0,0,0-2.109,1.453L66.281,25H62.895V16.926a2.385,2.385,0,0,0-.434-1.594,1.888,1.888,0,0,0-1.477-.492,2.195,2.195,0,0,0-2.086,1.2V25H55.512V12.32ZM82.125,25.234a6.225,6.225,0,0,1-4.541-1.711,6.082,6.082,0,0,1-1.752-4.559v-.328a7.66,7.66,0,0,1,.738-3.416,5.418,5.418,0,0,1,2.092-2.32,5.871,5.871,0,0,1,3.088-.814,5.262,5.262,0,0,1,4.1,1.641,6.667,6.667,0,0,1,1.494,4.652v1.383H79.266a3.146,3.146,0,0,0,.99,1.992,2.993,2.993,0,0,0,2.092.75,3.656,3.656,0,0,0,3.059-1.418l1.664,1.863a5.084,5.084,0,0,1-2.062,1.682A6.767,6.767,0,0,1,82.125,25.234Zm-.387-10.418A2.116,2.116,0,0,0,80.1,15.5a3.535,3.535,0,0,0-.8,1.954h4.711v-.271a2.521,2.521,0,0,0-.609-1.748A2.183,2.183,0,0,0,81.738,14.816ZM82.043,7h3.691l-3.246,3.633H79.734ZM93.316,9.2V12.32h2.168V14.8H93.316v6.328a1.511,1.511,0,0,0,.27,1.008,1.354,1.354,0,0,0,1.031.3,5.4,5.4,0,0,0,1-.082V24.93a6.972,6.972,0,0,1-2.051.3q-3.562,0-3.633-3.6V14.8H88.078V12.32H89.93V9.2Zm3.176,9.34a7.52,7.52,0,0,1,.727-3.363,5.319,5.319,0,0,1,2.092-2.285,6.1,6.1,0,0,1,3.17-.809,5.774,5.774,0,0,1,4.189,1.57,6.3,6.3,0,0,1,1.811,4.266l.023.867a6.627,6.627,0,0,1-1.629,4.682,6.313,6.313,0,0,1-8.748.006A6.744,6.744,0,0,1,96.492,18.7Zm3.387.24a4.74,4.74,0,0,0,.68,2.764,2.442,2.442,0,0,0,3.867.012,5.186,5.186,0,0,0,.691-3.022,4.692,4.692,0,0,0-.691-2.746,2.248,2.248,0,0,0-1.945-.974,2.211,2.211,0,0,0-1.922.968A5.274,5.274,0,0,0,99.879,18.783Zm10.184-.217a7.641,7.641,0,0,1,1.33-4.723,4.316,4.316,0,0,1,3.639-1.758,3.884,3.884,0,0,1,3.059,1.383V7h3.4V25H118.43l-.164-1.348a3.985,3.985,0,0,1-3.258,1.582,4.3,4.3,0,0,1-3.592-1.764A7.887,7.887,0,0,1,110.063,18.566Zm3.387.252a5.005,5.005,0,0,0,.621,2.735,2.023,2.023,0,0,0,1.8.951,2.266,2.266,0,0,0,2.215-1.326V16.166A2.234,2.234,0,0,0,115.9,14.84Q113.449,14.84,113.449,18.819Zm10.137-.276a7.52,7.52,0,0,1,.727-3.363,5.319,5.319,0,0,1,2.092-2.285,6.1,6.1,0,0,1,3.17-.809,5.774,5.774,0,0,1,4.189,1.57,6.3,6.3,0,0,1,1.811,4.266l.023.867a6.627,6.627,0,0,1-1.629,4.682,6.313,6.313,0,0,1-8.748.006,6.744,6.744,0,0,1-1.635-4.781Zm3.387.24a4.74,4.74,0,0,0,.68,2.764,2.442,2.442,0,0,0,3.867.012,5.186,5.186,0,0,0,.691-3.022,4.692,4.692,0,0,0-.691-2.746,2.248,2.248,0,0,0-1.945-.974,2.211,2.211,0,0,0-1.922.968A5.274,5.274,0,0,0,126.973,18.783ZM144.551,21.5a1.091,1.091,0,0,0-.615-.979,6.989,6.989,0,0,0-1.975-.639q-4.523-.949-4.523-3.844a3.484,3.484,0,0,1,1.4-2.818,5.649,5.649,0,0,1,3.662-1.131,6.08,6.08,0,0,1,3.861,1.137,3.582,3.582,0,0,1,1.447,2.953h-3.387a1.639,1.639,0,0,0-.469-1.2,1.984,1.984,0,0,0-1.465-.475,2.027,2.027,0,0,0-1.324.387,1.221,1.221,0,0,0-.469.984,1.044,1.044,0,0,0,.533.908,5.485,5.485,0,0,0,1.8.6,14.692,14.692,0,0,1,2.133.568q2.684.984,2.684,3.41a3.307,3.307,0,0,1-1.488,2.807,6.42,6.42,0,0,1-3.844,1.072,6.706,6.706,0,0,1-2.83-.568,4.748,4.748,0,0,1-1.939-1.559,3.621,3.621,0,0,1-.7-2.139h3.211a1.768,1.768,0,0,0,.668,1.383,2.649,2.649,0,0,0,1.664.48,2.452,2.452,0,0,0,1.471-.369A1.149,1.149,0,0,0,144.551,21.5Zm17.285,3.738a6.225,6.225,0,0,1-4.541-1.711,6.082,6.082,0,0,1-1.752-4.559v-.328a7.66,7.66,0,0,1,.738-3.416,5.418,5.418,0,0,1,2.092-2.32,5.871,5.871,0,0,1,3.088-.814,5.262,5.262,0,0,1,4.1,1.641,6.667,6.667,0,0,1,1.494,4.652v1.383h-8.074a3.146,3.146,0,0,0,.99,1.992,2.993,2.993,0,0,0,2.092.75,3.656,3.656,0,0,0,3.059-1.418l1.664,1.863a5.084,5.084,0,0,1-2.062,1.682A6.767,6.767,0,0,1,161.836,25.234Zm-.387-10.418a2.116,2.116,0,0,0-1.635.683,3.535,3.535,0,0,0-.8,1.954h4.711v-.271a2.521,2.521,0,0,0-.609-1.748A2.183,2.183,0,0,0,161.449,14.816ZM5.49,51h-3.4V38.32h3.4Zm-3.6-15.961a1.668,1.668,0,0,1,.51-1.254,1.915,1.915,0,0,1,1.389-.492,1.919,1.919,0,0,1,1.383.492,1.79,1.79,0,0,1-.006,2.52,1.924,1.924,0,0,1-1.377.492A1.924,1.924,0,0,1,2.414,36.3,1.663,1.663,0,0,1,1.893,35.039Zm9.5,3.281.105,1.465a4.427,4.427,0,0,1,3.645-1.7,3.679,3.679,0,0,1,3,1.184,5.522,5.522,0,0,1,1.008,3.539V51H15.768V42.891a2.2,2.2,0,0,0-.469-1.564,2.1,2.1,0,0,0-1.559-.486A2.33,2.33,0,0,0,11.6,42.059V51H8.209V38.32ZM28.588,47.5a1.091,1.091,0,0,0-.615-.979A6.989,6.989,0,0,0,26,45.879q-4.523-.949-4.523-3.844a3.484,3.484,0,0,1,1.4-2.818,5.649,5.649,0,0,1,3.662-1.131A6.08,6.08,0,0,1,30.4,39.223a3.582,3.582,0,0,1,1.447,2.953H28.459a1.639,1.639,0,0,0-.469-1.2,1.984,1.984,0,0,0-1.465-.475,2.027,2.027,0,0,0-1.324.387,1.221,1.221,0,0,0-.469.984,1.044,1.044,0,0,0,.533.908,5.485,5.485,0,0,0,1.8.6,14.692,14.692,0,0,1,2.133.568q2.684.984,2.684,3.41a3.308,3.308,0,0,1-1.488,2.807,6.42,6.42,0,0,1-3.844,1.072,6.706,6.706,0,0,1-2.83-.568,4.748,4.748,0,0,1-1.939-1.559,3.621,3.621,0,0,1-.7-2.139h3.211a1.768,1.768,0,0,0,.668,1.383,2.649,2.649,0,0,0,1.664.48,2.452,2.452,0,0,0,1.471-.369A1.149,1.149,0,0,0,28.588,47.5ZM38.115,35.2V38.32h2.168V40.8H38.115v6.328a1.511,1.511,0,0,0,.27,1.008,1.354,1.354,0,0,0,1.031.3,5.4,5.4,0,0,0,1-.082V50.93a6.972,6.972,0,0,1-2.051.3q-3.562,0-3.633-3.6V40.8H32.877V38.32h1.852V35.2ZM49.295,41.5a9.2,9.2,0,0,0-1.219-.094,2.481,2.481,0,0,0-2.52,1.3V51H42.17V38.32h3.2l.094,1.512a3.138,3.138,0,0,1,2.824-1.746,3.549,3.549,0,0,1,1.055.152Zm9.223,8.215a4.247,4.247,0,0,1-3.469,1.523,4.005,4.005,0,0,1-3.111-1.172,5,5,0,0,1-1.1-3.434V38.32h3.387v8.2q0,1.983,1.8,1.983a2.445,2.445,0,0,0,2.367-1.2V38.32h3.4V51H58.611ZM67.529,38.32l.105,1.418a4.456,4.456,0,0,1,3.645-1.652,3.382,3.382,0,0,1,3.363,1.934,4.354,4.354,0,0,1,3.809-1.934,3.782,3.782,0,0,1,3.07,1.2A5.521,5.521,0,0,1,82.529,42.9V51h-3.4V42.914a2.414,2.414,0,0,0-.422-1.576,1.87,1.87,0,0,0-1.488-.5,2.114,2.114,0,0,0-2.109,1.453L75.123,51H71.736V42.926a2.385,2.385,0,0,0-.434-1.594,1.888,1.888,0,0,0-1.477-.492,2.195,2.195,0,0,0-2.086,1.2V51H64.354V38.32ZM90.967,51.234a6.225,6.225,0,0,1-4.541-1.711,6.082,6.082,0,0,1-1.752-4.559v-.328a7.66,7.66,0,0,1,.738-3.416A5.418,5.418,0,0,1,87.5,38.9a5.871,5.871,0,0,1,3.088-.814,5.262,5.262,0,0,1,4.1,1.641,6.667,6.667,0,0,1,1.494,4.652v1.383H88.107a3.146,3.146,0,0,0,.99,1.992,2.993,2.993,0,0,0,2.092.75,3.656,3.656,0,0,0,3.059-1.418l1.664,1.863a5.084,5.084,0,0,1-2.062,1.682A6.767,6.767,0,0,1,90.967,51.234ZM90.58,40.816a2.116,2.116,0,0,0-1.635.683,3.535,3.535,0,0,0-.8,1.954h4.711v-.271a2.521,2.521,0,0,0-.609-1.748A2.183,2.183,0,0,0,90.58,40.816Zm10.641-2.5.105,1.465a4.427,4.427,0,0,1,3.645-1.7,3.679,3.679,0,0,1,3,1.184,5.522,5.522,0,0,1,1.008,3.539V51h-3.387V42.891a2.2,2.2,0,0,0-.469-1.564,2.1,2.1,0,0,0-1.559-.486,2.33,2.33,0,0,0-2.145,1.219V51H98.033V38.32ZM115.6,35.2V38.32h2.168V40.8H115.6v6.328a1.511,1.511,0,0,0,.27,1.008,1.354,1.354,0,0,0,1.031.3,5.4,5.4,0,0,0,1-.082V50.93a6.972,6.972,0,0,1-2.051.3q-3.562,0-3.633-3.6V40.8h-1.852V38.32h1.852V35.2Zm3.176,9.34a7.52,7.52,0,0,1,.727-3.363,5.319,5.319,0,0,1,2.092-2.285,6.1,6.1,0,0,1,3.17-.809,5.774,5.774,0,0,1,4.189,1.57,6.3,6.3,0,0,1,1.811,4.266l.023.867a6.627,6.627,0,0,1-1.629,4.682,6.313,6.313,0,0,1-8.748.006,6.744,6.744,0,0,1-1.635-4.781Zm3.387.24a4.74,4.74,0,0,0,.68,2.764,2.442,2.442,0,0,0,3.867.012,5.186,5.186,0,0,0,.691-3.022,4.692,4.692,0,0,0-.691-2.746,2.248,2.248,0,0,0-1.945-.974,2.211,2.211,0,0,0-1.922.968A5.274,5.274,0,0,0,122.162,44.783ZM139.74,47.5a1.091,1.091,0,0,0-.615-.979,6.989,6.989,0,0,0-1.975-.639q-4.523-.949-4.523-3.844a3.484,3.484,0,0,1,1.4-2.818,5.649,5.649,0,0,1,3.662-1.131,6.08,6.08,0,0,1,3.861,1.137A3.582,3.582,0,0,1,143,42.176h-3.387a1.639,1.639,0,0,0-.469-1.2,1.984,1.984,0,0,0-1.465-.475,2.027,2.027,0,0,0-1.324.387,1.221,1.221,0,0,0-.469.984,1.044,1.044,0,0,0,.533.908,5.485,5.485,0,0,0,1.8.6,14.692,14.692,0,0,1,2.133.568q2.684.984,2.684,3.41a3.307,3.307,0,0,1-1.488,2.807,6.42,6.42,0,0,1-3.844,1.072,6.706,6.706,0,0,1-2.83-.568,4.748,4.748,0,0,1-1.939-1.559,3.621,3.621,0,0,1-.7-2.139h3.211a1.768,1.768,0,0,0,.668,1.383,2.649,2.649,0,0,0,1.664.48,2.452,2.452,0,0,0,1.471-.369A1.149,1.149,0,0,0,139.74,47.5Zm10.922-2.93a7.641,7.641,0,0,1,1.33-4.723,4.316,4.316,0,0,1,3.639-1.758,3.884,3.884,0,0,1,3.059,1.383V33h3.4V51h-3.059l-.164-1.348a3.985,3.985,0,0,1-3.258,1.582,4.3,4.3,0,0,1-3.592-1.764A7.887,7.887,0,0,1,150.662,44.566Zm3.387.252a5.005,5.005,0,0,0,.621,2.735,2.023,2.023,0,0,0,1.8.951,2.266,2.266,0,0,0,2.215-1.326V42.166A2.234,2.234,0,0,0,156.5,40.84Q154.049,40.84,154.049,44.819Zm16.5,6.416a6.225,6.225,0,0,1-4.541-1.711,6.082,6.082,0,0,1-1.752-4.559v-.328a7.66,7.66,0,0,1,.738-3.416,5.418,5.418,0,0,1,2.092-2.32,5.871,5.871,0,0,1,3.088-.814,5.262,5.262,0,0,1,4.1,1.641,6.667,6.667,0,0,1,1.494,4.652v1.383h-8.074a3.146,3.146,0,0,0,.99,1.992,2.993,2.993,0,0,0,2.092.75,3.656,3.656,0,0,0,3.059-1.418l1.664,1.863a5.084,5.084,0,0,1-2.062,1.682A6.767,6.767,0,0,1,170.549,51.234Zm-.387-10.418a2.116,2.116,0,0,0-1.635.683,3.535,3.535,0,0,0-.8,1.954h4.711v-.271a2.521,2.521,0,0,0-.609-1.748A2.183,2.183,0,0,0,170.162,40.816ZM21.287,77h-3.4V64.32h3.4Zm-3.6-15.961a1.668,1.668,0,0,1,.51-1.254,1.915,1.915,0,0,1,1.389-.492,1.919,1.919,0,0,1,1.383.492,1.79,1.79,0,0,1-.006,2.52,2.172,2.172,0,0,1-2.754,0A1.663,1.663,0,0,1,17.689,61.039Zm9.5,3.281.105,1.465a4.427,4.427,0,0,1,3.645-1.7,3.679,3.679,0,0,1,3,1.184,5.522,5.522,0,0,1,1.008,3.539V77H31.564V68.891a2.2,2.2,0,0,0-.469-1.564,2.1,2.1,0,0,0-1.559-.486,2.33,2.33,0,0,0-2.145,1.219V77H24.006V64.32Zm15.07,8.543,2.355-8.543h3.539L43.881,77H40.646L36.369,64.32h3.539Zm13.219,4.371a6.225,6.225,0,0,1-4.541-1.711,6.082,6.082,0,0,1-1.752-4.559v-.328a7.66,7.66,0,0,1,.738-3.416A5.418,5.418,0,0,1,52.02,64.9a5.871,5.871,0,0,1,3.088-.814,5.262,5.262,0,0,1,4.1,1.641A6.667,6.667,0,0,1,60.7,70.379v1.383H52.623a3.146,3.146,0,0,0,.99,1.992,2.993,2.993,0,0,0,2.092.75,3.656,3.656,0,0,0,3.059-1.418l1.664,1.863a5.084,5.084,0,0,1-2.062,1.682A6.767,6.767,0,0,1,55.482,77.234ZM55.1,66.816a2.116,2.116,0,0,0-1.635.683,3.535,3.535,0,0,0-.8,1.954h4.711v-.271a2.521,2.521,0,0,0-.609-1.748A2.183,2.183,0,0,0,55.1,66.816ZM69.486,73.5a1.091,1.091,0,0,0-.615-.979,6.989,6.989,0,0,0-1.975-.639q-4.523-.949-4.523-3.844a3.484,3.484,0,0,1,1.4-2.818,5.649,5.649,0,0,1,3.662-1.131A6.08,6.08,0,0,1,71.3,65.223a3.582,3.582,0,0,1,1.447,2.953H69.357a1.639,1.639,0,0,0-.469-1.2,1.984,1.984,0,0,0-1.465-.475,2.027,2.027,0,0,0-1.324.387,1.221,1.221,0,0,0-.469.984,1.044,1.044,0,0,0,.533.908,5.485,5.485,0,0,0,1.8.6,14.692,14.692,0,0,1,2.133.568q2.684.984,2.684,3.41a3.307,3.307,0,0,1-1.488,2.807,6.42,6.42,0,0,1-3.844,1.072,6.706,6.706,0,0,1-2.83-.568,4.748,4.748,0,0,1-1.939-1.559,3.621,3.621,0,0,1-.7-2.139h3.211a1.768,1.768,0,0,0,.668,1.383,2.649,2.649,0,0,0,1.664.48,2.452,2.452,0,0,0,1.471-.369A1.149,1.149,0,0,0,69.486,73.5ZM79.014,61.2V64.32h2.168V66.8H79.014v6.328a1.511,1.511,0,0,0,.27,1.008,1.354,1.354,0,0,0,1.031.3,5.4,5.4,0,0,0,1-.082V76.93a6.972,6.972,0,0,1-2.051.3q-3.562,0-3.633-3.6V66.8H73.775V64.32h1.852V61.2ZM86.643,77h-3.4V64.32h3.4Zm-3.6-15.961a1.668,1.668,0,0,1,.51-1.254,2.2,2.2,0,0,1,2.771,0,1.79,1.79,0,0,1-.006,2.52,2.172,2.172,0,0,1-2.754,0A1.663,1.663,0,0,1,83.045,61.039Zm5.895,9.527a7.431,7.431,0,0,1,1.389-4.7,4.5,4.5,0,0,1,3.744-1.781,3.946,3.946,0,0,1,3.246,1.43l.141-1.2h3.07V76.578a5.419,5.419,0,0,1-.756,2.895,4.854,4.854,0,0,1-2.127,1.875,7.477,7.477,0,0,1-3.211.645,6.953,6.953,0,0,1-2.719-.557,4.825,4.825,0,0,1-2-1.436l1.5-2.062a3.967,3.967,0,0,0,3.07,1.418,2.9,2.9,0,0,0,2.1-.721,2.7,2.7,0,0,0,.75-2.045v-.68a3.917,3.917,0,0,1-3.082,1.324,4.488,4.488,0,0,1-3.7-1.787,7.429,7.429,0,0,1-1.412-4.74Zm3.387.252a4.627,4.627,0,0,0,.691,2.705,2.2,2.2,0,0,0,1.9.98,2.352,2.352,0,0,0,2.215-1.162V68a2.346,2.346,0,0,0-2.191-1.162,2.213,2.213,0,0,0-1.916,1A5.215,5.215,0,0,0,92.326,70.819ZM110.479,77a3.761,3.761,0,0,1-.34-1.137,4.1,4.1,0,0,1-3.2,1.371,4.5,4.5,0,0,1-3.088-1.078,3.467,3.467,0,0,1-1.225-2.719,3.583,3.583,0,0,1,1.494-3.094,7.373,7.373,0,0,1,4.318-1.09H110v-.727a2.089,2.089,0,0,0-.451-1.406,1.775,1.775,0,0,0-1.424-.527,2.018,2.018,0,0,0-1.342.41,1.393,1.393,0,0,0-.486,1.125h-3.387a3.4,3.4,0,0,1,.68-2.039,4.493,4.493,0,0,1,1.922-1.471,7,7,0,0,1,2.789-.533,5.534,5.534,0,0,1,3.721,1.178,4.12,4.12,0,0,1,1.377,3.311v5.5a6.062,6.062,0,0,0,.5,2.73V77Zm-2.8-2.355a2.917,2.917,0,0,0,1.383-.334,2.194,2.194,0,0,0,.938-.9v-2.18h-1.266q-2.543,0-2.707,1.758l-.012.2a1.356,1.356,0,0,0,.445,1.043A1.73,1.73,0,0,0,107.678,74.645Zm13.594-.141a2.221,2.221,0,0,0,1.523-.516,1.807,1.807,0,0,0,.609-1.371h3.176a4.344,4.344,0,0,1-.7,2.361,4.64,4.64,0,0,1-1.893,1.664,5.923,5.923,0,0,1-2.654.592,5.5,5.5,0,0,1-4.289-1.729,6.84,6.84,0,0,1-1.57-4.775v-.223a6.762,6.762,0,0,1,1.559-4.676,5.441,5.441,0,0,1,4.277-1.746,5.333,5.333,0,0,1,3.814,1.354,4.792,4.792,0,0,1,1.459,3.6H123.4a2.327,2.327,0,0,0-.609-1.608,2.265,2.265,0,0,0-3.334.244,5,5,0,0,0-.6,2.8v.352a5.063,5.063,0,0,0,.6,2.817A2.065,2.065,0,0,0,121.271,74.5ZM132.088,77h-3.4V64.32h3.4Zm-3.6-15.961a1.668,1.668,0,0,1,.51-1.254,2.2,2.2,0,0,1,2.771,0,1.79,1.79,0,0,1-.006,2.52,2.172,2.172,0,0,1-2.754,0A1.663,1.663,0,0,1,128.49,61.039Zm5.859,9.5a7.52,7.52,0,0,1,.727-3.363,5.319,5.319,0,0,1,2.092-2.285,6.1,6.1,0,0,1,3.17-.809,5.774,5.774,0,0,1,4.189,1.57,6.3,6.3,0,0,1,1.811,4.266l.023.867a6.627,6.627,0,0,1-1.629,4.682,6.313,6.313,0,0,1-8.748.006A6.744,6.744,0,0,1,134.35,70.7Zm3.387.24a4.74,4.74,0,0,0,.68,2.764,2.442,2.442,0,0,0,3.867.012,5.186,5.186,0,0,0,.691-3.022,4.692,4.692,0,0,0-.691-2.746,2.248,2.248,0,0,0-1.945-.974,2.211,2.211,0,0,0-1.922.968A5.274,5.274,0,0,0,137.736,70.783ZM141.006,59H144.7l-3.246,3.633H138.7Zm10.559,5.32.105,1.465a4.427,4.427,0,0,1,3.645-1.7,3.679,3.679,0,0,1,3,1.184,5.522,5.522,0,0,1,1.008,3.539V77h-3.387V68.891a2.2,2.2,0,0,0-.469-1.564,2.1,2.1,0,0,0-1.559-.486,2.33,2.33,0,0,0-2.145,1.219V77h-3.387V64.32Z" transform="translate(423 3473.592)" fill="#fff"/>
    <path id="Trazado_116541" data-name="Trazado 116541" d="M50.845,18.988V25H47.33V7.938h6.656a7.7,7.7,0,0,1,3.381.7,5.181,5.181,0,0,1,2.244,2,5.571,5.571,0,0,1,.785,2.947,4.9,4.9,0,0,1-1.717,3.955,7.15,7.15,0,0,1-4.752,1.447Zm0-2.848h3.141a3.088,3.088,0,0,0,2.127-.656,2.387,2.387,0,0,0,.732-1.875,2.814,2.814,0,0,0-.738-2.027,2.758,2.758,0,0,0-2.039-.8H50.845ZM66.162,25h-3.4V7h3.4ZM76.3,25a3.761,3.761,0,0,1-.34-1.137,4.1,4.1,0,0,1-3.2,1.371,4.5,4.5,0,0,1-3.088-1.078,3.467,3.467,0,0,1-1.225-2.719,3.583,3.583,0,0,1,1.494-3.094,7.373,7.373,0,0,1,4.318-1.09h1.559v-.727a2.089,2.089,0,0,0-.451-1.406,1.775,1.775,0,0,0-1.424-.527A2.018,2.018,0,0,0,72.6,15a1.393,1.393,0,0,0-.486,1.125H68.728a3.4,3.4,0,0,1,.68-2.039,4.493,4.493,0,0,1,1.922-1.471,7,7,0,0,1,2.789-.533,5.534,5.534,0,0,1,3.721,1.178,4.12,4.12,0,0,1,1.377,3.311v5.5a6.062,6.062,0,0,0,.5,2.73V25Zm-2.8-2.355a2.917,2.917,0,0,0,1.383-.334,2.194,2.194,0,0,0,.938-.9v-2.18H74.552q-2.543,0-2.707,1.758l-.012.2a1.356,1.356,0,0,0,.445,1.043A1.73,1.73,0,0,0,73.5,22.645ZM84.935,12.32l.105,1.465a4.427,4.427,0,0,1,3.645-1.7,3.679,3.679,0,0,1,3,1.184,5.522,5.522,0,0,1,1.008,3.539V25H89.306V16.891a2.2,2.2,0,0,0-.469-1.564,2.1,2.1,0,0,0-1.559-.486,2.33,2.33,0,0,0-2.145,1.219V25H81.748V12.32Zm15.773,6.246a7.641,7.641,0,0,1,1.33-4.723,4.316,4.316,0,0,1,3.639-1.758,3.884,3.884,0,0,1,3.059,1.383V7h3.4V25h-3.059l-.164-1.348a3.985,3.985,0,0,1-3.258,1.582,4.3,4.3,0,0,1-3.592-1.764A7.887,7.887,0,0,1,100.709,18.566Zm3.387.252a5.005,5.005,0,0,0,.621,2.735,2.023,2.023,0,0,0,1.8.951,2.266,2.266,0,0,0,2.215-1.326V16.166a2.234,2.234,0,0,0-2.191-1.326Q104.1,14.84,104.1,18.819Zm16.5,6.416a6.225,6.225,0,0,1-4.541-1.711,6.082,6.082,0,0,1-1.752-4.559v-.328a7.66,7.66,0,0,1,.738-3.416,5.418,5.418,0,0,1,2.092-2.32,5.871,5.871,0,0,1,3.088-.814,5.262,5.262,0,0,1,4.1,1.641,6.667,6.667,0,0,1,1.494,4.652v1.383h-8.074a3.146,3.146,0,0,0,.99,1.992,2.993,2.993,0,0,0,2.092.75,3.656,3.656,0,0,0,3.059-1.418l1.664,1.863a5.084,5.084,0,0,1-2.062,1.682A6.767,6.767,0,0,1,120.6,25.234Zm-.387-10.418a2.116,2.116,0,0,0-1.635.683,3.535,3.535,0,0,0-.8,1.954h4.711v-.271a2.521,2.521,0,0,0-.609-1.748A2.183,2.183,0,0,0,120.209,14.816ZM39.133,38.32l.105,1.418a4.456,4.456,0,0,1,3.645-1.652,3.382,3.382,0,0,1,3.363,1.934,4.354,4.354,0,0,1,3.809-1.934,3.782,3.782,0,0,1,3.07,1.2A5.521,5.521,0,0,1,54.133,42.9V51h-3.4V42.914a2.414,2.414,0,0,0-.422-1.576,1.87,1.87,0,0,0-1.488-.5,2.114,2.114,0,0,0-2.109,1.453L46.726,51H43.34V42.926a2.385,2.385,0,0,0-.434-1.594,1.888,1.888,0,0,0-1.477-.492,2.195,2.195,0,0,0-2.086,1.2V51H35.957V38.32Zm25.2,11.391a4.247,4.247,0,0,1-3.469,1.523,4.005,4.005,0,0,1-3.111-1.172,5,5,0,0,1-1.1-3.434V38.32h3.387v8.2q0,1.983,1.8,1.983a2.445,2.445,0,0,0,2.367-1.2V38.32h3.4V51H64.422ZM76,51.234a6.225,6.225,0,0,1-4.541-1.711,6.082,6.082,0,0,1-1.752-4.559v-.328a7.66,7.66,0,0,1,.738-3.416,5.418,5.418,0,0,1,2.092-2.32,5.871,5.871,0,0,1,3.088-.814,5.262,5.262,0,0,1,4.1,1.641,6.667,6.667,0,0,1,1.494,4.652v1.383H73.14a3.146,3.146,0,0,0,.99,1.992,2.993,2.993,0,0,0,2.092.75,3.656,3.656,0,0,0,3.059-1.418l1.664,1.863a5.084,5.084,0,0,1-2.062,1.682A6.767,6.767,0,0,1,76,51.234Zm-.387-10.418a2.116,2.116,0,0,0-1.635.683,3.535,3.535,0,0,0-.8,1.954h4.711v-.271a2.521,2.521,0,0,0-.609-1.748A2.183,2.183,0,0,0,75.613,40.816ZM90,47.5a1.091,1.091,0,0,0-.615-.979,6.989,6.989,0,0,0-1.975-.639q-4.523-.949-4.523-3.844a3.484,3.484,0,0,1,1.4-2.818,5.649,5.649,0,0,1,3.662-1.131,6.08,6.08,0,0,1,3.861,1.137,3.582,3.582,0,0,1,1.447,2.953H89.875a1.639,1.639,0,0,0-.469-1.2,1.984,1.984,0,0,0-1.465-.475,2.027,2.027,0,0,0-1.324.387,1.221,1.221,0,0,0-.469.984,1.044,1.044,0,0,0,.533.908,5.485,5.485,0,0,0,1.8.6,14.692,14.692,0,0,1,2.133.568q2.684.984,2.684,3.41a3.307,3.307,0,0,1-1.488,2.807,6.42,6.42,0,0,1-3.844,1.072,6.706,6.706,0,0,1-2.83-.568A4.748,4.748,0,0,1,83.2,49.107a3.621,3.621,0,0,1-.7-2.139H85.7a1.768,1.768,0,0,0,.668,1.383,2.649,2.649,0,0,0,1.664.48,2.452,2.452,0,0,0,1.471-.369A1.149,1.149,0,0,0,90,47.5ZM99.531,35.2V38.32H101.7V40.8H99.531v6.328a1.511,1.511,0,0,0,.27,1.008,1.354,1.354,0,0,0,1.031.3,5.4,5.4,0,0,0,1-.082V50.93a6.972,6.972,0,0,1-2.051.3q-3.562,0-3.633-3.6V40.8H94.293V38.32h1.852V35.2Zm11.18,6.293a9.2,9.2,0,0,0-1.219-.094,2.481,2.481,0,0,0-2.52,1.3V51h-3.387V38.32h3.2l.094,1.512a3.138,3.138,0,0,1,2.824-1.746,3.549,3.549,0,0,1,1.055.152Zm7.465,9.738a6.225,6.225,0,0,1-4.541-1.711,6.082,6.082,0,0,1-1.752-4.559v-.328a7.66,7.66,0,0,1,.738-3.416,5.418,5.418,0,0,1,2.092-2.32,5.871,5.871,0,0,1,3.088-.814,5.262,5.262,0,0,1,4.1,1.641,6.667,6.667,0,0,1,1.494,4.652v1.383h-8.074a3.146,3.146,0,0,0,.99,1.992,2.993,2.993,0,0,0,2.092.75,3.656,3.656,0,0,0,3.059-1.418l1.664,1.863a5.084,5.084,0,0,1-2.062,1.682A6.767,6.767,0,0,1,118.176,51.234Zm-.387-10.418a2.116,2.116,0,0,0-1.635.683,3.535,3.535,0,0,0-.8,1.954h4.711v-.271a2.521,2.521,0,0,0-.609-1.748A2.183,2.183,0,0,0,117.789,40.816Zm7,3.727a7.52,7.52,0,0,1,.727-3.363,5.319,5.319,0,0,1,2.092-2.285,6.1,6.1,0,0,1,3.17-.809,5.774,5.774,0,0,1,4.189,1.57,6.3,6.3,0,0,1,1.811,4.266l.023.867a6.627,6.627,0,0,1-1.629,4.682,6.313,6.313,0,0,1-8.748.006,6.744,6.744,0,0,1-1.635-4.781Zm3.387.24a4.74,4.74,0,0,0,.68,2.764,2.442,2.442,0,0,0,3.867.012,5.186,5.186,0,0,0,.691-3.022,4.692,4.692,0,0,0-.691-2.746,2.248,2.248,0,0,0-1.945-.974,2.211,2.211,0,0,0-1.922.968A5.274,5.274,0,0,0,128.172,44.783Z" transform="translate(713.122 3478.592)" fill="#12263f"/>
    <path id="Trazado_116542" data-name="Trazado 116542" d="M24.742,10.785H19.515V25H16V10.785H10.843V7.938h13.9Zm7.617,14.449a6.225,6.225,0,0,1-4.541-1.711,6.082,6.082,0,0,1-1.752-4.559v-.328a7.66,7.66,0,0,1,.738-3.416A5.418,5.418,0,0,1,28.9,12.9a5.871,5.871,0,0,1,3.088-.814,5.262,5.262,0,0,1,4.1,1.641,6.667,6.667,0,0,1,1.494,4.652v1.383H29.5a3.146,3.146,0,0,0,.99,1.992,2.993,2.993,0,0,0,2.092.75,3.656,3.656,0,0,0,3.059-1.418L37.3,22.949a5.084,5.084,0,0,1-2.062,1.682A6.767,6.767,0,0,1,32.359,25.234Zm-.387-10.418a2.116,2.116,0,0,0-1.635.683,3.535,3.535,0,0,0-.8,1.954h4.711v-.271a2.521,2.521,0,0,0-.609-1.748A2.183,2.183,0,0,0,31.972,14.816ZM32.277,7h3.691l-3.246,3.633H29.968ZM44.769,22.5a2.221,2.221,0,0,0,1.523-.516,1.807,1.807,0,0,0,.609-1.371h3.176a4.344,4.344,0,0,1-.7,2.361,4.64,4.64,0,0,1-1.893,1.664,5.923,5.923,0,0,1-2.654.592,5.5,5.5,0,0,1-4.289-1.729,6.84,6.84,0,0,1-1.57-4.775v-.223a6.762,6.762,0,0,1,1.559-4.676A5.441,5.441,0,0,1,44.8,12.086a5.333,5.333,0,0,1,3.814,1.354,4.792,4.792,0,0,1,1.459,3.6H46.9a2.327,2.327,0,0,0-.609-1.608,2.265,2.265,0,0,0-3.334.244,5,5,0,0,0-.6,2.8v.352a5.063,5.063,0,0,0,.6,2.817A2.065,2.065,0,0,0,44.769,22.5ZM55.129,12.32l.105,1.465a4.427,4.427,0,0,1,3.645-1.7,3.679,3.679,0,0,1,3,1.184,5.522,5.522,0,0,1,1.008,3.539V25H59.5V16.891a2.2,2.2,0,0,0-.469-1.564,2.1,2.1,0,0,0-1.559-.486,2.33,2.33,0,0,0-2.145,1.219V25H51.941V12.32ZM69.027,25h-3.4V12.32h3.4Zm-3.6-15.961a1.668,1.668,0,0,1,.51-1.254,2.2,2.2,0,0,1,2.771,0,1.658,1.658,0,0,1,.516,1.254A1.663,1.663,0,0,1,68.7,10.3a2.172,2.172,0,0,1-2.754,0A1.663,1.663,0,0,1,65.429,9.039ZM77.09,22.5a2.221,2.221,0,0,0,1.523-.516,1.807,1.807,0,0,0,.609-1.371H82.4a4.344,4.344,0,0,1-.7,2.361A4.64,4.64,0,0,1,79.8,24.643a5.923,5.923,0,0,1-2.654.592,5.5,5.5,0,0,1-4.289-1.729,6.84,6.84,0,0,1-1.57-4.775v-.223a6.762,6.762,0,0,1,1.559-4.676,5.441,5.441,0,0,1,4.277-1.746,5.333,5.333,0,0,1,3.814,1.354,4.792,4.792,0,0,1,1.459,3.6H79.222a2.327,2.327,0,0,0-.609-1.608,2.265,2.265,0,0,0-3.334.244,5,5,0,0,0-.6,2.8v.352a5.063,5.063,0,0,0,.6,2.817A2.065,2.065,0,0,0,77.09,22.5ZM91.679,25a3.761,3.761,0,0,1-.34-1.137,4.1,4.1,0,0,1-3.2,1.371,4.5,4.5,0,0,1-3.088-1.078,3.467,3.467,0,0,1-1.225-2.719,3.583,3.583,0,0,1,1.494-3.094,7.373,7.373,0,0,1,4.318-1.09H91.2v-.727a2.089,2.089,0,0,0-.451-1.406,1.775,1.775,0,0,0-1.424-.527,2.018,2.018,0,0,0-1.342.41,1.393,1.393,0,0,0-.486,1.125H84.109a3.4,3.4,0,0,1,.68-2.039,4.493,4.493,0,0,1,1.922-1.471,7,7,0,0,1,2.789-.533,5.534,5.534,0,0,1,3.721,1.178A4.12,4.12,0,0,1,94.6,16.574v5.5a6.062,6.062,0,0,0,.5,2.73V25Zm-2.8-2.355a2.917,2.917,0,0,0,1.383-.334,2.194,2.194,0,0,0,.938-.9v-2.18H89.933q-2.543,0-2.707,1.758l-.012.2a1.356,1.356,0,0,0,.445,1.043A1.73,1.73,0,0,0,88.879,22.645ZM104.066,21.5a1.091,1.091,0,0,0-.615-.979,6.989,6.989,0,0,0-1.975-.639q-4.523-.949-4.523-3.844a3.484,3.484,0,0,1,1.4-2.818,5.649,5.649,0,0,1,3.662-1.131,6.08,6.08,0,0,1,3.861,1.137,3.582,3.582,0,0,1,1.447,2.953h-3.387a1.639,1.639,0,0,0-.469-1.2A1.984,1.984,0,0,0,102,14.5a2.027,2.027,0,0,0-1.324.387,1.221,1.221,0,0,0-.469.984,1.044,1.044,0,0,0,.533.908,5.485,5.485,0,0,0,1.8.6,14.692,14.692,0,0,1,2.133.568q2.684.984,2.684,3.41a3.307,3.307,0,0,1-1.488,2.807,6.42,6.42,0,0,1-3.844,1.072,6.706,6.706,0,0,1-2.83-.568,4.748,4.748,0,0,1-1.939-1.559,3.621,3.621,0,0,1-.7-2.139h3.211a1.768,1.768,0,0,0,.668,1.383,2.649,2.649,0,0,0,1.664.48,2.452,2.452,0,0,0,1.471-.369A1.149,1.149,0,0,0,104.066,21.5Zm22.863-2.719a7.6,7.6,0,0,1-1.33,4.693,4.264,4.264,0,0,1-3.592,1.764A3.95,3.95,0,0,1,118.9,23.9v5.977h-3.387V12.32h3.141l.117,1.242a3.98,3.98,0,0,1,3.211-1.477,4.294,4.294,0,0,1,3.645,1.734,7.811,7.811,0,0,1,1.3,4.781Zm-3.387-.246a4.99,4.99,0,0,0-.627-2.73,2.042,2.042,0,0,0-1.822-.961,2.218,2.218,0,0,0-2.191,1.219V21.25a2.255,2.255,0,0,0,2.215,1.254Q123.543,22.5,123.543,18.531ZM136.375,25a3.761,3.761,0,0,1-.34-1.137,4.1,4.1,0,0,1-3.2,1.371,4.5,4.5,0,0,1-3.088-1.078,3.467,3.467,0,0,1-1.225-2.719,3.583,3.583,0,0,1,1.494-3.094,7.373,7.373,0,0,1,4.318-1.09h1.559v-.727a2.089,2.089,0,0,0-.451-1.406,1.775,1.775,0,0,0-1.424-.527,2.018,2.018,0,0,0-1.342.41,1.393,1.393,0,0,0-.486,1.125H128.8a3.4,3.4,0,0,1,.68-2.039,4.493,4.493,0,0,1,1.922-1.471,7,7,0,0,1,2.789-.533,5.534,5.534,0,0,1,3.721,1.178,4.12,4.12,0,0,1,1.377,3.311v5.5a6.062,6.062,0,0,0,.5,2.73V25Zm-2.8-2.355a2.917,2.917,0,0,0,1.383-.334,2.194,2.194,0,0,0,.938-.9v-2.18h-1.266q-2.543,0-2.707,1.758l-.012.2a1.356,1.356,0,0,0,.445,1.043A1.73,1.73,0,0,0,133.574,22.645ZM149.019,15.5A9.2,9.2,0,0,0,147.8,15.4a2.481,2.481,0,0,0-2.52,1.3V25h-3.387V12.32h3.2l.094,1.512a3.138,3.138,0,0,1,2.824-1.746,3.549,3.549,0,0,1,1.055.152Zm8.625,9.5a3.761,3.761,0,0,1-.34-1.137,4.1,4.1,0,0,1-3.2,1.371,4.5,4.5,0,0,1-3.088-1.078,3.467,3.467,0,0,1-1.225-2.719,3.583,3.583,0,0,1,1.494-3.094,7.373,7.373,0,0,1,4.318-1.09h1.559v-.727a2.089,2.089,0,0,0-.451-1.406,1.775,1.775,0,0,0-1.424-.527,2.018,2.018,0,0,0-1.342.41,1.393,1.393,0,0,0-.486,1.125h-3.387a3.4,3.4,0,0,1,.68-2.039,4.493,4.493,0,0,1,1.922-1.471,7,7,0,0,1,2.789-.533,5.534,5.534,0,0,1,3.721,1.178,4.12,4.12,0,0,1,1.377,3.311v5.5a6.062,6.062,0,0,0,.5,2.73V25Zm-2.8-2.355a2.917,2.917,0,0,0,1.383-.334,2.194,2.194,0,0,0,.938-.9v-2.18H155.9q-2.543,0-2.707,1.758l-.012.2a1.356,1.356,0,0,0,.445,1.043A1.73,1.73,0,0,0,154.843,22.645ZM36.566,51.234a6.225,6.225,0,0,1-4.541-1.711,6.082,6.082,0,0,1-1.752-4.559v-.328a7.66,7.66,0,0,1,.738-3.416A5.418,5.418,0,0,1,33.1,38.9a5.871,5.871,0,0,1,3.088-.814,5.262,5.262,0,0,1,4.1,1.641,6.667,6.667,0,0,1,1.494,4.652v1.383H33.707a3.146,3.146,0,0,0,.99,1.992,2.993,2.993,0,0,0,2.092.75,3.656,3.656,0,0,0,3.059-1.418l1.664,1.863a5.084,5.084,0,0,1-2.062,1.682A6.767,6.767,0,0,1,36.566,51.234Zm-.387-10.418a2.116,2.116,0,0,0-1.635.683,3.535,3.535,0,0,0-.8,1.954h4.711v-.271a2.521,2.521,0,0,0-.609-1.748A2.183,2.183,0,0,0,36.179,40.816ZM50.57,47.5a1.091,1.091,0,0,0-.615-.979,6.989,6.989,0,0,0-1.975-.639q-4.523-.949-4.523-3.844a3.484,3.484,0,0,1,1.4-2.818,5.649,5.649,0,0,1,3.662-1.131,6.08,6.08,0,0,1,3.861,1.137,3.582,3.582,0,0,1,1.447,2.953H50.441a1.639,1.639,0,0,0-.469-1.2,1.984,1.984,0,0,0-1.465-.475,2.027,2.027,0,0,0-1.324.387,1.221,1.221,0,0,0-.469.984,1.044,1.044,0,0,0,.533.908,5.485,5.485,0,0,0,1.8.6,14.692,14.692,0,0,1,2.133.568q2.684.984,2.684,3.41a3.307,3.307,0,0,1-1.488,2.807,6.42,6.42,0,0,1-3.844,1.072,6.706,6.706,0,0,1-2.83-.568,4.748,4.748,0,0,1-1.939-1.559,3.621,3.621,0,0,1-.7-2.139h3.211a1.768,1.768,0,0,0,.668,1.383,2.649,2.649,0,0,0,1.664.48,2.452,2.452,0,0,0,1.471-.369A1.149,1.149,0,0,0,50.57,47.5ZM60.1,35.2V38.32h2.168V40.8H60.1v6.328a1.511,1.511,0,0,0,.27,1.008,1.354,1.354,0,0,0,1.031.3,5.4,5.4,0,0,0,1-.082V50.93a6.972,6.972,0,0,1-2.051.3q-3.562,0-3.633-3.6V40.8H54.859V38.32h1.852V35.2ZM71.5,51a3.761,3.761,0,0,1-.34-1.137,4.1,4.1,0,0,1-3.2,1.371,4.5,4.5,0,0,1-3.088-1.078,3.467,3.467,0,0,1-1.225-2.719,3.583,3.583,0,0,1,1.494-3.094,7.373,7.373,0,0,1,4.318-1.09h1.559v-.727a2.089,2.089,0,0,0-.451-1.406,1.775,1.775,0,0,0-1.424-.527A2.018,2.018,0,0,0,67.8,41a1.393,1.393,0,0,0-.486,1.125H63.929a3.4,3.4,0,0,1,.68-2.039,4.493,4.493,0,0,1,1.922-1.471,7,7,0,0,1,2.789-.533,5.534,5.534,0,0,1,3.721,1.178,4.12,4.12,0,0,1,1.377,3.311v5.5a6.062,6.062,0,0,0,.5,2.73V51Zm-2.8-2.355a2.917,2.917,0,0,0,1.383-.334,2.194,2.194,0,0,0,.938-.9v-2.18H69.754q-2.543,0-2.707,1.758l-.012.2a1.356,1.356,0,0,0,.445,1.043A1.73,1.73,0,0,0,68.7,48.645Zm19.746-3.867a7.678,7.678,0,0,1-1.3,4.752,4.309,4.309,0,0,1-3.633,1.705,3.959,3.959,0,0,1-3.293-1.582L80.066,51H77.019V33h3.387v6.457a3.857,3.857,0,0,1,3.082-1.371,4.344,4.344,0,0,1,3.639,1.705,7.689,7.689,0,0,1,1.318,4.8Zm-3.387-.246a5.044,5.044,0,0,0-.609-2.807,2.061,2.061,0,0,0-1.816-.885,2.234,2.234,0,0,0-2.227,1.324v5a2.264,2.264,0,0,0,2.25,1.336,2.091,2.091,0,0,0,2.156-1.617A8.342,8.342,0,0,0,85.058,44.531ZM94.105,51h-3.4V33h3.4Zm8.625.234a6.225,6.225,0,0,1-4.541-1.711,6.082,6.082,0,0,1-1.752-4.559v-.328a7.66,7.66,0,0,1,.738-3.416,5.418,5.418,0,0,1,2.092-2.32,5.871,5.871,0,0,1,3.088-.814,5.262,5.262,0,0,1,4.1,1.641,6.667,6.667,0,0,1,1.494,4.652v1.383H99.871a3.146,3.146,0,0,0,.99,1.992,2.993,2.993,0,0,0,2.092.75,3.656,3.656,0,0,0,3.059-1.418l1.664,1.863a5.084,5.084,0,0,1-2.062,1.682A6.767,6.767,0,0,1,102.73,51.234Zm-.387-10.418a2.116,2.116,0,0,0-1.635.683,3.535,3.535,0,0,0-.8,1.954h4.711v-.271a2.521,2.521,0,0,0-.609-1.748A2.183,2.183,0,0,0,102.343,40.816Zm12.8,7.688a2.221,2.221,0,0,0,1.523-.516,1.807,1.807,0,0,0,.609-1.371h3.176a4.344,4.344,0,0,1-.7,2.361,4.64,4.64,0,0,1-1.893,1.664,5.923,5.923,0,0,1-2.654.592,5.5,5.5,0,0,1-4.289-1.729,6.84,6.84,0,0,1-1.57-4.775v-.223a6.762,6.762,0,0,1,1.559-4.676,5.441,5.441,0,0,1,4.277-1.746,5.333,5.333,0,0,1,3.814,1.354,4.792,4.792,0,0,1,1.459,3.6h-3.176a2.327,2.327,0,0,0-.609-1.608,2.265,2.265,0,0,0-3.334.244,5,5,0,0,0-.6,2.8v.352a5.063,5.063,0,0,0,.6,2.817A2.065,2.065,0,0,0,115.14,48.5Zm13.078,2.73a6.225,6.225,0,0,1-4.541-1.711,6.082,6.082,0,0,1-1.752-4.559v-.328a7.66,7.66,0,0,1,.738-3.416,5.418,5.418,0,0,1,2.092-2.32,5.871,5.871,0,0,1,3.088-.814,5.262,5.262,0,0,1,4.1,1.641,6.667,6.667,0,0,1,1.494,4.652v1.383h-8.074a3.146,3.146,0,0,0,.99,1.992,2.993,2.993,0,0,0,2.092.75,3.656,3.656,0,0,0,3.059-1.418l1.664,1.863a5.084,5.084,0,0,1-2.062,1.682A6.767,6.767,0,0,1,128.218,51.234Zm-.387-10.418a2.116,2.116,0,0,0-1.635.683,3.535,3.535,0,0,0-.8,1.954h4.711v-.271a2.521,2.521,0,0,0-.609-1.748A2.183,2.183,0,0,0,127.832,40.816Zm14.648.68a9.2,9.2,0,0,0-1.219-.094,2.481,2.481,0,0,0-2.52,1.3V51h-3.387V38.32h3.2l.094,1.512a3.138,3.138,0,0,1,2.824-1.746,3.549,3.549,0,0,1,1.055.152ZM10.164,74.5a2.221,2.221,0,0,0,1.523-.516,1.807,1.807,0,0,0,.609-1.371h3.176a4.344,4.344,0,0,1-.7,2.361,4.64,4.64,0,0,1-1.893,1.664,5.923,5.923,0,0,1-2.654.592,5.5,5.5,0,0,1-4.289-1.729,6.84,6.84,0,0,1-1.57-4.775v-.223a6.762,6.762,0,0,1,1.559-4.676A5.441,5.441,0,0,1,10.2,64.086a5.333,5.333,0,0,1,3.814,1.354,4.792,4.792,0,0,1,1.459,3.6H12.3a2.327,2.327,0,0,0-.609-1.608,2.032,2.032,0,0,0-1.547-.619,2.04,2.04,0,0,0-1.787.863,5,5,0,0,0-.6,2.8v.352a5.063,5.063,0,0,0,.6,2.817A2.065,2.065,0,0,0,10.164,74.5Zm6.715-3.961a7.52,7.52,0,0,1,.727-3.363A5.319,5.319,0,0,1,19.7,64.895a6.1,6.1,0,0,1,3.17-.809,5.774,5.774,0,0,1,4.189,1.57,6.3,6.3,0,0,1,1.811,4.266l.023.867a6.627,6.627,0,0,1-1.629,4.682,5.662,5.662,0,0,1-4.371,1.764,5.69,5.69,0,0,1-4.377-1.758A6.744,6.744,0,0,1,16.879,70.7Zm3.387.24a4.74,4.74,0,0,0,.68,2.764,2.442,2.442,0,0,0,3.867.012,5.186,5.186,0,0,0,.691-3.022,4.692,4.692,0,0,0-.691-2.746,2.248,2.248,0,0,0-1.945-.974,2.211,2.211,0,0,0-1.922.968A5.274,5.274,0,0,0,20.265,70.783ZM34.093,64.32l.105,1.465a4.427,4.427,0,0,1,3.645-1.7,3.679,3.679,0,0,1,3,1.184,5.522,5.522,0,0,1,1.008,3.539V77H38.465V68.891A2.2,2.2,0,0,0,38,67.326a2.1,2.1,0,0,0-1.559-.486,2.33,2.33,0,0,0-2.145,1.219V77H30.906V64.32ZM48.472,61.2V64.32H50.64V66.8H48.472v6.328a1.511,1.511,0,0,0,.27,1.008,1.354,1.354,0,0,0,1.031.3,5.4,5.4,0,0,0,1-.082V76.93a6.972,6.972,0,0,1-2.051.3q-3.562,0-3.633-3.6V66.8H43.234V64.32h1.852V61.2ZM59.875,77a3.761,3.761,0,0,1-.34-1.137,4.1,4.1,0,0,1-3.2,1.371,4.5,4.5,0,0,1-3.088-1.078,3.467,3.467,0,0,1-1.225-2.719,3.583,3.583,0,0,1,1.494-3.094,7.373,7.373,0,0,1,4.318-1.09h1.559v-.727a2.089,2.089,0,0,0-.451-1.406,1.775,1.775,0,0,0-1.424-.527,2.018,2.018,0,0,0-1.342.41,1.393,1.393,0,0,0-.486,1.125H52.3a3.4,3.4,0,0,1,.68-2.039,4.493,4.493,0,0,1,1.922-1.471,7,7,0,0,1,2.789-.533,5.534,5.534,0,0,1,3.721,1.178,4.12,4.12,0,0,1,1.377,3.311v5.5a6.062,6.062,0,0,0,.5,2.73V77Zm-2.8-2.355a2.917,2.917,0,0,0,1.383-.334,2.194,2.194,0,0,0,.938-.9v-2.18H58.129q-2.543,0-2.707,1.758l-.012.2a1.356,1.356,0,0,0,.445,1.043A1.73,1.73,0,0,0,57.074,74.645ZM70.668,74.5a2.221,2.221,0,0,0,1.523-.516,1.807,1.807,0,0,0,.609-1.371h3.176a4.344,4.344,0,0,1-.7,2.361,4.64,4.64,0,0,1-1.893,1.664,5.923,5.923,0,0,1-2.654.592,5.5,5.5,0,0,1-4.289-1.729,6.84,6.84,0,0,1-1.57-4.775v-.223a6.762,6.762,0,0,1,1.559-4.676A5.441,5.441,0,0,1,70.7,64.086a5.333,5.333,0,0,1,3.814,1.354,4.792,4.792,0,0,1,1.459,3.6H72.8a2.327,2.327,0,0,0-.609-1.608,2.265,2.265,0,0,0-3.334.244,5,5,0,0,0-.6,2.8v.352a5.063,5.063,0,0,0,.6,2.817A2.065,2.065,0,0,0,70.668,74.5Zm11.3-13.3V64.32h2.168V66.8H81.965v6.328a1.511,1.511,0,0,0,.27,1.008,1.354,1.354,0,0,0,1.031.3,5.4,5.4,0,0,0,1-.082V76.93a6.972,6.972,0,0,1-2.051.3q-3.562,0-3.633-3.6V66.8H76.726V64.32h1.852V61.2Zm3.176,9.34a7.52,7.52,0,0,1,.727-3.363,5.319,5.319,0,0,1,2.092-2.285,6.1,6.1,0,0,1,3.17-.809,5.774,5.774,0,0,1,4.189,1.57,6.3,6.3,0,0,1,1.811,4.266l.023.867a6.627,6.627,0,0,1-1.629,4.682,6.313,6.313,0,0,1-8.748.006A6.744,6.744,0,0,1,85.14,70.7Zm3.387.24a4.74,4.74,0,0,0,.68,2.764,2.442,2.442,0,0,0,3.867.012,5.186,5.186,0,0,0,.691-3.022,4.692,4.692,0,0,0-.691-2.746,2.248,2.248,0,0,0-1.945-.974,2.211,2.211,0,0,0-1.922.968A5.274,5.274,0,0,0,88.527,70.783ZM110.488,74.5a2.221,2.221,0,0,0,1.523-.516,1.807,1.807,0,0,0,.609-1.371H115.8a4.344,4.344,0,0,1-.7,2.361,4.64,4.64,0,0,1-1.893,1.664,5.923,5.923,0,0,1-2.654.592,5.5,5.5,0,0,1-4.289-1.729,6.84,6.84,0,0,1-1.57-4.775v-.223a6.762,6.762,0,0,1,1.559-4.676,5.441,5.441,0,0,1,4.277-1.746,5.333,5.333,0,0,1,3.814,1.354,4.792,4.792,0,0,1,1.459,3.6h-3.176a2.327,2.327,0,0,0-.609-1.608,2.265,2.265,0,0,0-3.334.244,5,5,0,0,0-.6,2.8v.352a5.063,5.063,0,0,0,.6,2.817A2.065,2.065,0,0,0,110.488,74.5Zm6.715-3.961a7.52,7.52,0,0,1,.727-3.363,5.319,5.319,0,0,1,2.092-2.285,6.1,6.1,0,0,1,3.17-.809,5.774,5.774,0,0,1,4.189,1.57,6.3,6.3,0,0,1,1.811,4.266l.023.867a6.627,6.627,0,0,1-1.629,4.682,6.313,6.313,0,0,1-8.748.006A6.744,6.744,0,0,1,117.2,70.7Zm3.387.24a4.74,4.74,0,0,0,.68,2.764,2.442,2.442,0,0,0,3.867.012,5.186,5.186,0,0,0,.691-3.022,4.692,4.692,0,0,0-.691-2.746,2.248,2.248,0,0,0-1.945-.974,2.211,2.211,0,0,0-1.922.968A5.274,5.274,0,0,0,120.59,70.783Zm13.828-6.463.105,1.465a4.427,4.427,0,0,1,3.645-1.7,3.679,3.679,0,0,1,3,1.184,5.522,5.522,0,0,1,1.008,3.539V77h-3.387V68.891a2.2,2.2,0,0,0-.469-1.564,2.1,2.1,0,0,0-1.559-.486,2.33,2.33,0,0,0-2.145,1.219V77H131.23V64.32ZM154.293,77h-3.4V59h3.4Zm10.137,0a3.761,3.761,0,0,1-.34-1.137,4.1,4.1,0,0,1-3.2,1.371,4.5,4.5,0,0,1-3.088-1.078,3.467,3.467,0,0,1-1.225-2.719,3.583,3.583,0,0,1,1.494-3.094,7.373,7.373,0,0,1,4.318-1.09h1.559v-.727a2.089,2.089,0,0,0-.451-1.406,1.775,1.775,0,0,0-1.424-.527,2.018,2.018,0,0,0-1.342.41,1.393,1.393,0,0,0-.486,1.125h-3.387a3.4,3.4,0,0,1,.68-2.039,4.493,4.493,0,0,1,1.922-1.471,7,7,0,0,1,2.789-.533,5.534,5.534,0,0,1,3.721,1.178,4.12,4.12,0,0,1,1.377,3.311v5.5a6.062,6.062,0,0,0,.5,2.73V77Zm-2.8-2.355a2.917,2.917,0,0,0,1.383-.334,2.194,2.194,0,0,0,.938-.9v-2.18h-1.266q-2.543,0-2.707,1.758l-.012.2a1.356,1.356,0,0,0,.445,1.043A1.73,1.73,0,0,0,161.629,74.645ZM46.146,90.32l.105,1.418A4.456,4.456,0,0,1,49.9,90.086a3.382,3.382,0,0,1,3.363,1.934,4.354,4.354,0,0,1,3.809-1.934,3.782,3.782,0,0,1,3.07,1.2A5.521,5.521,0,0,1,61.146,94.9V103h-3.4V94.914a2.414,2.414,0,0,0-.422-1.576,1.87,1.87,0,0,0-1.488-.5,2.114,2.114,0,0,0-2.109,1.453L53.74,103H50.353V94.926a2.385,2.385,0,0,0-.434-1.594,1.888,1.888,0,0,0-1.477-.492,2.195,2.195,0,0,0-2.086,1.2V103H42.97V90.32Zm25.2,11.391a4.247,4.247,0,0,1-3.469,1.523,4.005,4.005,0,0,1-3.111-1.172,5,5,0,0,1-1.1-3.434V90.32h3.387v8.2q0,1.983,1.8,1.983a2.445,2.445,0,0,0,2.367-1.2V90.32h3.4V103H71.435Zm11.672,1.523a6.225,6.225,0,0,1-4.541-1.711,6.082,6.082,0,0,1-1.752-4.559v-.328a7.66,7.66,0,0,1,.738-3.416,5.418,5.418,0,0,1,2.092-2.32,5.871,5.871,0,0,1,3.088-.814,5.262,5.262,0,0,1,4.1,1.641,6.667,6.667,0,0,1,1.494,4.652v1.383H80.154a3.146,3.146,0,0,0,.99,1.992,2.993,2.993,0,0,0,2.092.75,3.656,3.656,0,0,0,3.059-1.418l1.664,1.863a5.084,5.084,0,0,1-2.062,1.682A6.767,6.767,0,0,1,83.013,103.234Zm-.387-10.418a2.116,2.116,0,0,0-1.635.683,3.535,3.535,0,0,0-.8,1.954H84.9v-.271a2.521,2.521,0,0,0-.609-1.748A2.183,2.183,0,0,0,82.627,92.816ZM97.017,99.5a1.091,1.091,0,0,0-.615-.979,6.989,6.989,0,0,0-1.975-.639Q89.9,96.93,89.9,94.035a3.484,3.484,0,0,1,1.4-2.818,5.649,5.649,0,0,1,3.662-1.131,6.08,6.08,0,0,1,3.861,1.137,3.582,3.582,0,0,1,1.447,2.953H96.888a1.639,1.639,0,0,0-.469-1.2,1.984,1.984,0,0,0-1.465-.475,2.027,2.027,0,0,0-1.324.387,1.221,1.221,0,0,0-.469.984,1.044,1.044,0,0,0,.533.908,5.485,5.485,0,0,0,1.8.6,14.692,14.692,0,0,1,2.133.568q2.684.984,2.684,3.41a3.307,3.307,0,0,1-1.488,2.807,6.42,6.42,0,0,1-3.844,1.072,6.706,6.706,0,0,1-2.83-.568,4.748,4.748,0,0,1-1.939-1.559,3.621,3.621,0,0,1-.7-2.139h3.211a1.768,1.768,0,0,0,.668,1.383,2.649,2.649,0,0,0,1.664.48,2.452,2.452,0,0,0,1.471-.369A1.149,1.149,0,0,0,97.017,99.5ZM106.545,87.2V90.32h2.168V92.8h-2.168v6.328a1.511,1.511,0,0,0,.27,1.008,1.354,1.354,0,0,0,1.031.3,5.4,5.4,0,0,0,1-.082v2.566a6.972,6.972,0,0,1-2.051.3q-3.562,0-3.633-3.6V92.8h-1.852V90.32h1.852V87.2Zm11.18,6.293a9.2,9.2,0,0,0-1.219-.094,2.481,2.481,0,0,0-2.52,1.3V103H110.6V90.32h3.2l.094,1.512a3.138,3.138,0,0,1,2.824-1.746,3.549,3.549,0,0,1,1.055.152Zm8.625,9.5a3.761,3.761,0,0,1-.34-1.137,4.1,4.1,0,0,1-3.2,1.371,4.5,4.5,0,0,1-3.088-1.078,3.467,3.467,0,0,1-1.225-2.719,3.583,3.583,0,0,1,1.494-3.094,7.373,7.373,0,0,1,4.318-1.09h1.559v-.727a2.089,2.089,0,0,0-.451-1.406,1.775,1.775,0,0,0-1.424-.527,2.018,2.018,0,0,0-1.342.41,1.393,1.393,0,0,0-.486,1.125h-3.387a3.4,3.4,0,0,1,.68-2.039,4.493,4.493,0,0,1,1.922-1.471,7,7,0,0,1,2.789-.533,5.534,5.534,0,0,1,3.721,1.178,4.12,4.12,0,0,1,1.377,3.311v5.5a6.062,6.062,0,0,0,.5,2.73v.2Zm-2.8-2.355a2.917,2.917,0,0,0,1.383-.334,2.194,2.194,0,0,0,.938-.9v-2.18H124.6q-2.543,0-2.707,1.758l-.012.2a1.356,1.356,0,0,0,.445,1.043A1.73,1.73,0,0,0,123.549,100.645Z" transform="translate(998.724 3459.76)" fill="#fff"/>
  </g>
</svg>
