<svg xmlns="http://www.w3.org/2000/svg" xmlns:xlink="http://www.w3.org/1999/xlink" width="610" height="359.468" viewBox="0 0 610 359.468">
  <defs>
    <clipPath id="clip-path">
      <path id="Trazado_114936" data-name="Trazado 114936" d="M63.179,413.327l536.707.129c13.274-29.354,25.591-59.994,27.255-92.1,2.721-52.5-22.434-95.877-70.467-118.351-22-10.292-46.8-15.163-66.626-29.7-7.4-5.426-13.2-12.447-19.01-19.438-31.95-38.42-77.417-68.113-128-76.371-33.483-5.466-68.788-1.7-96.847,18.411-26.256,18.816-40.412,49.333-55.771,76.528-4.266,7.553-8.85,15.17-15.6,20.686-13.41,10.961-28.167,7.475-43.976,7.12-46.416-1.044-90.016,31.94-105.051,74.989C9.364,322.271,15.923,376.976,54,407.424,57.143,409.933,59.806,411.134,63.179,413.327Z" transform="translate(-17.342 -75.232)" fill="#f7f7f7"/>
    </clipPath>
    <linearGradient id="linear-gradient" y1="0.5" x2="1" y2="0.5" gradientUnits="objectBoundingBox">
      <stop offset="0" stop-color="#fff"/>
      <stop offset="1" stop-color="#e8e8e8"/>
    </linearGradient>
    <clipPath id="clip-path-2">
      <path id="Trazado_114953" data-name="Trazado 114953" d="M248.206,232.576c-4.779.967-7.434,7.777-5.93,15.211l1.323,6.541a43.986,43.986,0,0,1,.865,7.888l.18,9.565,11.034-2.27L253.652,259.5c4.779-.967,7.434-7.777,5.93-15.211S252.985,231.609,248.206,232.576Z" transform="translate(-241.855 -232.461)" fill="#61b5f6"/>
    </clipPath>
    <clipPath id="clip-path-3">
      <path id="Trazado_114957" data-name="Trazado 114957" d="M261.829,318.494l-19.9-18.548a27.338,27.338,0,0,0-18.639-7.339h-18.1q-.324,0-.647.007a23.879,23.879,0,0,0-21.053,14.079l-9.766,21.442,15.264,9.172L186.746,355.7h52.91l-2.374-26.75,7.8,7.881Z" transform="translate(-173.726 -292.607)" fill="#fcf438"/>
    </clipPath>
    <clipPath id="clip-path-4">
      <path id="Trazado_114962" data-name="Trazado 114962" d="M223.639,290.019l-72.4-72.4-19.947,19.947,72.4,72.4,19.947,19.947,19.947-19.947,27.631-27.631L251.27,262.388Z" transform="translate(-131.289 -217.616)" fill="#b868c8"/>
    </clipPath>
    <clipPath id="clip-path-5">
      <path id="Trazado_114965" data-name="Trazado 114965" d="M185.91,369.93l-14.23-8.368-2.8,9.384s-3.952,13.062,1.913,17.648c5.977,4.675,58.954-14.146,58.954-14.146l.691-7.174Z" transform="translate(-167.579 -361.562)" fill="#61b5f6"/>
    </clipPath>
    <clipPath id="clip-path-6">
      <path id="Trazado_114980" data-name="Trazado 114980" d="M1004.8,244.085c4.779.966,7.434,7.777,5.93,15.211l-1.323,6.541a43.925,43.925,0,0,0-.865,7.888l-.18,9.565-11.034-2.27,2.026-10.014c-4.779-.967-7.434-7.777-5.931-15.211S1000.023,243.118,1004.8,244.085Z" transform="translate(-993.005 -243.97)" fill="#68b2f4"/>
    </clipPath>
    <clipPath id="clip-path-7">
      <path id="Trazado_114986" data-name="Trazado 114986" d="M1081.147,640.169l-8-23.964-17.756,6.331,13.271,23.231Z" transform="translate(-1055.389 -616.205)" fill="#68b2f4"/>
    </clipPath>
    <clipPath id="clip-path-8">
      <path id="Trazado_114989" data-name="Trazado 114989" d="M1004.977,661.726l2.552-25.135-18.789-1.525,2.552,26.632Z" transform="translate(-988.739 -635.066)" fill="#68b2f4"/>
    </clipPath>
    <clipPath id="clip-path-9">
      <path id="Trazado_114992" data-name="Trazado 114992" d="M1010.642,371.67l-8.829-53.813a12.742,12.742,0,0,0-8.12-9.877c-1.621,3.849-5.2,5.771-8.145,6.725a12.075,12.075,0,0,1-10.453-1.373,9.594,9.594,0,0,1-4.1-5.48,12.745,12.745,0,0,0-8.57,10.669L956.56,371.67s-6.677,50.117-6.664,63.075c.008,8.256,7.586,50.617,7.586,50.617s55.952-2.908,79.59-17.709C1037.072,467.653,1014.248,393.647,1010.642,371.67Z" transform="translate(-949.896 -307.852)" fill="#fcf438"/>
    </clipPath>
    <clipPath id="clip-path-10">
      <path id="Trazado_114995" data-name="Trazado 114995" d="M994.347,312.717a12.074,12.074,0,0,0,10.453,1.373c2.948-.954,6.524-2.876,8.145-6.725a12.713,12.713,0,0,0-4.454-.8H994.347a12.727,12.727,0,0,0-4.095.674A9.6,9.6,0,0,0,994.347,312.717Z" transform="translate(-990.252 -306.563)" fill="#68b2f4"/>
    </clipPath>
    <clipPath id="clip-path-11">
      <path id="Trazado_115000" data-name="Trazado 115000" d="M935.455,373.086l-2.809,13.232-15.824,38.4s-7.809,6.094-7.438,6.713,4.33-1.856,5.2,0-5.469,9.649-5.209,10.143,8.8,1.856,10.281,0,3.821-13.847,3.821-13.847l16.047-27.32,5.356-21.886Z" transform="translate(-909.363 -373.086)" fill="#68b2f4"/>
    </clipPath>
    <clipPath id="clip-path-12">
      <path id="Trazado_115004" data-name="Trazado 115004" d="M1014.821,342.923l-33.537-19.345,19.345-33.537-21.947-12.66-19.345,33.537L925.8,291.574l-12.66,21.947,33.537,19.345L927.333,366.4l21.947,12.66,19.345-33.537,33.537,19.345Z" transform="translate(-913.141 -277.382)" fill="#954bc6"/>
    </clipPath>
    <clipPath id="clip-path-13">
      <path id="Trazado_115007" data-name="Trazado 115007" d="M1029.07,348.33l-7.814-21.829-8.691,15.067,3.1,8.081-28.21,24.9c-1.478.075-11.915.643-11.437,1.6.516,1.031,6.032-.515,5.8,1.546s-10.023,5.255-9.714,5.976,8.243,4.225,10.1,3.813,11.043-9.442,11.043-9.442l-.01-.006c4.038-2.317,14.978-8.643,24.274-14.438.686-.427,8.12-5.171,8.12-5.171A8.564,8.564,0,0,0,1029.07,348.33Z" transform="translate(-972.097 -326.501)" fill="#68b2f4"/>
    </clipPath>
  </defs>
  <g id="Grupo_82195" data-name="Grupo 82195" transform="translate(-265 -4270.74)">
    <g id="Grupo_81821" data-name="Grupo 81821" transform="translate(265 4291.984)">
      <path id="Trazado_114932" data-name="Trazado 114932" d="M63.179,413.327l536.707.129c13.274-29.354,25.591-59.994,27.255-92.1,2.721-52.5-22.434-95.877-70.467-118.351-22-10.292-46.8-15.163-66.626-29.7-7.4-5.426-13.2-12.447-19.01-19.438-31.95-38.42-77.417-68.113-128-76.371-33.483-5.466-68.788-1.7-96.847,18.411-26.256,18.816-40.412,49.333-55.771,76.528-4.266,7.553-8.85,15.17-15.6,20.686-13.41,10.961-28.167,7.475-43.976,7.12-46.416-1.044-90.016,31.94-105.051,74.989C9.364,322.271,15.923,376.976,54,407.424,57.143,409.933,59.806,411.134,63.179,413.327Z" transform="translate(-17.342 -75.232)" fill="#f7f7f7"/>
      <g id="Grupo_81820" data-name="Grupo 81820" clip-path="url(#clip-path)">
        <path id="Trazado_114933" data-name="Trazado 114933" d="M1015.539,460.994s-36.962,49.761-32.208,90.293c0,0,1.8-75.358-5.1-102.153,0,0-21.284,49.662-16.947,80,0,0-18.06-44.115-47.881-61.084h0s9.541,70.3,35,91.652c0,0-31.243-40.044-76.367-53.5,0,0,2.988,39.6,48.551,57.473,0,0-31.677-11.559-89.471-6.83,0,0,19.44,29.139,56.218,35.06h131.351S1031.307,485.463,1015.539,460.994Z" transform="translate(-405.539 -253.596)" fill="url(#linear-gradient)"/>
        <path id="Trazado_114934" data-name="Trazado 114934" d="M5.266,553.256s30.731,18.073,51.98,46.8c0,0-25.5-52.353-5.885-94.2,0,0,19.615,55.9,20.269,87.941,0,0-4.345-53.941,27.577-77.48,0,0-1.854,46.264-8.394,69.307,0,0,12.4-39.815,59.867-46.388,0,0-20.237,44.142-40.324,56.707,0,0,15.542-15.55,63.925-19.473,0,0-18.178,29.063-53.412,30.935,0,0,44.585-6.089,68.123,14.507H48.092S13.112,578.1,5.266,553.256Z" transform="translate(-11.581 -280.652)" fill="#d1d1d1"/>
        <path id="Trazado_114935" data-name="Trazado 114935" d="M678.64,174.382V413.172H440.179V104.306H678.64Z" transform="translate(-219.049 -89.101)" fill="#d1d1d1"/>
      </g>
    </g>
    <g id="Grupo_81828" data-name="Grupo 81828" transform="translate(473.362 4270.74)">
      <rect id="Rectángulo_33963" data-name="Rectángulo 33963" width="241.742" height="337.103" fill="#e8e8e8"/>
      <g id="Grupo_81822" data-name="Grupo 81822" transform="translate(19.463 21.407)">
        <path id="Trazado_114937" data-name="Trazado 114937" d="M538.483,156.828h-85.5V75.544h85.5Zm-77.5-8h69.507V83.541H460.979Z" transform="translate(-452.982 -75.544)" fill="#fff"/>
      </g>
      <path id="Trazado_114938" data-name="Trazado 114938" d="M515.723,106.061l47.235-47.235,13.013,13.013-47.235,47.235-13.013,13.013L502.71,119.074l-18.026-18.026L497.7,88.035Z" transform="translate(-448.641 -46.162)" fill="#dbb3e3"/>
      <g id="Grupo_81823" data-name="Grupo 81823" transform="translate(127.33 39.116)">
        <rect id="Rectángulo_33964" data-name="Rectángulo 33964" width="92.284" height="12.958" rx="0.974" fill="#fff"/>
        <rect id="Rectángulo_33965" data-name="Rectángulo 33965" width="92.284" height="12.958" rx="0.974" transform="translate(0 22.933)" fill="#fff"/>
        <rect id="Rectángulo_33966" data-name="Rectángulo 33966" width="51.96" height="12.958" rx="0.731" transform="translate(0 45.866)" fill="#fff"/>
      </g>
      <g id="Grupo_81824" data-name="Grupo 81824" transform="translate(19.463 127.306)">
        <path id="Trazado_114939" data-name="Trazado 114939" d="M538.483,359.325h-85.5V278.041h85.5Zm-77.5-8h69.507V286.039H460.979Z" transform="translate(-452.982 -278.041)" fill="#fff"/>
      </g>
      <g id="Grupo_81825" data-name="Grupo 81825" transform="translate(127.33 145.015)">
        <rect id="Rectángulo_33967" data-name="Rectángulo 33967" width="92.284" height="12.958" rx="0.974" fill="#fff"/>
        <rect id="Rectángulo_33968" data-name="Rectángulo 33968" width="92.284" height="12.958" rx="0.974" transform="translate(0 22.933)" fill="#fff"/>
        <rect id="Rectángulo_33969" data-name="Rectángulo 33969" width="51.96" height="12.958" rx="0.731" transform="translate(0 45.866)" fill="#fff"/>
      </g>
      <g id="Grupo_81826" data-name="Grupo 81826" transform="translate(19.463 233.206)">
        <path id="Trazado_114940" data-name="Trazado 114940" d="M538.483,561.822h-85.5V480.539h85.5Zm-77.5-8h69.507V488.536H460.979Z" transform="translate(-452.982 -480.539)" fill="#fff"/>
      </g>
      <g id="Grupo_81827" data-name="Grupo 81827" transform="translate(127.33 250.915)">
        <rect id="Rectángulo_33970" data-name="Rectángulo 33970" width="92.284" height="12.958" rx="0.974" fill="#fff"/>
        <rect id="Rectángulo_33971" data-name="Rectángulo 33971" width="92.284" height="12.958" rx="0.974" transform="translate(0 22.933)" fill="#fff"/>
        <rect id="Rectángulo_33972" data-name="Rectángulo 33972" width="51.96" height="12.958" rx="0.731" transform="translate(0 45.866)" fill="#fff"/>
      </g>
    </g>
    <g id="Grupo_81841" data-name="Grupo 81841" transform="translate(324.591 4366.446)">
      <g id="Grupo_81829" data-name="Grupo 81829" transform="translate(0.879 224.103)">
        <path id="Trazado_114941" data-name="Trazado 114941" d="M163.11,654.839l-1.915,4.273L175.217,673.5a8.315,8.315,0,0,1,1.633,9.2h0l-41.256-18.493,8.1-18.075Z" transform="translate(-134.222 -646.137)" fill="#6433cb"/>
        <path id="Trazado_114942" data-name="Trazado 114942" d="M160.163,671.649a3.76,3.76,0,1,1-1.893-4.969A3.761,3.761,0,0,1,160.163,671.649Z" transform="translate(-142.511 -655.779)" fill="#4a1ca3"/>
        <path id="Trazado_114943" data-name="Trazado 114943" d="M184.919,674.262l-2.654,2.191a1.326,1.326,0,0,0-.138,1.915h0a1.326,1.326,0,0,0,1.791.159l2.946-2.268Z" transform="translate(-156.255 -659.553)" fill="#4a1ca3"/>
        <path id="Trazado_114944" data-name="Trazado 114944" d="M191.456,680.992l-2.654,2.19a1.327,1.327,0,0,0-.138,1.915h0a1.327,1.327,0,0,0,1.791.159l2.946-2.268Z" transform="translate(-159.374 -662.764)" fill="#4a1ca3"/>
        <path id="Trazado_114945" data-name="Trazado 114945" d="M198.857,688.579l-2.654,2.19a1.327,1.327,0,0,0-.138,1.915h0a1.327,1.327,0,0,0,1.791.159l2.946-2.268Z" transform="translate(-162.904 -666.383)" fill="#4a1ca3"/>
        <rect id="Rectángulo_33973" data-name="Rectángulo 33973" width="3.356" height="45.211" transform="translate(0 21.137) rotate(-65.855)" fill="#4a1ca3"/>
      </g>
      <path id="Trazado_114946" data-name="Trazado 114946" d="M221.566,413.252H175.587l-7.162,61.817a62.693,62.693,0,0,1-5.893,20.195l-19.638,40.393L172.67,546.6l18.624-46.3a32.209,32.209,0,0,0,2.268-10.059l3.723-61.017.736,122.263h29.733Z" transform="translate(-136.825 -310.941)" fill="#4a1ca3"/>
      <g id="Grupo_81830" data-name="Grupo 81830" transform="translate(64.809 240.548)">
        <path id="Trazado_114947" data-name="Trazado 114947" d="M276.491,677.583v4.682l18.68,7.394a8.315,8.315,0,0,1,5.255,7.732H255.216V677.583Z" transform="translate(-255.216 -677.583)" fill="#6433cb"/>
        <circle id="Elipse_4911" data-name="Elipse 4911" cx="3.76" cy="3.76" r="3.76" transform="matrix(0.228, -0.974, 0.974, 0.228, 5.675, 13.941)" fill="#4a1ca3"/>
        <path id="Trazado_114948" data-name="Trazado 114948" d="M298.685,688.24l-1.525,3.084a1.326,1.326,0,0,0,.657,1.8h0a1.326,1.326,0,0,0,1.7-.587l1.761-3.274Z" transform="translate(-275.159 -682.667)" fill="#4a1ca3"/>
        <path id="Trazado_114949" data-name="Trazado 114949" d="M307.4,691.707l-1.526,3.084a1.327,1.327,0,0,0,.657,1.8h0a1.326,1.326,0,0,0,1.7-.587L310,692.733Z" transform="translate(-279.318 -684.321)" fill="#4a1ca3"/>
        <path id="Trazado_114950" data-name="Trazado 114950" d="M317.26,695.6l-1.526,3.084a1.327,1.327,0,0,0,.658,1.8h0a1.327,1.327,0,0,0,1.7-.587l1.761-3.274Z" transform="translate(-284.019 -686.179)" fill="#4a1ca3"/>
        <rect id="Rectángulo_33974" data-name="Rectángulo 33974" width="45.211" height="3.356" transform="translate(0 19.808)" fill="#4a1ca3"/>
      </g>
      <g id="Grupo_81833" data-name="Grupo 81833" transform="translate(57.822 7.764)">
        <g id="Grupo_81832" data-name="Grupo 81832">
          <path id="Trazado_114951" data-name="Trazado 114951" d="M248.206,232.576c-4.779.967-7.434,7.777-5.93,15.211l1.323,6.541a43.986,43.986,0,0,1,.865,7.888l.18,9.565,11.034-2.27L253.652,259.5c4.779-.967,7.434-7.777,5.93-15.211S252.985,231.609,248.206,232.576Z" transform="translate(-241.855 -232.461)" fill="#fbb473"/>
          <g id="Grupo_81831" data-name="Grupo 81831" clip-path="url(#clip-path-2)">
            <path id="Trazado_114952" data-name="Trazado 114952" d="M264.078,251.146s-7.073-5.337-13.023-4.133l-.531-3.907,13.491,1.63s1.3,5.3.063,6.411" transform="translate(-245.991 -237.539)" fill="#fbb473"/>
          </g>
        </g>
        <path id="Trazado_114954" data-name="Trazado 114954" d="M258.353,280.535s-3.558.177-6.644-3.972c0,0,2,6.265,6.988,5.677Z" transform="translate(-246.556 -253.499)" fill="#ef9644"/>
      </g>
      <g id="Grupo_81835" data-name="Grupo 81835" transform="translate(22.193 39.218)">
        <path id="Trazado_114955" data-name="Trazado 114955" d="M261.829,318.494l-19.9-18.548a27.338,27.338,0,0,0-18.639-7.339h-18.1q-.324,0-.647.007a23.879,23.879,0,0,0-21.053,14.079l-9.766,21.442,15.264,9.172L186.746,355.7h52.91l-2.374-26.75,7.8,7.881Z" transform="translate(-173.726 -292.607)" fill="#fcf438"/>
        <g id="Grupo_81834" data-name="Grupo 81834" clip-path="url(#clip-path-3)">
          <path id="Trazado_114956" data-name="Trazado 114956" d="M173.519,332.793s11.31,19.466,12.338,18.232,4.936-17.274,4.936-17.274L236.445,379.2l-3.75,1.227H169.9l-4.2-34.541Z" transform="translate(-169.899 -311.777)" fill="#cfc832"/>
        </g>
      </g>
      <path id="Trazado_114958" data-name="Trazado 114958" d="M252.174,223.323c-6.1-3.077-10.4,3.593-10.4,3.593-4.6.228-5.782,2.923-6.18,5.759s5.046,17.078,5.046,17.078l.708-6.516a3.287,3.287,0,0,1-.894-1.719c-.285-1.41.263-2.711,1.224-2.905s1.972.791,2.257,2.2c.024.118.04.235.052.351l.068-.046c.923-.622.744-6.471.744-6.471l18.661.486S259.138,226.833,252.174,223.323Z" transform="translate(-181.034 -219.952)" fill="#4a1ca3"/>
      <g id="Grupo_81837" data-name="Grupo 81837">
        <path id="Trazado_114959" data-name="Trazado 114959" d="M223.639,290.019l-72.4-72.4-19.947,19.947,72.4,72.4,19.947,19.947,19.947-19.947,27.631-27.631L251.27,262.388Z" transform="translate(-131.289 -217.616)" fill="#b868c8"/>
        <g id="Grupo_81836" data-name="Grupo 81836" clip-path="url(#clip-path-4)">
          <path id="Trazado_114960" data-name="Trazado 114960" d="M325.216,401.98s2.018-9.528,3.371-10.656,9.8-3.627,9.8-3.627-5.182,10.9-6.591,11.464-6.585,2.819-6.585,2.819" transform="translate(-223.799 -298.75)" fill="#748"/>
          <path id="Trazado_114961" data-name="Trazado 114961" d="M241.855,365.65s19.13-.01,19.922-.344c.835-.351,5.839-6.011,6.34-4.173.311,1.143-1.048,3.12.679,2.867s8.982-2.123,8.982-2.123-6.191,12.289-8.654,13.195-14.486,5.359-14.72,5.1S241.855,365.65,241.855,365.65Z" transform="translate(-184.033 -285.904)" fill="#748"/>
        </g>
      </g>
      <g id="Grupo_81840" data-name="Grupo 81840" transform="translate(18.978 75.088)">
        <g id="Grupo_81839" data-name="Grupo 81839" transform="translate(0 0.191)">
          <path id="Trazado_114963" data-name="Trazado 114963" d="M185.91,369.93l-14.23-8.368-2.8,9.384s-3.952,13.062,1.913,17.648c5.977,4.675,58.954-14.146,58.954-14.146l.691-7.174Z" transform="translate(-167.579 -361.562)" fill="#fbb473"/>
          <g id="Grupo_81838" data-name="Grupo 81838" clip-path="url(#clip-path-5)">
            <path id="Trazado_114964" data-name="Trazado 114964" d="M185.91,366.834l-18.33,1.374,4.518-13.137,13.812,11.763" transform="translate(-167.579 -358.466)" fill="#fbb473"/>
          </g>
        </g>
        <path id="Trazado_114966" data-name="Trazado 114966" d="M279.848,367.572s5.272-7.488,5.776-6.234-.734,1.713-.541,3.164c.322,2.412,12.358-3.878,12.751-3.046s-1.434,10.6-3.4,11.647c-5.025,2.681-15.878,2.126-15.878,2.126Z" transform="translate(-220.519 -361.196)" fill="#fbb473"/>
      </g>
      <path id="Trazado_114967" data-name="Trazado 114967" d="M342.854,386.716s-8.977,2.764-9.841,3.751-2.005,8.094-1.82,7.909,5.942-2.719,7.423-3.953S342.854,386.716,342.854,386.716Z" transform="translate(-226.641 -298.282)" fill="#fbb473"/>
    </g>
    <g id="Grupo_81864" data-name="Grupo 81864" transform="translate(731.498 4377.17)">
      <path id="Trazado_114968" data-name="Trazado 114968" d="M1000.94,238.163s9.735-.545,11.741,11.845,2.006,18.527,2.006,18.527l-26.905-.512s-.236-17.542,2.006-21.555S1000.94,238.163,1000.94,238.163Z" transform="translate(-946.768 -238.14)" fill="#491ca2"/>
      <g id="Grupo_81842" data-name="Grupo 81842" transform="translate(76.366 221)">
        <path id="Trazado_114969" data-name="Trazado 114969" d="M1067.042,667.722l1.543,3.442-11.3,11.591a6.7,6.7,0,0,0-1.315,7.415h0l33.235-14.9-6.527-14.561Z" transform="translate(-1055.388 -660.711)" fill="#6433cb"/>
        <path id="Trazado_114970" data-name="Trazado 114970" d="M1094.74,681.264a3.029,3.029,0,1,0,1.525-4A3.03,3.03,0,0,0,1094.74,681.264Z" transform="translate(-1074.034 -668.479)" fill="#491ca2"/>
        <path id="Trazado_114971" data-name="Trazado 114971" d="M1076.591,683.369l2.137,1.764a1.069,1.069,0,0,1,.111,1.543h0a1.069,1.069,0,0,1-1.443.128l-2.373-1.827Z" transform="translate(-1064.755 -671.52)" fill="#491ca2"/>
        <path id="Trazado_114972" data-name="Trazado 114972" d="M1071.324,688.79l2.138,1.764a1.069,1.069,0,0,1,.111,1.543h0a1.068,1.068,0,0,1-1.443.128l-2.374-1.827Z" transform="translate(-1062.242 -674.106)" fill="#491ca2"/>
        <path id="Trazado_114973" data-name="Trazado 114973" d="M1065.363,694.9l2.137,1.764a1.069,1.069,0,0,1,.111,1.543h0a1.069,1.069,0,0,1-1.443.128l-2.373-1.827Z" transform="translate(-1059.399 -677.021)" fill="#491ca2"/>
        <rect id="Rectángulo_33975" data-name="Rectángulo 33975" width="36.421" height="2.703" transform="translate(0.586 29.459) rotate(-24.144)" fill="#491ca2"/>
      </g>
      <g id="Grupo_81843" data-name="Grupo 81843" transform="translate(23.371 234.248)">
        <path id="Trazado_114974" data-name="Trazado 114974" d="M973.334,686.044v3.771l-15.048,5.957A6.7,6.7,0,0,0,954.052,702h36.421V686.044Z" transform="translate(-954.052 -686.044)" fill="#6433cb"/>
        <circle id="Elipse_4912" data-name="Elipse 4912" cx="3.029" cy="3.029" r="3.029" transform="translate(25.18 5.942)" fill="#491ca2"/>
        <path id="Trazado_114975" data-name="Trazado 114975" d="M985.55,694.629l1.229,2.485a1.069,1.069,0,0,1-.53,1.453h0a1.069,1.069,0,0,1-1.369-.473l-1.418-2.638Z" transform="translate(-968.081 -690.139)" fill="#491ca2"/>
        <path id="Trazado_114976" data-name="Trazado 114976" d="M978.526,697.422l1.228,2.485a1.069,1.069,0,0,1-.53,1.453h0a1.068,1.068,0,0,1-1.369-.473l-1.419-2.637Z" transform="translate(-964.73 -691.472)" fill="#491ca2"/>
        <path id="Trazado_114977" data-name="Trazado 114977" d="M970.586,700.56l1.229,2.485a1.068,1.068,0,0,1-.53,1.453h0a1.068,1.068,0,0,1-1.369-.473l-1.419-2.638Z" transform="translate(-960.943 -692.969)" fill="#491ca2"/>
        <rect id="Rectángulo_33976" data-name="Rectángulo 33976" width="36.421" height="2.703" transform="translate(0 15.957)" fill="#491ca2"/>
      </g>
      <g id="Grupo_81846" data-name="Grupo 81846" transform="translate(43.742 3.058)">
        <g id="Grupo_81845" data-name="Grupo 81845">
          <path id="Trazado_114978" data-name="Trazado 114978" d="M1004.8,244.085c4.779.966,7.434,7.777,5.93,15.211l-1.323,6.541a43.925,43.925,0,0,0-.865,7.888l-.18,9.565-11.034-2.27,2.026-10.014c-4.779-.967-7.434-7.777-5.931-15.211S1000.023,243.118,1004.8,244.085Z" transform="translate(-993.005 -243.97)" fill="#fbb473"/>
          <g id="Grupo_81844" data-name="Grupo 81844" clip-path="url(#clip-path-6)">
            <path id="Trazado_114979" data-name="Trazado 114979" d="M991.279,260.822c.19-.142,16.123-2.386,16.455-2.968s.232-9.543.232-9.543-2.342-.934-3.147-.65-3.409,7.717-4.971,7.764-7.521-1.174-7.666-.284S991.279,260.822,991.279,260.822Z" transform="translate(-992.182 -245.705)" fill="#f8a65c"/>
          </g>
        </g>
        <path id="Trazado_114981" data-name="Trazado 114981" d="M1004.834,292.044s3.558.177,6.644-3.972c0,0-2,6.265-6.989,5.676Z" transform="translate(-998.483 -265.008)" fill="#f89d4b"/>
      </g>
      <path id="Trazado_114982" data-name="Trazado 114982" d="M1005.316,241.788l-1.706,9.718h-18.62s2.894-13.97,15.579-13.364C1000.568,238.142,1004.609,239.07,1005.316,241.788Z" transform="translate(-945.439 -238.123)" fill="#491ca2"/>
      <path id="Trazado_114983" data-name="Trazado 114983" d="M1026.8,265.392s1.391-2.83,2.245-.509c1.091,2.963-3.214,4.591-3.214,4.591Z" transform="translate(-964.923 -250.452)" fill="#fbb473"/>
      <g id="Grupo_81848" data-name="Grupo 81848" transform="translate(76.367 197.725)">
        <path id="Trazado_114984" data-name="Trazado 114984" d="M1081.147,640.169l-8-23.964-17.756,6.331,13.271,23.231Z" transform="translate(-1055.389 -616.205)" fill="#68b2f4"/>
        <g id="Grupo_81847" data-name="Grupo 81847" transform="translate(0 0)" clip-path="url(#clip-path-7)">
          <path id="Trazado_114985" data-name="Trazado 114985" d="M1056.16,632.035s13.992-5.247,18.626-9.794l-1.4-5.16-21.338,7.258Z" transform="translate(-1053.796 -616.623)" fill="#b868c8"/>
        </g>
      </g>
      <g id="Grupo_81850" data-name="Grupo 81850" transform="translate(41.511 207.588)">
        <path id="Trazado_114987" data-name="Trazado 114987" d="M1004.977,661.726l2.552-25.135-18.789-1.525,2.552,26.632Z" transform="translate(-988.739 -635.066)" fill="#68b2f4"/>
        <g id="Grupo_81849" data-name="Grupo 81849" clip-path="url(#clip-path-8)">
          <path id="Trazado_114988" data-name="Trazado 114988" d="M985.75,644.733a62.34,62.34,0,0,0,21.738-4.778l.094-6.278-21.925.727Z" transform="translate(-987.269 -634.403)" fill="#b868c8"/>
        </g>
      </g>
      <g id="Grupo_81857" data-name="Grupo 81857" transform="translate(21.197 35.792)">
        <g id="Grupo_81855" data-name="Grupo 81855">
          <g id="Grupo_81852" data-name="Grupo 81852" transform="translate(0 0.674)">
            <path id="Trazado_114990" data-name="Trazado 114990" d="M1010.642,371.67l-8.829-53.813a12.742,12.742,0,0,0-8.12-9.877c-1.621,3.849-5.2,5.771-8.145,6.725a12.075,12.075,0,0,1-10.453-1.373,9.594,9.594,0,0,1-4.1-5.48,12.745,12.745,0,0,0-8.57,10.669L956.56,371.67s-6.677,50.117-6.664,63.075c.008,8.256,7.586,50.617,7.586,50.617s55.952-2.908,79.59-17.709C1037.072,467.653,1014.248,393.647,1010.642,371.67Z" transform="translate(-949.896 -307.852)" fill="#fcf438"/>
            <g id="Grupo_81851" data-name="Grupo 81851" clip-path="url(#clip-path-9)">
              <path id="Trazado_114991" data-name="Trazado 114991" d="M1020.329,432.285s-30.379-22.882-31.76-23.08-13.788,29.246-15.866,28.112c-5.853-3.194-17.274-9.175-17.274-9.767s19.726-41.162,23.08-42.773,47.935,27.316,47.146,30.508S1020.329,432.285,1020.329,432.285Z" transform="translate(-952.535 -344.517)" fill="#96912a"/>
            </g>
          </g>
          <g id="Grupo_81854" data-name="Grupo 81854" transform="translate(21.105)">
            <path id="Trazado_114993" data-name="Trazado 114993" d="M994.347,312.717a12.074,12.074,0,0,0,10.453,1.373c2.948-.954,6.524-2.876,8.145-6.725a12.713,12.713,0,0,0-4.454-.8H994.347a12.727,12.727,0,0,0-4.095.674A9.6,9.6,0,0,0,994.347,312.717Z" transform="translate(-990.252 -306.563)" fill="#fbb473"/>
            <g id="Grupo_81853" data-name="Grupo 81853" clip-path="url(#clip-path-10)">
              <path id="Trazado_114994" data-name="Trazado 114994" d="M990.51,306.563s1.68,6.789,12.455,7.962c0,0-10.134,4.6-15.19-7.288Z" transform="translate(-989.07 -306.563)" fill="#ec974a"/>
            </g>
          </g>
        </g>
        <g id="Grupo_81856" data-name="Grupo 81856" transform="translate(18.991 0.674)">
          <path id="Trazado_114996" data-name="Trazado 114996" d="M996.809,315.114s-4.454,4.8-7.045,3.59-3.554-9.911-3.554-9.911a8.769,8.769,0,0,1,2.114-.94S991.348,314.2,996.809,315.114Z" transform="translate(-986.209 -307.852)" fill="#fff"/>
          <path id="Trazado_114997" data-name="Trazado 114997" d="M1013.908,315.317s2.8,5.245,6.047,4.914,6.95-10.754,6.95-10.754a9.817,9.817,0,0,0-2.676-1.38S1022.309,313.475,1013.908,315.317Z" transform="translate(-999.422 -307.969)" fill="#fff"/>
        </g>
      </g>
      <g id="Grupo_81859" data-name="Grupo 81859" transform="translate(0 70.582)">
        <path id="Trazado_114998" data-name="Trazado 114998" d="M935.455,373.086l-2.809,13.232-15.824,38.4s-7.809,6.094-7.438,6.713,4.33-1.856,5.2,0-5.469,9.649-5.209,10.143,8.8,1.856,10.281,0,3.821-13.847,3.821-13.847l16.047-27.32,5.356-21.886Z" transform="translate(-909.363 -373.086)" fill="#fbb473"/>
        <g id="Grupo_81858" data-name="Grupo 81858" clip-path="url(#clip-path-11)">
          <path id="Trazado_114999" data-name="Trazado 114999" d="M948.035,371.516l10,9.338s-17.116,32.112-16.356,36.641h0s25.588-41.261,24.59-43.132-16.219-12.975-16.843-12.726S948.035,371.516,948.035,371.516Z" transform="translate(-924.766 -367.622)" fill="#f8a152"/>
        </g>
      </g>
      <g id="Grupo_81861" data-name="Grupo 81861" transform="translate(1.976 20.531)">
        <path id="Trazado_115001" data-name="Trazado 115001" d="M1014.821,342.923l-33.537-19.345,19.345-33.537-21.947-12.66-19.345,33.537L925.8,291.574l-12.66,21.947,33.537,19.345L927.333,366.4l21.947,12.66,19.345-33.537,33.537,19.345Z" transform="translate(-913.141 -277.382)" fill="#954bc6"/>
        <g id="Grupo_81860" data-name="Grupo 81860" clip-path="url(#clip-path-12)">
          <path id="Trazado_115002" data-name="Trazado 115002" d="M1031.052,401.274l25.85-15.968-4.875-3.63-26.5,17.216Z" transform="translate(-966.754 -327.134)" fill="#5622b8"/>
          <path id="Trazado_115003" data-name="Trazado 115003" d="M987.969,435.68s-4.175,3.363-5.161,3.3-9.02-5.93-9.02-5.93l19.124-4.39Z" transform="translate(-942.071 -349.548)" fill="#5622b8"/>
        </g>
      </g>
      <g id="Grupo_81863" data-name="Grupo 81863" transform="translate(32.808 46.219)">
        <path id="Trazado_115005" data-name="Trazado 115005" d="M1029.07,348.33l-7.814-21.829-8.691,15.067,3.1,8.081-28.21,24.9c-1.478.075-11.915.643-11.437,1.6.516,1.031,6.032-.515,5.8,1.546s-10.023,5.255-9.714,5.976,8.243,4.225,10.1,3.813,11.043-9.442,11.043-9.442l-.01-.006c4.038-2.317,14.978-8.643,24.274-14.438.686-.427,8.12-5.171,8.12-5.171A8.564,8.564,0,0,0,1029.07,348.33Z" transform="translate(-972.097 -326.501)" fill="#fbb473"/>
        <g id="Grupo_81862" data-name="Grupo 81862" clip-path="url(#clip-path-13)">
          <path id="Trazado_115006" data-name="Trazado 115006" d="M1050.239,358.524l6.8-4.511s-4.781.469-5.719-.562-5.156-8.344-5.156-8.344l-1.594,1.781,5.67,11.636" transform="translate(-1006.669 -335.377)" fill="#f59640"/>
        </g>
      </g>
    </g>
    <circle id="Elipse_4913" data-name="Elipse 4913" cx="31.878" cy="31.878" r="31.878" transform="translate(366.578 4346.11) rotate(-80.338)" fill="#fcf438"/>
    <g id="Grupo_81866" data-name="Grupo 81866" transform="translate(391.309 4300.743)">
      <path id="Trazado_115008" data-name="Trazado 115008" d="M282.778,100.531c-1.4-8.661-11.867-8.551-11.867-8.551s-10.464-.111-11.867,8.551S265,121.122,265,121.122h11.827S284.182,109.193,282.778,100.531Z" transform="translate(-258.866 -91.981)" fill="#fff"/>
      <path id="Trazado_115009" data-name="Trazado 115009" d="M281.705,130.318h-7.387a.228.228,0,0,1-.228-.227V113.443a3.921,3.921,0,0,1,7.842,0v16.648A.228.228,0,0,1,281.705,130.318Zm-7.159-.456h6.931v-16.42a3.465,3.465,0,0,0-6.931,0Z" transform="translate(-266.129 -100.349)" fill="#fe6d60"/>
      <g id="Grupo_81865" data-name="Grupo 81865" transform="translate(3.246 29.141)">
        <path id="Trazado_115010" data-name="Trazado 115010" d="M281.35,150.261h-15a1.279,1.279,0,0,1-1.279-1.279h0a1.279,1.279,0,0,1,1.279-1.279h15a1.279,1.279,0,0,1,1.279,1.279h0A1.279,1.279,0,0,1,281.35,150.261Z" transform="translate(-265.072 -147.703)" fill="#373660"/>
        <path id="Trazado_115011" data-name="Trazado 115011" d="M281.39,158.074h-15a1.279,1.279,0,0,1-1.279-1.279h0a1.279,1.279,0,0,1,1.279-1.279h15a1.279,1.279,0,0,1,1.279,1.279h0A1.279,1.279,0,0,1,281.39,158.074Z" transform="translate(-265.091 -151.431)" fill="#373660"/>
        <rect id="Rectángulo_33977" data-name="Rectángulo 33977" width="8.501" height="1.528" transform="translate(4.387 2.558)" fill="#4f5285"/>
        <path id="Trazado_115012" data-name="Trazado 115012" d="M279.163,163.206h-2.9a2.8,2.8,0,0,1-2.8-2.8h8.5A2.8,2.8,0,0,1,279.163,163.206Z" transform="translate(-269.074 -153.763)" fill="#4f5285"/>
      </g>
    </g>
    <g id="Grupo_81868" data-name="Grupo 81868" transform="translate(784.433 4320.114)">
      <path id="Trazado_115013" data-name="Trazado 115013" d="M1075.047,129.023h-61.528a2.936,2.936,0,0,0-2.936,2.936V161.03a2.935,2.935,0,0,0,2.936,2.936h12.189l-1.85,11.849a1.238,1.238,0,0,0,2.028,1.133c4.641-3.966,14.069-12.064,14.757-12.982h34.4a2.936,2.936,0,0,0,2.936-2.936V131.959A2.936,2.936,0,0,0,1075.047,129.023Z" transform="translate(-1010.583 -129.023)" fill="#e8e8e8"/>
      <g id="Grupo_81867" data-name="Grupo 81867" transform="translate(4.959 6.259)">
        <rect id="Rectángulo_33978" data-name="Rectángulo 33978" width="57.382" height="3.814" rx="0.942" fill="#fff"/>
        <rect id="Rectángulo_33979" data-name="Rectángulo 33979" width="57.382" height="3.814" rx="0.942" transform="translate(0.051 9.306)" fill="#fff"/>
        <rect id="Rectángulo_33980" data-name="Rectángulo 33980" width="32.592" height="3.814" rx="0.71" transform="translate(0.101 18.612)" fill="#fff"/>
      </g>
    </g>
  </g>
</svg>
