<svg xmlns="http://www.w3.org/2000/svg" width="1240" height="200" viewBox="0 0 1240 200">
  <g id="Grupo_82403" data-name="Grupo 82403" transform="translate(-179.566 -1576.641)">
    <g id="Image_Place_Holder" data-name="Image Place Holder" transform="translate(179.566 1576.641)" opacity="0.301" style="isolation: isolate">
      <rect id="Image_Place_Holder-2" data-name="Image Place Holder" width="295" height="200" rx="10" fill="#64b5f6"/>
    </g>
    <g id="Image_Place_Holder-3" data-name="Image Place Holder" transform="translate(809.566 1576.641)" opacity="0.301" style="isolation: isolate">
      <rect id="Image_Place_Holder-4" data-name="Image Place Holder" width="295" height="200" rx="10" fill="#64b5f6"/>
    </g>
    <g id="Image_Place_Holder-5" data-name="Image Place Holder" transform="translate(494.566 1576.641)" opacity="0.299">
      <rect id="Image_Place_Holder-6" data-name="Image Place Holder" width="295" height="200" rx="10" fill="#ba68c8"/>
    </g>
    <g id="Image_Place_Holder-7" data-name="Image Place Holder" transform="translate(1124.566 1576.641)" opacity="0.299">
      <rect id="Image_Place_Holder-8" data-name="Image Place Holder" width="295" height="200" rx="10" fill="#ba68c8"/>
    </g>
    <path id="Trazado_116545" data-name="Trazado 116545" d="M13.757,13.3a7.935,7.935,0,0,1-3.16-1.534,2.93,2.93,0,0,1-.989-2.246,3.1,3.1,0,0,1,1.208-2.5,4.8,4.8,0,0,1,3.142-.989,5.243,5.243,0,0,1,2.351.51,3.866,3.866,0,0,1,1.6,1.406,3.6,3.6,0,0,1,.567,1.96h-1.7a2.34,2.34,0,0,0-.738-1.83,3,3,0,0,0-2.083-.666,3.074,3.074,0,0,0-1.947.55,1.836,1.836,0,0,0-.7,1.528,1.652,1.652,0,0,0,.664,1.325,6.509,6.509,0,0,0,2.259.991,10.481,10.481,0,0,1,2.5.99,3.788,3.788,0,0,1,1.336,1.261,3.219,3.219,0,0,1,.435,1.7,2.99,2.99,0,0,1-1.213,2.492,5.171,5.171,0,0,1-3.243.936,6.015,6.015,0,0,1-2.461-.505,4.142,4.142,0,0,1-1.762-1.384,3.378,3.378,0,0,1-.62-2h1.7a2.2,2.2,0,0,0,.857,1.833,3.608,3.608,0,0,0,2.29.672,3.317,3.317,0,0,0,2.048-.545,1.77,1.77,0,0,0,.712-1.485,1.738,1.738,0,0,0-.659-1.455A7.6,7.6,0,0,0,13.757,13.3Zm10.6,5.88a4.155,4.155,0,0,1-3.146-1.27A4.714,4.714,0,0,1,20,14.509v-.3a5.707,5.707,0,0,1,.541-2.527,4.217,4.217,0,0,1,1.512-1.74,3.8,3.8,0,0,1,2.1-.628,3.562,3.562,0,0,1,2.883,1.222,5.289,5.289,0,0,1,1.028,3.5v.677H21.624a3.38,3.38,0,0,0,.822,2.272,2.583,2.583,0,0,0,2,.866A2.832,2.832,0,0,0,25.9,17.5a3.666,3.666,0,0,0,1.046-.932l.993.773A3.993,3.993,0,0,1,24.357,19.176Zm-.2-8.525a2.169,2.169,0,0,0-1.652.716,3.482,3.482,0,0,0-.826,2.008H26.44v-.123a3.1,3.1,0,0,0-.668-1.92A2.042,2.042,0,0,0,24.155,10.65Zm9.817,3.507a5.617,5.617,0,0,1,.549-2.514,4.1,4.1,0,0,1,1.529-1.723,4.163,4.163,0,0,1,2.237-.606,4.01,4.01,0,0,1,3.142,1.345,5.174,5.174,0,0,1,1.2,3.577v.114a5.666,5.666,0,0,1-.532,2.492,4.038,4.038,0,0,1-1.521,1.718,4.211,4.211,0,0,1-2.272.615,4,4,0,0,1-3.133-1.345,5.147,5.147,0,0,1-1.2-3.56Zm1.635.193a4.068,4.068,0,0,0,.734,2.54,2.487,2.487,0,0,0,3.933-.013A4.449,4.449,0,0,0,41,14.157a4.061,4.061,0,0,0-.743-2.536,2.361,2.361,0,0,0-1.973-.971,2.335,2.335,0,0,0-1.942.958A4.416,4.416,0,0,0,35.607,14.351Zm17.112,0a5.654,5.654,0,0,1-1,3.5,3.2,3.2,0,0,1-2.689,1.323A3.315,3.315,0,0,1,46.242,17.9L46.163,19H44.669V5.5h1.626v5.036A3.3,3.3,0,0,1,49.01,9.314a3.221,3.221,0,0,1,2.72,1.31,5.824,5.824,0,0,1,.989,3.586Zm-1.626-.185a4.394,4.394,0,0,0-.642-2.566,2.124,2.124,0,0,0-1.846-.905,2.387,2.387,0,0,0-2.312,1.494V16.3A2.454,2.454,0,0,0,48.624,17.8a2.112,2.112,0,0,0,1.819-.905A4.672,4.672,0,0,0,51.093,14.166Zm5.88-6.979v2.3h1.775v1.257H56.973v5.9a1.32,1.32,0,0,0,.237.858,1,1,0,0,0,.809.286,3.937,3.937,0,0,0,.773-.105V19a4.742,4.742,0,0,1-1.248.175,2.025,2.025,0,0,1-1.644-.659,2.832,2.832,0,0,1-.554-1.872v-5.9H53.616V9.49h1.731v-2.3ZM62.414,19H60.788V9.49h1.626ZM60.656,6.968A.971.971,0,0,1,60.9,6.3a.907.907,0,0,1,.716-.272.922.922,0,0,1,.721.272.96.96,0,0,1,.246.668.929.929,0,0,1-.246.659.938.938,0,0,1-.721.264.924.924,0,0,1-.716-.264A.938.938,0,0,1,60.656,6.968Zm8.306,12.208a4.155,4.155,0,0,1-3.146-1.27,4.714,4.714,0,0,1-1.213-3.4v-.3a5.707,5.707,0,0,1,.541-2.527,4.217,4.217,0,0,1,1.512-1.74,3.8,3.8,0,0,1,2.1-.628,3.562,3.562,0,0,1,2.883,1.222,5.289,5.289,0,0,1,1.028,3.5v.677H66.228a3.38,3.38,0,0,0,.822,2.272,2.583,2.583,0,0,0,2,.866,2.832,2.832,0,0,0,1.459-.352,3.666,3.666,0,0,0,1.046-.932l.993.773A3.993,3.993,0,0,1,68.962,19.176Zm-.2-8.525a2.169,2.169,0,0,0-1.652.716,3.482,3.482,0,0,0-.826,2.008h4.764v-.123a3.1,3.1,0,0,0-.668-1.92A2.042,2.042,0,0,0,68.759,10.65Zm7.33-1.16.053,1.2A3.465,3.465,0,0,1,78.99,9.314q3.015,0,3.041,3.4V19H80.4V12.707a2.189,2.189,0,0,0-.47-1.521,1.884,1.884,0,0,0-1.437-.492,2.347,2.347,0,0,0-1.389.422,2.865,2.865,0,0,0-.932,1.107V19H74.551V9.49Zm12.34,9.686a4.155,4.155,0,0,1-3.146-1.27,4.714,4.714,0,0,1-1.213-3.4v-.3a5.707,5.707,0,0,1,.541-2.527,4.217,4.217,0,0,1,1.512-1.74,3.8,3.8,0,0,1,2.1-.628,3.562,3.562,0,0,1,2.883,1.222,5.289,5.289,0,0,1,1.028,3.5v.677H85.7a3.38,3.38,0,0,0,.822,2.272,2.583,2.583,0,0,0,2,.866,2.832,2.832,0,0,0,1.459-.352,3.666,3.666,0,0,0,1.046-.932l.993.773A3.993,3.993,0,0,1,88.429,19.176Zm-.2-8.525a2.169,2.169,0,0,0-1.652.716,3.482,3.482,0,0,0-.826,2.008h4.764v-.123a3.1,3.1,0,0,0-.668-1.92A2.042,2.042,0,0,0,88.227,10.65Zm7.33-1.16.053,1.2a3.465,3.465,0,0,1,2.848-1.371q3.015,0,3.041,3.4V19H99.873V12.707a2.189,2.189,0,0,0-.47-1.521,1.884,1.884,0,0,0-1.437-.492,2.347,2.347,0,0,0-1.389.422,2.865,2.865,0,0,0-.932,1.107V19H94.019V9.49ZM113,10.949a4.873,4.873,0,0,0-.8-.062,2.143,2.143,0,0,0-2.171,1.362V19h-1.626V9.49h1.582l.026,1.1a2.532,2.532,0,0,1,2.268-1.274,1.661,1.661,0,0,1,.721.123Zm5.44,8.227a4.155,4.155,0,0,1-3.146-1.27,4.714,4.714,0,0,1-1.213-3.4v-.3a5.707,5.707,0,0,1,.541-2.527,4.217,4.217,0,0,1,1.512-1.74,3.8,3.8,0,0,1,2.1-.628,3.562,3.562,0,0,1,2.883,1.222,5.289,5.289,0,0,1,1.028,3.5v.677h-6.442a3.38,3.38,0,0,0,.822,2.272,2.583,2.583,0,0,0,2,.866,2.832,2.832,0,0,0,1.459-.352,3.666,3.666,0,0,0,1.046-.932l.993.773A3.993,3.993,0,0,1,118.444,19.176Zm-.2-8.525a2.169,2.169,0,0,0-1.652.716,3.482,3.482,0,0,0-.826,2.008h4.764v-.123a3.1,3.1,0,0,0-.668-1.92A2.042,2.042,0,0,0,118.242,10.65Zm11.329,5.827a1.2,1.2,0,0,0-.5-1.024,4.78,4.78,0,0,0-1.731-.628,8.186,8.186,0,0,1-1.96-.633,2.788,2.788,0,0,1-1.072-.879,2.1,2.1,0,0,1-.347-1.213,2.467,2.467,0,0,1,.989-1.978,3.861,3.861,0,0,1,2.527-.809,3.974,3.974,0,0,1,2.624.835,2.652,2.652,0,0,1,1.006,2.136h-1.635a1.468,1.468,0,0,0-.567-1.151,2.124,2.124,0,0,0-1.428-.483,2.223,2.223,0,0,0-1.389.387,1.217,1.217,0,0,0-.5,1.011.986.986,0,0,0,.466.888,5.731,5.731,0,0,0,1.683.571,8.77,8.77,0,0,1,1.973.65,2.878,2.878,0,0,1,1.121.91,2.237,2.237,0,0,1,.365,1.3,2.434,2.434,0,0,1-1.02,2.043,4.277,4.277,0,0,1-2.646.769,4.789,4.789,0,0,1-2.021-.4,3.288,3.288,0,0,1-1.375-1.129,2.722,2.722,0,0,1-.5-1.569h1.626a1.683,1.683,0,0,0,.655,1.3,2.54,2.54,0,0,0,1.613.479,2.622,2.622,0,0,0,1.481-.374A1.148,1.148,0,0,0,129.571,16.478Zm9.615,1.582a3.454,3.454,0,0,1-2.786,1.116,2.956,2.956,0,0,1-2.316-.883,3.823,3.823,0,0,1-.8-2.615V9.49h1.626v6.144q0,2.162,1.758,2.162a2.434,2.434,0,0,0,2.479-1.389V9.49h1.626V19h-1.547ZM145,19h-1.626V5.5H145Zm4.808-11.812v2.3h1.775v1.257h-1.775v5.9a1.32,1.32,0,0,0,.237.858,1,1,0,0,0,.809.286,3.937,3.937,0,0,0,.773-.105V19a4.742,4.742,0,0,1-1.248.175,2.025,2.025,0,0,1-1.644-.659,2.832,2.832,0,0,1-.554-1.872v-5.9h-1.731V9.49h1.731v-2.3ZM159.357,19a3.416,3.416,0,0,1-.229-1,3.628,3.628,0,0,1-2.707,1.178,3.357,3.357,0,0,1-2.307-.8,2.573,2.573,0,0,1-.9-2.017,2.688,2.688,0,0,1,1.129-2.307,5.325,5.325,0,0,1,3.177-.822H159.1v-.747a1.826,1.826,0,0,0-.51-1.358,2.049,2.049,0,0,0-1.5-.505,2.371,2.371,0,0,0-1.459.439,1.3,1.3,0,0,0-.589,1.063h-1.635a2.244,2.244,0,0,1,.505-1.375,3.449,3.449,0,0,1,1.371-1.05,4.613,4.613,0,0,1,1.9-.387,3.759,3.759,0,0,1,2.575.822,2.964,2.964,0,0,1,.967,2.263v4.377a5.351,5.351,0,0,0,.334,2.083V19Zm-2.7-1.239a2.858,2.858,0,0,0,1.45-.4,2.392,2.392,0,0,0,.993-1.028V14.386h-1.274q-2.988,0-2.988,1.749a1.48,1.48,0,0,0,.51,1.2A1.959,1.959,0,0,0,156.659,17.761Zm6.223-3.595a5.571,5.571,0,0,1,1.037-3.52,3.529,3.529,0,0,1,5.361-.189V5.5h1.626V19h-1.494l-.079-1.02a3.311,3.311,0,0,1-2.716,1.2,3.248,3.248,0,0,1-2.694-1.354,5.634,5.634,0,0,1-1.042-3.533Zm1.626.185a4.218,4.218,0,0,0,.668,2.531,2.159,2.159,0,0,0,1.846.914,2.372,2.372,0,0,0,2.259-1.389V12.039a2.39,2.39,0,0,0-2.241-1.345,2.17,2.17,0,0,0-1.863.923A4.644,4.644,0,0,0,164.507,14.351Zm8.49-.193a5.617,5.617,0,0,1,.549-2.514,4.1,4.1,0,0,1,1.529-1.723,4.163,4.163,0,0,1,2.237-.606,4.01,4.01,0,0,1,3.142,1.345,5.174,5.174,0,0,1,1.2,3.577v.114a5.666,5.666,0,0,1-.532,2.492,4.038,4.038,0,0,1-1.521,1.718,4.211,4.211,0,0,1-2.272.615,4,4,0,0,1-3.133-1.345,5.147,5.147,0,0,1-1.2-3.56Zm1.635.193a4.068,4.068,0,0,0,.734,2.54,2.487,2.487,0,0,0,3.933-.013,4.449,4.449,0,0,0,.729-2.72,4.061,4.061,0,0,0-.743-2.536,2.361,2.361,0,0,0-1.973-.971,2.335,2.335,0,0,0-1.942.958A4.416,4.416,0,0,0,174.632,14.351Zm14.6,2.127a1.2,1.2,0,0,0-.5-1.024A4.78,4.78,0,0,0,187,14.825a8.186,8.186,0,0,1-1.96-.633,2.788,2.788,0,0,1-1.072-.879,2.1,2.1,0,0,1-.347-1.213,2.467,2.467,0,0,1,.989-1.978,3.861,3.861,0,0,1,2.527-.809,3.974,3.974,0,0,1,2.624.835,2.652,2.652,0,0,1,1.006,2.136h-1.635a1.468,1.468,0,0,0-.567-1.151,2.124,2.124,0,0,0-1.428-.483,2.223,2.223,0,0,0-1.389.387,1.217,1.217,0,0,0-.5,1.011.986.986,0,0,0,.466.888,5.731,5.731,0,0,0,1.683.571,8.77,8.77,0,0,1,1.973.65,2.878,2.878,0,0,1,1.121.91,2.237,2.237,0,0,1,.365,1.3,2.434,2.434,0,0,1-1.02,2.043,4.277,4.277,0,0,1-2.646.769,4.789,4.789,0,0,1-2.021-.4,3.288,3.288,0,0,1-1.375-1.129,2.722,2.722,0,0,1-.5-1.569h1.626a1.683,1.683,0,0,0,.655,1.3,2.54,2.54,0,0,0,1.613.479,2.622,2.622,0,0,0,1.481-.374A1.148,1.148,0,0,0,189.231,16.478Zm3.779,1.67a1.018,1.018,0,0,1,.25-.7.954.954,0,0,1,.751-.281.983.983,0,0,1,.76.281,1,1,0,0,1,.259.7.944.944,0,0,1-.259.677,1,1,0,0,1-.76.272.9.9,0,0,1-1-.949Z" transform="translate(1169.566 1703.415)" fill="#12263f"/>
    <path id="Trazado_116546" data-name="Trazado 116546" d="M7.148,13.3a7.935,7.935,0,0,1-3.16-1.534A2.93,2.93,0,0,1,3,9.517a3.1,3.1,0,0,1,1.208-2.5A4.8,4.8,0,0,1,7.35,6.027a5.243,5.243,0,0,1,2.351.51,3.866,3.866,0,0,1,1.6,1.406,3.6,3.6,0,0,1,.567,1.96h-1.7a2.34,2.34,0,0,0-.738-1.83A3,3,0,0,0,7.35,7.407a3.074,3.074,0,0,0-1.947.55,1.836,1.836,0,0,0-.7,1.528,1.652,1.652,0,0,0,.664,1.325,6.509,6.509,0,0,0,2.259.991,10.481,10.481,0,0,1,2.5.99,3.788,3.788,0,0,1,1.336,1.261,3.219,3.219,0,0,1,.435,1.7,2.99,2.99,0,0,1-1.213,2.492,5.171,5.171,0,0,1-3.243.936,6.015,6.015,0,0,1-2.461-.505,4.142,4.142,0,0,1-1.762-1.384,3.378,3.378,0,0,1-.62-2h1.7a2.2,2.2,0,0,0,.857,1.833,3.608,3.608,0,0,0,2.29.672,3.317,3.317,0,0,0,2.048-.545,1.77,1.77,0,0,0,.712-1.485,1.738,1.738,0,0,0-.659-1.455A7.6,7.6,0,0,0,7.148,13.3Zm10.6,5.88a4.155,4.155,0,0,1-3.146-1.27,4.714,4.714,0,0,1-1.213-3.4v-.3a5.707,5.707,0,0,1,.541-2.527,4.217,4.217,0,0,1,1.512-1.74,3.8,3.8,0,0,1,2.1-.628,3.562,3.562,0,0,1,2.883,1.222,5.289,5.289,0,0,1,1.028,3.5v.677H15.014a3.38,3.38,0,0,0,.822,2.272,2.583,2.583,0,0,0,2,.866,2.832,2.832,0,0,0,1.459-.352,3.666,3.666,0,0,0,1.046-.932l.993.773A3.993,3.993,0,0,1,17.748,19.176Zm-.2-8.525a2.169,2.169,0,0,0-1.652.716,3.482,3.482,0,0,0-.826,2.008h4.764v-.123a3.1,3.1,0,0,0-.668-1.92A2.042,2.042,0,0,0,17.546,10.65Zm9.817,3.507a5.617,5.617,0,0,1,.549-2.514,4.1,4.1,0,0,1,1.529-1.723,4.163,4.163,0,0,1,2.237-.606,4.01,4.01,0,0,1,3.142,1.345,5.174,5.174,0,0,1,1.2,3.577v.114a5.666,5.666,0,0,1-.532,2.492,4.038,4.038,0,0,1-1.521,1.718,4.211,4.211,0,0,1-2.272.615,4,4,0,0,1-3.133-1.345,5.147,5.147,0,0,1-1.2-3.56ZM29,14.351a4.068,4.068,0,0,0,.734,2.54,2.487,2.487,0,0,0,3.933-.013,4.449,4.449,0,0,0,.729-2.72,4.061,4.061,0,0,0-.743-2.536,2.361,2.361,0,0,0-1.973-.971,2.335,2.335,0,0,0-1.942.958A4.416,4.416,0,0,0,29,14.351Zm17.112,0a5.654,5.654,0,0,1-1,3.5,3.2,3.2,0,0,1-2.689,1.323A3.315,3.315,0,0,1,39.632,17.9L39.553,19H38.059V5.5h1.626v5.036A3.3,3.3,0,0,1,42.4,9.314a3.221,3.221,0,0,1,2.72,1.31,5.824,5.824,0,0,1,.989,3.586Zm-1.626-.185a4.394,4.394,0,0,0-.642-2.566A2.124,2.124,0,0,0,42,10.694a2.387,2.387,0,0,0-2.312,1.494V16.3A2.454,2.454,0,0,0,42.014,17.8a2.112,2.112,0,0,0,1.819-.905A4.672,4.672,0,0,0,44.484,14.166Zm5.88-6.979v2.3h1.775v1.257H50.364v5.9a1.32,1.32,0,0,0,.237.858,1,1,0,0,0,.809.286,3.937,3.937,0,0,0,.773-.105V19a4.742,4.742,0,0,1-1.248.175,2.025,2.025,0,0,1-1.644-.659,2.832,2.832,0,0,1-.554-1.872v-5.9H47.006V9.49h1.731v-2.3ZM55.8,19H54.178V9.49H55.8ZM54.047,6.968a.971.971,0,0,1,.242-.668A.907.907,0,0,1,55,6.027a.922.922,0,0,1,.721.272.96.96,0,0,1,.246.668.929.929,0,0,1-.246.659A.938.938,0,0,1,55,7.891a.924.924,0,0,1-.716-.264A.938.938,0,0,1,54.047,6.968Zm8.306,12.208a4.155,4.155,0,0,1-3.146-1.27,4.714,4.714,0,0,1-1.213-3.4v-.3a5.707,5.707,0,0,1,.541-2.527,4.217,4.217,0,0,1,1.512-1.74,3.8,3.8,0,0,1,2.1-.628,3.562,3.562,0,0,1,2.883,1.222,5.289,5.289,0,0,1,1.028,3.5v.677H59.619a3.38,3.38,0,0,0,.822,2.272,2.583,2.583,0,0,0,2,.866A2.832,2.832,0,0,0,63.9,17.5a3.666,3.666,0,0,0,1.046-.932l.993.773A3.993,3.993,0,0,1,62.352,19.176Zm-.2-8.525a2.169,2.169,0,0,0-1.652.716,3.482,3.482,0,0,0-.826,2.008h4.764v-.123a3.1,3.1,0,0,0-.668-1.92A2.042,2.042,0,0,0,62.15,10.65Zm7.33-1.16.053,1.2A3.465,3.465,0,0,1,72.38,9.314q3.015,0,3.041,3.4V19H73.8V12.707a2.189,2.189,0,0,0-.47-1.521,1.884,1.884,0,0,0-1.437-.492,2.347,2.347,0,0,0-1.389.422,2.865,2.865,0,0,0-.932,1.107V19H67.942V9.49Zm12.34,9.686a4.155,4.155,0,0,1-3.146-1.27,4.714,4.714,0,0,1-1.213-3.4v-.3A5.707,5.707,0,0,1,78,11.683a4.217,4.217,0,0,1,1.512-1.74,3.8,3.8,0,0,1,2.1-.628A3.562,3.562,0,0,1,84.5,10.536a5.289,5.289,0,0,1,1.028,3.5v.677H79.087a3.38,3.38,0,0,0,.822,2.272,2.583,2.583,0,0,0,2,.866,2.832,2.832,0,0,0,1.459-.352,3.666,3.666,0,0,0,1.046-.932l.993.773A3.993,3.993,0,0,1,81.82,19.176Zm-.2-8.525a2.169,2.169,0,0,0-1.652.716,3.482,3.482,0,0,0-.826,2.008H83.9v-.123a3.1,3.1,0,0,0-.668-1.92A2.042,2.042,0,0,0,81.618,10.65Zm7.33-1.16.053,1.2a3.465,3.465,0,0,1,2.848-1.371q3.015,0,3.041,3.4V19H93.263V12.707a2.189,2.189,0,0,0-.47-1.521,1.884,1.884,0,0,0-1.437-.492,2.347,2.347,0,0,0-1.389.422,2.865,2.865,0,0,0-.932,1.107V19H87.41V9.49Zm17.446,1.459a4.873,4.873,0,0,0-.8-.062,2.143,2.143,0,0,0-2.171,1.362V19H101.8V9.49h1.582l.026,1.1a2.532,2.532,0,0,1,2.268-1.274,1.661,1.661,0,0,1,.721.123Zm5.44,8.227a4.155,4.155,0,0,1-3.146-1.27,4.714,4.714,0,0,1-1.213-3.4v-.3a5.707,5.707,0,0,1,.541-2.527,4.217,4.217,0,0,1,1.512-1.74,3.8,3.8,0,0,1,2.1-.628,3.562,3.562,0,0,1,2.883,1.222,5.289,5.289,0,0,1,1.028,3.5v.677H109.1a3.38,3.38,0,0,0,.822,2.272,2.583,2.583,0,0,0,2,.866,2.832,2.832,0,0,0,1.459-.352,3.666,3.666,0,0,0,1.046-.932l.993.773A3.993,3.993,0,0,1,111.835,19.176Zm-.2-8.525a2.169,2.169,0,0,0-1.652.716,3.482,3.482,0,0,0-.826,2.008h4.764v-.123a3.1,3.1,0,0,0-.668-1.92A2.042,2.042,0,0,0,111.632,10.65Zm11.329,5.827a1.2,1.2,0,0,0-.5-1.024,4.78,4.78,0,0,0-1.731-.628,8.186,8.186,0,0,1-1.96-.633,2.788,2.788,0,0,1-1.072-.879,2.1,2.1,0,0,1-.347-1.213,2.467,2.467,0,0,1,.989-1.978,3.861,3.861,0,0,1,2.527-.809,3.974,3.974,0,0,1,2.624.835,2.652,2.652,0,0,1,1.006,2.136h-1.635a1.468,1.468,0,0,0-.567-1.151,2.124,2.124,0,0,0-1.428-.483,2.223,2.223,0,0,0-1.389.387,1.217,1.217,0,0,0-.5,1.011.986.986,0,0,0,.466.888,5.731,5.731,0,0,0,1.683.571,8.77,8.77,0,0,1,1.973.65,2.878,2.878,0,0,1,1.121.91,2.237,2.237,0,0,1,.365,1.3,2.434,2.434,0,0,1-1.02,2.043,4.277,4.277,0,0,1-2.646.769,4.789,4.789,0,0,1-2.021-.4,3.288,3.288,0,0,1-1.375-1.129,2.722,2.722,0,0,1-.5-1.569h1.626a1.683,1.683,0,0,0,.655,1.3,2.54,2.54,0,0,0,1.613.479,2.622,2.622,0,0,0,1.481-.374A1.148,1.148,0,0,0,122.962,16.478Zm11.777-2.127a5.694,5.694,0,0,1-.993,3.5,3.183,3.183,0,0,1-2.689,1.327,3.488,3.488,0,0,1-2.725-1.1v4.579h-1.626V9.49h1.485l.079,1.055a3.35,3.35,0,0,1,2.76-1.23,3.243,3.243,0,0,1,2.711,1.292,5.756,5.756,0,0,1,1,3.595Zm-1.626-.185a4.2,4.2,0,0,0-.686-2.54,2.208,2.208,0,0,0-1.881-.932A2.39,2.39,0,0,0,128.332,12v4.544a2.4,2.4,0,0,0,2.232,1.3,2.2,2.2,0,0,0,1.859-.927A4.587,4.587,0,0,0,133.113,14.166Zm9.563,3.894a3.454,3.454,0,0,1-2.786,1.116,2.956,2.956,0,0,1-2.316-.883,3.823,3.823,0,0,1-.8-2.615V9.49H138.4v6.144q0,2.162,1.758,2.162a2.434,2.434,0,0,0,2.479-1.389V9.49h1.626V19h-1.547Zm8,1.116a4.155,4.155,0,0,1-3.146-1.27,4.714,4.714,0,0,1-1.213-3.4v-.3a5.707,5.707,0,0,1,.541-2.527,4.217,4.217,0,0,1,1.512-1.74,3.8,3.8,0,0,1,2.1-.628,3.562,3.562,0,0,1,2.883,1.222,5.289,5.289,0,0,1,1.028,3.5v.677H147.94a3.38,3.38,0,0,0,.822,2.272,2.583,2.583,0,0,0,2,.866,2.832,2.832,0,0,0,1.459-.352,3.666,3.666,0,0,0,1.046-.932l.993.773A3.993,3.993,0,0,1,150.673,19.176Zm-.2-8.525a2.169,2.169,0,0,0-1.652.716,3.482,3.482,0,0,0-.826,2.008h4.764v-.123a3.1,3.1,0,0,0-.668-1.92A2.042,2.042,0,0,0,150.471,10.65ZM161.8,16.478a1.2,1.2,0,0,0-.5-1.024,4.78,4.78,0,0,0-1.731-.628,8.186,8.186,0,0,1-1.96-.633,2.788,2.788,0,0,1-1.072-.879,2.1,2.1,0,0,1-.347-1.213,2.467,2.467,0,0,1,.989-1.978,3.861,3.861,0,0,1,2.527-.809,3.974,3.974,0,0,1,2.624.835,2.652,2.652,0,0,1,1.006,2.136H161.7a1.468,1.468,0,0,0-.567-1.151,2.124,2.124,0,0,0-1.428-.483,2.223,2.223,0,0,0-1.389.387,1.217,1.217,0,0,0-.5,1.011.986.986,0,0,0,.466.888,5.731,5.731,0,0,0,1.683.571,8.77,8.77,0,0,1,1.973.65,2.878,2.878,0,0,1,1.121.91,2.237,2.237,0,0,1,.365,1.3,2.434,2.434,0,0,1-1.02,2.043,4.277,4.277,0,0,1-2.646.769,4.789,4.789,0,0,1-2.021-.4,3.288,3.288,0,0,1-1.375-1.129,2.722,2.722,0,0,1-.5-1.569h1.626a1.683,1.683,0,0,0,.655,1.3,2.54,2.54,0,0,0,1.613.479,2.622,2.622,0,0,0,1.481-.374A1.148,1.148,0,0,0,161.8,16.478Zm5.95-9.29v2.3h1.775v1.257h-1.775v5.9a1.32,1.32,0,0,0,.237.858,1,1,0,0,0,.809.286,3.937,3.937,0,0,0,.773-.105V19a4.742,4.742,0,0,1-1.248.175,2.025,2.025,0,0,1-1.644-.659,2.832,2.832,0,0,1-.554-1.872v-5.9h-1.731V9.49h1.731v-2.3ZM177.3,19a3.416,3.416,0,0,1-.229-1,3.628,3.628,0,0,1-2.707,1.178,3.357,3.357,0,0,1-2.307-.8,2.573,2.573,0,0,1-.9-2.017,2.688,2.688,0,0,1,1.129-2.307,5.325,5.325,0,0,1,3.177-.822h1.582v-.747a1.826,1.826,0,0,0-.51-1.358,2.049,2.049,0,0,0-1.5-.505,2.371,2.371,0,0,0-1.459.439,1.3,1.3,0,0,0-.589,1.063h-1.635a2.244,2.244,0,0,1,.505-1.375,3.449,3.449,0,0,1,1.371-1.05,4.613,4.613,0,0,1,1.9-.387,3.759,3.759,0,0,1,2.575.822,2.964,2.964,0,0,1,.967,2.263v4.377A5.351,5.351,0,0,0,179,18.859V19Zm-2.7-1.239a2.858,2.858,0,0,0,1.45-.4,2.392,2.392,0,0,0,.993-1.028V14.386h-1.274q-2.988,0-2.988,1.749a1.48,1.48,0,0,0,.51,1.2A1.959,1.959,0,0,0,174.6,17.761Zm12.155-1.283a1.2,1.2,0,0,0-.5-1.024,4.78,4.78,0,0,0-1.731-.628,8.186,8.186,0,0,1-1.96-.633,2.788,2.788,0,0,1-1.072-.879,2.1,2.1,0,0,1-.347-1.213,2.467,2.467,0,0,1,.989-1.978,3.861,3.861,0,0,1,2.527-.809,3.974,3.974,0,0,1,2.624.835,2.652,2.652,0,0,1,1.006,2.136h-1.635a1.468,1.468,0,0,0-.567-1.151,2.124,2.124,0,0,0-1.428-.483,2.223,2.223,0,0,0-1.389.387,1.217,1.217,0,0,0-.5,1.011.986.986,0,0,0,.466.888,5.731,5.731,0,0,0,1.683.571,8.77,8.77,0,0,1,1.973.65,2.878,2.878,0,0,1,1.121.91,2.237,2.237,0,0,1,.365,1.3,2.434,2.434,0,0,1-1.02,2.043,4.277,4.277,0,0,1-2.646.769,4.789,4.789,0,0,1-2.021-.4,3.288,3.288,0,0,1-1.375-1.129,2.722,2.722,0,0,1-.5-1.569h1.626a1.683,1.683,0,0,0,.655,1.3,2.54,2.54,0,0,0,1.613.479,2.622,2.622,0,0,0,1.481-.374A1.148,1.148,0,0,0,186.753,16.478Zm3.779,1.67a1.018,1.018,0,0,1,.25-.7.954.954,0,0,1,.751-.281.983.983,0,0,1,.76.281,1,1,0,0,1,.259.7.944.944,0,0,1-.259.677,1,1,0,0,1-.76.272.9.9,0,0,1-1-.949Z" transform="translate(859.566 1704.395)" fill="#12263f"/>
    <path id="Trazado_116547" data-name="Trazado 116547" d="M6.032,13.3a7.935,7.935,0,0,1-3.16-1.534,2.93,2.93,0,0,1-.989-2.246,3.1,3.1,0,0,1,1.208-2.5,4.8,4.8,0,0,1,3.142-.989,5.243,5.243,0,0,1,2.351.51,3.866,3.866,0,0,1,1.6,1.406,3.6,3.6,0,0,1,.567,1.96h-1.7a2.34,2.34,0,0,0-.738-1.83,3,3,0,0,0-2.083-.666,3.074,3.074,0,0,0-1.947.55,1.836,1.836,0,0,0-.7,1.528,1.652,1.652,0,0,0,.664,1.325,6.509,6.509,0,0,0,2.259.991,10.481,10.481,0,0,1,2.5.99,3.788,3.788,0,0,1,1.336,1.261,3.219,3.219,0,0,1,.435,1.7A2.99,2.99,0,0,1,9.566,18.24a5.171,5.171,0,0,1-3.243.936,6.015,6.015,0,0,1-2.461-.505A4.142,4.142,0,0,1,2.1,17.286a3.378,3.378,0,0,1-.62-2h1.7a2.2,2.2,0,0,0,.857,1.833,3.608,3.608,0,0,0,2.29.672,3.317,3.317,0,0,0,2.048-.545,1.77,1.77,0,0,0,.712-1.485,1.738,1.738,0,0,0-.659-1.455A7.6,7.6,0,0,0,6.032,13.3Zm10.6,5.88a4.155,4.155,0,0,1-3.146-1.27,4.714,4.714,0,0,1-1.213-3.4v-.3a5.707,5.707,0,0,1,.541-2.527,4.217,4.217,0,0,1,1.512-1.74,3.8,3.8,0,0,1,2.1-.628,3.562,3.562,0,0,1,2.883,1.222,5.289,5.289,0,0,1,1.028,3.5v.677H13.9a3.38,3.38,0,0,0,.822,2.272,2.583,2.583,0,0,0,2,.866,2.832,2.832,0,0,0,1.459-.352,3.666,3.666,0,0,0,1.046-.932l.993.773A3.993,3.993,0,0,1,16.632,19.176Zm-.2-8.525a2.169,2.169,0,0,0-1.652.716,3.482,3.482,0,0,0-.826,2.008h4.764v-.123a3.1,3.1,0,0,0-.668-1.92A2.042,2.042,0,0,0,16.43,10.65Zm14.845.3a4.873,4.873,0,0,0-.8-.062A2.143,2.143,0,0,0,28.3,12.25V19H26.678V9.49H28.26l.026,1.1a2.532,2.532,0,0,1,2.268-1.274,1.661,1.661,0,0,1,.721.123Zm5.44,8.227a4.155,4.155,0,0,1-3.146-1.27,4.714,4.714,0,0,1-1.213-3.4v-.3a5.707,5.707,0,0,1,.541-2.527,4.217,4.217,0,0,1,1.512-1.74,3.8,3.8,0,0,1,2.1-.628A3.562,3.562,0,0,1,39.4,10.536a5.289,5.289,0,0,1,1.028,3.5v.677H33.982a3.38,3.38,0,0,0,.822,2.272,2.583,2.583,0,0,0,2,.866,2.832,2.832,0,0,0,1.459-.352,3.666,3.666,0,0,0,1.046-.932l.993.773A3.993,3.993,0,0,1,36.715,19.176Zm-.2-8.525a2.169,2.169,0,0,0-1.652.716,3.482,3.482,0,0,0-.826,2.008H38.8v-.123a3.1,3.1,0,0,0-.668-1.92A2.042,2.042,0,0,0,36.513,10.65ZM48.176,19a3.416,3.416,0,0,1-.229-1,3.628,3.628,0,0,1-2.707,1.178,3.357,3.357,0,0,1-2.307-.8,2.573,2.573,0,0,1-.9-2.017,2.688,2.688,0,0,1,1.129-2.307,5.325,5.325,0,0,1,3.177-.822h1.582v-.747a1.826,1.826,0,0,0-.51-1.358,2.049,2.049,0,0,0-1.5-.505,2.371,2.371,0,0,0-1.459.439,1.3,1.3,0,0,0-.589,1.063H42.226a2.244,2.244,0,0,1,.505-1.375A3.449,3.449,0,0,1,44.1,9.7,4.613,4.613,0,0,1,46,9.314a3.759,3.759,0,0,1,2.575.822,2.964,2.964,0,0,1,.967,2.263v4.377a5.351,5.351,0,0,0,.334,2.083V19Zm-2.7-1.239a2.858,2.858,0,0,0,1.45-.4,2.392,2.392,0,0,0,.993-1.028V14.386H46.647q-2.988,0-2.988,1.749a1.48,1.48,0,0,0,.51,1.2A1.959,1.959,0,0,0,45.478,17.761ZM53.862,19H52.236V5.5h1.626Zm4.368,0H56.6V9.49h1.626ZM56.473,6.968a.971.971,0,0,1,.242-.668.907.907,0,0,1,.716-.272.922.922,0,0,1,.721.272.96.96,0,0,1,.246.668.929.929,0,0,1-.246.659.938.938,0,0,1-.721.264.924.924,0,0,1-.716-.264A.938.938,0,0,1,56.473,6.968Zm5.889,10.705h5.563V19h-7.55V17.8l5.247-6.97H60.454V9.49h7.207v1.151ZM75.624,19a3.416,3.416,0,0,1-.229-1,3.628,3.628,0,0,1-2.707,1.178,3.357,3.357,0,0,1-2.307-.8,2.573,2.573,0,0,1-.9-2.017,2.688,2.688,0,0,1,1.129-2.307,5.325,5.325,0,0,1,3.177-.822h1.582v-.747a1.826,1.826,0,0,0-.51-1.358,2.049,2.049,0,0,0-1.5-.505,2.371,2.371,0,0,0-1.459.439,1.3,1.3,0,0,0-.589,1.063H69.674a2.244,2.244,0,0,1,.505-1.375A3.449,3.449,0,0,1,71.55,9.7a4.613,4.613,0,0,1,1.9-.387,3.759,3.759,0,0,1,2.575.822A2.964,2.964,0,0,1,77,12.4v4.377a5.351,5.351,0,0,0,.334,2.083V19Zm-2.7-1.239a2.858,2.858,0,0,0,1.45-.4,2.392,2.392,0,0,0,.993-1.028V14.386H74.095q-2.988,0-2.988,1.749a1.48,1.48,0,0,0,.51,1.2A1.959,1.959,0,0,0,72.926,17.761ZM85.767,19H84.141V5.5h1.626Zm8.473,0a3.416,3.416,0,0,1-.229-1A3.628,3.628,0,0,1,91.3,19.176,3.357,3.357,0,0,1,89,18.38a2.573,2.573,0,0,1-.9-2.017,2.688,2.688,0,0,1,1.129-2.307,5.325,5.325,0,0,1,3.177-.822h1.582v-.747a1.826,1.826,0,0,0-.51-1.358,2.049,2.049,0,0,0-1.5-.505,2.371,2.371,0,0,0-1.459.439,1.3,1.3,0,0,0-.589,1.063H88.289a2.244,2.244,0,0,1,.505-1.375A3.449,3.449,0,0,1,90.166,9.7a4.613,4.613,0,0,1,1.9-.387,3.759,3.759,0,0,1,2.575.822A2.964,2.964,0,0,1,95.61,12.4v4.377a5.351,5.351,0,0,0,.334,2.083V19Zm-2.7-1.239a2.858,2.858,0,0,0,1.45-.4,2.392,2.392,0,0,0,.993-1.028V14.386H92.71q-2.988,0-2.988,1.749a1.48,1.48,0,0,0,.51,1.2A1.959,1.959,0,0,0,91.541,17.761Zm15.021,1.415a4.155,4.155,0,0,1-3.146-1.27,4.714,4.714,0,0,1-1.213-3.4v-.3a5.707,5.707,0,0,1,.541-2.527,4.217,4.217,0,0,1,1.512-1.74,3.8,3.8,0,0,1,2.1-.628,3.562,3.562,0,0,1,2.883,1.222,5.289,5.289,0,0,1,1.028,3.5v.677h-6.442a3.38,3.38,0,0,0,.822,2.272,2.583,2.583,0,0,0,2,.866,2.832,2.832,0,0,0,1.459-.352,3.666,3.666,0,0,0,1.046-.932l.993.773A3.993,3.993,0,0,1,106.562,19.176Zm-.2-8.525a2.169,2.169,0,0,0-1.652.716,3.482,3.482,0,0,0-.826,2.008h4.764v-.123a3.1,3.1,0,0,0-.668-1.92A2.042,2.042,0,0,0,106.359,10.65Zm7.33-1.16.053,1.2a3.465,3.465,0,0,1,2.848-1.371q3.015,0,3.041,3.4V19H118V12.707a2.189,2.189,0,0,0-.47-1.521,1.884,1.884,0,0,0-1.437-.492,2.347,2.347,0,0,0-1.389.422,2.865,2.865,0,0,0-.932,1.107V19h-1.626V9.49Zm10.6-2.3v2.3h1.775v1.257h-1.775v5.9a1.32,1.32,0,0,0,.237.858,1,1,0,0,0,.809.286,3.937,3.937,0,0,0,.773-.105V19a4.742,4.742,0,0,1-1.248.175,2.025,2.025,0,0,1-1.644-.659,2.832,2.832,0,0,1-.554-1.872v-5.9h-1.731V9.49h1.731v-2.3Zm8.271,3.762a4.873,4.873,0,0,0-.8-.062,2.143,2.143,0,0,0-2.171,1.362V19h-1.626V9.49h1.582l.026,1.1a2.532,2.532,0,0,1,2.268-1.274,1.661,1.661,0,0,1,.721.123ZM138,19.176a4.155,4.155,0,0,1-3.146-1.27,4.714,4.714,0,0,1-1.213-3.4v-.3a5.707,5.707,0,0,1,.541-2.527,4.217,4.217,0,0,1,1.512-1.74,3.8,3.8,0,0,1,2.1-.628,3.562,3.562,0,0,1,2.883,1.222,5.289,5.289,0,0,1,1.028,3.5v.677h-6.442a3.38,3.38,0,0,0,.822,2.272,2.583,2.583,0,0,0,2,.866,2.832,2.832,0,0,0,1.459-.352,3.666,3.666,0,0,0,1.046-.932l.993.773A3.993,3.993,0,0,1,138,19.176Zm-.2-8.525a2.169,2.169,0,0,0-1.652.716,3.482,3.482,0,0,0-.826,2.008h4.764v-.123a3.1,3.1,0,0,0-.668-1.92A2.042,2.042,0,0,0,137.8,10.65Zm8.815,6.144,2.355-7.3h1.661L147.22,19h-1.239l-3.445-9.51H144.2ZM153.961,19h-1.626V9.49h1.626ZM152.2,6.968a.971.971,0,0,1,.242-.668.907.907,0,0,1,.716-.272.922.922,0,0,1,.721.272.96.96,0,0,1,.246.668.929.929,0,0,1-.246.659.938.938,0,0,1-.721.264.924.924,0,0,1-.716-.264A.938.938,0,0,1,152.2,6.968Zm9.9,9.51a1.2,1.2,0,0,0-.5-1.024,4.78,4.78,0,0,0-1.731-.628,8.186,8.186,0,0,1-1.96-.633,2.788,2.788,0,0,1-1.072-.879,2.1,2.1,0,0,1-.347-1.213,2.467,2.467,0,0,1,.989-1.978,3.861,3.861,0,0,1,2.527-.809,3.974,3.974,0,0,1,2.624.835,2.652,2.652,0,0,1,1.006,2.136H162a1.468,1.468,0,0,0-.567-1.151,2.124,2.124,0,0,0-1.428-.483,2.223,2.223,0,0,0-1.389.387,1.217,1.217,0,0,0-.5,1.011.986.986,0,0,0,.466.888,5.731,5.731,0,0,0,1.683.571,8.77,8.77,0,0,1,1.973.65,2.878,2.878,0,0,1,1.121.91,2.237,2.237,0,0,1,.365,1.3,2.434,2.434,0,0,1-1.02,2.043,4.277,4.277,0,0,1-2.646.769,4.789,4.789,0,0,1-2.021-.4,3.288,3.288,0,0,1-1.375-1.129,2.722,2.722,0,0,1-.5-1.569h1.626a1.683,1.683,0,0,0,.655,1.3,2.54,2.54,0,0,0,1.613.479,2.622,2.622,0,0,0,1.481-.374A1.148,1.148,0,0,0,162.1,16.478Zm5.95-9.29v2.3h1.775v1.257H168.05v5.9a1.32,1.32,0,0,0,.237.858,1,1,0,0,0,.809.286,3.937,3.937,0,0,0,.773-.105V19a4.742,4.742,0,0,1-1.248.175,2.025,2.025,0,0,1-1.644-.659,2.832,2.832,0,0,1-.554-1.872v-5.9h-1.731V9.49h1.731v-2.3ZM177.595,19a3.416,3.416,0,0,1-.229-1,3.628,3.628,0,0,1-2.707,1.178,3.357,3.357,0,0,1-2.307-.8,2.573,2.573,0,0,1-.9-2.017,2.688,2.688,0,0,1,1.129-2.307,5.325,5.325,0,0,1,3.177-.822h1.582v-.747a1.826,1.826,0,0,0-.51-1.358,2.049,2.049,0,0,0-1.5-.505,2.371,2.371,0,0,0-1.459.439,1.3,1.3,0,0,0-.589,1.063h-1.635a2.244,2.244,0,0,1,.505-1.375,3.449,3.449,0,0,1,1.371-1.05,4.613,4.613,0,0,1,1.9-.387,3.759,3.759,0,0,1,2.575.822,2.964,2.964,0,0,1,.967,2.263v4.377a5.351,5.351,0,0,0,.334,2.083V19Zm-2.7-1.239a2.858,2.858,0,0,0,1.45-.4,2.392,2.392,0,0,0,.993-1.028V14.386h-1.274q-2.988,0-2.988,1.749a1.48,1.48,0,0,0,.51,1.2A1.959,1.959,0,0,0,174.9,17.761Zm6.653.387a1.018,1.018,0,0,1,.25-.7.954.954,0,0,1,.751-.281.983.983,0,0,1,.76.281,1,1,0,0,1,.259.7.944.944,0,0,1-.259.677,1,1,0,0,1-.76.272.9.9,0,0,1-1-.949Z" transform="translate(549.566 1704.962)" fill="#12263f"/>
    <path id="Trazado_116548" data-name="Trazado 116548" d="M16.394,13.3a7.935,7.935,0,0,1-3.16-1.534,2.93,2.93,0,0,1-.989-2.246,3.1,3.1,0,0,1,1.208-2.5A4.8,4.8,0,0,1,16.6,6.027a5.243,5.243,0,0,1,2.351.51,3.866,3.866,0,0,1,1.6,1.406,3.6,3.6,0,0,1,.567,1.96h-1.7a2.34,2.34,0,0,0-.738-1.83A3,3,0,0,0,16.6,7.407a3.074,3.074,0,0,0-1.947.55,1.836,1.836,0,0,0-.7,1.528,1.652,1.652,0,0,0,.664,1.325,6.509,6.509,0,0,0,2.259.991,10.481,10.481,0,0,1,2.5.99,3.788,3.788,0,0,1,1.336,1.261,3.219,3.219,0,0,1,.435,1.7,2.99,2.99,0,0,1-1.213,2.492,5.171,5.171,0,0,1-3.243.936,6.015,6.015,0,0,1-2.461-.505,4.142,4.142,0,0,1-1.762-1.384,3.378,3.378,0,0,1-.62-2h1.7a2.2,2.2,0,0,0,.857,1.833,3.608,3.608,0,0,0,2.29.672,3.317,3.317,0,0,0,2.048-.545,1.77,1.77,0,0,0,.712-1.485,1.738,1.738,0,0,0-.659-1.455A7.6,7.6,0,0,0,16.394,13.3Zm10.6,5.88a4.155,4.155,0,0,1-3.146-1.27,4.714,4.714,0,0,1-1.213-3.4v-.3a5.707,5.707,0,0,1,.541-2.527,4.217,4.217,0,0,1,1.512-1.74,3.8,3.8,0,0,1,2.1-.628,3.562,3.562,0,0,1,2.883,1.222,5.289,5.289,0,0,1,1.028,3.5v.677H24.26a3.38,3.38,0,0,0,.822,2.272,2.583,2.583,0,0,0,2,.866,2.832,2.832,0,0,0,1.459-.352,3.666,3.666,0,0,0,1.046-.932l.993.773A3.993,3.993,0,0,1,26.994,19.176Zm-.2-8.525a2.169,2.169,0,0,0-1.652.716,3.482,3.482,0,0,0-.826,2.008h4.764v-.123a3.1,3.1,0,0,0-.668-1.92A2.042,2.042,0,0,0,26.792,10.65Zm14.845.3a4.873,4.873,0,0,0-.8-.062,2.143,2.143,0,0,0-2.171,1.362V19H37.04V9.49h1.582l.026,1.1a2.532,2.532,0,0,1,2.268-1.274,1.661,1.661,0,0,1,.721.123Zm5.44,8.227a4.155,4.155,0,0,1-3.146-1.27,4.714,4.714,0,0,1-1.213-3.4v-.3a5.707,5.707,0,0,1,.541-2.527,4.217,4.217,0,0,1,1.512-1.74,3.8,3.8,0,0,1,2.1-.628,3.562,3.562,0,0,1,2.883,1.222,5.289,5.289,0,0,1,1.028,3.5v.677H44.343a3.38,3.38,0,0,0,.822,2.272,2.583,2.583,0,0,0,2,.866,2.832,2.832,0,0,0,1.459-.352,3.666,3.666,0,0,0,1.046-.932l.993.773A3.993,3.993,0,0,1,47.077,19.176Zm-.2-8.525a2.169,2.169,0,0,0-1.652.716,3.482,3.482,0,0,0-.826,2.008H49.16v-.123a3.1,3.1,0,0,0-.668-1.92A2.042,2.042,0,0,0,46.875,10.65ZM58.538,19a3.416,3.416,0,0,1-.229-1A3.628,3.628,0,0,1,55.6,19.176a3.357,3.357,0,0,1-2.307-.8,2.573,2.573,0,0,1-.9-2.017,2.688,2.688,0,0,1,1.129-2.307,5.325,5.325,0,0,1,3.177-.822h1.582v-.747a1.826,1.826,0,0,0-.51-1.358,2.049,2.049,0,0,0-1.5-.505,2.371,2.371,0,0,0-1.459.439,1.3,1.3,0,0,0-.589,1.063H52.588a2.244,2.244,0,0,1,.505-1.375A3.449,3.449,0,0,1,54.464,9.7a4.613,4.613,0,0,1,1.9-.387,3.759,3.759,0,0,1,2.575.822,2.964,2.964,0,0,1,.967,2.263v4.377a5.351,5.351,0,0,0,.334,2.083V19Zm-2.7-1.239a2.858,2.858,0,0,0,1.45-.4,2.392,2.392,0,0,0,.993-1.028V14.386H57.009q-2.988,0-2.988,1.749a1.48,1.48,0,0,0,.51,1.2A1.959,1.959,0,0,0,55.84,17.761ZM64.224,19H62.6V5.5h1.626Zm4.368,0H66.967V9.49h1.626ZM66.835,6.968a.971.971,0,0,1,.242-.668.907.907,0,0,1,.716-.272.922.922,0,0,1,.721.272.96.96,0,0,1,.246.668.929.929,0,0,1-.246.659.938.938,0,0,1-.721.264.924.924,0,0,1-.716-.264A.938.938,0,0,1,66.835,6.968Zm5.889,10.705h5.563V19h-7.55V17.8l5.247-6.97H70.816V9.49h7.207v1.151ZM85.986,19a3.416,3.416,0,0,1-.229-1,3.628,3.628,0,0,1-2.707,1.178,3.357,3.357,0,0,1-2.307-.8,2.573,2.573,0,0,1-.9-2.017,2.688,2.688,0,0,1,1.129-2.307,5.325,5.325,0,0,1,3.177-.822h1.582v-.747a1.826,1.826,0,0,0-.51-1.358,2.049,2.049,0,0,0-1.5-.505,2.371,2.371,0,0,0-1.459.439,1.3,1.3,0,0,0-.589,1.063H80.036a2.244,2.244,0,0,1,.505-1.375A3.449,3.449,0,0,1,81.912,9.7a4.613,4.613,0,0,1,1.9-.387,3.759,3.759,0,0,1,2.575.822,2.964,2.964,0,0,1,.967,2.263v4.377a5.351,5.351,0,0,0,.334,2.083V19Zm-2.7-1.239a2.858,2.858,0,0,0,1.45-.4,2.392,2.392,0,0,0,.993-1.028V14.386H84.457q-2.988,0-2.988,1.749a1.48,1.48,0,0,0,.51,1.2A1.959,1.959,0,0,0,83.288,17.761ZM96.129,19H94.5V5.5h1.626Zm8.473,0a3.416,3.416,0,0,1-.229-1,3.628,3.628,0,0,1-2.707,1.178,3.357,3.357,0,0,1-2.307-.8,2.573,2.573,0,0,1-.9-2.017,2.688,2.688,0,0,1,1.129-2.307,5.325,5.325,0,0,1,3.177-.822h1.582v-.747a1.826,1.826,0,0,0-.51-1.358,2.049,2.049,0,0,0-1.5-.505,2.371,2.371,0,0,0-1.459.439,1.3,1.3,0,0,0-.589,1.063H98.651a2.244,2.244,0,0,1,.505-1.375,3.449,3.449,0,0,1,1.371-1.05,4.613,4.613,0,0,1,1.9-.387,3.759,3.759,0,0,1,2.575.822,2.964,2.964,0,0,1,.967,2.263v4.377a5.351,5.351,0,0,0,.334,2.083V19Zm-2.7-1.239a2.858,2.858,0,0,0,1.45-.4,2.392,2.392,0,0,0,.993-1.028V14.386h-1.274q-2.988,0-2.988,1.749a1.48,1.48,0,0,0,.51,1.2A1.959,1.959,0,0,0,101.9,17.761Zm16.611-1.283a1.2,1.2,0,0,0-.5-1.024,4.78,4.78,0,0,0-1.731-.628,8.186,8.186,0,0,1-1.96-.633,2.788,2.788,0,0,1-1.072-.879,2.1,2.1,0,0,1-.347-1.213,2.467,2.467,0,0,1,.989-1.978,3.861,3.861,0,0,1,2.527-.809,3.974,3.974,0,0,1,2.624.835,2.652,2.652,0,0,1,1.006,2.136h-1.635a1.468,1.468,0,0,0-.567-1.151,2.124,2.124,0,0,0-1.428-.483,2.223,2.223,0,0,0-1.389.387,1.217,1.217,0,0,0-.5,1.011.986.986,0,0,0,.466.888,5.731,5.731,0,0,0,1.683.571,8.77,8.77,0,0,1,1.973.65,2.878,2.878,0,0,1,1.121.91,2.237,2.237,0,0,1,.365,1.3,2.434,2.434,0,0,1-1.02,2.043,4.277,4.277,0,0,1-2.646.769,4.789,4.789,0,0,1-2.021-.4,3.288,3.288,0,0,1-1.375-1.129,2.722,2.722,0,0,1-.5-1.569h1.626a1.683,1.683,0,0,0,.655,1.3,2.54,2.54,0,0,0,1.613.479,2.622,2.622,0,0,0,1.481-.374A1.148,1.148,0,0,0,118.514,16.478Zm7.69,2.7a4.155,4.155,0,0,1-3.146-1.27,4.714,4.714,0,0,1-1.213-3.4v-.3a5.707,5.707,0,0,1,.541-2.527,4.217,4.217,0,0,1,1.512-1.74,3.8,3.8,0,0,1,2.1-.628,3.562,3.562,0,0,1,2.883,1.222,5.289,5.289,0,0,1,1.028,3.5v.677h-6.442a3.38,3.38,0,0,0,.822,2.272,2.583,2.583,0,0,0,2,.866,2.832,2.832,0,0,0,1.459-.352,3.666,3.666,0,0,0,1.046-.932l.993.773A3.993,3.993,0,0,1,126.2,19.176ZM126,10.65a2.169,2.169,0,0,0-1.652.716,3.482,3.482,0,0,0-.826,2.008h4.764v-.123a3.1,3.1,0,0,0-.668-1.92A2.042,2.042,0,0,0,126,10.65ZM133.561,19h-1.626V5.5h1.626Zm6.548.176a4.155,4.155,0,0,1-3.146-1.27,4.714,4.714,0,0,1-1.213-3.4v-.3a5.707,5.707,0,0,1,.541-2.527,4.217,4.217,0,0,1,1.512-1.74,3.8,3.8,0,0,1,2.1-.628,3.562,3.562,0,0,1,2.883,1.222,5.289,5.289,0,0,1,1.028,3.5v.677h-6.442a3.38,3.38,0,0,0,.822,2.272,2.583,2.583,0,0,0,2,.866,2.832,2.832,0,0,0,1.459-.352,3.666,3.666,0,0,0,1.046-.932l.993.773A3.993,3.993,0,0,1,140.109,19.176Zm-.2-8.525a2.169,2.169,0,0,0-1.652.716,3.482,3.482,0,0,0-.826,2.008h4.764v-.123a3.1,3.1,0,0,0-.668-1.92A2.042,2.042,0,0,0,139.907,10.65Zm9.606,7.2a2.342,2.342,0,0,0,1.521-.527A1.855,1.855,0,0,0,151.755,16h1.538a2.949,2.949,0,0,1-.562,1.556,3.7,3.7,0,0,1-1.384,1.178,3.994,3.994,0,0,1-1.833.439,3.918,3.918,0,0,1-3.089-1.3,5.163,5.163,0,0,1-1.147-3.546v-.272a5.725,5.725,0,0,1,.51-2.47,3.883,3.883,0,0,1,1.463-1.679,4.157,4.157,0,0,1,2.254-.6,3.814,3.814,0,0,1,2.659.958,3.424,3.424,0,0,1,1.129,2.487h-1.538a2.241,2.241,0,0,0-.7-1.516,2.174,2.174,0,0,0-1.551-.593,2.276,2.276,0,0,0-1.92.892,4.19,4.19,0,0,0-.681,2.58v.308a4.106,4.106,0,0,0,.677,2.531A2.287,2.287,0,0,0,149.513,17.849Zm9.422,0a2.342,2.342,0,0,0,1.521-.527A1.855,1.855,0,0,0,161.176,16h1.538a2.949,2.949,0,0,1-.562,1.556,3.7,3.7,0,0,1-1.384,1.178,3.994,3.994,0,0,1-1.833.439,3.918,3.918,0,0,1-3.089-1.3,5.163,5.163,0,0,1-1.147-3.546v-.272a5.725,5.725,0,0,1,.51-2.47,3.883,3.883,0,0,1,1.463-1.679,4.157,4.157,0,0,1,2.254-.6,3.814,3.814,0,0,1,2.659.958,3.424,3.424,0,0,1,1.129,2.487h-1.538a2.241,2.241,0,0,0-.7-1.516,2.174,2.174,0,0,0-1.551-.593,2.276,2.276,0,0,0-1.92.892,4.19,4.19,0,0,0-.681,2.58v.308A4.106,4.106,0,0,0,157,16.961,2.287,2.287,0,0,0,158.935,17.849ZM166.309,19h-1.626V9.49h1.626ZM164.551,6.968a.971.971,0,0,1,.242-.668.907.907,0,0,1,.716-.272.922.922,0,0,1,.721.272.96.96,0,0,1,.246.668.929.929,0,0,1-.246.659.938.938,0,0,1-.721.264.924.924,0,0,1-.716-.264A.938.938,0,0,1,164.551,6.968Zm3.929,7.189a5.617,5.617,0,0,1,.549-2.514,4.1,4.1,0,0,1,1.529-1.723,4.163,4.163,0,0,1,2.237-.606,4.01,4.01,0,0,1,3.142,1.345,5.174,5.174,0,0,1,1.2,3.577v.114a5.666,5.666,0,0,1-.532,2.492,4.038,4.038,0,0,1-1.521,1.718,4.211,4.211,0,0,1-2.272.615,4,4,0,0,1-3.133-1.345,5.147,5.147,0,0,1-1.2-3.56Zm1.635.193a4.068,4.068,0,0,0,.734,2.54,2.487,2.487,0,0,0,3.933-.013,4.449,4.449,0,0,0,.729-2.72,4.061,4.061,0,0,0-.743-2.536,2.361,2.361,0,0,0-1.973-.971,2.335,2.335,0,0,0-1.942.958A4.416,4.416,0,0,0,170.115,14.351ZM173.534,5.5H175.5l-2.355,2.584-1.31,0Zm7.181,3.99.053,1.2a3.465,3.465,0,0,1,2.848-1.371q3.015,0,3.041,3.4V19H185.03V12.707a2.189,2.189,0,0,0-.47-1.521,1.884,1.884,0,0,0-1.437-.492,2.347,2.347,0,0,0-1.389.422,2.865,2.865,0,0,0-.932,1.107V19h-1.626V9.49Zm12.454,4.676a5.571,5.571,0,0,1,1.037-3.52,3.529,3.529,0,0,1,5.361-.189V5.5h1.626V19H199.7l-.079-1.02a3.311,3.311,0,0,1-2.716,1.2,3.248,3.248,0,0,1-2.694-1.354,5.634,5.634,0,0,1-1.042-3.533Zm1.626.185a4.218,4.218,0,0,0,.668,2.531,2.159,2.159,0,0,0,1.846.914,2.372,2.372,0,0,0,2.259-1.389V12.039a2.39,2.39,0,0,0-2.241-1.345,2.17,2.17,0,0,0-1.863.923A4.644,4.644,0,0,0,194.795,14.351Zm12.867,4.825a4.155,4.155,0,0,1-3.146-1.27,4.714,4.714,0,0,1-1.213-3.4v-.3a5.707,5.707,0,0,1,.541-2.527,4.217,4.217,0,0,1,1.512-1.74,3.8,3.8,0,0,1,2.1-.628,3.562,3.562,0,0,1,2.883,1.222,5.289,5.289,0,0,1,1.028,3.5v.677h-6.442a3.38,3.38,0,0,0,.822,2.272,2.583,2.583,0,0,0,2,.866,2.832,2.832,0,0,0,1.459-.352,3.666,3.666,0,0,0,1.046-.932l.993.773A3.993,3.993,0,0,1,207.662,19.176Zm-.2-8.525a2.169,2.169,0,0,0-1.652.716,3.482,3.482,0,0,0-.826,2.008h4.764v-.123a3.1,3.1,0,0,0-.668-1.92A2.042,2.042,0,0,0,207.46,10.65ZM63.086,43H61.46V29.5h1.626Zm2.171-4.843a5.617,5.617,0,0,1,.549-2.514,4.1,4.1,0,0,1,1.529-1.723,4.163,4.163,0,0,1,2.237-.606,4.01,4.01,0,0,1,3.142,1.345,5.174,5.174,0,0,1,1.2,3.577v.114a5.666,5.666,0,0,1-.532,2.492,4.038,4.038,0,0,1-1.521,1.718,4.211,4.211,0,0,1-2.272.615,4,4,0,0,1-3.133-1.345,5.147,5.147,0,0,1-1.2-3.56Zm1.635.193a4.068,4.068,0,0,0,.734,2.54,2.487,2.487,0,0,0,3.933-.013,4.449,4.449,0,0,0,.729-2.72,4.061,4.061,0,0,0-.743-2.536,2.361,2.361,0,0,0-1.973-.971,2.335,2.335,0,0,0-1.942.958A4.416,4.416,0,0,0,66.892,38.351Zm14.6,2.127a1.2,1.2,0,0,0-.5-1.024,4.78,4.78,0,0,0-1.731-.628,8.186,8.186,0,0,1-1.96-.633,2.788,2.788,0,0,1-1.072-.879,2.1,2.1,0,0,1-.347-1.213,2.467,2.467,0,0,1,.989-1.978,3.861,3.861,0,0,1,2.527-.809,3.974,3.974,0,0,1,2.624.835,2.652,2.652,0,0,1,1.006,2.136H81.394a1.468,1.468,0,0,0-.567-1.151A2.124,2.124,0,0,0,79.4,34.65a2.223,2.223,0,0,0-1.389.387,1.217,1.217,0,0,0-.5,1.011.986.986,0,0,0,.466.888,5.731,5.731,0,0,0,1.683.571,8.77,8.77,0,0,1,1.973.65,2.878,2.878,0,0,1,1.121.91,2.237,2.237,0,0,1,.365,1.3,2.434,2.434,0,0,1-1.02,2.043,4.277,4.277,0,0,1-2.646.769,4.789,4.789,0,0,1-2.021-.4,3.288,3.288,0,0,1-1.375-1.129,2.722,2.722,0,0,1-.5-1.569h1.626a1.683,1.683,0,0,0,.655,1.3,2.54,2.54,0,0,0,1.613.479,2.622,2.622,0,0,0,1.481-.374A1.148,1.148,0,0,0,81.49,40.478Zm12.146,2.7a4.155,4.155,0,0,1-3.146-1.27,4.714,4.714,0,0,1-1.213-3.4v-.3a5.707,5.707,0,0,1,.541-2.527,4.217,4.217,0,0,1,1.512-1.74,3.8,3.8,0,0,1,2.1-.628,3.562,3.562,0,0,1,2.883,1.222,5.289,5.289,0,0,1,1.028,3.5v.677H90.9a3.38,3.38,0,0,0,.822,2.272,2.583,2.583,0,0,0,2,.866,2.832,2.832,0,0,0,1.459-.352,3.666,3.666,0,0,0,1.046-.932l.993.773A3.993,3.993,0,0,1,93.637,43.176Zm-.2-8.525a2.169,2.169,0,0,0-1.652.716,3.482,3.482,0,0,0-.826,2.008H95.72v-.123a3.1,3.1,0,0,0-.668-1.92A2.042,2.042,0,0,0,93.435,34.65Zm8.982,2.312,2.109-3.472h1.9l-3.111,4.7L106.522,43h-1.881l-2.2-3.56-2.2,3.56h-1.89l3.208-4.808-3.111-4.7h1.881Zm13.764,1.389a5.694,5.694,0,0,1-.993,3.5,3.183,3.183,0,0,1-2.689,1.327,3.488,3.488,0,0,1-2.725-1.1v4.579h-1.626V33.49h1.485l.079,1.055a3.35,3.35,0,0,1,2.76-1.23,3.243,3.243,0,0,1,2.711,1.292,5.756,5.756,0,0,1,1,3.595Zm-1.626-.185a4.2,4.2,0,0,0-.686-2.54,2.208,2.208,0,0,0-1.881-.932A2.39,2.39,0,0,0,109.774,36v4.544a2.4,2.4,0,0,0,2.232,1.3,2.2,2.2,0,0,0,1.859-.927A4.587,4.587,0,0,0,114.555,38.166Zm7.638,5.01a4.155,4.155,0,0,1-3.146-1.27,4.714,4.714,0,0,1-1.213-3.4v-.3a5.707,5.707,0,0,1,.541-2.527,4.217,4.217,0,0,1,1.512-1.74,3.8,3.8,0,0,1,2.1-.628,3.562,3.562,0,0,1,2.883,1.222,5.289,5.289,0,0,1,1.028,3.5v.677h-6.442a3.38,3.38,0,0,0,.822,2.272,2.583,2.583,0,0,0,2,.866,2.832,2.832,0,0,0,1.459-.352,3.666,3.666,0,0,0,1.046-.932l.993.773A3.993,3.993,0,0,1,122.193,43.176Zm-.2-8.525a2.169,2.169,0,0,0-1.652.716,3.482,3.482,0,0,0-.826,2.008h4.764v-.123a3.1,3.1,0,0,0-.668-1.92A2.042,2.042,0,0,0,121.99,34.65Zm10.389.3a4.873,4.873,0,0,0-.8-.062,2.143,2.143,0,0,0-2.171,1.362V43h-1.626V33.49h1.582l.026,1.1a2.532,2.532,0,0,1,2.268-1.274,1.661,1.661,0,0,1,.721.123Zm4.14-3.762v2.3h1.775v1.257h-1.775v5.9a1.32,1.32,0,0,0,.237.858,1,1,0,0,0,.809.286,3.937,3.937,0,0,0,.773-.105V43a4.742,4.742,0,0,1-1.248.175,2.025,2.025,0,0,1-1.644-.659,2.832,2.832,0,0,1-.554-1.872v-5.9h-1.731V33.49h1.731v-2.3Zm3.067,6.97a5.617,5.617,0,0,1,.549-2.514,4.1,4.1,0,0,1,1.529-1.723,4.163,4.163,0,0,1,2.237-.606,4.01,4.01,0,0,1,3.142,1.345,5.174,5.174,0,0,1,1.2,3.577v.114a5.666,5.666,0,0,1-.532,2.492,4.038,4.038,0,0,1-1.521,1.718,4.211,4.211,0,0,1-2.272.615,4,4,0,0,1-3.133-1.345,5.147,5.147,0,0,1-1.2-3.56Zm1.635.193a4.068,4.068,0,0,0,.734,2.54,2.487,2.487,0,0,0,3.933-.013,4.449,4.449,0,0,0,.729-2.72,4.061,4.061,0,0,0-.743-2.536,2.361,2.361,0,0,0-1.973-.971,2.335,2.335,0,0,0-1.942.958A4.416,4.416,0,0,0,141.221,38.351Zm14.6,2.127a1.2,1.2,0,0,0-.5-1.024,4.78,4.78,0,0,0-1.731-.628,8.186,8.186,0,0,1-1.96-.633,2.788,2.788,0,0,1-1.072-.879,2.1,2.1,0,0,1-.347-1.213,2.467,2.467,0,0,1,.989-1.978,3.861,3.861,0,0,1,2.527-.809,3.974,3.974,0,0,1,2.624.835,2.652,2.652,0,0,1,1.006,2.136h-1.635a1.468,1.468,0,0,0-.567-1.151,2.124,2.124,0,0,0-1.428-.483,2.223,2.223,0,0,0-1.389.387,1.217,1.217,0,0,0-.5,1.011.986.986,0,0,0,.466.888,5.731,5.731,0,0,0,1.683.571,8.77,8.77,0,0,1,1.973.65,2.878,2.878,0,0,1,1.121.91,2.237,2.237,0,0,1,.365,1.3,2.434,2.434,0,0,1-1.02,2.043,4.277,4.277,0,0,1-2.646.769,4.789,4.789,0,0,1-2.021-.4,3.288,3.288,0,0,1-1.375-1.129,2.722,2.722,0,0,1-.5-1.569h1.626a1.683,1.683,0,0,0,.655,1.3,2.54,2.54,0,0,0,1.613.479,2.622,2.622,0,0,0,1.481-.374A1.148,1.148,0,0,0,155.82,40.478Zm3.779,1.67a1.018,1.018,0,0,1,.25-.7.954.954,0,0,1,.751-.281.983.983,0,0,1,.76.281,1,1,0,0,1,.259.7.944.944,0,0,1-.259.677,1,1,0,0,1-.76.272.9.9,0,0,1-1-.949Z" transform="translate(215.566 1691.403)" fill="#12263f"/>
    <g id="Grupo_82251" data-name="Grupo 82251" transform="translate(1241.566 1621.198)">
      <path id="Trazado_115620" data-name="Trazado 115620" d="M477.353-95.377a7.429,7.429,0,0,1-7.242-7.585,7.429,7.429,0,0,1,7.242-7.587,7.428,7.428,0,0,1,7.242,7.587A7.428,7.428,0,0,1,477.353-95.377Zm0-12.667a4.924,4.924,0,0,0-4.737,5.082,4.923,4.923,0,0,0,4.737,5.08,4.923,4.923,0,0,0,4.737-5.08A4.924,4.924,0,0,0,477.353-108.044Z" transform="translate(-463.751 110.549)" fill="#5c22c3"/>
      <path id="Trazado_115621" data-name="Trazado 115621" d="M476.124-53.321a1.252,1.252,0,0,1-1.252-1.253V-75.079a1.252,1.252,0,0,1,1.252-1.253,1.253,1.253,0,0,1,1.253,1.253v20.505A1.253,1.253,0,0,1,476.124-53.321Z" transform="translate(-462.522 119.382)" fill="#5c22c3"/>
      <path id="Trazado_115622" data-name="Trazado 115622" d="M490.735-87.88h-9.647a1.252,1.252,0,0,1-1.252-1.253,1.252,1.252,0,0,1,1.252-1.252h9.647a1.253,1.253,0,0,1,1.253,1.252A1.253,1.253,0,0,1,490.735-87.88Z" transform="translate(-461.241 115.754)" fill="#5c22c3"/>
      <path id="Trazado_115623" data-name="Trazado 115623" d="M484.9-48.34H472.45a1.253,1.253,0,0,1-1.253-1.253v-20.92a4.332,4.332,0,0,1-2.048.391,4.411,4.411,0,0,1-4.093-4.486V-88.237a7.4,7.4,0,0,1,7.394-7.39h20.7a1.252,1.252,0,0,1,1.253,1.252,1.253,1.253,0,0,1-1.253,1.253h-20.7a4.893,4.893,0,0,0-4.889,4.885v13.628a1.932,1.932,0,0,0,1.719,1.984,1.829,1.829,0,0,0,1.351-.5,1.8,1.8,0,0,0,.566-1.319,1.253,1.253,0,0,1,1.253-1.253,1.253,1.253,0,0,1,1.252,1.253v23.594h9.949V-87.78a1.252,1.252,0,0,1,1.252-1.252,1.253,1.253,0,0,1,1.253,1.252v38.187A1.253,1.253,0,0,1,484.9-48.34Z" transform="translate(-465.056 114.401)" fill="#5c22c3"/>
      <path id="Trazado_115624" data-name="Trazado 115624" d="M471.19-74.617a1.253,1.253,0,0,1-1.253-1.252V-88.834a1.253,1.253,0,0,1,1.253-1.252,1.253,1.253,0,0,1,1.252,1.252v12.965A1.253,1.253,0,0,1,471.19-74.617Z" transform="translate(-463.796 115.831)" fill="#5c22c3"/>
      <path id="Trazado_115625" data-name="Trazado 115625" d="M498.188-88.428a4.316,4.316,0,0,1-4.312-4.31,4.316,4.316,0,0,1,4.312-4.31,4.315,4.315,0,0,1,4.31,4.31A4.315,4.315,0,0,1,498.188-88.428Zm0-6.116a1.808,1.808,0,0,0-1.807,1.805,1.808,1.808,0,0,0,1.807,1.805,1.808,1.808,0,0,0,1.805-1.805A1.808,1.808,0,0,0,498.188-94.544Z" transform="translate(-457.617 114.034)" fill="#5c22c3"/>
      <path id="Trazado_115626" data-name="Trazado 115626" d="M501.9-56.223H496.63a1.252,1.252,0,0,1-1.252-1.252V-82.936a9.541,9.541,0,0,1-5.672-8.726,9.568,9.568,0,0,1,9.557-9.557,9.567,9.567,0,0,1,9.556,9.557,9.542,9.542,0,0,1-5.67,8.726v7.326h2.473a1.253,1.253,0,0,1,1.253,1.253v4.375a1.253,1.253,0,0,1-1.253,1.252h-2.473v1.578h2.473a1.252,1.252,0,0,1,1.253,1.252v4.375a1.253,1.253,0,0,1-1.253,1.253h-2.473v2.8A1.253,1.253,0,0,1,501.9-56.223Zm-4.012-2.5h2.76v-2.8a1.252,1.252,0,0,1,1.252-1.252h2.475v-1.87H501.9a1.252,1.252,0,0,1-1.252-1.253v-4.081a1.252,1.252,0,0,1,1.252-1.253h2.475V-73.1H501.9a1.252,1.252,0,0,1-1.252-1.253v-9.435a1.253,1.253,0,0,1,.855-1.189,7.039,7.039,0,0,0,4.815-6.682,7.06,7.06,0,0,0-7.051-7.052,7.06,7.06,0,0,0-7.052,7.052,7.041,7.041,0,0,0,4.816,6.682,1.253,1.253,0,0,1,.856,1.189Z" transform="translate(-458.693 112.957)" fill="#5c22c3"/>
      <path id="Trazado_115627" data-name="Trazado 115627" d="M514.1-57.528H467.081a1.252,1.252,0,0,1-1.252-1.253,1.252,1.252,0,0,1,1.252-1.252H514.1a1.253,1.253,0,0,1,1.253,1.252A1.253,1.253,0,0,1,514.1-57.528Z" transform="translate(-464.856 123.589)" fill="#5c22c3"/>
      <path id="Trazado_115628" data-name="Trazado 115628" d="M490.6-75.325h-5.682a1.252,1.252,0,0,1-1.252-1.253,1.252,1.252,0,0,1,1.252-1.252H490.6a1.253,1.253,0,0,1,1.253,1.252A1.253,1.253,0,0,1,490.6-75.325Z" transform="translate(-460.251 118.995)" fill="#5c22c3"/>
      <path id="Trazado_115629" data-name="Trazado 115629" d="M491.193-79.853a1.241,1.241,0,0,1-.789-.282l-3.737-3.04a1.252,1.252,0,0,1-.181-1.761,1.253,1.253,0,0,1,1.763-.181l3.735,3.04a1.251,1.251,0,0,1,.181,1.761A1.246,1.246,0,0,1,491.193-79.853Z" transform="translate(-459.597 117.041)" fill="#5c22c3"/>
      <path id="Trazado_115630" data-name="Trazado 115630" d="M487.459-67.133a1.248,1.248,0,0,1-.973-.463,1.252,1.252,0,0,1,.181-1.761L490.4-72.4a1.251,1.251,0,0,1,1.761.182,1.251,1.251,0,0,1-.181,1.761l-3.735,3.04A1.25,1.25,0,0,1,487.459-67.133Z" transform="translate(-459.597 120.325)" fill="#5c22c3"/>
      <path id="Trazado_115631" data-name="Trazado 115631" d="M514.774-75.325h-5.681a1.253,1.253,0,0,1-1.253-1.253,1.253,1.253,0,0,1,1.253-1.252h5.681a1.253,1.253,0,0,1,1.253,1.252A1.253,1.253,0,0,1,514.774-75.325Z" transform="translate(-454.012 118.995)" fill="#5c22c3"/>
      <path id="Trazado_115632" data-name="Trazado 115632" d="M508.1-79.853a1.249,1.249,0,0,1-.973-.462,1.253,1.253,0,0,1,.181-1.763l3.735-3.04a1.252,1.252,0,0,1,1.761.18,1.253,1.253,0,0,1-.181,1.763l-3.735,3.04A1.241,1.241,0,0,1,508.1-79.853Z" transform="translate(-454.267 117.041)" fill="#5c22c3"/>
      <path id="Trazado_115633" data-name="Trazado 115633" d="M511.837-67.134a1.24,1.24,0,0,1-.789-.282l-3.735-3.038a1.251,1.251,0,0,1-.181-1.761,1.252,1.252,0,0,1,1.761-.181l3.735,3.038a1.251,1.251,0,0,1,.181,1.761A1.248,1.248,0,0,1,511.837-67.134Z" transform="translate(-454.267 120.325)" fill="#5c22c3"/>
    </g>
    <g id="Grupo_82252" data-name="Grupo 82252" transform="translate(927.566 1621.352)">
      <path id="Trazado_115651" data-name="Trazado 115651" d="M423.973-87.945a6.566,6.566,0,0,1-6.559-6.559,6.566,6.566,0,0,1,6.559-6.557,6.566,6.566,0,0,1,6.559,6.557A6.566,6.566,0,0,1,423.973-87.945Zm0-10.611a4.058,4.058,0,0,0-4.054,4.052,4.058,4.058,0,0,0,4.054,4.054,4.058,4.058,0,0,0,4.054-4.054A4.058,4.058,0,0,0,423.973-98.556Z" transform="translate(-391.4 111.32)" fill="#5c22c3"/>
      <path id="Trazado_115652" data-name="Trazado 115652" d="M427.168-81.274H414.276a1.252,1.252,0,0,1-1.252-1.252V-86.3a7.935,7.935,0,0,1,7.926-7.926,1.253,1.253,0,0,1,.981.474,4.03,4.03,0,0,0,3.174,1.54,4.031,4.031,0,0,0,3.174-1.54,1.253,1.253,0,0,1,.981-.474A7.887,7.887,0,0,1,435.5-91.2a1.253,1.253,0,0,1-.211,1.759,1.254,1.254,0,0,1-1.759-.211A5.4,5.4,0,0,0,429.8-91.7a6.514,6.514,0,0,1-4.7,1.988,6.518,6.518,0,0,1-4.7-1.987,5.428,5.428,0,0,0-4.879,5.394v2.523h11.639a1.252,1.252,0,0,1,1.252,1.253A1.251,1.251,0,0,1,427.168-81.274Z" transform="translate(-392.533 113.084)" fill="#5c22c3"/>
      <path id="Trazado_115653" data-name="Trazado 115653" d="M411.031-83.346H403.2a1.252,1.252,0,0,1-1.253-1.252,1.253,1.253,0,0,1,1.253-1.253h7.832a1.252,1.252,0,0,1,1.252,1.253A1.251,1.251,0,0,1,411.031-83.346Z" transform="translate(-395.392 115.246)" fill="#5c22c3"/>
      <path id="Trazado_115654" data-name="Trazado 115654" d="M411.031-89.091H403.2a1.252,1.252,0,0,1-1.253-1.252A1.253,1.253,0,0,1,403.2-91.6h7.832a1.252,1.252,0,0,1,1.252,1.253A1.251,1.251,0,0,1,411.031-89.091Z" transform="translate(-395.392 113.763)" fill="#5c22c3"/>
      <path id="Trazado_115655" data-name="Trazado 115655" d="M427-78.193H403.2a1.253,1.253,0,0,1-1.253-1.253A1.252,1.252,0,0,1,403.2-80.7H427a1.251,1.251,0,0,1,1.252,1.252A1.252,1.252,0,0,1,427-78.193Z" transform="translate(-395.392 116.576)" fill="#5c22c3"/>
      <path id="Trazado_115656" data-name="Trazado 115656" d="M431.082-73.592H403.36a1.251,1.251,0,0,1-1.252-1.252A1.252,1.252,0,0,1,403.36-76.1h27.722a1.252,1.252,0,0,1,1.252,1.253A1.251,1.251,0,0,1,431.082-73.592Z" transform="translate(-395.351 117.764)" fill="#5c22c3"/>
      <path id="Trazado_115657" data-name="Trazado 115657" d="M435.714-68.99H403.522a1.252,1.252,0,0,1-1.252-1.253,1.251,1.251,0,0,1,1.252-1.252h32.192a1.252,1.252,0,0,1,1.252,1.252A1.253,1.253,0,0,1,435.714-68.99Z" transform="translate(-395.309 118.952)" fill="#5c22c3"/>
      <path id="Trazado_115658" data-name="Trazado 115658" d="M432.827-62.4H419.819a1.252,1.252,0,0,1-1.253-1.252,1.253,1.253,0,0,1,1.253-1.253h13.008a1.253,1.253,0,0,1,1.253,1.253A1.252,1.252,0,0,1,432.827-62.4Z" transform="translate(-391.102 120.653)" fill="#5c22c3"/>
      <path id="Trazado_115659" data-name="Trazado 115659" d="M411.031-94.835H403.2a1.253,1.253,0,0,1-1.253-1.253A1.252,1.252,0,0,1,403.2-97.34h7.832a1.251,1.251,0,0,1,1.252,1.252A1.252,1.252,0,0,1,411.031-94.835Z" transform="translate(-395.392 112.28)" fill="#5c22c3"/>
      <path id="Trazado_115660" data-name="Trazado 115660" d="M446.319-42.465h-35.97a1.25,1.25,0,0,1-.886-.367L397.1-55.189a1.252,1.252,0,0,1-.367-.886V-104.23a1.253,1.253,0,0,1,1.253-1.252h48.329a1.252,1.252,0,0,1,1.252,1.252v12.384a1.252,1.252,0,0,1-1.252,1.253,1.253,1.253,0,0,1-1.253-1.253v-11.131H399.243v46.384L410.867-44.97h34.2V-60.743a1.252,1.252,0,0,1,1.253-1.252,1.251,1.251,0,0,1,1.252,1.252v17.026A1.251,1.251,0,0,1,446.319-42.465Z" transform="translate(-396.737 110.179)" fill="#5c22c3"/>
      <path id="Trazado_115661" data-name="Trazado 115661" d="M449.951-83.733a1.252,1.252,0,0,1-1.252-1.253V-106.71H402.876v3.444a1.252,1.252,0,0,1-1.252,1.253,1.253,1.253,0,0,1-1.253-1.253v-4.7a1.252,1.252,0,0,1,1.253-1.252h48.327a1.252,1.252,0,0,1,1.253,1.252v22.977A1.253,1.253,0,0,1,449.951-83.733Z" transform="translate(-395.799 109.215)" fill="#5c22c3"/>
      <path id="Trazado_115662" data-name="Trazado 115662" d="M440.974-55.152H436.4a1.253,1.253,0,0,1-1.253-1.253,1.252,1.252,0,0,1,1.253-1.252h3.319V-73.274a1.251,1.251,0,0,1,1.252-1.252,1.252,1.252,0,0,1,1.253,1.252v16.869A1.253,1.253,0,0,1,440.974-55.152Z" transform="translate(-386.821 118.169)" fill="#5c22c3"/>
      <path id="Trazado_115663" data-name="Trazado 115663" d="M410.349-52.345a1.249,1.249,0,0,1-.886-.367L397.1-65.069a1.252,1.252,0,0,1-.272-1.365,1.252,1.252,0,0,1,1.158-.772h12.359a1.251,1.251,0,0,1,1.252,1.252V-53.6a1.251,1.251,0,0,1-.773,1.156A1.23,1.23,0,0,1,410.349-52.345ZM401.015-64.7l8.081,8.081V-64.7Z" transform="translate(-396.737 120.059)" fill="#5c22c3"/>
      <path id="Trazado_115664" data-name="Trazado 115664" d="M435.907-69.692a9.888,9.888,0,0,1-9.876-9.876,9.887,9.887,0,0,1,9.876-9.876,9.888,9.888,0,0,1,9.876,9.876A9.888,9.888,0,0,1,435.907-69.692Zm0-17.248a7.379,7.379,0,0,0-7.371,7.371,7.38,7.38,0,0,0,7.371,7.371,7.38,7.38,0,0,0,7.371-7.371A7.379,7.379,0,0,0,435.907-86.94Z" transform="translate(-389.175 114.318)" fill="#5c22c3"/>
      <path id="Trazado_115665" data-name="Trazado 115665" d="M434.138-84.252a1.252,1.252,0,0,1-1.253-1.252v-5.219a1.253,1.253,0,0,1,1.253-1.253,1.252,1.252,0,0,1,1.252,1.253V-85.5A1.251,1.251,0,0,1,434.138-84.252Z" transform="translate(-387.406 113.665)" fill="#5c22c3"/>
      <path id="Trazado_115666" data-name="Trazado 115666" d="M444.594-80.086h-5.219a1.252,1.252,0,0,1-1.253-1.252,1.253,1.253,0,0,1,1.253-1.253h5.219a1.252,1.252,0,0,1,1.252,1.253A1.251,1.251,0,0,1,444.594-80.086Z" transform="translate(-386.054 116.088)" fill="#5c22c3"/>
      <path id="Trazado_115667" data-name="Trazado 115667" d="M434.345-69.63a1.252,1.252,0,0,1-1.252-1.252V-76.1a1.252,1.252,0,0,1,1.252-1.253A1.253,1.253,0,0,1,435.6-76.1v5.219A1.253,1.253,0,0,1,434.345-69.63Z" transform="translate(-387.352 117.439)" fill="#5c22c3"/>
      <path id="Trazado_115668" data-name="Trazado 115668" d="M430.18-80.086h-5.22a1.252,1.252,0,0,1-1.252-1.252,1.253,1.253,0,0,1,1.252-1.253h5.22a1.253,1.253,0,0,1,1.252,1.253A1.252,1.252,0,0,1,430.18-80.086Z" transform="translate(-389.775 116.088)" fill="#5c22c3"/>
    </g>
    <g id="Grupo_82253" data-name="Grupo 82253" transform="translate(610.566 1624.327)">
      <path id="Trazado_115607" data-name="Trazado 115607" d="M352.185-52.654a7.454,7.454,0,0,1-7.444-7.444,7.453,7.453,0,0,1,7.444-7.444A7.452,7.452,0,0,1,359.63-60.1,7.453,7.453,0,0,1,352.185-52.654Zm0-12.384a4.945,4.945,0,0,0-4.939,4.939,4.946,4.946,0,0,0,4.939,4.939,4.946,4.946,0,0,0,4.939-4.939A4.945,4.945,0,0,0,352.185-65.038Z" transform="translate(-320.649 117.959)" fill="#5c22c3"/>
      <path id="Trazado_115608" data-name="Trazado 115608" d="M357.836-55.411h-1.628a1.25,1.25,0,0,1-.957-.445,1.251,1.251,0,0,1-.277-1.019,4.938,4.938,0,0,0,.078-.844,4.924,4.924,0,0,0-1.818-3.827,1.254,1.254,0,0,1-.388-1.39,1.254,1.254,0,0,1,1.18-.832h1.381a1.717,1.717,0,0,0,1.516-.907,5.015,5.015,0,0,0-.1-4.913L355.3-72.138a3.048,3.048,0,0,1,.182-3.4,3.039,3.039,0,0,1,2.344-1.222,3.061,3.061,0,0,1,2.421,1.062l3.474,4.036a7.779,7.779,0,0,1,1.565,7.324L364-60.007A6.47,6.47,0,0,1,357.836-55.411Zm-.282-2.5h.282a3.95,3.95,0,0,0,3.763-2.806l1.29-4.329a5.279,5.279,0,0,0-1.063-4.973l-3.474-4.036a.548.548,0,0,0-.438-.192.543.543,0,0,0-.424.22.552.552,0,0,0-.033.615l1.515,2.548a7.534,7.534,0,0,1,.158,7.381,4.222,4.222,0,0,1-2.56,2.062A7.414,7.414,0,0,1,357.554-57.916Z" transform="translate(-318.575 115.58)" fill="#5c22c3"/>
      <path id="Trazado_115609" data-name="Trazado 115609" d="M347.743-55.411h-1.627a6.473,6.473,0,0,1-6.165-4.6l-1.29-4.328a7.776,7.776,0,0,1,1.566-7.324l3.472-4.036a3.053,3.053,0,0,1,2.422-1.062,3.042,3.042,0,0,1,2.343,1.222,3.048,3.048,0,0,1,.182,3.4l-2.1,3.527a2.994,2.994,0,0,0-.063,2.935,3.619,3.619,0,0,0,3.192,1.907h.244a1.254,1.254,0,0,1,1.18.832,1.252,1.252,0,0,1-.387,1.39A4.928,4.928,0,0,0,348.9-57.72a4.975,4.975,0,0,0,.079.844,1.256,1.256,0,0,1-.277,1.019A1.253,1.253,0,0,1,347.743-55.411Zm-6.681-9.64,1.29,4.329a3.952,3.952,0,0,0,3.764,2.806h.281a7.417,7.417,0,0,1,1.122-3.74,6.126,6.126,0,0,1-3.237-2.833,5.513,5.513,0,0,1,.116-5.4l2.1-3.525a.552.552,0,0,0-.033-.614.545.545,0,0,0-.424-.221.554.554,0,0,0-.438.192l-3.474,4.036a5.283,5.283,0,0,0-1.064,4.973Z" transform="translate(-322.303 115.58)" fill="#5c22c3"/>
      <path id="Trazado_115610" data-name="Trazado 115610" d="M344.311-52.959H327.887a2.273,2.273,0,0,1-1.768-.678,2.95,2.95,0,0,1-.471-2.436c.028-.283.06-.591.06-.916V-96.563a4.034,4.034,0,0,1,4.03-4.029h14.572a1.251,1.251,0,0,1,1.252,1.252,1.252,1.252,0,0,1-1.252,1.253H329.739a1.526,1.526,0,0,0-1.525,1.524v39.575a11.557,11.557,0,0,1-.073,1.165c-.011.111-.024.239-.033.36h16.2a1.251,1.251,0,0,1,1.252,1.252A1.252,1.252,0,0,1,344.311-52.959Z" transform="translate(-325.592 109.428)" fill="#5c22c3"/>
      <path id="Trazado_115611" data-name="Trazado 115611" d="M375.676-52.959H361.1a1.253,1.253,0,0,1-1.253-1.253,1.252,1.252,0,0,1,1.253-1.252h14.572a1.526,1.526,0,0,0,1.524-1.525V-96.563a1.525,1.525,0,0,0-1.524-1.524H361.1a1.253,1.253,0,0,1-1.253-1.253,1.252,1.252,0,0,1,1.253-1.252h14.572a4.032,4.032,0,0,1,4.029,4.029v39.575A4.034,4.034,0,0,1,375.676-52.959Z" transform="translate(-316.748 109.428)" fill="#5c22c3"/>
      <path id="Trazado_115612" data-name="Trazado 115612" d="M352.185-92.726a7.454,7.454,0,0,1-7.444-7.444,7.453,7.453,0,0,1,7.444-7.444,7.452,7.452,0,0,1,7.444,7.444A7.453,7.453,0,0,1,352.185-92.726Zm0-12.384a4.945,4.945,0,0,0-4.939,4.939,4.946,4.946,0,0,0,4.939,4.939,4.946,4.946,0,0,0,4.939-4.939A4.945,4.945,0,0,0,352.185-105.11Z" transform="translate(-320.649 107.615)" fill="#5c22c3"/>
      <path id="Trazado_115613" data-name="Trazado 115613" d="M346.017-82.186a3.044,3.044,0,0,1-2.315-1.063l-3.475-4.037a7.779,7.779,0,0,1-1.565-7.324l1.29-4.328a6.473,6.473,0,0,1,6.165-4.6h1.627a1.257,1.257,0,0,1,.959.445,1.257,1.257,0,0,1,.277,1.019,4.977,4.977,0,0,0-.079.845,4.925,4.925,0,0,0,1.818,3.826,1.253,1.253,0,0,1,.387,1.39,1.252,1.252,0,0,1-1.18.832h-1.38a1.719,1.719,0,0,0-1.517.907,5.012,5.012,0,0,0,.106,4.913l1.515,2.549a3.048,3.048,0,0,1-.181,3.4,3.045,3.045,0,0,1-2.345,1.222Zm.1-18.843a3.952,3.952,0,0,0-3.764,2.806l-1.29,4.329a5.283,5.283,0,0,0,1.063,4.973l3.475,4.037a.524.524,0,0,0,.438.191.539.539,0,0,0,.423-.22.552.552,0,0,0,.034-.615l-1.516-2.548a7.531,7.531,0,0,1-.157-7.38,4.219,4.219,0,0,1,2.559-2.062,7.433,7.433,0,0,1-.984-3.511Z" transform="translate(-322.303 108.668)" fill="#5c22c3"/>
      <path id="Trazado_115614" data-name="Trazado 115614" d="M357.934-82.186l-.1,0a3.044,3.044,0,0,1-2.345-1.22,3.052,3.052,0,0,1-.182-3.4l2.1-3.527a2.991,2.991,0,0,0,.064-2.934,3.619,3.619,0,0,0-3.193-1.909h-.244a1.253,1.253,0,0,1-1.18-.832,1.255,1.255,0,0,1,.388-1.39,4.921,4.921,0,0,0,1.818-3.826,4.94,4.94,0,0,0-.078-.845,1.252,1.252,0,0,1,.277-1.019,1.254,1.254,0,0,1,.957-.445h1.628a6.47,6.47,0,0,1,6.164,4.6l1.29,4.328a7.778,7.778,0,0,1-1.565,7.324l-3.474,4.037A3.048,3.048,0,0,1,357.934-82.186Zm-1.5-15.1a6.123,6.123,0,0,1,3.237,2.835,5.511,5.511,0,0,1-.116,5.4l-2.1,3.525a.552.552,0,0,0,.033.615.539.539,0,0,0,.424.22.531.531,0,0,0,.438-.191l3.474-4.037a5.279,5.279,0,0,0,1.063-4.973l-1.29-4.329a3.95,3.95,0,0,0-3.763-2.806h-.282A7.4,7.4,0,0,1,356.432-97.289Z" transform="translate(-318.575 108.668)" fill="#5c22c3"/>
      <path id="Trazado_115615" data-name="Trazado 115615" d="M358.809-80.011h-13.19a1.252,1.252,0,0,1-1.253-1.252v-5.78a1.254,1.254,0,0,1,.449-.961.522.522,0,0,0,.089-.093.554.554,0,0,0,.034-.616l-.35-.588a1.252,1.252,0,0,1-.013-1.259,1.254,1.254,0,0,1,1.09-.633h13.144a1.253,1.253,0,0,1,1.253,1.253v.151a1.261,1.261,0,0,1-.176.64l-.259.437a.547.547,0,0,0,.013.584l.073.073a1.256,1.256,0,0,1,.35.868v5.925A1.252,1.252,0,0,1,358.809-80.011Zm-11.937-2.5h10.685v-4.219a3.044,3.044,0,0,1-.5-1.954h-9.542a3.045,3.045,0,0,1-.6,2.092C346.872-86.545,346.872-82.516,346.872-82.516Z" transform="translate(-320.746 111.854)" fill="#5c22c3"/>
      <path id="Trazado_115616" data-name="Trazado 115616" d="M332.693-63.908a1.252,1.252,0,0,1-1.252-1.253V-92.119a1.252,1.252,0,0,1,1.252-1.253,1.253,1.253,0,0,1,1.253,1.253v26.958A1.253,1.253,0,0,1,332.693-63.908Z" transform="translate(-324.082 111.292)" fill="#5c22c3"/>
      <path id="Trazado_115617" data-name="Trazado 115617" d="M338.722-72.441a1.252,1.252,0,0,1-1.253-1.252v-12.8a1.252,1.252,0,0,1,1.253-1.252,1.251,1.251,0,0,1,1.252,1.252v12.8A1.251,1.251,0,0,1,338.722-72.441Z" transform="translate(-322.526 112.744)" fill="#5c22c3"/>
      <path id="Trazado_115618" data-name="Trazado 115618" d="M369.043-63.908a1.253,1.253,0,0,1-1.253-1.253V-92.119a1.253,1.253,0,0,1,1.253-1.253,1.252,1.252,0,0,1,1.252,1.253v26.958A1.252,1.252,0,0,1,369.043-63.908Z" transform="translate(-314.699 111.292)" fill="#5c22c3"/>
      <path id="Trazado_115619" data-name="Trazado 115619" d="M363.014-72.441a1.251,1.251,0,0,1-1.252-1.252v-12.8a1.251,1.251,0,0,1,1.252-1.252,1.252,1.252,0,0,1,1.253,1.252v12.8A1.252,1.252,0,0,1,363.014-72.441Z" transform="translate(-316.255 112.744)" fill="#5c22c3"/>
    </g>
    <g id="Grupo_82254" data-name="Grupo 82254" transform="translate(293.566 1608.36)">
      <path id="Trazado_115634" data-name="Trazado 115634" d="M280.78-67.657a6.259,6.259,0,0,1-6.253-6.253,6.26,6.26,0,0,1,6.253-6.253,6.261,6.261,0,0,1,6.253,6.253A6.26,6.26,0,0,1,280.78-67.657Zm0-10a3.752,3.752,0,0,0-3.748,3.748,3.752,3.752,0,0,0,3.748,3.748,3.752,3.752,0,0,0,3.748-3.748A3.753,3.753,0,0,0,280.78-77.658Z" transform="translate(-225.988 129.009)" fill="#5c22c3"/>
      <path id="Trazado_115635" data-name="Trazado 115635" d="M292.054-64.928a1.253,1.253,0,0,1-1.253-1.253,5.042,5.042,0,0,0-4.5-5.007,6.219,6.219,0,0,1-4.455,1.868,6.217,6.217,0,0,1-4.455-1.868,5.044,5.044,0,0,0-4.5,5.007,1.252,1.252,0,0,1-1.252,1.253,1.253,1.253,0,0,1-1.253-1.253,7.55,7.55,0,0,1,7.543-7.541,1.253,1.253,0,0,1,.981.474,3.727,3.727,0,0,0,2.935,1.423,3.732,3.732,0,0,0,2.935-1.423,1.253,1.253,0,0,1,.981-.474,7.55,7.55,0,0,1,7.541,7.541A1.252,1.252,0,0,1,292.054-64.928Z" transform="translate(-227.056 130.671)" fill="#5c22c3"/>
      <path id="Trazado_115636" data-name="Trazado 115636" d="M264.556-67.657A6.26,6.26,0,0,1,258.3-73.91a6.261,6.261,0,0,1,6.254-6.253,6.26,6.26,0,0,1,6.252,6.253A6.259,6.259,0,0,1,264.556-67.657Zm0-10a3.752,3.752,0,0,0-3.748,3.748,3.752,3.752,0,0,0,3.748,3.748A3.751,3.751,0,0,0,268.3-73.91,3.752,3.752,0,0,0,264.556-77.658Z" transform="translate(-230.176 129.009)" fill="#5c22c3"/>
      <path id="Trazado_115637" data-name="Trazado 115637" d="M275.83-64.928a1.253,1.253,0,0,1-1.253-1.253,5.042,5.042,0,0,0-4.5-5.007,6.214,6.214,0,0,1-4.454,1.868,6.215,6.215,0,0,1-4.455-1.868,5.044,5.044,0,0,0-4.5,5.007,1.253,1.253,0,0,1-1.253,1.253,1.252,1.252,0,0,1-1.252-1.253,7.55,7.55,0,0,1,7.541-7.541,1.253,1.253,0,0,1,.981.474,3.729,3.729,0,0,0,2.937,1.423,3.732,3.732,0,0,0,2.935-1.423,1.253,1.253,0,0,1,.981-.474,7.55,7.55,0,0,1,7.541,7.541A1.252,1.252,0,0,1,275.83-64.928Z" transform="translate(-231.244 130.671)" fill="#5c22c3"/>
      <path id="Trazado_115638" data-name="Trazado 115638" d="M264.671-105.361a6.82,6.82,0,0,1-6.813-6.813,6.82,6.82,0,0,1,6.813-6.813,6.82,6.82,0,0,1,6.812,6.813A6.82,6.82,0,0,1,264.671-105.361Zm0-11.121a4.313,4.313,0,0,0-4.308,4.308,4.312,4.312,0,0,0,4.308,4.307,4.311,4.311,0,0,0,4.307-4.307A4.312,4.312,0,0,0,264.671-116.482Z" transform="translate(-230.291 118.987)" fill="#5c22c3"/>
      <path id="Trazado_115639" data-name="Trazado 115639" d="M277.206-97.857h-22.7a1.253,1.253,0,0,1-1.253-1.253v-3.452a8.209,8.209,0,0,1,4.548-7.371,1.254,1.254,0,0,1,1.681.557,1.253,1.253,0,0,1-.556,1.682,5.713,5.713,0,0,0-3.167,5.132v2.2h20.191v-2.2a5.73,5.73,0,0,0-3.09-5.093,1.253,1.253,0,0,1-.531-1.69,1.252,1.252,0,0,1,1.69-.531,8.225,8.225,0,0,1,4.436,7.314v3.452A1.253,1.253,0,0,1,277.206-97.857Z" transform="translate(-231.479 121.29)" fill="#5c22c3"/>
      <path id="Trazado_115640" data-name="Trazado 115640" d="M272.668-79.1a6.26,6.26,0,0,1-6.253-6.254,6.259,6.259,0,0,1,6.253-6.252,6.26,6.26,0,0,1,6.253,6.252A6.261,6.261,0,0,1,272.668-79.1Zm0-10a3.751,3.751,0,0,0-3.748,3.747,3.753,3.753,0,0,0,3.748,3.749,3.754,3.754,0,0,0,3.748-3.749A3.752,3.752,0,0,0,272.668-89.1Z" transform="translate(-228.082 126.056)" fill="#5c22c3"/>
      <path id="Trazado_115641" data-name="Trazado 115641" d="M283.942-76.368a1.252,1.252,0,0,1-1.253-1.252,5.044,5.044,0,0,0-4.5-5.009,6.21,6.21,0,0,1-4.454,1.87,6.213,6.213,0,0,1-4.455-1.87,5.045,5.045,0,0,0-4.5,5.009,1.251,1.251,0,0,1-1.252,1.252,1.252,1.252,0,0,1-1.253-1.252,7.55,7.55,0,0,1,7.541-7.543,1.253,1.253,0,0,1,.981.474,3.732,3.732,0,0,0,2.937,1.424,3.73,3.73,0,0,0,2.935-1.424,1.253,1.253,0,0,1,.981-.474,7.55,7.55,0,0,1,7.541,7.543A1.251,1.251,0,0,1,283.942-76.368Z" transform="translate(-229.15 127.718)" fill="#5c22c3"/>
      <path id="Trazado_115642" data-name="Trazado 115642" d="M256.443-79.1a6.26,6.26,0,0,1-6.252-6.254,6.259,6.259,0,0,1,6.252-6.252A6.26,6.26,0,0,1,262.7-85.35,6.261,6.261,0,0,1,256.443-79.1Zm0-10A3.751,3.751,0,0,0,252.7-85.35a3.752,3.752,0,0,0,3.747,3.749,3.753,3.753,0,0,0,3.748-3.749A3.751,3.751,0,0,0,256.443-89.1Z" transform="translate(-232.27 126.056)" fill="#5c22c3"/>
      <path id="Trazado_115643" data-name="Trazado 115643" d="M267.718-76.368a1.252,1.252,0,0,1-1.253-1.252,5.045,5.045,0,0,0-4.5-5.009,6.211,6.211,0,0,1-4.455,1.87,6.21,6.21,0,0,1-4.454-1.87,5.044,5.044,0,0,0-4.5,5.009,1.252,1.252,0,0,1-1.253,1.252,1.251,1.251,0,0,1-1.252-1.252,7.55,7.55,0,0,1,7.541-7.543,1.253,1.253,0,0,1,.981.474,3.73,3.73,0,0,0,2.935,1.424,3.73,3.73,0,0,0,2.936-1.424,1.253,1.253,0,0,1,.981-.474,7.55,7.55,0,0,1,7.541,7.543A1.251,1.251,0,0,1,267.718-76.368Z" transform="translate(-233.338 127.718)" fill="#5c22c3"/>
      <path id="Trazado_115644" data-name="Trazado 115644" d="M248.331-67.657a6.26,6.26,0,0,1-6.253-6.253,6.261,6.261,0,0,1,6.253-6.253,6.261,6.261,0,0,1,6.254,6.253A6.26,6.26,0,0,1,248.331-67.657Zm0-10a3.753,3.753,0,0,0-3.748,3.748,3.752,3.752,0,0,0,3.748,3.748,3.753,3.753,0,0,0,3.749-3.748A3.754,3.754,0,0,0,248.331-77.658Z" transform="translate(-234.364 129.009)" fill="#5c22c3"/>
      <path id="Trazado_115645" data-name="Trazado 115645" d="M259.6-64.928a1.252,1.252,0,0,1-1.252-1.253,5.043,5.043,0,0,0-4.5-5.007A6.217,6.217,0,0,1,249.4-69.32a6.214,6.214,0,0,1-4.454-1.868,5.043,5.043,0,0,0-4.5,5.007,1.253,1.253,0,0,1-1.253,1.253,1.252,1.252,0,0,1-1.252-1.253,7.55,7.55,0,0,1,7.541-7.541,1.253,1.253,0,0,1,.981.474,3.729,3.729,0,0,0,2.935,1.423,3.735,3.735,0,0,0,2.936-1.423,1.253,1.253,0,0,1,.981-.474,7.55,7.55,0,0,1,7.541,7.541A1.253,1.253,0,0,1,259.6-64.928Z" transform="translate(-235.432 130.671)" fill="#5c22c3"/>
      <path id="Trazado_115646" data-name="Trazado 115646" d="M289.185-83.635a1.252,1.252,0,0,1-1.253-1.252v-10.28h-40.07v10.28a1.251,1.251,0,0,1-1.252,1.252,1.252,1.252,0,0,1-1.253-1.252V-96.42a1.252,1.252,0,0,1,1.253-1.252h42.575a1.251,1.251,0,0,1,1.252,1.252v11.533A1.251,1.251,0,0,1,289.185-83.635Z" transform="translate(-233.518 124.489)" fill="#5c22c3"/>
      <path id="Trazado_115647" data-name="Trazado 115647" d="M290.592-93.959h-44.66a1.991,1.991,0,0,1-1.988-1.989v-4.417a1.99,1.99,0,0,1,1.988-1.988h44.66a1.99,1.99,0,0,1,1.988,1.988v4.417A1.991,1.991,0,0,1,290.592-93.959Zm-44.143-2.5h43.626v-3.384H246.449Z" transform="translate(-233.883 123.281)" fill="#5c22c3"/>
      <path id="Trazado_115648" data-name="Trazado 115648" d="M258.921-99.175a1.252,1.252,0,0,1-1.252-1.253v-3.281a1.252,1.252,0,0,1,1.252-1.253,1.253,1.253,0,0,1,1.253,1.253v3.281A1.253,1.253,0,0,1,258.921-99.175Z" transform="translate(-230.34 122.607)" fill="#5c22c3"/>
      <path id="Trazado_115649" data-name="Trazado 115649" d="M268.138-99.175a1.253,1.253,0,0,1-1.253-1.253v-3.281a1.253,1.253,0,0,1,1.253-1.253,1.252,1.252,0,0,1,1.252,1.253v3.281A1.252,1.252,0,0,1,268.138-99.175Z" transform="translate(-227.961 122.607)" fill="#5c22c3"/>
      <path id="Trazado_115650" data-name="Trazado 115650" d="M303.452-66.218H237.2a1.253,1.253,0,0,1-1.253-1.253,1.252,1.252,0,0,1,1.253-1.252h66.252a1.252,1.252,0,0,1,1.253,1.252A1.253,1.253,0,0,1,303.452-66.218Z" transform="translate(-235.947 131.962)" fill="#5c22c3"/>
    </g>
  </g>
</svg>
